<svg id="Layer_1" data-name="Layer 1" xmlns="http://www.w3.org/2000/svg" viewBox="0 0 1871 355"><title>aver-age</title><path d="M120.17,206.46H76.39V193.6l46.06-62.33h23.11v57.61H163.3v17.58H145.56v22.46H120.17Zm0-17.58V160.4L99.34,188.88Z" fill="#002592"/><path d="M176.49,179.77c0-32.55,18.22-51.76,42.8-51.76,24.41,0,42.8,19.21,42.8,51.76,0,32.71-18.39,51.92-42.8,51.92C194.71,231.69,176.49,212.48,176.49,179.77Zm59.07,0c0-23-5.69-32.06-16.27-32.06-10.74,0-16.28,9.11-16.28,32.06,0,23.11,5.7,32.22,16.28,32.22S235.56,202.88,235.56,179.77Z" fill="#002592"/><path d="M275.93,228.92V204.51h24.41v24.41Z" fill="#002592"/><path d="M350,128c16.93,0,39.22,8,39.22,46.23,0,35.31-16.43,57.12-45.4,57.12-11.88,0-21.81-4.23-25.39-6.67V206.3c6.18,3.74,14.81,6.51,22,6.51,12.69,0,22.46-5.54,23.11-26.37-3.09,4.23-12,8.63-20.51,8.63-18.23,0-30.59-13.19-30.59-32.71C312.39,141.85,328.5,128,350,128Zm14,34.51c0-10.91-5.37-17.74-13.19-17.74-8.3,0-13,7.48-13,16.6,0,9.44,4.4,16.6,12.54,16.6C356.65,178,364,174.07,364,162.52Z" fill="#002592"/><path d="M197.9,291.69h-3.28l4.18-9.49-6.52-14.62h3.24l4.9,11.56,4.86-11.56h3.24Z" fill="#404040"/><path d="M224.72,274.82h-11c-.27,2.47.76,6.12,5.8,6.12a8,8,0,0,0,5.18-2.16v2.61c-1.31,1.35-3.87,2.11-6.12,2.11-4.95,0-8.1-3.5-8.1-8.27,0-5,3.47-8.24,7.65-8.24,4,0,6.84,2.88,6.84,6.17A6.78,6.78,0,0,1,224.72,274.82Zm-6.57-5.44a4.19,4.19,0,0,0-4.18,3.28h7.74a1.9,1.9,0,0,0,0-.36C221.75,270.82,220.54,269.38,218.15,269.38Z" fill="#404040"/><path d="M242.81,282.92l-.18-2.43a7.27,7.27,0,0,1-5.94,3c-4.09,0-7.46-3.37-7.46-8.27s3.37-8.24,7.46-8.24a7.38,7.38,0,0,1,5.94,3l.18-2.43h2.93v15.34Zm-10.3-7.65c0,3.78,2.47,5.72,5,5.72,2.29,0,5.17-1.71,5.17-5.72s-2.88-5.76-5.17-5.76C235,269.51,232.51,271.49,232.51,275.27Z" fill="#404040"/><path d="M254.69,274v8.91h-3.28V267.58h2.92l.23,2.65a7.23,7.23,0,0,1,6-3.24v3.33C257.62,269.78,254.69,271.45,254.69,274Z" fill="#404040"/><path d="M269,283.5a11.49,11.49,0,0,1-5.85-1.71l.63-2.47a10.33,10.33,0,0,0,5.27,1.76c1.8,0,2.92-.72,2.92-2.21,0-1.12-.85-1.89-3.37-2.47-3.38-.82-4.73-2.61-4.73-4.73,0-2.43,1.58-4.68,5.49-4.68a10.38,10.38,0,0,1,4.91,1.44l-.59,2.3a8.78,8.78,0,0,0-4.32-1.4c-1.89,0-2.61.81-2.61,1.94s1,1.75,2.84,2.2c3.64.86,5.26,2.61,5.26,5C274.85,281.48,272.74,283.5,269,283.5Z" fill="#404040"/><path d="M178.71,49.79h6.51c8.16,0,11.69,4.72,11.69,10.5s-3.53,10.5-11.69,10.5h-6.51Zm6.55,18.55c6.82,0,8.75-3.85,8.75-8.05s-1.93-8-8.75-8h-3.75v16.1Z" fill="#404040"/><path d="M200.66,49.79h12.7v2.34h-9.9v6.41h8.15v2.34h-8.15v7.57h9.9v2.34h-12.7Z" fill="#404040"/><path d="M217.46,49.79h1.61l12.49,15.65V49.79h2.56v21h-1.61L220,55.14V70.79h-2.55Z" fill="#404040"/><path d="M238.88,49.79h2.73l8.12,17.43,8.12-17.43h2.59v21h-2.7V56.47c0-.52.07-1.71.07-1.75s-.52,1.26-.73,1.75l-6.55,14.32h-1.89L242.1,56.47c-.25-.49-.7-1.64-.74-1.75s.07,1.23.07,1.75V70.79h-2.55Z" fill="#404040"/><path d="M272.2,49.79H274l9,21h-2.87l-2.52-5.88h-9.24l-2.52,5.88h-2.73Zm4.51,12.84L273,54l-3.68,8.64Z" fill="#404040"/><path d="M285.78,49.79h6.93c4.79,0,6.86,2.76,6.86,6.16a5.61,5.61,0,0,1-4.34,5.84l6.37,9h-3.26l-6-8.68h-3.74v8.68h-2.8Zm6.93,10c3.15,0,4.09-1.88,4.09-3.81s-.94-3.82-4.09-3.82h-4.13v7.63Z" fill="#404040"/><path d="M304.05,49.79h2.8v9.94l9.73-9.94h3.22l-10,10,11.38,11h-3.71L306.85,60.46V70.79h-2.8Z" fill="#404040"/><path d="M599.31,206.46H555.53V193.6l46.06-62.33H624.7v57.61h17.74v17.58H624.7v22.46H599.31Zm0-17.58V160.4l-20.83,28.48Z" fill="#002592"/><path d="M652.21,216.06l22.95-23.92c9.27-9.77,17.57-18.56,17.57-29.78,0-9.93-7.32-13.51-13.83-13.51-7.49,0-15.46,3.09-24.25,10.41V138.43c6-4.88,19.86-10.09,30.43-10.09,19,0,34.34,11.39,34.34,29.95,0,16.92-10.41,28.31-20.18,36.94l-15.62,13.83h37.92v19.86H652.21Z" fill="#002592"/><path d="M738,228.92V204.51h24.41v24.41Z" fill="#002592"/><path d="M819.19,231.69c-16.92,0-39.22-8-39.22-46.22,0-35.32,16.44-57.13,45.41-57.13,11.88,0,21.8,4.23,25.38,6.67V153.4c-6.18-3.74-14.81-6.51-22-6.51-12.69,0-22.46,5.54-23.11,26.37,3.09-4.23,12.05-8.63,20.51-8.63,18.23,0,30.6,13.19,30.6,32.72C856.79,217.85,840.67,231.69,819.19,231.69Zm-14-34.51c0,10.91,5.38,17.74,13.19,17.74,8.3,0,13-7.48,13-16.6,0-9.44-4.4-16.6-12.53-16.6C812.52,181.72,805.19,185.63,805.19,197.18Z" fill="#002592"/><path d="M670.94,291.69h-3.28l4.18-9.49-6.52-14.62h3.24l4.9,11.56,4.86-11.56h3.24Z" fill="#404040"/><path d="M697.76,274.82h-11c-.27,2.47.76,6.12,5.8,6.12a8,8,0,0,0,5.18-2.16v2.61c-1.31,1.35-3.87,2.11-6.12,2.11-5,0-8.1-3.5-8.1-8.27,0-5,3.46-8.24,7.65-8.24,4,0,6.84,2.88,6.84,6.17A6.78,6.78,0,0,1,697.76,274.82Zm-6.57-5.44a4.18,4.18,0,0,0-4.18,3.28h7.74a1.9,1.9,0,0,0,0-.36C694.79,270.82,693.58,269.38,691.19,269.38Z" fill="#404040"/><path d="M715.85,282.92l-.18-2.43a7.27,7.27,0,0,1-5.94,3c-4.09,0-7.47-3.37-7.47-8.27s3.38-8.24,7.47-8.24a7.38,7.38,0,0,1,5.94,3l.18-2.43h2.93v15.34Zm-10.3-7.65c0,3.78,2.47,5.72,5,5.72,2.29,0,5.17-1.71,5.17-5.72s-2.88-5.76-5.17-5.76C708,269.51,705.55,271.49,705.55,275.27Z" fill="#404040"/><path d="M727.73,274v8.91h-3.28V267.58h2.92l.23,2.65a7.23,7.23,0,0,1,6-3.24v3.33C730.66,269.78,727.73,271.45,727.73,274Z" fill="#404040"/><path d="M742,283.5a11.4,11.4,0,0,1-5.85-1.71l.63-2.47a10.29,10.29,0,0,0,5.26,1.76c1.8,0,2.93-.72,2.93-2.21,0-1.12-.86-1.89-3.38-2.47-3.37-.82-4.72-2.61-4.72-4.73,0-2.43,1.57-4.68,5.49-4.68a10.28,10.28,0,0,1,4.9,1.44l-.58,2.3a8.78,8.78,0,0,0-4.32-1.4c-1.89,0-2.61.81-2.61,1.94s1,1.75,2.83,2.2c3.65.86,5.27,2.61,5.27,5C747.89,281.48,745.77,283.5,742,283.5Z" fill="#404040"/><path d="M652.79,49.79H665.5v2.34h-9.91v6.41h8.16v2.34h-8.16v9.91h-2.8Z" fill="#404040"/><path d="M668.33,49.79h2.8v21h-2.8Z" fill="#404040"/><path d="M675.89,49.79h1.61L690,65.44V49.79h2.55v21h-1.61L678.45,55.14V70.79h-2.56Z" fill="#404040"/><path d="M697.31,49.79h2.8V68.45H710v2.34H697.31Z" fill="#404040"/><path d="M719.85,49.79h1.82l9,21h-2.87l-2.52-5.88h-9.24l-2.52,5.88h-2.73Zm4.52,12.84L720.69,54,717,62.63Z" fill="#404040"/><path d="M733.43,49.79H735l12.5,15.65V49.79h2.55v21h-1.61L736,55.14V70.79h-2.55Z" fill="#404040"/><path d="M754.85,49.79h6.51c8.16,0,11.69,4.72,11.69,10.5s-3.53,10.5-11.69,10.5h-6.51Zm6.55,18.55c6.82,0,8.75-3.85,8.75-8.05s-1.93-8-8.75-8h-3.75v16.1Z" fill="#404040"/><path d="M1039.64,221.27v-20c7.81,7.49,17.41,11.88,27.18,11.88,10.74,0,18.06-5.86,18.06-15.78,0-8.95-5.53-13.84-14.32-13.84-5.53,0-9.11,2.77-11.72,4.72l-10.25-11.88,26.69-25.23H1040V131.27h68.69V143l-25.72,24.25c15.3,1.79,27.34,12.37,27.34,30.59,0,21.33-17.9,33.86-38.89,33.86C1058.19,231.69,1046.31,227.29,1039.64,221.27Z" fill="#002592"/><path d="M1162,128c16.92,0,39.22,8,39.22,46.23,0,35.31-16.44,57.12-45.41,57.12-11.88,0-21.81-4.23-25.39-6.67V206.3c6.19,3.74,14.81,6.51,22,6.51,12.7,0,22.46-5.54,23.12-26.37-3.1,4.23-12,8.63-20.51,8.63-18.23,0-30.6-13.19-30.6-32.71C1124.43,141.85,1140.54,128,1162,128Zm14,34.51c0-10.91-5.37-17.74-13.18-17.74-8.3,0-13,7.48-13,16.6,0,9.44,4.39,16.6,12.53,16.6C1168.7,178,1176,174.07,1176,162.52Z" fill="#002592"/><path d="M1213.78,228.92V204.51h24.42v24.41Z" fill="#002592"/><path d="M1252,216.06l23-23.92c9.27-9.77,17.57-18.56,17.57-29.78,0-9.93-7.32-13.51-13.83-13.51-7.49,0-15.46,3.09-24.25,10.41V138.43c6-4.88,19.86-10.09,30.43-10.09,19,0,34.34,11.39,34.34,29.95,0,16.92-10.41,28.31-20.18,36.94l-15.62,13.83h37.92v19.86H1252Z" fill="#002592"/><path d="M1144,291.69h-3.29l4.19-9.49-6.53-14.62h3.24l4.91,11.56,4.86-11.56h3.24Z" fill="#404040"/><path d="M1170.8,274.82h-11c-.27,2.47.77,6.12,5.81,6.12a8,8,0,0,0,5.17-2.16v2.61c-1.3,1.35-3.87,2.11-6.12,2.11-5,0-8.1-3.5-8.1-8.27,0-5,3.47-8.24,7.65-8.24,4,0,6.84,2.88,6.84,6.17A7.28,7.28,0,0,1,1170.8,274.82Zm-6.57-5.44a4.19,4.19,0,0,0-4.19,3.28h7.74a1.54,1.54,0,0,0,0-.36C1167.83,270.82,1166.61,269.38,1164.23,269.38Z" fill="#404040"/><path d="M1188.89,282.92l-.18-2.43a7.29,7.29,0,0,1-5.94,3c-4.1,0-7.47-3.37-7.47-8.27s3.37-8.24,7.47-8.24a7.39,7.39,0,0,1,5.94,3l.18-2.43h2.92v15.34Zm-10.31-7.65c0,3.78,2.48,5.72,5,5.72,2.3,0,5.18-1.71,5.18-5.72s-2.88-5.76-5.18-5.76C1181.06,269.51,1178.58,271.49,1178.58,275.27Z" fill="#404040"/><path d="M1200.77,274v8.91h-3.29V267.58h2.93l.22,2.65a7.27,7.27,0,0,1,6-3.24v3.33C1203.69,269.78,1200.77,271.45,1200.77,274Z" fill="#404040"/><path d="M1215.08,283.5a11.4,11.4,0,0,1-5.85-1.71l.63-2.47a10.29,10.29,0,0,0,5.26,1.76c1.8,0,2.93-.72,2.93-2.21,0-1.12-.86-1.89-3.38-2.47-3.37-.82-4.72-2.61-4.72-4.73,0-2.43,1.57-4.68,5.49-4.68a10.28,10.28,0,0,1,4.9,1.44l-.58,2.3a8.78,8.78,0,0,0-4.32-1.4c-1.89,0-2.61.81-2.61,1.94s1,1.75,2.83,2.2c3.65.86,5.27,2.61,5.27,5C1220.93,281.48,1218.81,283.5,1215.08,283.5Z" fill="#404040"/><path d="M1120.89,49.79h1.61L1135,65.44V49.79h2.55v21h-1.61l-12.5-15.65V70.79h-2.55Z" fill="#404040"/><path d="M1141.29,60.29a11.15,11.15,0,0,1,22.3,0,11.15,11.15,0,0,1-22.3,0Zm19.4,0c0-5.11-3.44-8.75-8.23-8.75s-8.26,3.64-8.26,8.75,3.43,8.75,8.26,8.75S1160.69,65.37,1160.69,60.29Z" fill="#404040"/><path d="M1167.33,49.79h6.93c4.8,0,6.86,2.76,6.86,6.16a5.61,5.61,0,0,1-4.34,5.84l6.37,9h-3.25l-6-8.68h-3.75v8.68h-2.8Zm6.93,10c3.15,0,4.1-1.88,4.1-3.81s-.95-3.82-4.1-3.82h-4.13v7.63Z" fill="#404040"/><path d="M1183.22,49.79h2.87l5,15.51c.11.35.25,1.19.28,1.29a9.36,9.36,0,0,1,.35-1.29l5-15.51h1.75l5,15.51c.13.38.34,1.29.34,1.29a11.87,11.87,0,0,1,.28-1.29l5.05-15.51h2.73l-7.25,21h-1.75l-5-14.39c-.11-.28-.32-1-.35-1.15,0,.07-.25.87-.35,1.15l-5,14.39h-1.75Z" fill="#404040"/><path d="M1219.31,49.79h1.82l9,21h-2.87l-2.52-5.88h-9.24L1213,70.79h-2.73Zm4.51,12.84L1220.15,54l-3.68,8.64Z" fill="#404040"/><path d="M1235.2,62.39,1227,49.79h3l6.65,10.33,6.65-10.33h2.91L1238,62.39v8.4h-2.8Z" fill="#404040"/><path d="M1559.22,206.46h-43.78V193.6l46.06-62.33h23.11v57.61h17.74v17.58h-17.74v22.46h-25.39Zm0-17.58V160.4l-20.83,28.48Z" fill="#002592"/><path d="M1625,228.92v-79.1h-10.41V134.36l35.8-5.37v99.93Z" fill="#002592"/><path d="M1670.22,228.92V204.51h24.41v24.41Z" fill="#002592"/><path d="M1751.43,231.69c-16.93,0-39.22-8-39.22-46.22,0-35.32,16.43-57.13,45.4-57.13,11.89,0,21.81,4.23,25.39,6.67V153.4c-6.18-3.74-14.81-6.51-22-6.51-12.69,0-22.46,5.54-23.11,26.37,3.09-4.23,12-8.63,20.51-8.63,18.23,0,30.59,13.19,30.59,32.72C1789,217.85,1772.91,231.69,1751.43,231.69Zm-14-34.51c0,10.91,5.37,17.74,13.19,17.74,8.3,0,13-7.48,13-16.6,0-9.44-4.4-16.6-12.54-16.6C1744.76,181.72,1737.43,185.63,1737.43,197.18Z" fill="#002592"/><path d="M1617,291.69h-3.28l4.18-9.49-6.52-14.62h3.24l4.9,11.56,4.86-11.56h3.24Z" fill="#404040"/><path d="M1643.83,274.82h-11c-.27,2.47.76,6.12,5.8,6.12a8,8,0,0,0,5.18-2.16v2.61c-1.31,1.35-3.87,2.11-6.12,2.11-5,0-8.1-3.5-8.1-8.27,0-5,3.46-8.24,7.65-8.24,4,0,6.84,2.88,6.84,6.17A6.78,6.78,0,0,1,1643.83,274.82Zm-6.57-5.44a4.18,4.18,0,0,0-4.18,3.28h7.74a1.9,1.9,0,0,0,0-.36C1640.86,270.82,1639.65,269.38,1637.26,269.38Z" fill="#404040"/><path d="M1661.92,282.92l-.18-2.43a7.27,7.27,0,0,1-5.94,3c-4.09,0-7.47-3.37-7.47-8.27s3.38-8.24,7.47-8.24a7.38,7.38,0,0,1,5.94,3l.18-2.43h2.93v15.34Zm-10.3-7.65c0,3.78,2.47,5.72,5,5.72,2.29,0,5.17-1.71,5.17-5.72s-2.88-5.76-5.17-5.76C1654.09,269.51,1651.62,271.49,1651.62,275.27Z" fill="#404040"/><path d="M1673.8,274v8.91h-3.28V267.58h2.92l.23,2.65a7.23,7.23,0,0,1,6-3.24v3.33C1676.73,269.78,1673.8,271.45,1673.8,274Z" fill="#404040"/><path d="M1688.11,283.5a11.49,11.49,0,0,1-5.85-1.71l.63-2.47a10.33,10.33,0,0,0,5.27,1.76c1.8,0,2.92-.72,2.92-2.21,0-1.12-.85-1.89-3.37-2.47-3.38-.82-4.73-2.61-4.73-4.73,0-2.43,1.58-4.68,5.49-4.68a10.38,10.38,0,0,1,4.91,1.44l-.59,2.3a8.78,8.78,0,0,0-4.32-1.4c-1.89,0-2.61.81-2.61,1.94s1,1.75,2.84,2.2c3.64.86,5.26,2.61,5.26,5C1694,281.48,1691.85,283.5,1688.11,283.5Z" fill="#404040"/><path d="M1592.87,68.69l.63-2.59a8.54,8.54,0,0,0,6.37,2.87c2.48,0,4.41-1.4,4.41-3.67s-1-3.33-5-4.38-5.85-3.19-5.85-6.13,2.45-5.46,6.76-5.46a9.39,9.39,0,0,1,5.7,1.93l-.63,2.2a9.4,9.4,0,0,0-5.07-1.85c-2.63,0-4.13,1.22-4.13,3.18,0,1.51.94,2.77,4.23,3.64,4.52,1.19,6.58,3.15,6.58,6.62,0,4.1-3.43,6.2-7,6.2A9.82,9.82,0,0,1,1592.87,68.69Z" fill="#404040"/><path d="M1607.92,49.79h2.87l5,15.51c.1.35.24,1.19.28,1.29a9.36,9.36,0,0,1,.35-1.29l5-15.51h1.75l5,15.51c.14.38.35,1.29.35,1.29a9.81,9.81,0,0,1,.28-1.29l5-15.51h2.73l-7.25,21h-1.75l-5-14.39c-.1-.28-.31-1-.35-1.15,0,.07-.24.87-.35,1.15l-5,14.39h-1.75Z" fill="#404040"/><path d="M1639.28,49.79H1652v2.34h-9.9v6.41h8.15v2.34h-8.15v7.57h9.9v2.34h-12.7Z" fill="#404040"/><path d="M1656.08,49.79h6.51c8.15,0,11.69,4.72,11.69,10.5s-3.54,10.5-11.69,10.5h-6.51Zm6.54,18.55c6.83,0,8.75-3.85,8.75-8.05s-1.92-8-8.75-8h-3.74v16.1Z" fill="#404040"/><path d="M1678,49.79h12.71v2.34h-9.91v6.41H1689v2.34h-8.16v7.57h9.91v2.34H1678Z" fill="#404040"/><path d="M1694.82,49.79h1.61l12.5,15.65V49.79h2.55v21h-1.61l-12.49-15.65V70.79h-2.56Z" fill="#404040"/></svg>