<svg id="Layer_1" data-name="Layer 1" xmlns="http://www.w3.org/2000/svg" viewBox="0 0 1879 806"><title>HLY indicator</title><rect y="1" width="1879" height="806" fill="#fff"/><path d="M129.78,30h6.51C144.45,30,148,34.72,148,40.5S144.45,51,136.29,51h-6.51Zm6.54,18.55c6.83,0,8.75-3.85,8.75-8s-1.92-8-8.75-8h-3.74v16.1Z" fill="#404040"/><path d="M151.72,30h12.71v2.34h-9.91v6.41h8.16v2.34h-8.16v7.56h9.91V51H151.72Z" fill="#404040"/><path d="M168.52,30h1.61l12.5,15.64V30h2.55V51h-1.61L171.08,35.35V51h-2.56Z" fill="#404040"/><path d="M189.94,30h2.73l8.12,17.43L208.92,30h2.59V51h-2.7V36.68c0-.52.07-1.71.07-1.75s-.52,1.26-.74,1.75L201.6,51h-1.89l-6.55-14.32c-.24-.49-.7-1.64-.73-1.75s.07,1.23.07,1.75V51h-2.56Z" fill="#404040"/><path d="M223.26,30h1.82l9,21h-2.88l-2.52-5.88h-9.24L217,51h-2.73Zm4.52,12.84L224.1,34.2l-3.67,8.64Z" fill="#404040"/><path d="M236.84,30h6.93c4.8,0,6.86,2.76,6.86,6.16A5.61,5.61,0,0,1,246.29,42l6.37,9h-3.25l-6-8.68h-3.75V51h-2.8Zm6.93,10c3.15,0,4.1-1.89,4.1-3.81s-1-3.82-4.1-3.82h-4.13V40Z" fill="#404040"/><path d="M255.11,30h2.8v9.94L267.64,30h3.22l-10,10,11.37,11h-3.71L257.91,40.67V51h-2.8Z" fill="#404040"/><path d="M637.78,30h12.7v2.34h-9.9v6.41h8.15v2.34h-8.15V51h-2.8Z" fill="#404040"/><path d="M653.32,30h2.8V51h-2.8Z" fill="#404040"/><path d="M660.88,30h1.61L675,45.64V30h2.56V51h-1.61l-12.5-15.65V51h-2.55Z" fill="#404040"/><path d="M682.3,30h2.8V48.65H695V51H682.3Z" fill="#404040"/><path d="M704.84,30h1.82l9,21h-2.87l-2.52-5.88h-9.24L698.54,51h-2.73Zm4.51,12.84-3.67-8.64L702,42.84Z" fill="#404040"/><path d="M718.42,30H720l12.49,15.64V30h2.56V51h-1.61L721,35.35V51h-2.55Z" fill="#404040"/><path d="M739.84,30h6.51C754.5,30,758,34.72,758,40.5S754.5,51,746.35,51h-6.51Zm6.54,18.55c6.83,0,8.75-3.85,8.75-8s-1.92-8-8.75-8h-3.74v16.1Z" fill="#404040"/><path d="M1119.78,30h1.61l12.49,15.64V30h2.56V51h-1.61l-12.5-15.65V51h-2.55Z" fill="#404040"/><path d="M1140.18,40.5a11.15,11.15,0,0,1,22.3,0,11.15,11.15,0,0,1-22.3,0Zm19.4,0c0-5.11-3.44-8.75-8.23-8.75s-8.26,3.64-8.26,8.75,3.43,8.75,8.26,8.75S1159.58,45.57,1159.58,40.5Z" fill="#404040"/><path d="M1166.22,30h6.93c4.8,0,6.86,2.76,6.86,6.16a5.61,5.61,0,0,1-4.34,5.84l6.37,9h-3.25l-6-8.68H1169V51h-2.8Zm6.93,10c3.15,0,4.1-1.89,4.1-3.81s-1-3.82-4.1-3.82H1169V40Z" fill="#404040"/><path d="M1182.11,30H1185l5,15.5c.11.35.25,1.19.28,1.3a9.41,9.41,0,0,1,.35-1.3l5-15.5h1.76l5,15.5c.14.39.36,1.3.36,1.3a9.64,9.64,0,0,1,.27-1.3l5-15.5h2.73l-7.25,21h-1.75l-5-14.39c-.11-.28-.32-1-.35-1.15,0,.07-.25.87-.35,1.15l-5,14.39h-1.75Z" fill="#404040"/><path d="M1218.2,30H1220l9,21h-2.87l-2.52-5.88h-9.24L1211.9,51h-2.73Zm4.51,12.84L1219,34.2l-3.68,8.64Z" fill="#404040"/><path d="M1234.09,42.6,1225.86,30h3.05l6.65,10.32L1242.21,30h2.91l-8.23,12.6V51h-2.8Z" fill="#404040"/><path d="M1614.69,48.9l.63-2.59a8.58,8.58,0,0,0,6.37,2.87c2.49,0,4.41-1.4,4.41-3.68s-1-3.32-5-4.37-5.84-3.19-5.84-6.13,2.45-5.46,6.75-5.46a9.43,9.43,0,0,1,5.71,1.93l-.63,2.2a9.4,9.4,0,0,0-5.08-1.85c-2.62,0-4.13,1.22-4.13,3.18,0,1.51.95,2.77,4.24,3.64,4.51,1.19,6.58,3.15,6.58,6.62,0,4.09-3.43,6.2-7,6.2A9.84,9.84,0,0,1,1614.69,48.9Z" fill="#404040"/><path d="M1629.74,30h2.87l5,15.5c.11.35.25,1.19.28,1.3a9.41,9.41,0,0,1,.35-1.3l5-15.5H1645l5,15.5c.15.39.36,1.3.36,1.3a8.65,8.65,0,0,1,.28-1.3l5-15.5h2.73l-7.25,21h-1.75l-5-14.39c-.11-.28-.32-1-.35-1.15,0,.07-.25.87-.35,1.15l-5,14.39H1637Z" fill="#404040"/><path d="M1661.1,30h12.71v2.34h-9.91v6.41h8.16v2.34h-8.16v7.56h9.91V51H1661.1Z" fill="#404040"/><path d="M1677.9,30h6.51c8.16,0,11.7,4.72,11.7,10.5s-3.54,10.5-11.7,10.5h-6.51Zm6.55,18.55c6.82,0,8.75-3.85,8.75-8s-1.93-8-8.75-8h-3.75v16.1Z" fill="#404040"/><path d="M1699.85,30h12.7v2.34h-9.9v6.41h8.15v2.34h-8.15v7.56h9.9V51h-12.7Z" fill="#404040"/><path d="M1716.65,30h1.61l12.49,15.64V30h2.56V51h-1.61l-12.5-15.65V51h-2.55Z" fill="#404040"/><line x1="56.58" y1="752.12" x2="343.87" y2="752.12" fill="none" stroke="#000" stroke-miterlimit="10"/><path d="M363.11,751.6c0-6.93,3.5-11.13,8-11.13s8,4.2,8,11.13-3.46,11.16-8,11.16S363.11,758.56,363.11,751.6Zm13.23,0c0-5.46-2.1-8.89-5.25-8.89s-5.25,3.43-5.25,8.89,2.1,8.92,5.25,8.92S376.34,757.09,376.34,751.6Z" fill="#404040"/><path d="M364.57,614.66V612a8,8,0,0,0,5.84,2.56c2.87,0,4.83-2.24,4.83-5.22,0-2.59-1.4-4.72-4.27-4.72a4.3,4.3,0,0,0-4.27,2.76l-1.4-.87V595.13h11.76v2.34h-9.59V604a5.64,5.64,0,0,1,3.92-1.5c3.57,0,6.51,2.62,6.51,6.89a7.12,7.12,0,0,1-7.45,7.35A9.17,9.17,0,0,1,364.57,614.66Z" fill="#404040"/><path d="M360.28,451.68H358v-1.89l4.9-1.12v21.42h-2.66Z" fill="#404040"/><path d="M367.87,459.52c0-6.93,3.5-11.13,8-11.13s8,4.2,8,11.13-3.46,11.16-8,11.16S367.87,466.48,367.87,459.52Zm13.23,0c0-5.46-2.1-8.89-5.25-8.89s-5.25,3.43-5.25,8.89,2.1,8.92,5.25,8.92S381.1,465,381.1,459.52Z" fill="#404040"/><path d="M361.73,305.64h-2.24v-1.89l4.9-1.12v21.42h-2.66Z" fill="#404040"/><path d="M369.33,322.58V320a8,8,0,0,0,5.84,2.56c2.87,0,4.83-2.24,4.83-5.22,0-2.59-1.4-4.72-4.27-4.72a4.3,4.3,0,0,0-4.27,2.76l-1.4-.87V303.05h11.76v2.34h-9.59v6.51a5.64,5.64,0,0,1,3.92-1.5c3.57,0,6.51,2.62,6.51,6.89a7.12,7.12,0,0,1-7.45,7.35A9.17,9.17,0,0,1,369.33,322.58Z" fill="#404040"/><path d="M354.59,176.08l6.06-6.3c1.92-2,3.81-4.23,3.81-7.07,0-3-1.75-4.06-3.78-4.06a8.64,8.64,0,0,0-5.56,2.35v-2.52a9.38,9.38,0,0,1,5.63-2.1c3.85,0,6.48,2.2,6.48,6.12,0,3.64-2.49,6.27-4.17,7.95l-5.28,5.21h9.9V178H354.59Z" fill="#404040"/><path d="M371,167.44c0-6.93,3.5-11.13,8-11.13s8,4.2,8,11.13-3.46,11.16-8,11.16S371,174.4,371,167.44Zm13.23,0c0-5.46-2.1-8.89-5.25-8.89s-5.25,3.43-5.25,8.89,2.1,8.92,5.25,8.92S384.27,172.93,384.27,167.44Z" fill="#404040"/><line x1="56.58" y1="752.12" x2="56.58" y2="746.12" fill="none" stroke="#303030" stroke-miterlimit="10" stroke-width="0.75"/><line x1="56.58" y1="733.94" x2="56.58" y2="180.05" fill="none" stroke="#303030" stroke-miterlimit="10" stroke-width="0.75" stroke-dasharray="12.17 12.17"/><line x1="56.58" y1="173.96" x2="56.58" y2="167.96" fill="none" stroke="#303030" stroke-miterlimit="10" stroke-width="0.75"/><line x1="344.58" y1="752.12" x2="344.58" y2="746.12" fill="none" stroke="#303030" stroke-miterlimit="10" stroke-width="0.75"/><line x1="344.58" y1="733.97" x2="344.52" y2="157.07" fill="none" stroke="#303030" stroke-miterlimit="10" stroke-width="0.75" stroke-dasharray="12.15 12.15"/><line x1="344.52" y1="151" x2="344.52" y2="145" fill="none" stroke="#303030" stroke-miterlimit="10" stroke-width="0.75"/><line x1="56.58" y1="752.12" x2="343.87" y2="752.12" fill="none" stroke="#404040" stroke-miterlimit="10" stroke-width="2"/><line x1="56.58" y1="606.08" x2="343.87" y2="606.08" fill="none" stroke="#c8c8c8" stroke-miterlimit="10" stroke-width="0.75"/><line x1="56.58" y1="460.04" x2="343.87" y2="460.04" fill="none" stroke="#c8c8c8" stroke-miterlimit="10" stroke-width="0.75"/><line x1="56.58" y1="314" x2="343.87" y2="314" fill="none" stroke="#c8c8c8" stroke-miterlimit="10" stroke-width="0.75"/><line x1="56.58" y1="167.96" x2="343.87" y2="167.96" fill="none" stroke="#c8c8c8" stroke-miterlimit="10" stroke-width="0.75"/><line x1="343.87" y1="220.53" x2="56.58" y2="270.19" fill="none" stroke="#df2d81" stroke-miterlimit="10" stroke-width="5"/><line x1="343.87" y1="144.59" x2="56.58" y2="191.33" fill="none" stroke="#922c5c" stroke-miterlimit="10" stroke-width="5"/><line x1="343.87" y1="427.91" x2="56.58" y2="369.49" fill="none" stroke="#1649df" stroke-miterlimit="10" stroke-width="5"/><line x1="343.87" y1="401.62" x2="56.58" y2="334.44" fill="none" stroke="#002592" stroke-miterlimit="10" stroke-width="5"/><path d="M305,784.42l6.06-6.3c1.92-2,3.81-4.24,3.81-7.07,0-3-1.75-4.06-3.78-4.06a8.65,8.65,0,0,0-5.57,2.34v-2.52a9.47,9.47,0,0,1,5.64-2.1c3.85,0,6.48,2.21,6.48,6.13,0,3.64-2.49,6.26-4.17,7.95L308.21,784h9.9v2.35H305Z" fill="#404040"/><path d="M321.47,775.77c0-6.93,3.5-11.13,8-11.13s8,4.2,8,11.13-3.46,11.17-8,11.17S321.47,782.74,321.47,775.77Zm13.23,0c0-5.46-2.1-8.89-5.25-8.89s-5.25,3.43-5.25,8.89,2.1,8.93,5.25,8.93S334.7,781.27,334.7,775.77Z" fill="#404040"/><path d="M342.71,767.93h-2.24V766l4.9-1.12v21.43h-2.66Z" fill="#404040"/><path d="M360.07,767.69H349.29v-2.35h13.79v1.37c-1.71,2.41-7.07,13-8.15,19.64H352C353.35,779.8,359,769.3,360.07,767.69Z" fill="#404040"/><path d="M26.47,784.42l6.06-6.3c1.93-2,3.81-4.24,3.81-7.07,0-3-1.75-4.06-3.78-4.06A8.62,8.62,0,0,0,27,769.33v-2.52a9.44,9.44,0,0,1,5.63-2.1c3.85,0,6.48,2.21,6.48,6.13,0,3.64-2.49,6.26-4.17,7.95L29.66,784h9.91v2.35H26.47Z" fill="#404040"/><path d="M42.92,775.77c0-6.93,3.5-11.13,8-11.13s8,4.2,8,11.13-3.46,11.17-8,11.17S42.92,782.74,42.92,775.77Zm13.23,0c0-5.46-2.1-8.89-5.25-8.89s-5.25,3.43-5.25,8.89,2.1,8.93,5.25,8.93S56.15,781.27,56.15,775.77Z" fill="#404040"/><path d="M62.24,775.77c0-6.93,3.5-11.13,8-11.13s8,4.2,8,11.13-3.46,11.17-8,11.17S62.24,782.74,62.24,775.77Zm13.23,0c0-5.46-2.1-8.89-5.25-8.89S65,770.31,65,775.77s2.1,8.93,5.25,8.93S75.47,781.27,75.47,775.77Z" fill="#404040"/><path d="M91.33,767.69H80.55v-2.35H94.34v1.37c-1.72,2.41-7.07,13-8.16,19.64H83.24C84.61,779.8,90.21,769.3,91.33,767.69Z" fill="#404040"/><path d="M23.45,261.34h2.34l7,14.94,7-14.94h2.21v18h-2.3V267.07c0-.45.05-1.47.05-1.5s-.45,1.08-.63,1.5l-5.6,12.27H31.82l-5.61-12.27c-.21-.42-.6-1.41-.63-1.5s.06,1.05.06,1.5v12.27H23.45Z" fill="#404040"/><path d="M23.45,359.34h2.34l7,14.94,7-14.94h2.21v18h-2.3V365.07c0-.45.05-1.47.05-1.5s-.45,1.08-.63,1.5l-5.6,12.27H31.82l-5.61-12.27c-.21-.42-.6-1.41-.63-1.5s.06,1.05.06,1.5v12.27H23.45Z" fill="#404040"/><path d="M28.07,185.34H39v2H30.47v5.49h7v2h-7v8.49h-2.4Z" fill="#404040"/><path d="M28.07,323.34H39v2H30.47v5.49h7v2h-7v8.49h-2.4Z" fill="#404040"/><path d="M122.76,123.34h2.4v16h8.49v2H122.76Z" fill="#404040"/><path d="M135.93,127.63v-2.4h2.19v2.4Zm0,13.71V131.11h2.19v10.23Z" fill="#404040"/><path d="M144.59,132.55v8.79H142.4v-8.79h-2v-1.44h2v-3.93c0-3,1.32-4.23,3.64-4.23a4.1,4.1,0,0,1,1.19.21v1.47a4.34,4.34,0,0,0-.9-.15c-1.2,0-1.74.57-1.74,2.49v4.14h2.67v1.44Z" fill="#404040"/><path d="M158.51,135.94h-7.34c-.19,1.65.5,4.08,3.87,4.08a5.35,5.35,0,0,0,3.44-1.44v1.74a6,6,0,0,1-4.08,1.41,5.2,5.2,0,0,1-5.4-5.52,5.14,5.14,0,0,1,5.11-5.49,4.3,4.3,0,0,1,4.55,4.11A4.71,4.71,0,0,1,158.51,135.94Zm-4.38-3.63a2.8,2.8,0,0,0-2.79,2.19h5.16a.87.87,0,0,0,0-.24C156.54,133.27,155.72,132.31,154.13,132.31Z" fill="#404040"/><path d="M176.15,135.94H168.8c-.18,1.65.51,4.08,3.87,4.08a5.36,5.36,0,0,0,3.45-1.44v1.74a6.06,6.06,0,0,1-4.08,1.41,5.2,5.2,0,0,1-5.4-5.52,5.14,5.14,0,0,1,5.1-5.49,4.31,4.31,0,0,1,4.56,4.11A4.71,4.71,0,0,1,176.15,135.94Zm-4.38-3.63A2.79,2.79,0,0,0,169,134.5h5.16a1.14,1.14,0,0,0,0-.24C174.17,133.27,173.36,132.31,171.77,132.31Z" fill="#404040"/><path d="M187,141.34l-3.12-3.87-3.15,3.87h-2.43l4.41-5.19-4.2-5H181l3,3.69,3-3.69h2.34l-4.17,5,4.38,5.22Z" fill="#404040"/><path d="M197.93,141.73a4.76,4.76,0,0,1-3.84-1.86v7.32H191.9V131.11h1.95l.12,1.62a4.85,4.85,0,0,1,4-2c2.73,0,5,2.25,5,5.52S200.66,141.73,197.93,141.73Zm-.54-9.33a3.85,3.85,0,0,0,0,7.65c1.68,0,3.33-1.32,3.33-3.84S199.07,132.4,197.39,132.4Z" fill="#404040"/><path d="M215,135.94h-7.35c-.18,1.65.51,4.08,3.87,4.08a5.36,5.36,0,0,0,3.45-1.44v1.74a6.06,6.06,0,0,1-4.08,1.41,5.2,5.2,0,0,1-5.4-5.52,5.14,5.14,0,0,1,5.1-5.49,4.31,4.31,0,0,1,4.56,4.11A4.71,4.71,0,0,1,215,135.94Zm-4.38-3.63a2.79,2.79,0,0,0-2.79,2.19H213a1.14,1.14,0,0,0,0-.24C213,133.27,212.21,132.31,210.62,132.31Z" fill="#404040"/><path d="M223.52,141.67a5.45,5.45,0,1,1,0-10.89,5.73,5.73,0,0,1,3.57,1.17v1.83a4.77,4.77,0,0,0-3.39-1.29,3.74,3.74,0,0,0,0,7.47,4.77,4.77,0,0,0,3.39-1.29v1.83A5.73,5.73,0,0,1,223.52,141.67Z" fill="#404040"/><path d="M233.51,132.55v8.79h-2.19v-8.79h-2.07v-1.44h2.07v-3.45h2.19v3.45h2v1.44Z" fill="#404040"/><path d="M247,141.34l-.12-1.62a4.85,4.85,0,0,1-4,2c-2.73,0-5-2.25-5-5.52s2.25-5.49,5-5.49a4.93,4.93,0,0,1,4,2l.12-1.62h2v10.23Zm-6.87-5.1c0,2.52,1.65,3.81,3.3,3.81a3.85,3.85,0,0,0,0-7.65C241.76,132.4,240.11,133.72,240.11,136.24Z" fill="#404040"/><path d="M260.6,141.34v-6c0-1.95-.81-2.82-2.37-2.82s-3.33,1.29-3.33,3v5.85h-2.19V131.11h1.95l.15,1.77a5.16,5.16,0,0,1,4.14-2.16c2.76,0,3.84,1.92,3.84,4.47v6.15Z" fill="#404040"/><path d="M271.52,141.67a5.45,5.45,0,1,1,0-10.89,5.73,5.73,0,0,1,3.57,1.17v1.83a4.77,4.77,0,0,0-3.39-1.29,3.74,3.74,0,0,0,0,7.47,4.77,4.77,0,0,0,3.39-1.29v1.83A5.73,5.73,0,0,1,271.52,141.67Z" fill="#404040"/><path d="M280.58,147.19h-2.19l2.79-6.33-4.35-9.75H279l3.27,7.71,3.24-7.71h2.16Z" fill="#404040"/><path d="M114.45,320.34h2.4v7.5h9.93v-7.5h2.4v18h-2.4v-8.49h-9.93v8.49h-2.4Z" fill="#404040"/><path d="M142,332.94h-7.35c-.18,1.65.51,4.08,3.87,4.08a5.36,5.36,0,0,0,3.45-1.44v1.74a6.06,6.06,0,0,1-4.08,1.41,5.2,5.2,0,0,1-5.4-5.52,5.14,5.14,0,0,1,5.1-5.49,4.3,4.3,0,0,1,4.55,4.11A4.69,4.69,0,0,1,142,332.94Zm-4.38-3.63a2.79,2.79,0,0,0-2.79,2.19H140a1.14,1.14,0,0,0,0-.24C140,330.27,139.2,329.31,137.61,329.31Z" fill="#404040"/><path d="M154,338.34l-.11-1.62a4.87,4.87,0,0,1-4,2c-2.72,0-5-2.25-5-5.52s2.25-5.49,5-5.49a5,5,0,0,1,4,2l.11-1.62h2v10.23Zm-6.86-5.1c0,2.52,1.65,3.81,3.29,3.81a3.84,3.84,0,0,0,0-7.65C148.83,329.4,147.18,330.72,147.18,333.24Z" fill="#404040"/><path d="M159.78,338.34v-18H162v18Z" fill="#404040"/><path d="M169.16,329.55v8.79H167v-8.79H164.9v-1.44H167v-3.45h2.19v3.45h2.05v1.44Z" fill="#404040"/><path d="M182,338.34v-6c0-1.95-.82-2.82-2.37-2.82s-3.33,1.29-3.33,3v5.85h-2.19v-18h2.19v9.54a5,5,0,0,1,4-2.16c2.76,0,3.84,1.92,3.84,4.47v6.15Z" fill="#404040"/><path d="M189.74,344.19h-2.19l2.79-6.33L186,328.11h2.15l3.27,7.71,3.24-7.71h2.16Z" fill="#404040"/><path d="M204.23,338.34v-18h2.19v18Z" fill="#404040"/><path d="M210.2,324.63v-2.4h2.19v2.4Zm0,13.71V328.11h2.19v10.23Z" fill="#404040"/><path d="M218.87,329.55v8.79h-2.19v-8.79h-2v-1.44h2v-3.93c0-3,1.32-4.23,3.63-4.23a4.12,4.12,0,0,1,1.2.21v1.47a4.34,4.34,0,0,0-.9-.15c-1.2,0-1.74.57-1.74,2.49v4.14h2.67v1.44Z" fill="#404040"/><path d="M232.79,332.94h-7.35c-.18,1.65.51,4.08,3.87,4.08a5.36,5.36,0,0,0,3.45-1.44v1.74a6.06,6.06,0,0,1-4.08,1.41,5.2,5.2,0,0,1-5.4-5.52,5.14,5.14,0,0,1,5.1-5.49,4.31,4.31,0,0,1,4.56,4.11A4.71,4.71,0,0,1,232.79,332.94Zm-4.38-3.63a2.79,2.79,0,0,0-2.79,2.19h5.16a1.14,1.14,0,0,0,0-.24C230.81,330.27,230,329.31,228.41,329.31Z" fill="#404040"/><path d="M243.74,344.19h-2.19l2.79-6.33L240,328.11h2.16l3.27,7.71,3.24-7.71h2.16Z" fill="#404040"/><path d="M261.62,332.94h-7.35c-.18,1.65.51,4.08,3.87,4.08a5.36,5.36,0,0,0,3.45-1.44v1.74a6.06,6.06,0,0,1-4.08,1.41,5.2,5.2,0,0,1-5.4-5.52,5.14,5.14,0,0,1,5.1-5.49,4.31,4.31,0,0,1,4.56,4.11A4.71,4.71,0,0,1,261.62,332.94Zm-4.38-3.63a2.79,2.79,0,0,0-2.79,2.19h5.16a1.14,1.14,0,0,0,0-.24C259.64,330.27,258.83,329.31,257.24,329.31Z" fill="#404040"/><path d="M273.68,338.34l-.12-1.62a4.85,4.85,0,0,1-4,2c-2.73,0-5-2.25-5-5.52s2.25-5.49,5-5.49a4.93,4.93,0,0,1,4,2l.12-1.62h1.95v10.23Zm-6.87-5.1c0,2.52,1.65,3.81,3.3,3.81a3.85,3.85,0,0,0,0-7.65C268.46,329.4,266.81,330.72,266.81,333.24Z" fill="#404040"/><path d="M281.6,332.4v5.94h-2.19V328.11h1.95l.15,1.77a4.83,4.83,0,0,1,4-2.16v2.22C283.55,329.58,281.6,330.69,281.6,332.4Z" fill="#404040"/><path d="M291.14,338.73a7.63,7.63,0,0,1-3.9-1.14l.42-1.65a6.88,6.88,0,0,0,3.51,1.17c1.2,0,1.95-.48,1.95-1.47,0-.75-.57-1.26-2.25-1.65-2.25-.54-3.15-1.74-3.15-3.15,0-1.62,1-3.12,3.66-3.12a6.85,6.85,0,0,1,3.27,1l-.39,1.53a5.85,5.85,0,0,0-2.88-.93c-1.26,0-1.74.54-1.74,1.29s.66,1.17,1.89,1.47c2.43.57,3.51,1.74,3.51,3.33C295,337.38,293.63,338.73,291.14,338.73Z" fill="#404040"/><circle cx="56.25" cy="369.75" r="8.25" fill="#1649df" stroke="#fff" stroke-miterlimit="10" stroke-width="2"/><circle cx="56.25" cy="333.75" r="8.25" fill="#002592" stroke="#fff" stroke-miterlimit="10" stroke-width="2"/><circle cx="56.25" cy="270.75" r="8.25" fill="#df2d81" stroke="#fff" stroke-miterlimit="10" stroke-width="2"/><circle cx="56.25" cy="191.75" r="8.25" fill="#922c5c" stroke="#fff" stroke-miterlimit="10" stroke-width="2"/><circle cx="344.25" cy="427.75" r="8.25" fill="#1649df" stroke="#fff" stroke-miterlimit="10" stroke-width="2"/><circle cx="344.25" cy="400.75" r="8.25" fill="#002592" stroke="#fff" stroke-miterlimit="10" stroke-width="2"/><circle cx="344.25" cy="219.75" r="8.25" fill="#df2d81" stroke="#fff" stroke-miterlimit="10" stroke-width="2"/><circle cx="344.25" cy="143.75" r="8.25" fill="#922c5c" stroke="#fff" stroke-miterlimit="10" stroke-width="2"/><path d="M361.76,137.21h-2.19l2.79-6.33L358,121.13h2.16l3.27,7.71,3.24-7.71h2.16Z" fill="#404040"/><path d="M373.25,125.42v5.94h-2.19V121.13H373l.15,1.77a4.83,4.83,0,0,1,4-2.16V123C375.2,122.6,373.25,123.71,373.25,125.42Z" fill="#404040"/><path d="M382.79,131.75a7.63,7.63,0,0,1-3.9-1.14l.42-1.65a6.88,6.88,0,0,0,3.51,1.17c1.2,0,1.95-.48,1.95-1.47,0-.75-.57-1.26-2.25-1.65-2.25-.54-3.15-1.74-3.15-3.15,0-1.62,1.05-3.12,3.66-3.12a6.85,6.85,0,0,1,3.27,1l-.39,1.53a5.85,5.85,0,0,0-2.88-.93c-1.26,0-1.74.54-1.74,1.29s.66,1.17,1.89,1.47c2.43.57,3.51,1.74,3.51,3.33C386.69,130.4,385.28,131.75,382.79,131.75Z" fill="#404040"/><path d="M390.17,128.6h2.76v2.76h-2.76Z" fill="#404040"/><line x1="549.25" y1="752.12" x2="836.54" y2="752.12" fill="none" stroke="#000" stroke-miterlimit="10"/><path d="M853.78,750.6c0-6.93,3.5-11.13,8-11.13s8,4.2,8,11.13-3.46,11.16-8,11.16S853.78,757.56,853.78,750.6Zm13.23,0c0-5.46-2.1-8.89-5.25-8.89s-5.25,3.43-5.25,8.89,2.1,8.92,5.25,8.92S867,756.09,867,750.6Z" fill="#404040"/><path d="M855.23,613.66V611a8.05,8.05,0,0,0,5.85,2.56c2.87,0,4.83-2.24,4.83-5.22,0-2.59-1.4-4.72-4.27-4.72a4.29,4.29,0,0,0-4.27,2.76l-1.4-.87V594.13h11.76v2.34h-9.59V603a5.64,5.64,0,0,1,3.92-1.5c3.57,0,6.51,2.62,6.51,6.89a7.12,7.12,0,0,1-7.46,7.35A9.19,9.19,0,0,1,855.23,613.66Z" fill="#404040"/><path d="M851,450.68h-2.24v-1.89l4.9-1.12v21.42H851Z" fill="#404040"/><path d="M858.54,458.52c0-6.93,3.5-11.13,8-11.13s8,4.2,8,11.13-3.46,11.16-8,11.16S858.54,465.48,858.54,458.52Zm13.23,0c0-5.46-2.1-8.89-5.25-8.89s-5.25,3.43-5.25,8.89,2.1,8.92,5.25,8.92S871.77,464,871.77,458.52Z" fill="#404040"/><path d="M852.4,304.64h-2.24v-1.89l4.9-1.12v21.42H852.4Z" fill="#404040"/><path d="M860,321.58V319a8.05,8.05,0,0,0,5.85,2.56c2.87,0,4.83-2.24,4.83-5.22,0-2.59-1.4-4.72-4.27-4.72a4.29,4.29,0,0,0-4.27,2.76l-1.4-.87V302.05h11.76v2.34H862.9v6.51a5.64,5.64,0,0,1,3.92-1.5c3.57,0,6.51,2.62,6.51,6.89a7.12,7.12,0,0,1-7.46,7.35A9.19,9.19,0,0,1,860,321.58Z" fill="#404040"/><path d="M845.26,175.08l6-6.3c1.93-2,3.82-4.23,3.82-7.07,0-3-1.75-4.06-3.78-4.06a8.66,8.66,0,0,0-5.57,2.35v-2.52a9.41,9.41,0,0,1,5.64-2.1c3.85,0,6.47,2.2,6.47,6.12,0,3.64-2.48,6.27-4.16,7.95l-5.29,5.21h9.91V177H845.26Z" fill="#404040"/><path d="M861.71,166.44c0-6.93,3.5-11.13,8-11.13s8,4.2,8,11.13-3.47,11.16-8,11.16S861.71,173.4,861.71,166.44Zm13.23,0c0-5.46-2.1-8.89-5.25-8.89s-5.25,3.43-5.25,8.89,2.1,8.92,5.25,8.92S874.94,171.93,874.94,166.44Z" fill="#404040"/><line x1="837.25" y1="752.12" x2="837.25" y2="110" fill="none" stroke="#303030" stroke-miterlimit="10" stroke-width="0.75" stroke-dasharray="12"/><line x1="548.25" y1="752.12" x2="548.25" y2="136" fill="none" stroke="#303030" stroke-miterlimit="10" stroke-width="0.75" stroke-dasharray="12"/><line x1="549.25" y1="752.12" x2="836.54" y2="752.12" fill="none" stroke="#404040" stroke-miterlimit="10" stroke-width="2"/><line x1="549.25" y1="606.08" x2="836.54" y2="606.08" fill="none" stroke="#c8c8c8" stroke-miterlimit="10" stroke-width="0.75"/><line x1="549.25" y1="460.04" x2="836.54" y2="460.04" fill="none" stroke="#c8c8c8" stroke-miterlimit="10" stroke-width="0.75"/><line x1="549.25" y1="314" x2="836.54" y2="314" fill="none" stroke="#c8c8c8" stroke-miterlimit="10" stroke-width="0.75"/><line x1="549.25" y1="167.96" x2="836.54" y2="167.96" fill="none" stroke="#c8c8c8" stroke-miterlimit="10" stroke-width="0.75"/><line x1="836.54" y1="214.69" x2="549.25" y2="255.58" fill="none" stroke="#df2d81" stroke-miterlimit="10" stroke-width="5"/><line x1="836.54" y1="106.62" x2="549.25" y2="132.91" fill="none" stroke="#922c5c" stroke-miterlimit="10" stroke-width="5"/><line x1="836.54" y1="492.17" x2="549.25" y2="521.38" fill="none" stroke="#1649df" stroke-miterlimit="10" stroke-width="5"/><line x1="836.54" y1="477.56" x2="549.25" y2="492.17" fill="none" stroke="#002592" stroke-miterlimit="10" stroke-width="5"/><path d="M800.69,784.42l6-6.3c1.93-2,3.82-4.24,3.82-7.07,0-3-1.75-4.06-3.78-4.06a8.65,8.65,0,0,0-5.57,2.34v-2.52a9.47,9.47,0,0,1,5.64-2.1c3.85,0,6.47,2.21,6.47,6.13,0,3.64-2.48,6.26-4.16,7.95L803.87,784h9.91v2.35H800.69Z" fill="#404040"/><path d="M817.14,775.77c0-6.93,3.5-11.13,8-11.13s8,4.2,8,11.13-3.47,11.17-8,11.17S817.14,782.74,817.14,775.77Zm13.23,0c0-5.46-2.1-8.89-5.25-8.89s-5.25,3.43-5.25,8.89,2.1,8.93,5.25,8.93S830.37,781.27,830.37,775.77Z" fill="#404040"/><path d="M838.38,767.93h-2.24V766l4.9-1.12v21.43h-2.66Z" fill="#404040"/><path d="M855.74,767.69H845v-2.35h13.79v1.37c-1.71,2.41-7.07,13-8.15,19.64h-2.94C849,779.8,854.62,769.3,855.74,767.69Z" fill="#404040"/><path d="M521.14,784.42l6.06-6.3c1.92-2,3.81-4.24,3.81-7.07,0-3-1.75-4.06-3.78-4.06a8.62,8.62,0,0,0-5.56,2.34v-2.52a9.44,9.44,0,0,1,5.63-2.1c3.85,0,6.48,2.21,6.48,6.13,0,3.64-2.49,6.26-4.17,7.95L524.33,784h9.9v2.35H521.14Z" fill="#404040"/><path d="M537.59,775.77c0-6.93,3.5-11.13,8-11.13s8,4.2,8,11.13-3.46,11.17-8,11.17S537.59,782.74,537.59,775.77Zm13.23,0c0-5.46-2.1-8.89-5.25-8.89s-5.25,3.43-5.25,8.89,2.1,8.93,5.25,8.93S550.82,781.27,550.82,775.77Z" fill="#404040"/><path d="M556.91,775.77c0-6.93,3.5-11.13,8-11.13s8,4.2,8,11.13-3.46,11.17-8,11.17S556.91,782.74,556.91,775.77Zm13.23,0c0-5.46-2.1-8.89-5.25-8.89s-5.25,3.43-5.25,8.89,2.1,8.93,5.25,8.93S570.14,781.27,570.14,775.77Z" fill="#404040"/><path d="M586,767.69H575.21v-2.35H589v1.37c-1.71,2.41-7.07,13-8.15,19.64h-2.94C579.27,779.8,584.88,769.3,586,767.69Z" fill="#404040"/><path d="M515.11,247.34h2.34l7,14.94,7-14.94h2.22v18h-2.31V253.07c0-.45.06-1.47.06-1.5s-.45,1.08-.63,1.5l-5.61,12.27h-1.62l-5.61-12.27c-.21-.42-.6-1.41-.63-1.5s.06,1.05.06,1.5v12.27h-2.19Z" fill="#404040"/><path d="M515.11,513.34h2.34l7,14.94,7-14.94h2.22v18h-2.31V519.07c0-.45.06-1.47.06-1.5s-.45,1.08-.63,1.5l-5.61,12.27h-1.62l-5.61-12.27c-.21-.42-.6-1.41-.63-1.5s.06,1,.06,1.5v12.27h-2.19Z" fill="#404040"/><path d="M519.73,126.34h10.89v2h-8.49v5.49h7v2h-7v8.49h-2.4Z" fill="#404040"/><path d="M519.73,482.34h10.89v2h-8.49v5.49h7v2h-7v8.49h-2.4Z" fill="#404040"/><path d="M607.42,81.34h2.4v16h8.49v2H607.42Z" fill="#404040"/><path d="M620.59,85.63v-2.4h2.19v2.4Zm0,13.71V89.11h2.19V99.34Z" fill="#404040"/><path d="M629.26,90.55v8.79h-2.19V90.55h-2V89.11h2V85.18c0-3,1.32-4.23,3.63-4.23a4.12,4.12,0,0,1,1.2.21v1.47a4.34,4.34,0,0,0-.9-.15c-1.2,0-1.74.57-1.74,2.49v4.14h2.67v1.44Z" fill="#404040"/><path d="M643.18,93.94h-7.35c-.18,1.65.51,4.08,3.87,4.08a5.36,5.36,0,0,0,3.45-1.44v1.74a6.06,6.06,0,0,1-4.08,1.41,5.2,5.2,0,0,1-5.4-5.52,5.14,5.14,0,0,1,5.1-5.49,4.31,4.31,0,0,1,4.56,4.11A4.71,4.71,0,0,1,643.18,93.94Zm-4.38-3.63A2.79,2.79,0,0,0,636,92.5h5.16a1.14,1.14,0,0,0,0-.24C641.2,91.27,640.39,90.31,638.8,90.31Z" fill="#404040"/><path d="M660.82,93.94h-7.35c-.18,1.65.51,4.08,3.87,4.08a5.36,5.36,0,0,0,3.45-1.44v1.74a6.06,6.06,0,0,1-4.08,1.41,5.2,5.2,0,0,1-5.4-5.52,5.14,5.14,0,0,1,5.1-5.49A4.31,4.31,0,0,1,661,92.83,4.71,4.71,0,0,1,660.82,93.94Zm-4.38-3.63a2.79,2.79,0,0,0-2.79,2.19h5.16a1.14,1.14,0,0,0,0-.24C658.84,91.27,658,90.31,656.44,90.31Z" fill="#404040"/><path d="M671.68,99.34l-3.12-3.87-3.15,3.87H663l4.41-5.19-4.2-5h2.43l3,3.69,3-3.69H674l-4.17,5,4.38,5.22Z" fill="#404040"/><path d="M682.6,99.73a4.76,4.76,0,0,1-3.84-1.86v7.32h-2.19V89.11h1.95l.12,1.62a4.85,4.85,0,0,1,4-2c2.73,0,5,2.25,5,5.52S685.33,99.73,682.6,99.73Zm-.54-9.33a3.85,3.85,0,0,0,0,7.65c1.68,0,3.33-1.32,3.33-3.84S683.74,90.4,682.06,90.4Z" fill="#404040"/><path d="M699.67,93.94h-7.35c-.18,1.65.51,4.08,3.87,4.08a5.36,5.36,0,0,0,3.45-1.44v1.74a6.06,6.06,0,0,1-4.08,1.41,5.2,5.2,0,0,1-5.4-5.52,5.14,5.14,0,0,1,5.1-5.49,4.31,4.31,0,0,1,4.56,4.11A4.71,4.71,0,0,1,699.67,93.94Zm-4.38-3.63a2.79,2.79,0,0,0-2.79,2.19h5.16a1.14,1.14,0,0,0,0-.24C697.69,91.27,696.88,90.31,695.29,90.31Z" fill="#404040"/><path d="M708.19,99.67a5.45,5.45,0,1,1,0-10.89A5.73,5.73,0,0,1,711.76,90v1.83a4.77,4.77,0,0,0-3.39-1.29,3.74,3.74,0,0,0,0,7.47,4.77,4.77,0,0,0,3.39-1.29V98.5A5.73,5.73,0,0,1,708.19,99.67Z" fill="#404040"/><path d="M718.18,90.55v8.79H716V90.55h-2.07V89.11H716V85.66h2.19v3.45h2v1.44Z" fill="#404040"/><path d="M731.65,99.34l-.12-1.62a4.85,4.85,0,0,1-4,2c-2.73,0-5-2.25-5-5.52s2.25-5.49,5-5.49a4.93,4.93,0,0,1,4,2l.12-1.62h2V99.34Zm-6.87-5.1c0,2.52,1.65,3.81,3.3,3.81a3.85,3.85,0,0,0,0-7.65C726.43,90.4,724.78,91.72,724.78,94.24Z" fill="#404040"/><path d="M745.27,99.34v-6c0-2-.81-2.82-2.37-2.82s-3.33,1.29-3.33,3v5.85h-2.19V89.11h2l.15,1.77a5.16,5.16,0,0,1,4.14-2.16c2.76,0,3.84,1.92,3.84,4.47v6.15Z" fill="#404040"/><path d="M756.19,99.67a5.45,5.45,0,1,1,0-10.89A5.73,5.73,0,0,1,759.76,90v1.83a4.77,4.77,0,0,0-3.39-1.29,3.74,3.74,0,0,0,0,7.47,4.77,4.77,0,0,0,3.39-1.29V98.5A5.73,5.73,0,0,1,756.19,99.67Z" fill="#404040"/><path d="M765.25,105.19h-2.19l2.79-6.33-4.35-9.75h2.16l3.27,7.71,3.24-7.71h2.16Z" fill="#404040"/><path d="M599.11,449.34h2.4v7.5h9.93v-7.5h2.4v18h-2.4v-8.49h-9.93v8.49h-2.4Z" fill="#404040"/><path d="M626.65,461.94H619.3c-.18,1.65.51,4.08,3.87,4.08a5.36,5.36,0,0,0,3.45-1.44v1.74a6.06,6.06,0,0,1-4.08,1.41,5.2,5.2,0,0,1-5.4-5.52,5.14,5.14,0,0,1,5.1-5.49,4.31,4.31,0,0,1,4.56,4.11A4.71,4.71,0,0,1,626.65,461.94Zm-4.38-3.63a2.79,2.79,0,0,0-2.79,2.19h5.16a1.14,1.14,0,0,0,0-.24C624.67,459.27,623.86,458.31,622.27,458.31Z" fill="#404040"/><path d="M638.71,467.34l-.12-1.62a4.85,4.85,0,0,1-4,2c-2.73,0-5-2.25-5-5.52s2.25-5.49,5-5.49a4.93,4.93,0,0,1,4,2l.12-1.62h1.95v10.23Zm-6.87-5.1c0,2.52,1.65,3.81,3.3,3.81a3.85,3.85,0,0,0,0-7.65C633.49,458.4,631.84,459.72,631.84,462.24Z" fill="#404040"/><path d="M644.44,467.34v-18h2.19v18Z" fill="#404040"/><path d="M653.83,458.55v8.79h-2.19v-8.79h-2.07v-1.44h2.07v-3.45h2.19v3.45h2v1.44Z" fill="#404040"/><path d="M666.7,467.34v-6c0-1.95-.81-2.82-2.37-2.82s-3.33,1.29-3.33,3v5.85h-2.19v-18H661v9.54a5,5,0,0,1,4-2.16c2.76,0,3.84,1.92,3.84,4.47v6.15Z" fill="#404040"/><path d="M674.41,473.19h-2.19l2.79-6.33-4.35-9.75h2.16l3.27,7.71,3.24-7.71h2.16Z" fill="#404040"/><path d="M688.9,467.34v-18h2.19v18Z" fill="#404040"/><path d="M694.87,453.63v-2.4h2.19v2.4Zm0,13.71V457.11h2.19v10.23Z" fill="#404040"/><path d="M703.54,458.55v8.79h-2.19v-8.79h-2v-1.44h2v-3.93c0-3,1.32-4.23,3.63-4.23a4.12,4.12,0,0,1,1.2.21v1.47a4.34,4.34,0,0,0-.9-.15c-1.2,0-1.74.57-1.74,2.49v4.14h2.67v1.44Z" fill="#404040"/><path d="M717.46,461.94h-7.35c-.18,1.65.51,4.08,3.87,4.08a5.36,5.36,0,0,0,3.45-1.44v1.74a6.06,6.06,0,0,1-4.08,1.41,5.2,5.2,0,0,1-5.4-5.52,5.14,5.14,0,0,1,5.1-5.49,4.31,4.31,0,0,1,4.56,4.11A4.71,4.71,0,0,1,717.46,461.94Zm-4.38-3.63a2.79,2.79,0,0,0-2.79,2.19h5.16a1.14,1.14,0,0,0,0-.24C715.48,459.27,714.67,458.31,713.08,458.31Z" fill="#404040"/><path d="M728.41,473.19h-2.19l2.79-6.33-4.35-9.75h2.16l3.27,7.71,3.24-7.71h2.16Z" fill="#404040"/><path d="M746.29,461.94h-7.35c-.18,1.65.51,4.08,3.87,4.08a5.36,5.36,0,0,0,3.45-1.44v1.74a6.06,6.06,0,0,1-4.08,1.41,5.2,5.2,0,0,1-5.4-5.52,5.14,5.14,0,0,1,5.1-5.49,4.31,4.31,0,0,1,4.56,4.11A4.71,4.71,0,0,1,746.29,461.94Zm-4.38-3.63a2.79,2.79,0,0,0-2.79,2.19h5.16a1.14,1.14,0,0,0,0-.24C744.31,459.27,743.5,458.31,741.91,458.31Z" fill="#404040"/><path d="M758.35,467.34l-.12-1.62a4.85,4.85,0,0,1-4,2c-2.73,0-5-2.25-5-5.52s2.25-5.49,5-5.49a4.93,4.93,0,0,1,4,2l.12-1.62h1.95v10.23Zm-6.87-5.1c0,2.52,1.65,3.81,3.3,3.81a3.85,3.85,0,0,0,0-7.65C753.13,458.4,751.48,459.72,751.48,462.24Z" fill="#404040"/><path d="M766.27,461.4v5.94h-2.19V457.11H766l.15,1.77a4.83,4.83,0,0,1,4-2.16v2.22C768.22,458.58,766.27,459.69,766.27,461.4Z" fill="#404040"/><path d="M775.81,467.73a7.63,7.63,0,0,1-3.9-1.14l.42-1.65a6.88,6.88,0,0,0,3.51,1.17c1.2,0,1.95-.48,1.95-1.47,0-.75-.57-1.26-2.25-1.65-2.25-.54-3.15-1.74-3.15-3.15,0-1.62,1.05-3.12,3.66-3.12a6.85,6.85,0,0,1,3.27,1l-.39,1.53a5.85,5.85,0,0,0-2.88-.93c-1.26,0-1.74.54-1.74,1.29s.66,1.17,1.89,1.47c2.43.57,3.51,1.74,3.51,3.33C779.71,466.38,778.3,467.73,775.81,467.73Z" fill="#404040"/><circle cx="548.92" cy="521.75" r="8.25" fill="#1649df" stroke="#fff" stroke-miterlimit="10" stroke-width="2"/><circle cx="548.92" cy="491.75" r="8.25" fill="#002592" stroke="#fff" stroke-miterlimit="10" stroke-width="2"/><circle cx="548.92" cy="255.75" r="8.25" fill="#df2d81" stroke="#fff" stroke-miterlimit="10" stroke-width="2"/><circle cx="548.92" cy="132.75" r="8.25" fill="#922c5c" stroke="#fff" stroke-miterlimit="10" stroke-width="2"/><circle cx="836.92" cy="491.75" r="8.25" fill="#1649df" stroke="#fff" stroke-miterlimit="10" stroke-width="2"/><circle cx="836.92" cy="476.75" r="8.25" fill="#002592" stroke="#fff" stroke-miterlimit="10" stroke-width="2"/><circle cx="836.92" cy="213.75" r="8.25" fill="#df2d81" stroke="#fff" stroke-miterlimit="10" stroke-width="2"/><circle cx="836.92" cy="105.75" r="8.25" fill="#922c5c" stroke="#fff" stroke-miterlimit="10" stroke-width="2"/><path d="M851.43,137.21h-2.19l2.79-6.33-4.35-9.75h2.16l3.27,7.71,3.24-7.71h2.16Z" fill="#404040"/><path d="M862.92,125.42v5.94h-2.19V121.13h1.95l.15,1.77a4.83,4.83,0,0,1,4-2.16V123C864.87,122.6,862.92,123.71,862.92,125.42Z" fill="#404040"/><path d="M872.46,131.75a7.63,7.63,0,0,1-3.9-1.14L869,129a6.88,6.88,0,0,0,3.51,1.17c1.2,0,2-.48,2-1.47,0-.75-.57-1.26-2.25-1.65-2.25-.54-3.15-1.74-3.15-3.15,0-1.62,1.05-3.12,3.66-3.12a6.85,6.85,0,0,1,3.27,1l-.39,1.53a5.89,5.89,0,0,0-2.88-.93c-1.26,0-1.74.54-1.74,1.29s.66,1.17,1.89,1.47c2.43.57,3.51,1.74,3.51,3.33C876.36,130.4,875,131.75,872.46,131.75Z" fill="#404040"/><path d="M879.84,128.6h2.76v2.76h-2.76Z" fill="#404040"/><line x1="1038.92" y1="752.12" x2="1326.21" y2="752.12" fill="none" stroke="#000" stroke-miterlimit="10"/><path d="M1344.45,750.6c0-6.93,3.5-11.13,8-11.13s8,4.2,8,11.13-3.47,11.16-8,11.16S1344.45,757.56,1344.45,750.6Zm13.23,0c0-5.46-2.1-8.89-5.25-8.89s-5.25,3.43-5.25,8.89,2.1,8.92,5.25,8.92S1357.68,756.09,1357.68,750.6Z" fill="#404040"/><path d="M1345.9,613.66V611a8,8,0,0,0,5.84,2.56c2.88,0,4.84-2.24,4.84-5.22,0-2.59-1.41-4.72-4.28-4.72a4.3,4.3,0,0,0-4.27,2.76l-1.4-.87V594.13h11.77v2.34h-9.6V603a5.64,5.64,0,0,1,3.92-1.5c3.57,0,6.52,2.62,6.52,6.89a7.12,7.12,0,0,1-7.46,7.35A9.17,9.17,0,0,1,1345.9,613.66Z" fill="#404040"/><path d="M1341.61,450.68h-2.24v-1.89l4.9-1.12v21.42h-2.66Z" fill="#404040"/><path d="M1349.21,458.52c0-6.93,3.5-11.13,8-11.13s8,4.2,8,11.13-3.47,11.16-8,11.16S1349.21,465.48,1349.21,458.52Zm13.23,0c0-5.46-2.1-8.89-5.25-8.89s-5.25,3.43-5.25,8.89,2.1,8.92,5.25,8.92S1362.44,464,1362.44,458.52Z" fill="#404040"/><path d="M1343.06,304.64h-2.24v-1.89l4.9-1.12v21.42h-2.66Z" fill="#404040"/><path d="M1350.66,321.58V319a8,8,0,0,0,5.84,2.56c2.88,0,4.83-2.24,4.83-5.22,0-2.59-1.4-4.72-4.27-4.72a4.3,4.3,0,0,0-4.27,2.76l-1.4-.87V302.05h11.77v2.34h-9.6v6.51a5.64,5.64,0,0,1,3.92-1.5c3.57,0,6.52,2.62,6.52,6.89a7.12,7.12,0,0,1-7.46,7.35A9.17,9.17,0,0,1,1350.66,321.58Z" fill="#404040"/><path d="M1335.92,175.08l6.06-6.3c1.93-2,3.81-4.23,3.81-7.07,0-3-1.75-4.06-3.78-4.06a8.64,8.64,0,0,0-5.56,2.35v-2.52a9.38,9.38,0,0,1,5.63-2.1c3.85,0,6.48,2.2,6.48,6.12,0,3.64-2.48,6.27-4.17,7.95l-5.28,5.21H1349V177h-13.1Z" fill="#404040"/><path d="M1352.37,166.44c0-6.93,3.5-11.13,8-11.13s8,4.2,8,11.13-3.46,11.16-8,11.16S1352.37,173.4,1352.37,166.44Zm13.23,0c0-5.46-2.1-8.89-5.25-8.89s-5.25,3.43-5.25,8.89,2.1,8.92,5.25,8.92S1365.6,171.93,1365.6,166.44Z" fill="#404040"/><line x1="1326.92" y1="752.12" x2="1326.92" y2="125" fill="none" stroke="#303030" stroke-miterlimit="10" stroke-width="0.75" stroke-dasharray="12"/><line x1="1038.92" y1="752.12" x2="1038.92" y2="148" fill="none" stroke="#303030" stroke-miterlimit="10" stroke-width="0.75" stroke-dasharray="12"/><line x1="1038.92" y1="752.12" x2="1326.21" y2="752.12" fill="none" stroke="#404040" stroke-miterlimit="10" stroke-width="2"/><line x1="1038.92" y1="606.08" x2="1326.21" y2="606.08" fill="none" stroke="#c8c8c8" stroke-miterlimit="10" stroke-width="0.75"/><line x1="1038.92" y1="460.04" x2="1326.21" y2="460.04" fill="none" stroke="#c8c8c8" stroke-miterlimit="10" stroke-width="0.75"/><line x1="1038.92" y1="314" x2="1326.21" y2="314" fill="none" stroke="#c8c8c8" stroke-miterlimit="10" stroke-width="0.75"/><line x1="1038.92" y1="167.96" x2="1326.21" y2="167.96" fill="none" stroke="#c8c8c8" stroke-miterlimit="10" stroke-width="0.75"/><line x1="1326.21" y1="188.41" x2="1038.92" y2="243.9" fill="none" stroke="#df2d81" stroke-miterlimit="10" stroke-width="5"/><line x1="1326.21" y1="121.23" x2="1038.92" y2="144.59" fill="none" stroke="#922c5c" stroke-miterlimit="10" stroke-width="5"/><line x1="1326.21" y1="287.71" x2="1038.92" y2="389.94" fill="none" stroke="#1649df" stroke-miterlimit="10" stroke-width="5"/><line x1="1326.21" y1="287.71" x2="1038.92" y2="369.49" fill="none" stroke="#002592" stroke-miterlimit="10" stroke-width="5"/><path d="M1288.35,784.42l6.06-6.3c1.92-2,3.81-4.24,3.81-7.07,0-3-1.75-4.06-3.78-4.06a8.62,8.62,0,0,0-5.56,2.34v-2.52a9.44,9.44,0,0,1,5.63-2.1c3.85,0,6.48,2.21,6.48,6.13,0,3.64-2.49,6.26-4.17,7.95l-5.28,5.21h9.9v2.35h-13.09Z" fill="#404040"/><path d="M1304.8,775.77c0-6.93,3.5-11.13,8-11.13s8,4.2,8,11.13-3.46,11.17-8,11.17S1304.8,782.74,1304.8,775.77Zm13.23,0c0-5.46-2.1-8.89-5.25-8.89s-5.25,3.43-5.25,8.89,2.1,8.93,5.25,8.93S1318,781.27,1318,775.77Z" fill="#404040"/><path d="M1326.05,767.93h-2.24V766l4.9-1.12v21.43h-2.66Z" fill="#404040"/><path d="M1343.41,767.69h-10.78v-2.35h13.79v1.37c-1.72,2.41-7.07,13-8.16,19.64h-2.94C1336.69,779.8,1342.29,769.3,1343.41,767.69Z" fill="#404040"/><path d="M1011.81,784.42l6.05-6.3c1.93-2,3.82-4.24,3.82-7.07,0-3-1.75-4.06-3.78-4.06a8.65,8.65,0,0,0-5.57,2.34v-2.52a9.47,9.47,0,0,1,5.64-2.1c3.85,0,6.47,2.21,6.47,6.13,0,3.64-2.48,6.26-4.16,7.95L1015,784h9.91v2.35h-13.09Z" fill="#404040"/><path d="M1028.26,775.77c0-6.93,3.5-11.13,8-11.13s8,4.2,8,11.13-3.47,11.17-8,11.17S1028.26,782.74,1028.26,775.77Zm13.23,0c0-5.46-2.1-8.89-5.25-8.89s-5.25,3.43-5.25,8.89,2.1,8.93,5.25,8.93S1041.49,781.27,1041.49,775.77Z" fill="#404040"/><path d="M1047.58,775.77c0-6.93,3.5-11.13,8-11.13s8,4.2,8,11.13-3.47,11.17-8,11.17S1047.58,782.74,1047.58,775.77Zm13.23,0c0-5.46-2.1-8.89-5.25-8.89s-5.25,3.43-5.25,8.89,2.1,8.93,5.25,8.93S1060.81,781.27,1060.81,775.77Z" fill="#404040"/><path d="M1076.66,767.69h-10.78v-2.35h13.79v1.37c-1.71,2.41-7.07,13-8.15,19.64h-2.94C1069.94,779.8,1075.54,769.3,1076.66,767.69Z" fill="#404040"/><path d="M1004.78,235.34h2.34l7,14.94,7-14.94h2.22v18H1021V241.07c0-.45.06-1.47.06-1.5s-.45,1.08-.63,1.5l-5.61,12.27h-1.62l-5.61-12.27c-.21-.42-.6-1.41-.63-1.5s.06,1.05.06,1.5v12.27h-2.19Z" fill="#404040"/><path d="M1004.78,385.34h2.34l7,14.94,7-14.94h2.22v18H1021V391.07c0-.45.06-1.47.06-1.5s-.45,1.08-.63,1.5l-5.61,12.27h-1.62l-5.61-12.27c-.21-.42-.6-1.41-.63-1.5s.06,1.05.06,1.5v12.27h-2.19Z" fill="#404040"/><path d="M1009.4,138.34h10.89v2h-8.49v5.49h7v2h-7v8.49h-2.4Z" fill="#404040"/><path d="M1009.4,360.34h10.89v2h-8.49v5.49h7v2h-7v8.49h-2.4Z" fill="#404040"/><path d="M1093.09,93.34h2.4v16H1104v2h-10.89Z" fill="#404040"/><path d="M1106.26,97.63v-2.4h2.19v2.4Zm0,13.71V101.11h2.19v10.23Z" fill="#404040"/><path d="M1114.93,102.55v8.79h-2.19v-8.79h-2v-1.44h2V97.18c0-3,1.32-4.23,3.63-4.23a4.12,4.12,0,0,1,1.2.21v1.47a4.34,4.34,0,0,0-.9-.15c-1.2,0-1.74.57-1.74,2.49v4.14h2.67v1.44Z" fill="#404040"/><path d="M1128.85,105.94h-7.35c-.18,1.65.51,4.08,3.87,4.08a5.36,5.36,0,0,0,3.45-1.44v1.74a6.06,6.06,0,0,1-4.08,1.41,5.2,5.2,0,0,1-5.4-5.52,5.14,5.14,0,0,1,5.1-5.49,4.31,4.31,0,0,1,4.56,4.11A4.71,4.71,0,0,1,1128.85,105.94Zm-4.38-3.63a2.79,2.79,0,0,0-2.79,2.19h5.16a1.14,1.14,0,0,0,0-.24C1126.87,103.27,1126.06,102.31,1124.47,102.31Z" fill="#404040"/><path d="M1146.49,105.94h-7.35c-.18,1.65.51,4.08,3.87,4.08a5.36,5.36,0,0,0,3.45-1.44v1.74a6.06,6.06,0,0,1-4.08,1.41,5.2,5.2,0,0,1-5.4-5.52,5.14,5.14,0,0,1,5.1-5.49,4.31,4.31,0,0,1,4.56,4.11A4.71,4.71,0,0,1,1146.49,105.94Zm-4.38-3.63a2.79,2.79,0,0,0-2.79,2.19h5.16a1.14,1.14,0,0,0,0-.24C1144.51,103.27,1143.7,102.31,1142.11,102.31Z" fill="#404040"/><path d="M1157.35,111.34l-3.12-3.87-3.15,3.87h-2.43l4.41-5.19-4.2-5h2.43l3,3.69,3-3.69h2.34l-4.17,5,4.38,5.22Z" fill="#404040"/><path d="M1168.27,111.73a4.76,4.76,0,0,1-3.84-1.86v7.32h-2.19V101.11h2l.12,1.62a4.85,4.85,0,0,1,4-2c2.73,0,5,2.25,5,5.52S1171,111.73,1168.27,111.73Zm-.54-9.33a3.85,3.85,0,0,0,0,7.65c1.68,0,3.33-1.32,3.33-3.84S1169.41,102.4,1167.73,102.4Z" fill="#404040"/><path d="M1185.34,105.94H1178c-.18,1.65.51,4.08,3.87,4.08a5.36,5.36,0,0,0,3.45-1.44v1.74a6.06,6.06,0,0,1-4.08,1.41,5.2,5.2,0,0,1-5.4-5.52,5.14,5.14,0,0,1,5.1-5.49,4.31,4.31,0,0,1,4.56,4.11A4.71,4.71,0,0,1,1185.34,105.94Zm-4.38-3.63a2.79,2.79,0,0,0-2.79,2.19h5.16a1.14,1.14,0,0,0,0-.24C1183.36,103.27,1182.55,102.31,1181,102.31Z" fill="#404040"/><path d="M1193.86,111.67a5.45,5.45,0,1,1,0-10.89,5.73,5.73,0,0,1,3.57,1.17v1.83a4.77,4.77,0,0,0-3.39-1.29,3.74,3.74,0,0,0,0,7.47,4.77,4.77,0,0,0,3.39-1.29v1.83A5.73,5.73,0,0,1,1193.86,111.67Z" fill="#404040"/><path d="M1203.85,102.55v8.79h-2.19v-8.79h-2.07v-1.44h2.07V97.66h2.19v3.45h2v1.44Z" fill="#404040"/><path d="M1217.32,111.34l-.12-1.62a4.85,4.85,0,0,1-4,2c-2.73,0-5-2.25-5-5.52s2.25-5.49,5-5.49a4.93,4.93,0,0,1,4,2l.12-1.62h2v10.23Zm-6.87-5.1c0,2.52,1.65,3.81,3.3,3.81a3.85,3.85,0,0,0,0-7.65C1212.1,102.4,1210.45,103.72,1210.45,106.24Z" fill="#404040"/><path d="M1230.94,111.34v-6c0-2-.81-2.82-2.37-2.82s-3.33,1.29-3.33,3v5.85h-2.19V101.11h2l.15,1.77a5.16,5.16,0,0,1,4.14-2.16c2.76,0,3.84,1.92,3.84,4.47v6.15Z" fill="#404040"/><path d="M1241.86,111.67a5.45,5.45,0,1,1,0-10.89,5.73,5.73,0,0,1,3.57,1.17v1.83a4.77,4.77,0,0,0-3.39-1.29,3.74,3.74,0,0,0,0,7.47,4.77,4.77,0,0,0,3.39-1.29v1.83A5.73,5.73,0,0,1,1241.86,111.67Z" fill="#404040"/><path d="M1250.92,117.19h-2.19l2.79-6.33-4.35-9.75h2.16l3.27,7.71,3.23-7.71H1258Z" fill="#404040"/><path d="M1084.78,282.34h2.4v7.5h9.93v-7.5h2.4v18h-2.4v-8.49h-9.93v8.49h-2.4Z" fill="#404040"/><path d="M1112.32,294.94H1105c-.18,1.65.51,4.08,3.87,4.08a5.36,5.36,0,0,0,3.45-1.44v1.74a6.06,6.06,0,0,1-4.08,1.41,5.2,5.2,0,0,1-5.4-5.52,5.14,5.14,0,0,1,5.1-5.49,4.31,4.31,0,0,1,4.56,4.11A4.71,4.71,0,0,1,1112.32,294.94Zm-4.38-3.63a2.79,2.79,0,0,0-2.79,2.19h5.16a1.14,1.14,0,0,0,0-.24C1110.34,292.27,1109.53,291.31,1107.94,291.31Z" fill="#404040"/><path d="M1124.38,300.34l-.12-1.62a4.85,4.85,0,0,1-4,2c-2.73,0-5-2.25-5-5.52s2.25-5.49,5-5.49a4.93,4.93,0,0,1,4,2l.12-1.62h1.95v10.23Zm-6.87-5.1c0,2.52,1.65,3.81,3.3,3.81a3.85,3.85,0,0,0,0-7.65C1119.16,291.4,1117.51,292.72,1117.51,295.24Z" fill="#404040"/><path d="M1130.11,300.34v-18h2.19v18Z" fill="#404040"/><path d="M1139.5,291.55v8.79h-2.19v-8.79h-2.07v-1.44h2.07v-3.45h2.19v3.45h2v1.44Z" fill="#404040"/><path d="M1152.37,300.34v-6c0-1.95-.81-2.82-2.37-2.82s-3.33,1.29-3.33,3v5.85h-2.19v-18h2.19v9.54a5,5,0,0,1,4-2.16c2.76,0,3.84,1.92,3.84,4.47v6.15Z" fill="#404040"/><path d="M1160.08,306.19h-2.19l2.79-6.33-4.35-9.75h2.16l3.27,7.71,3.24-7.71h2.16Z" fill="#404040"/><path d="M1174.57,300.34v-18h2.19v18Z" fill="#404040"/><path d="M1180.54,286.63v-2.4h2.19v2.4Zm0,13.71V290.11h2.19v10.23Z" fill="#404040"/><path d="M1189.21,291.55v8.79H1187v-8.79h-2v-1.44h2v-3.93c0-3,1.32-4.23,3.63-4.23a4.12,4.12,0,0,1,1.2.21v1.47a4.34,4.34,0,0,0-.9-.15c-1.2,0-1.74.57-1.74,2.49v4.14h2.67v1.44Z" fill="#404040"/><path d="M1203.13,294.94h-7.35c-.18,1.65.51,4.08,3.87,4.08a5.36,5.36,0,0,0,3.45-1.44v1.74a6.06,6.06,0,0,1-4.08,1.41,5.2,5.2,0,0,1-5.4-5.52,5.14,5.14,0,0,1,5.1-5.49,4.31,4.31,0,0,1,4.56,4.11A4.71,4.71,0,0,1,1203.13,294.94Zm-4.38-3.63a2.79,2.79,0,0,0-2.79,2.19h5.16a1.14,1.14,0,0,0,0-.24C1201.15,292.27,1200.34,291.31,1198.75,291.31Z" fill="#404040"/><path d="M1214.08,306.19h-2.19l2.79-6.33-4.35-9.75h2.16l3.27,7.71,3.24-7.71h2.16Z" fill="#404040"/><path d="M1232,294.94h-7.35c-.18,1.65.51,4.08,3.87,4.08a5.36,5.36,0,0,0,3.45-1.44v1.74a6.06,6.06,0,0,1-4.08,1.41,5.2,5.2,0,0,1-5.4-5.52,5.14,5.14,0,0,1,5.1-5.49,4.31,4.31,0,0,1,4.56,4.11A4.71,4.71,0,0,1,1232,294.94Zm-4.38-3.63a2.79,2.79,0,0,0-2.79,2.19H1230a1.14,1.14,0,0,0,0-.24C1230,292.27,1229.17,291.31,1227.58,291.31Z" fill="#404040"/><path d="M1244,300.34l-.12-1.62a4.85,4.85,0,0,1-4,2c-2.73,0-5-2.25-5-5.52s2.25-5.49,5-5.49a4.93,4.93,0,0,1,4,2l.12-1.62h2v10.23Zm-6.87-5.1c0,2.52,1.65,3.81,3.3,3.81a3.85,3.85,0,0,0,0-7.65C1238.8,291.4,1237.15,292.72,1237.15,295.24Z" fill="#404040"/><path d="M1251.94,294.4v5.94h-2.19V290.11h2l.15,1.77a4.83,4.83,0,0,1,4-2.16v2.22C1253.89,291.58,1251.94,292.69,1251.94,294.4Z" fill="#404040"/><path d="M1261.48,300.73a7.63,7.63,0,0,1-3.9-1.14l.42-1.65a6.88,6.88,0,0,0,3.51,1.17c1.2,0,2-.48,2-1.47,0-.75-.57-1.26-2.25-1.65-2.25-.54-3.15-1.74-3.15-3.15,0-1.62,1-3.12,3.66-3.12a6.89,6.89,0,0,1,3.27,1l-.39,1.53a5.85,5.85,0,0,0-2.88-.93c-1.26,0-1.74.54-1.74,1.29s.66,1.17,1.89,1.47c2.42.57,3.51,1.74,3.51,3.33C1265.38,299.38,1264,300.73,1261.48,300.73Z" fill="#404040"/><circle cx="1038.58" cy="391.75" r="8.25" fill="#1649df" stroke="#fff" stroke-miterlimit="10" stroke-width="2"/><circle cx="1038.58" cy="369.75" r="8.25" fill="#002592" stroke="#fff" stroke-miterlimit="10" stroke-width="2"/><circle cx="1038.58" cy="243.75" r="8.25" fill="#df2d81" stroke="#fff" stroke-miterlimit="10" stroke-width="2"/><circle cx="1038.58" cy="144.75" r="8.25" fill="#922c5c" stroke="#fff" stroke-miterlimit="10" stroke-width="2"/><circle cx="1326.58" cy="289.75" r="8.25" fill="#1649df" stroke="#fff" stroke-miterlimit="10" stroke-width="2"/><circle cx="1326.58" cy="285.75" r="8.25" fill="#002592" stroke="#fff" stroke-miterlimit="10" stroke-width="2"/><circle cx="1326.58" cy="188.75" r="8.25" fill="#df2d81" stroke="#fff" stroke-miterlimit="10" stroke-width="2"/><circle cx="1326.58" cy="121.75" r="8.25" fill="#922c5c" stroke="#fff" stroke-miterlimit="10" stroke-width="2"/><path d="M1343.09,137.21h-2.19l2.79-6.33-4.35-9.75h2.16l3.27,7.71,3.24-7.71h2.16Z" fill="#404040"/><path d="M1354.58,125.42v5.94h-2.19V121.13h1.95l.15,1.77a4.83,4.83,0,0,1,4-2.16V123C1356.53,122.6,1354.58,123.71,1354.58,125.42Z" fill="#404040"/><path d="M1364.12,131.75a7.63,7.63,0,0,1-3.9-1.14l.42-1.65a6.88,6.88,0,0,0,3.51,1.17c1.2,0,1.95-.48,1.95-1.47,0-.75-.57-1.26-2.25-1.65-2.25-.54-3.15-1.74-3.15-3.15,0-1.62,1-3.12,3.66-3.12a6.85,6.85,0,0,1,3.27,1l-.39,1.53a5.85,5.85,0,0,0-2.88-.93c-1.26,0-1.74.54-1.74,1.29s.66,1.17,1.89,1.47c2.43.57,3.51,1.74,3.51,3.33C1368,130.4,1366.61,131.75,1364.12,131.75Z" fill="#404040"/><path d="M1371.5,128.6h2.76v2.76h-2.76Z" fill="#404040"/><line x1="1529.58" y1="752.12" x2="1816.87" y2="752.12" fill="none" stroke="#000" stroke-miterlimit="10"/><path d="M1836.11,750.6c0-6.93,3.5-11.13,8-11.13s8,4.2,8,11.13-3.46,11.16-8,11.16S1836.11,757.56,1836.11,750.6Zm13.23,0c0-5.46-2.1-8.89-5.25-8.89s-5.25,3.43-5.25,8.89,2.1,8.92,5.25,8.92S1849.34,756.09,1849.34,750.6Z" fill="#404040"/><path d="M1837.57,613.66V611a8,8,0,0,0,5.84,2.56c2.87,0,4.83-2.24,4.83-5.22,0-2.59-1.4-4.72-4.27-4.72a4.3,4.3,0,0,0-4.27,2.76l-1.4-.87V594.13h11.76v2.34h-9.59V603a5.64,5.64,0,0,1,3.92-1.5c3.57,0,6.51,2.62,6.51,6.89a7.12,7.12,0,0,1-7.45,7.35A9.17,9.17,0,0,1,1837.57,613.66Z" fill="#404040"/><path d="M1833.28,450.68H1831v-1.89l4.9-1.12v21.42h-2.66Z" fill="#404040"/><path d="M1840.87,458.52c0-6.93,3.5-11.13,8-11.13s8,4.2,8,11.13-3.46,11.16-8,11.16S1840.87,465.48,1840.87,458.52Zm13.23,0c0-5.46-2.1-8.89-5.25-8.89s-5.25,3.43-5.25,8.89,2.1,8.92,5.25,8.92S1854.1,464,1854.1,458.52Z" fill="#404040"/><path d="M1834.73,304.64h-2.24v-1.89l4.9-1.12v21.42h-2.66Z" fill="#404040"/><path d="M1842.33,321.58V319a8,8,0,0,0,5.84,2.56c2.87,0,4.83-2.24,4.83-5.22,0-2.59-1.4-4.72-4.27-4.72a4.3,4.3,0,0,0-4.27,2.76l-1.4-.87V302.05h11.76v2.34h-9.59v6.51a5.64,5.64,0,0,1,3.92-1.5c3.57,0,6.51,2.62,6.51,6.89a7.12,7.12,0,0,1-7.45,7.35A9.17,9.17,0,0,1,1842.33,321.58Z" fill="#404040"/><path d="M1827.59,175.08l6.06-6.3c1.92-2,3.81-4.23,3.81-7.07,0-3-1.75-4.06-3.78-4.06a8.64,8.64,0,0,0-5.56,2.35v-2.52a9.38,9.38,0,0,1,5.63-2.1c3.85,0,6.48,2.2,6.48,6.12,0,3.64-2.49,6.27-4.17,7.95l-5.28,5.21h9.9V177h-13.09Z" fill="#404040"/><path d="M1844,166.44c0-6.93,3.5-11.13,8-11.13s8,4.2,8,11.13-3.46,11.16-8,11.16S1844,173.4,1844,166.44Zm13.23,0c0-5.46-2.1-8.89-5.25-8.89s-5.25,3.43-5.25,8.89,2.1,8.92,5.25,8.92S1857.27,171.93,1857.27,166.44Z" fill="#404040"/><line x1="1817.58" y1="752.12" x2="1817.58" y2="128" fill="none" stroke="#303030" stroke-miterlimit="10" stroke-width="0.75" stroke-dasharray="12"/><line x1="1529.58" y1="732.12" x2="1529.58" y2="147.96" fill="none" stroke="#303030" stroke-miterlimit="10" stroke-width="0.75" stroke-dasharray="12"/><line x1="1529.58" y1="752.12" x2="1816.87" y2="752.12" fill="none" stroke="#404040" stroke-miterlimit="10" stroke-width="2"/><line x1="1529.58" y1="606.08" x2="1816.87" y2="606.08" fill="none" stroke="#c8c8c8" stroke-miterlimit="10" stroke-width="0.75"/><line x1="1529.58" y1="460.04" x2="1816.87" y2="460.04" fill="none" stroke="#c8c8c8" stroke-miterlimit="10" stroke-width="0.75"/><line x1="1529.58" y1="314" x2="1816.87" y2="314" fill="none" stroke="#c8c8c8" stroke-miterlimit="10" stroke-width="0.75"/><line x1="1529.58" y1="167.96" x2="1816.87" y2="167.96" fill="none" stroke="#c8c8c8" stroke-miterlimit="10" stroke-width="0.75"/><line x1="1816.87" y1="191.33" x2="1529.58" y2="229.3" fill="none" stroke="#df2d81" stroke-miterlimit="10" stroke-width="5"/><line x1="1816.87" y1="124.15" x2="1529.58" y2="144.59" fill="none" stroke="#922c5c" stroke-miterlimit="10" stroke-width="5"/><line x1="1816.87" y1="302.32" x2="1529.58" y2="372.42" fill="none" stroke="#1649df" stroke-miterlimit="10" stroke-width="5"/><line x1="1816.87" y1="290.63" x2="1529.58" y2="346.13" fill="none" stroke="#002592" stroke-miterlimit="10" stroke-width="5"/><path d="M1777,784.42l6.06-6.3c1.92-2,3.81-4.24,3.81-7.07,0-3-1.75-4.06-3.78-4.06a8.65,8.65,0,0,0-5.57,2.34v-2.52a9.47,9.47,0,0,1,5.64-2.1c3.85,0,6.48,2.21,6.48,6.13,0,3.64-2.49,6.26-4.17,7.95l-5.28,5.21h9.9v2.35H1777Z" fill="#404040"/><path d="M1793.47,775.77c0-6.93,3.5-11.13,8-11.13s8,4.2,8,11.13-3.46,11.17-8,11.17S1793.47,782.74,1793.47,775.77Zm13.23,0c0-5.46-2.1-8.89-5.25-8.89s-5.25,3.43-5.25,8.89,2.1,8.93,5.25,8.93S1806.7,781.27,1806.7,775.77Z" fill="#404040"/><path d="M1814.71,767.93h-2.24V766l4.9-1.12v21.43h-2.66Z" fill="#404040"/><path d="M1832.07,767.69h-10.78v-2.35h13.79v1.37c-1.71,2.41-7.07,13-8.15,19.64H1824C1825.35,779.8,1831,769.3,1832.07,767.69Z" fill="#404040"/><path d="M1501.47,784.42l6.06-6.3c1.93-2,3.81-4.24,3.81-7.07,0-3-1.75-4.06-3.78-4.06a8.62,8.62,0,0,0-5.56,2.34v-2.52a9.44,9.44,0,0,1,5.63-2.1c3.85,0,6.48,2.21,6.48,6.13,0,3.64-2.49,6.26-4.17,7.95l-5.28,5.21h9.91v2.35h-13.1Z" fill="#404040"/><path d="M1517.92,775.77c0-6.93,3.5-11.13,8-11.13s8,4.2,8,11.13-3.46,11.17-8,11.17S1517.92,782.74,1517.92,775.77Zm13.23,0c0-5.46-2.1-8.89-5.25-8.89s-5.25,3.43-5.25,8.89,2.1,8.93,5.25,8.93S1531.15,781.27,1531.15,775.77Z" fill="#404040"/><path d="M1537.24,775.77c0-6.93,3.5-11.13,8-11.13s8,4.2,8,11.13-3.46,11.17-8,11.17S1537.24,782.74,1537.24,775.77Zm13.23,0c0-5.46-2.1-8.89-5.25-8.89s-5.25,3.43-5.25,8.89,2.1,8.93,5.25,8.93S1550.47,781.27,1550.47,775.77Z" fill="#404040"/><path d="M1566.33,767.69h-10.78v-2.35h13.79v1.37c-1.72,2.41-7.07,13-8.16,19.64h-2.94C1559.61,779.8,1565.21,769.3,1566.33,767.69Z" fill="#404040"/><path d="M1495.45,221.34h2.34l7,14.94,7-14.94h2.21v18h-2.3V227.07c0-.45.05-1.47.05-1.5s-.45,1.08-.63,1.5l-5.6,12.27h-1.62l-5.61-12.27c-.21-.42-.6-1.41-.63-1.5s.06,1.05.06,1.5v12.27h-2.19Z" fill="#404040"/><path d="M1495.45,364.34h2.34l7,14.94,7-14.94h2.21v18h-2.3V370.07c0-.45.05-1.47.05-1.5s-.45,1.08-.63,1.5l-5.6,12.27h-1.62l-5.61-12.27c-.21-.42-.6-1.41-.63-1.5s.06,1.05.06,1.5v12.27h-2.19Z" fill="#404040"/><path d="M1500.07,137.34H1511v2h-8.49v5.49h7v2h-7v8.49h-2.4Z" fill="#404040"/><path d="M1500.07,337.34H1511v2h-8.49v5.49h7v2h-7v8.49h-2.4Z" fill="#404040"/><path d="M1579.76,100.34h2.4v16h8.49v2h-10.89Z" fill="#404040"/><path d="M1592.93,104.63v-2.4h2.19v2.4Zm0,13.71V108.11h2.19v10.23Z" fill="#404040"/><path d="M1601.59,109.55v8.79h-2.19v-8.79h-2v-1.44h2v-3.93c0-3,1.32-4.23,3.64-4.23a4.1,4.1,0,0,1,1.19.21v1.47a4.34,4.34,0,0,0-.9-.15c-1.2,0-1.74.57-1.74,2.49v4.14h2.67v1.44Z" fill="#404040"/><path d="M1615.51,112.94h-7.34c-.19,1.65.5,4.08,3.87,4.08a5.35,5.35,0,0,0,3.44-1.44v1.74a6,6,0,0,1-4.08,1.41,5.2,5.2,0,0,1-5.4-5.52,5.14,5.14,0,0,1,5.11-5.49,4.3,4.3,0,0,1,4.55,4.11A4.71,4.71,0,0,1,1615.51,112.94Zm-4.38-3.63a2.8,2.8,0,0,0-2.79,2.19h5.16a.87.87,0,0,0,0-.24C1613.54,110.27,1612.72,109.31,1611.13,109.31Z" fill="#404040"/><path d="M1633.15,112.94h-7.35c-.18,1.65.51,4.08,3.87,4.08a5.36,5.36,0,0,0,3.45-1.44v1.74a6.06,6.06,0,0,1-4.08,1.41,5.2,5.2,0,0,1-5.4-5.52,5.14,5.14,0,0,1,5.1-5.49,4.31,4.31,0,0,1,4.56,4.11A4.71,4.71,0,0,1,1633.15,112.94Zm-4.38-3.63a2.79,2.79,0,0,0-2.79,2.19h5.16a1.14,1.14,0,0,0,0-.24C1631.17,110.27,1630.36,109.31,1628.77,109.31Z" fill="#404040"/><path d="M1644,118.34l-3.12-3.87-3.15,3.87h-2.43l4.41-5.19-4.2-5H1638l3,3.69,3-3.69h2.34l-4.17,5,4.38,5.22Z" fill="#404040"/><path d="M1654.93,118.73a4.76,4.76,0,0,1-3.84-1.86v7.32h-2.19V108.11h1.95l.12,1.62a4.85,4.85,0,0,1,4-2c2.73,0,5,2.25,5,5.52S1657.66,118.73,1654.93,118.73Zm-.54-9.33a3.85,3.85,0,0,0,0,7.65c1.68,0,3.33-1.32,3.33-3.84S1656.07,109.4,1654.39,109.4Z" fill="#404040"/><path d="M1672,112.94h-7.35c-.18,1.65.51,4.08,3.87,4.08a5.36,5.36,0,0,0,3.45-1.44v1.74a6.06,6.06,0,0,1-4.08,1.41,5.2,5.2,0,0,1-5.4-5.52,5.14,5.14,0,0,1,5.1-5.49,4.31,4.31,0,0,1,4.56,4.11A4.71,4.71,0,0,1,1672,112.94Zm-4.38-3.63a2.79,2.79,0,0,0-2.79,2.19H1670a1.14,1.14,0,0,0,0-.24C1670,110.27,1669.21,109.31,1667.62,109.31Z" fill="#404040"/><path d="M1680.52,118.67a5.45,5.45,0,1,1,0-10.89,5.73,5.73,0,0,1,3.57,1.17v1.83a4.77,4.77,0,0,0-3.39-1.29,3.74,3.74,0,0,0,0,7.47,4.77,4.77,0,0,0,3.39-1.29v1.83A5.73,5.73,0,0,1,1680.52,118.67Z" fill="#404040"/><path d="M1690.51,109.55v8.79h-2.19v-8.79h-2.07v-1.44h2.07v-3.45h2.19v3.45h2v1.44Z" fill="#404040"/><path d="M1704,118.34l-.12-1.62a4.85,4.85,0,0,1-4,2c-2.73,0-5-2.25-5-5.52s2.25-5.49,5-5.49a4.93,4.93,0,0,1,4,2l.12-1.62h2v10.23Zm-6.87-5.1c0,2.52,1.65,3.81,3.3,3.81a3.85,3.85,0,0,0,0-7.65C1698.76,109.4,1697.11,110.72,1697.11,113.24Z" fill="#404040"/><path d="M1717.6,118.34v-6c0-2-.81-2.82-2.37-2.82s-3.33,1.29-3.33,3v5.85h-2.19V108.11h2l.15,1.77a5.16,5.16,0,0,1,4.14-2.16c2.76,0,3.84,1.92,3.84,4.47v6.15Z" fill="#404040"/><path d="M1728.52,118.67a5.45,5.45,0,1,1,0-10.89,5.73,5.73,0,0,1,3.57,1.17v1.83a4.77,4.77,0,0,0-3.39-1.29,3.74,3.74,0,0,0,0,7.47,4.77,4.77,0,0,0,3.39-1.29v1.83A5.73,5.73,0,0,1,1728.52,118.67Z" fill="#404040"/><path d="M1737.58,124.19h-2.19l2.79-6.33-4.35-9.75H1736l3.27,7.71,3.24-7.71h2.16Z" fill="#404040"/><path d="M1571.45,276.34h2.4v7.5h9.93v-7.5h2.4v18h-2.4v-8.49h-9.93v8.49h-2.4Z" fill="#404040"/><path d="M1599,288.94h-7.35c-.18,1.65.51,4.08,3.87,4.08a5.36,5.36,0,0,0,3.45-1.44v1.74a6.06,6.06,0,0,1-4.08,1.41,5.2,5.2,0,0,1-5.4-5.52,5.14,5.14,0,0,1,5.1-5.49,4.3,4.3,0,0,1,4.55,4.11A4.69,4.69,0,0,1,1599,288.94Zm-4.38-3.63a2.79,2.79,0,0,0-2.79,2.19H1597a1.14,1.14,0,0,0,0-.24C1597,286.27,1596.2,285.31,1594.61,285.31Z" fill="#404040"/><path d="M1611,294.34l-.11-1.62a4.87,4.87,0,0,1-4,2c-2.72,0-5-2.25-5-5.52s2.25-5.49,5-5.49a5,5,0,0,1,4,2l.11-1.62h2v10.23Zm-6.86-5.1c0,2.52,1.65,3.81,3.29,3.81a3.84,3.84,0,0,0,0-7.65C1605.83,285.4,1604.18,286.72,1604.18,289.24Z" fill="#404040"/><path d="M1616.78,294.34v-18H1619v18Z" fill="#404040"/><path d="M1626.16,285.55v8.79H1624v-8.79h-2.07v-1.44H1624v-3.45h2.19v3.45h2v1.44Z" fill="#404040"/><path d="M1639,294.34v-6c0-1.95-.82-2.82-2.37-2.82s-3.33,1.29-3.33,3v5.85h-2.19v-18h2.19v9.54a5,5,0,0,1,4-2.16c2.76,0,3.84,1.92,3.84,4.47v6.15Z" fill="#404040"/><path d="M1646.74,300.19h-2.19l2.79-6.33-4.34-9.75h2.15l3.27,7.71,3.24-7.71h2.16Z" fill="#404040"/><path d="M1661.23,294.34v-18h2.19v18Z" fill="#404040"/><path d="M1667.2,280.63v-2.4h2.19v2.4Zm0,13.71V284.11h2.19v10.23Z" fill="#404040"/><path d="M1675.87,285.55v8.79h-2.19v-8.79h-2v-1.44h2v-3.93c0-3,1.32-4.23,3.63-4.23a4.12,4.12,0,0,1,1.2.21v1.47a4.34,4.34,0,0,0-.9-.15c-1.2,0-1.74.57-1.74,2.49v4.14h2.67v1.44Z" fill="#404040"/><path d="M1689.79,288.94h-7.35c-.18,1.65.51,4.08,3.87,4.08a5.36,5.36,0,0,0,3.45-1.44v1.74a6.06,6.06,0,0,1-4.08,1.41,5.2,5.2,0,0,1-5.4-5.52,5.14,5.14,0,0,1,5.1-5.49,4.31,4.31,0,0,1,4.56,4.11A4.71,4.71,0,0,1,1689.79,288.94Zm-4.38-3.63a2.79,2.79,0,0,0-2.79,2.19h5.16a1.14,1.14,0,0,0,0-.24C1687.81,286.27,1687,285.31,1685.41,285.31Z" fill="#404040"/><path d="M1700.74,300.19h-2.19l2.79-6.33-4.35-9.75h2.16l3.27,7.71,3.24-7.71h2.16Z" fill="#404040"/><path d="M1718.62,288.94h-7.35c-.18,1.65.51,4.08,3.87,4.08a5.36,5.36,0,0,0,3.45-1.44v1.74a6.06,6.06,0,0,1-4.08,1.41,5.2,5.2,0,0,1-5.4-5.52,5.14,5.14,0,0,1,5.1-5.49,4.31,4.31,0,0,1,4.56,4.11A4.71,4.71,0,0,1,1718.62,288.94Zm-4.38-3.63a2.79,2.79,0,0,0-2.79,2.19h5.16a1.14,1.14,0,0,0,0-.24C1716.64,286.27,1715.83,285.31,1714.24,285.31Z" fill="#404040"/><path d="M1730.68,294.34l-.12-1.62a4.85,4.85,0,0,1-4,2c-2.73,0-5-2.25-5-5.52s2.25-5.49,5-5.49a4.93,4.93,0,0,1,4,2l.12-1.62h2v10.23Zm-6.87-5.1c0,2.52,1.65,3.81,3.3,3.81a3.85,3.85,0,0,0,0-7.65C1725.46,285.4,1723.81,286.72,1723.81,289.24Z" fill="#404040"/><path d="M1738.6,288.4v5.94h-2.19V284.11h1.95l.15,1.77a4.83,4.83,0,0,1,4-2.16v2.22C1740.55,285.58,1738.6,286.69,1738.6,288.4Z" fill="#404040"/><path d="M1748.14,294.73a7.63,7.63,0,0,1-3.9-1.14l.42-1.65a6.88,6.88,0,0,0,3.51,1.17c1.2,0,1.95-.48,1.95-1.47,0-.75-.57-1.26-2.25-1.65-2.25-.54-3.15-1.74-3.15-3.15,0-1.62,1-3.12,3.66-3.12a6.85,6.85,0,0,1,3.27,1l-.39,1.53a5.85,5.85,0,0,0-2.88-.93c-1.26,0-1.74.54-1.74,1.29s.66,1.17,1.89,1.47c2.43.57,3.51,1.74,3.51,3.33C1752,293.38,1750.63,294.73,1748.14,294.73Z" fill="#404040"/><circle cx="1529.25" cy="372.75" r="8.25" fill="#1649df" stroke="#fff" stroke-miterlimit="10" stroke-width="2"/><circle cx="1529.25" cy="346.75" r="8.25" fill="#002592" stroke="#fff" stroke-miterlimit="10" stroke-width="2"/><circle cx="1529.25" cy="229.75" r="8.25" fill="#df2d81" stroke="#fff" stroke-miterlimit="10" stroke-width="2"/><circle cx="1529.25" cy="144.75" r="8.25" fill="#922c5c" stroke="#fff" stroke-miterlimit="10" stroke-width="2"/><circle cx="1817.25" cy="301.75" r="8.25" fill="#1649df" stroke="#fff" stroke-miterlimit="10" stroke-width="2"/><circle cx="1817.25" cy="288.75" r="8.25" fill="#002592" stroke="#fff" stroke-miterlimit="10" stroke-width="2"/><circle cx="1817.25" cy="190.75" r="8.25" fill="#df2d81" stroke="#fff" stroke-miterlimit="10" stroke-width="2"/><circle cx="1817.25" cy="122.75" r="8.25" fill="#922c5c" stroke="#fff" stroke-miterlimit="10" stroke-width="2"/><path d="M1833.76,137.21h-2.19l2.79-6.33-4.35-9.75h2.16l3.27,7.71,3.24-7.71h2.16Z" fill="#404040"/><path d="M1845.25,125.42v5.94h-2.19V121.13h2l.15,1.77a4.83,4.83,0,0,1,4-2.16V123C1847.2,122.6,1845.25,123.71,1845.25,125.42Z" fill="#404040"/><path d="M1854.79,131.75a7.63,7.63,0,0,1-3.9-1.14l.42-1.65a6.88,6.88,0,0,0,3.51,1.17c1.2,0,2-.48,2-1.47,0-.75-.57-1.26-2.25-1.65-2.25-.54-3.15-1.74-3.15-3.15,0-1.62,1.05-3.12,3.66-3.12a6.85,6.85,0,0,1,3.27,1l-.39,1.53a5.85,5.85,0,0,0-2.88-.93c-1.26,0-1.74.54-1.74,1.29s.66,1.17,1.89,1.47c2.43.57,3.51,1.74,3.51,3.33C1858.69,130.4,1857.28,131.75,1854.79,131.75Z" fill="#404040"/><path d="M1862.17,128.6h2.76v2.76h-2.76Z" fill="#404040"/></svg>