<svg id="Layer_1" data-name="Layer 1" xmlns="http://www.w3.org/2000/svg" viewBox="0 0 1879 667"><title>housing</title><rect x="-4" width="1879" height="667" fill="#fff"/><path d="M445.17,179.61l3.23-61.74a61.91,61.91,0,1,1-3.23-.08Z" fill="#e6e6e6"/><path d="M445.17,179.61V117.79c1.36,0,1.87,0,3.23.08Z" fill="#df2d81"/><path d="M445.17,350.83l10.73-60.89a61.87,61.87,0,1,1-10.73-.93Z" fill="#e6e6e6"/><path d="M445.17,350.83V289a58.47,58.47,0,0,1,10.73.93Z" fill="#df2d81"/><path d="M445.17,522.05l42.16-45.21A61.82,61.82,0,1,1,400,479.89a60.34,60.34,0,0,1,45.22-19.66Z" fill="#e6e6e6"/><path d="M445.17,522.05V460.23c16.52,0,30.07,5.34,42.16,16.61Z" fill="#df2d81"/><path d="M748.28,179.61,753.67,118a61.89,61.89,0,1,1-5.39-.23Z" fill="#e6e6e6"/><path d="M748.28,179.61V117.79a53.85,53.85,0,0,1,5.39.23Z" fill="#df2d81"/><path d="M748.28,350.83l12.85-60.47A61.82,61.82,0,1,1,748.28,289Z" fill="#e6e6e6"/><path d="M748.28,350.83V289a54,54,0,0,1,12.85,1.35Z" fill="#df2d81"/><path d="M748.28,522.05l48-38.9a61.82,61.82,0,1,1-87-9.14,60,60,0,0,1,38.91-13.78Z" fill="#e6e6e6"/><path d="M748.28,522.05V460.23c19.53,0,35.75,7.74,48,22.92Z" fill="#df2d81"/><path d="M1051.38,179.61l7.53-61.36a61.82,61.82,0,1,1-7.53-.46Z" fill="#e6e6e6"/><path d="M1051.38,179.61V117.79a57.44,57.44,0,0,1,7.53.46Z" fill="#df2d81"/><path d="M1051.39,350.83l19.1-58.8a61.82,61.82,0,1,1-77.9,39.69,61.1,61.1,0,0,1,58.8-42.71Z" fill="#e6e6e6"/><path d="M1051.39,350.83V289a57.67,57.67,0,0,1,19.1,3Z" fill="#df2d81"/><path d="M1051.39,522.05l59.42-17a61.79,61.79,0,1,1-59.42-44.78Z" fill="#e6e6e6"/><path d="M1051.39,522.05V460.23c28.4,0,51.59,17.48,59.42,44.78Z" fill="#df2d81"/><path d="M1354.5,179.61l3.24-61.74a61.92,61.92,0,1,1-3.24-.08Z" fill="#e6e6e6"/><path d="M1354.5,179.61V117.79c1.23,0,2,0,3.24.08Z" fill="#df2d81"/><path d="M1354.5,350.83l11.8-60.69a61.85,61.85,0,1,1-11.8-1.13Z" fill="#e6e6e6"/><path d="M1354.5,350.83V289a57.77,57.77,0,0,1,11.8,1.13Z" fill="#df2d81"/><path d="M1354.5,522.05l47.36-39.73a61.82,61.82,0,1,1-87.1-7.62,60.46,60.46,0,0,1,39.74-14.47Z" fill="#e6e6e6"/><path d="M1354.5,522.05V460.23c19.26,0,35,7.34,47.36,22.09Z" fill="#df2d81"/><path d="M138.25,167.67H151V170h-9.91v6.41h8.16v2.35h-8.16v9.9h-2.8Z" fill="#404040"/><path d="M154.77,181.74v6.93h-2.56V176.74h2.28l.18,2.06a5.62,5.62,0,0,1,4.65-2.52v2.59C157.05,178.45,154.77,179.75,154.77,181.74Z" fill="#404040"/><path d="M168.11,189.2a6.51,6.51,0,1,1,6.89-6.51A6.71,6.71,0,0,1,168.11,189.2Zm0-11a4.5,4.5,0,1,0,4.34,4.48A4.26,4.26,0,0,0,168.11,178.21Z" fill="#404040"/><path d="M195.83,188.67V181.6c0-2.24-.74-3.25-2.52-3.25a3.66,3.66,0,0,0-3.57,3.5v6.82h-2.56V181.6c0-2.24-.7-3.25-2.52-3.25a3.64,3.64,0,0,0-3.54,3.5v6.82h-2.55V176.74h2.28l.17,2.06a5.38,5.38,0,0,1,4.48-2.52,3.71,3.71,0,0,1,4,2.73,5.73,5.73,0,0,1,4.69-2.73c3.22,0,4.23,2.24,4.23,5.22v7.17Z" fill="#404040"/><path d="M208.49,179.36c0-7.42,2.84-12.32,8.79-12.32a7.92,7.92,0,0,1,4.51,1.33v2.42a8,8,0,0,0-4.48-1.51c-3.53,0-6,2.34-6.16,8.82a6.11,6.11,0,0,1,5.36-2.83c3.71,0,6.54,2.76,6.54,7.07a6.94,6.94,0,0,1-7.1,6.93C212.83,189.27,208.49,187.52,208.49,179.36Zm11.83,3c0-2.84-1.43-4.94-4.37-4.94a4.64,4.64,0,0,0-4.66,4.34c0,3.64,2.31,5.43,4.48,5.43C218.54,187.17,220.32,185.24,220.32,182.34Z" fill="#404040"/><path d="M226.2,187.2v-2.62a8,8,0,0,0,5.85,2.55c2.87,0,4.83-2.24,4.83-5.21,0-2.59-1.4-4.73-4.27-4.73a4.28,4.28,0,0,0-4.27,2.77l-1.4-.88V167.67H238.7V170h-9.59v6.52A5.61,5.61,0,0,1,233,175c3.57,0,6.51,2.63,6.51,6.9a7.13,7.13,0,0,1-7.46,7.35A9.14,9.14,0,0,1,226.2,187.2Z" fill="#404040"/><path d="M253.19,178.42v10.25h-2.56V178.42h-2.41v-1.68h2.41v-4h2.56v4h2.38v1.68Z" fill="#404040"/><path d="M265.05,189.2a6.51,6.51,0,1,1,6.9-6.51A6.7,6.7,0,0,1,265.05,189.2Zm0-11a4.5,4.5,0,1,0,4.34,4.48A4.27,4.27,0,0,0,265.05,178.21Z" fill="#404040"/><path d="M290.81,170H280v-2.34h13.79V169c-1.71,2.41-7.07,13-8.15,19.63h-2.94C284.09,182.13,289.69,171.62,290.81,170Z" fill="#404040"/><path d="M303,183.21h-9.87v-1.54L304,167.28h1.65V181h3.81v2.17h-3.81v5.46H303Zm0-2.17v-9.17l-7,9.17Z" fill="#404040"/><path d="M138.25,341.67H151V344h-9.91v6.41h8.16v2.35h-8.16v9.9h-2.8Z" fill="#404040"/><path d="M154.77,355.74v6.93h-2.56V350.74h2.28l.18,2.06a5.62,5.62,0,0,1,4.65-2.52v2.59C157.05,352.45,154.77,353.75,154.77,355.74Z" fill="#404040"/><path d="M168.11,363.2a6.51,6.51,0,1,1,6.89-6.51A6.71,6.71,0,0,1,168.11,363.2Zm0-11a4.5,4.5,0,1,0,4.34,4.48A4.26,4.26,0,0,0,168.11,352.21Z" fill="#404040"/><path d="M195.83,362.67V355.6c0-2.24-.74-3.25-2.52-3.25a3.66,3.66,0,0,0-3.57,3.5v6.82h-2.56V355.6c0-2.24-.7-3.25-2.52-3.25a3.64,3.64,0,0,0-3.54,3.5v6.82h-2.55V350.74h2.28l.17,2.06a5.38,5.38,0,0,1,4.48-2.52,3.71,3.71,0,0,1,4,2.73,5.73,5.73,0,0,1,4.69-2.73c3.22,0,4.23,2.24,4.23,5.22v7.17Z" fill="#404040"/><path d="M218.08,344H207.3v-2.34h13.79V343c-1.71,2.41-7.07,13-8.15,19.63H210C211.36,356.13,217,345.62,218.08,344Z" fill="#404040"/><path d="M223.86,361.2v-2.62a8,8,0,0,0,5.84,2.55c2.87,0,4.84-2.24,4.84-5.21,0-2.59-1.41-4.73-4.28-4.73A4.3,4.3,0,0,0,226,354l-1.4-.88V341.67h11.77V344h-9.6v6.52a5.61,5.61,0,0,1,3.92-1.51c3.57,0,6.52,2.63,6.52,6.9a7.13,7.13,0,0,1-7.46,7.35A9.12,9.12,0,0,1,223.86,361.2Z" fill="#404040"/><path d="M250.84,352.42v10.25h-2.55V352.42h-2.42v-1.68h2.42v-4h2.55v4h2.38v1.68Z" fill="#404040"/><path d="M262.71,363.2a6.51,6.51,0,1,1,6.89-6.51A6.71,6.71,0,0,1,262.71,363.2Zm0-11a4.5,4.5,0,1,0,4.34,4.48A4.26,4.26,0,0,0,262.71,352.21Z" fill="#404040"/><path d="M288.47,344H277.69v-2.34h13.79V343c-1.72,2.41-7.07,13-8.16,19.63h-2.94C281.75,356.13,287.35,345.62,288.47,344Z" fill="#404040"/><path d="M308.59,350.88c0,7.42-2.83,12.32-8.78,12.32a8,8,0,0,1-4.52-1.33v-2.42a8.06,8.06,0,0,0,4.48,1.51c3.54,0,6-2.35,6.16-8.82a6.08,6.08,0,0,1-5.35,2.83c-3.71,0-6.55-2.76-6.55-7.07a7,7,0,0,1,7.11-6.93C304.25,341,308.59,342.72,308.59,350.88Zm-11.83-3c0,2.84,1.44,4.94,4.38,4.94a4.63,4.63,0,0,0,4.65-4.34c0-3.64-2.31-5.43-4.48-5.43C298.55,343.07,296.76,345,296.76,347.9Z" fill="#404040"/><path d="M137.24,519.17a11.15,11.15,0,1,1,11.16,11.1A10.78,10.78,0,0,1,137.24,519.17Zm19.39,0c0-5.11-3.43-8.75-8.23-8.75s-8.26,3.64-8.26,8.75,3.43,8.75,8.26,8.75S156.63,524.25,156.63,519.17Z" fill="#404040"/><path d="M168.56,529.78h-1.92l-5.36-12h2.52l3.82,9,3.78-9h2.52Z" fill="#404040"/><path d="M186.52,523.37h-8.58c-.21,1.93.6,4.76,4.52,4.76a6.2,6.2,0,0,0,4-1.68v2a7.07,7.07,0,0,1-4.76,1.65,6.06,6.06,0,0,1-6.3-6.44c0-3.89,2.7-6.41,6-6.41a5,5,0,0,1,5.32,4.8A5.71,5.71,0,0,1,186.52,523.37Zm-5.11-4.23a3.26,3.26,0,0,0-3.26,2.55h6a1.17,1.17,0,0,0,0-.28C184.21,520.26,183.26,519.14,181.41,519.14Z" fill="#404040"/><path d="M193.24,522.74v6.93h-2.56V517.74H193l.17,2.06a5.66,5.66,0,0,1,4.66-2.52v2.59C195.51,519.45,193.24,520.75,193.24,522.74Z" fill="#404040"/><path d="M206.4,524.07a6.36,6.36,0,0,1,4.79-6.12,5,5,0,0,1-3.53-4.91c0-2.9,3-5.07,6.4-5.07s6.37,2.17,6.37,5.07A5,5,0,0,1,216.9,518a6.36,6.36,0,0,1,4.79,6.12c0,3.68-3.36,6.2-7.63,6.2S206.4,527.75,206.4,524.07Zm12.63-.35c0-2.76-2.24-4.55-5-4.55s-5,1.79-5,4.55c0,2.59,2.2,4.45,5,4.45S219,526.31,219,523.72Zm-1.19-10.32a3.47,3.47,0,0,0-3.78-3.44c-2.13,0-3.78,1.3-3.78,3.44a3.79,3.79,0,0,0,7.56,0Z" fill="#404040"/><path d="M225.05,519.1c0-6.93,3.5-11.13,8-11.13s8,4.2,8,11.13-3.46,11.17-8,11.17S225.05,526.07,225.05,519.1Zm13.23,0c0-5.46-2.1-8.89-5.25-8.89s-5.25,3.43-5.25,8.89S229.88,528,233,528,238.28,524.6,238.28,519.1Z" fill="#404040"/><path d="M372.24,56.67h6.51c8.16,0,11.69,4.73,11.69,10.5s-3.53,10.5-11.69,10.5h-6.51Zm6.55,18.55c6.82,0,8.75-3.85,8.75-8s-1.93-8.05-8.75-8.05H375v16.1Z" fill="#404040"/><path d="M394.19,56.67h12.7V59H397v6.41h8.15v2.35H397v7.56h9.9v2.34h-12.7Z" fill="#404040"/><path d="M411,56.67h1.61l12.49,15.65V56.67h2.56v21H426L413.54,62V77.67H411Z" fill="#404040"/><path d="M432.41,56.67h2.73l8.12,17.43,8.12-17.43H454v21h-2.7V63.36c0-.53.07-1.72.07-1.75s-.52,1.26-.73,1.75l-6.55,14.31h-1.89l-6.54-14.31c-.25-.49-.7-1.65-.74-1.75s.07,1.22.07,1.75V77.67h-2.55Z" fill="#404040"/><path d="M465.73,56.67h1.82l9,21h-2.87l-2.52-5.88H462l-2.52,5.88H456.7Zm4.51,12.85-3.67-8.65-3.68,8.65Z" fill="#404040"/><path d="M479.31,56.67h6.93c4.79,0,6.86,2.76,6.86,6.16a5.63,5.63,0,0,1-4.34,5.85l6.37,9h-3.26l-6-8.68h-3.74v8.68h-2.8Zm6.93,10c3.15,0,4.09-1.89,4.09-3.82S489.39,59,486.24,59h-4.13v7.64Z" fill="#404040"/><path d="M497.58,56.67h2.8v9.94l9.73-9.94h3.22l-10,10,11.38,11H511L500.38,67.35V77.67h-2.8Z" fill="#404040"/><path d="M691.53,56.67h12.71V59h-9.91v6.41h8.16v2.35h-8.16v9.9h-2.8Z" fill="#404040"/><path d="M707.07,56.67h2.8v21h-2.8Z" fill="#404040"/><path d="M714.63,56.67h1.61l12.5,15.65V56.67h2.55v21h-1.61L717.19,62V77.67h-2.56Z" fill="#404040"/><path d="M736.05,56.67h2.8V75.33h9.91v2.34H736.05Z" fill="#404040"/><path d="M758.59,56.67h1.82l9,21h-2.87l-2.52-5.88h-9.24l-2.52,5.88h-2.73Zm4.52,12.85-3.68-8.65-3.67,8.65Z" fill="#404040"/><path d="M772.17,56.67h1.61l12.5,15.65V56.67h2.55v21h-1.61L774.73,62V77.67h-2.56Z" fill="#404040"/><path d="M793.59,56.67h6.51c8.16,0,11.69,4.73,11.69,10.5s-3.53,10.5-11.69,10.5h-6.51Zm6.55,18.55c6.82,0,8.75-3.85,8.75-8s-1.93-8.05-8.75-8.05h-3.75v16.1Z" fill="#404040"/><path d="M999.61,56.67h1.61l12.49,15.65V56.67h2.56v21h-1.61L1002.16,62V77.67h-2.55Z" fill="#404040"/><path d="M1020,67.17a11.15,11.15,0,1,1,11.17,11.1A10.78,10.78,0,0,1,1020,67.17Zm19.39,0c0-5.11-3.42-8.75-8.22-8.75s-8.26,3.64-8.26,8.75,3.43,8.75,8.26,8.75S1039.4,72.25,1039.4,67.18Z" fill="#404040"/><path d="M1046.05,56.68H1053c4.8,0,6.87,2.77,6.87,6.16a5.65,5.65,0,0,1-4.35,5.85l6.37,9h-3.25l-6-8.68h-3.75v8.68h-2.8Zm6.93,10c3.15,0,4.1-1.89,4.1-3.82S1056.13,59,1053,59h-4.13v7.64Z" fill="#404040"/><path d="M1061.94,56.68h2.87l5,15.51c.11.35.25,1.19.28,1.3a9.41,9.41,0,0,1,.35-1.3l5-15.5h1.75l5,15.5c.14.39.35,1.3.35,1.3a10.2,10.2,0,0,1,.28-1.3l5-15.5h2.73l-7.25,21h-1.75l-5-14.39c-.11-.28-.32-1-.35-1.15,0,.07-.25.87-.35,1.15l-5,14.39h-1.75Z" fill="#404040"/><path d="M1098,56.69h1.82l9,21H1106l-2.52-5.88h-9.24l-2.53,5.88H1089Zm4.51,12.85-3.67-8.65-3.68,8.64Z" fill="#404040"/><path d="M1113.92,69.29l-8.23-12.6h3L1115.39,67,1122,56.69H1125l-8.23,12.6V77.7h-2.8Z" fill="#404040"/><path d="M1300.3,75.57l.63-2.59a8.54,8.54,0,0,0,6.37,2.87c2.49,0,4.41-1.4,4.41-3.67s-1-3.33-5-4.38-5.85-3.18-5.85-6.13,2.45-5.45,6.76-5.45a9.46,9.46,0,0,1,5.7,1.92l-.63,2.21a9.33,9.33,0,0,0-5.07-1.86c-2.63,0-4.13,1.23-4.13,3.19,0,1.5.94,2.76,4.23,3.64,4.52,1.19,6.58,3.15,6.58,6.61,0,4.1-3.43,6.2-7,6.2A9.84,9.84,0,0,1,1300.3,75.57Z" fill="#404040"/><path d="M1315.36,56.67h2.87l5,15.51c.11.35.25,1.19.28,1.3a9.41,9.41,0,0,1,.35-1.3l5-15.5h1.75l5,15.5c.14.39.35,1.3.35,1.3a10.2,10.2,0,0,1,.28-1.3l5-15.5H1344l-7.25,21H1335l-5-14.39c-.1-.28-.31-1-.35-1.15,0,.07-.24.87-.35,1.15l-5,14.39h-1.75Z" fill="#404040"/><path d="M1346.72,56.68h12.7V59h-9.9v6.41h8.15v2.35h-8.15v7.56h9.91v2.34h-12.71Z" fill="#404040"/><path d="M1363.52,56.68H1370c8.15,0,11.69,4.73,11.69,10.51s-3.54,10.5-11.7,10.5h-6.51Zm6.54,18.56c6.82,0,8.75-3.85,8.75-8s-1.92-8-8.75-8.06h-3.74v16.1Z" fill="#404040"/><path d="M1385.46,56.69h12.71V59h-9.91v6.41h8.16v2.34h-8.16v7.56h9.9v2.34h-12.7Z" fill="#404040"/><path d="M1402.26,56.69h1.61l12.49,15.65V56.69h2.55v21h-1.61l-12.49-15.65V77.69h-2.55Z" fill="#404040"/><line x1="95.4" y1="265" x2="1502" y2="265" fill="none" stroke="#c8c8c8" stroke-miterlimit="10" stroke-width="0.75"/><line x1="95.39" y1="435.82" x2="1501.99" y2="435.82" fill="none" stroke="#c8c8c8" stroke-miterlimit="10" stroke-width="0.75"/><line x1="95.37" y1="608" x2="1501.97" y2="608" fill="none" stroke="#c8c8c8" stroke-miterlimit="10" stroke-width="0.75"/><rect x="1571" y="565" width="34" height="34" fill="#e6e6e6"/><path d="M1619.94,570.27h2.8v18.66h9.91v2.35h-12.71Z" fill="#404040"/><path d="M1635.3,575.28v-2.8h2.56v2.8Zm0,16V579.34h2.56v11.94Z" fill="#404040"/><path d="M1647.73,591.38h-1.93l-5.35-12H1643l3.82,9,3.78-9h2.52Z" fill="#404040"/><path d="M1655.67,575.28v-2.8h2.56v2.8Zm0,16V579.34h2.56v11.94Z" fill="#404040"/><path d="M1671.85,591.28v-7c0-2.28-.95-3.29-2.77-3.29s-3.89,1.5-3.89,3.5v6.83h-2.55V579.34h2.27l.18,2.06a6,6,0,0,1,4.83-2.52c3.22,0,4.48,2.24,4.48,5.22v7.18Z" fill="#404040"/><path d="M1684.17,598.24a9.92,9.92,0,0,1-4.94-1.47v-2.2a8.48,8.48,0,0,0,5.22,1.61c2,0,4-1.19,4-4.73v-1.89a5.58,5.58,0,0,1-4.48,2.17c-3.19,0-5.82-2.66-5.82-6.41s2.63-6.44,5.82-6.44a5.67,5.67,0,0,1,4.62,2.35l.13-1.89H1691v11.72C1691,597,1687.28,598.24,1684.17,598.24Zm.38-17.4c-1.93,0-3.85,1.51-3.85,4.45s1.92,4.48,3.85,4.48a4.49,4.49,0,0,0,0-8.93Z" fill="#404040"/><path d="M1711.36,591.28l-.14-1.9a5.64,5.64,0,0,1-4.62,2.35c-3.19,0-5.81-2.63-5.81-6.44s2.62-6.41,5.81-6.41a5.74,5.74,0,0,1,4.62,2.35l.14-1.89h2.27v11.94Zm-8-6c0,2.94,1.93,4.45,3.85,4.45a4.49,4.49,0,0,0,0-8.93C1705.27,580.84,1703.34,582.38,1703.34,585.32Z" fill="#404040"/><path d="M1722,581v10.26h-2.55V581h-2.42v-1.68h2.42v-4H1722v4h2.38V581Z" fill="#404040"/><path d="M1743.1,591.28v-7c0-2.28-.94-3.29-2.76-3.29s-3.89,1.5-3.89,3.5v6.83h-2.55v-21h2.55V581.4a5.83,5.83,0,0,1,4.73-2.52c3.22,0,4.48,2.24,4.48,5.22v7.18Z" fill="#404040"/><path d="M1756.12,591.8a6.51,6.51,0,1,1,6.9-6.51A6.7,6.7,0,0,1,1756.12,591.8Zm0-11a4.5,4.5,0,1,0,4.34,4.48A4.27,4.27,0,0,0,1756.12,580.81Z" fill="#404040"/><path d="M1783.84,591.28V584.2c0-2.24-.73-3.25-2.52-3.25a3.66,3.66,0,0,0-3.57,3.5v6.83h-2.55V584.2c0-2.24-.7-3.25-2.52-3.25a3.63,3.63,0,0,0-3.54,3.5v6.83h-2.55V579.34h2.27l.18,2.06a5.35,5.35,0,0,1,4.48-2.52,3.69,3.69,0,0,1,4,2.73,5.75,5.75,0,0,1,4.69-2.73c3.22,0,4.24,2.24,4.24,5.22v7.18Z" fill="#404040"/><path d="M1801.17,585h-8.58c-.21,1.93.6,4.76,4.52,4.76a6.2,6.2,0,0,0,4-1.68v2a7.07,7.07,0,0,1-4.76,1.65,6.06,6.06,0,0,1-6.3-6.44c0-3.89,2.7-6.41,6-6.41a5,5,0,0,1,5.32,4.8A5.71,5.71,0,0,1,1801.17,585Zm-5.11-4.23a3.26,3.26,0,0,0-3.26,2.55h6a1.17,1.17,0,0,0,0-.28C1798.86,581.86,1797.91,580.74,1796.06,580.74Z" fill="#404040"/><rect x="1572" y="364" width="34" height="34" fill="#df2d81"/><path d="M1620.94,369.27h6.93c4.8,0,6.86,2.94,6.86,6.34s-2.06,6.33-6.86,6.33h-4.13v8.34h-2.8Zm6.93,10.33c3.15,0,4.1-2.07,4.1-4s-1-4-4.1-4h-4.13v8Z" fill="#404040"/><path d="M1639.35,383.34v6.94h-2.55V378.34h2.27l.18,2.06a5.62,5.62,0,0,1,4.65-2.52v2.59C1641.63,380.05,1639.35,381.35,1639.35,383.34Z" fill="#404040"/><path d="M1652.69,390.8a6.51,6.51,0,1,1,6.89-6.51A6.71,6.71,0,0,1,1652.69,390.8Zm0-11a4.5,4.5,0,1,0,4.34,4.48A4.26,4.26,0,0,0,1652.69,379.81Z" fill="#404040"/><path d="M1670.19,390.73a5.57,5.57,0,0,1-4.48-2.17v8.54h-2.56V378.34h2.28l.14,1.89a5.64,5.64,0,0,1,4.62-2.35c3.18,0,5.81,2.63,5.81,6.44S1673.37,390.73,1670.19,390.73Zm-.63-10.89a4.49,4.49,0,0,0,0,8.93c2,0,3.88-1.54,3.88-4.48S1671.52,379.84,1669.56,379.84Z" fill="#404040"/><path d="M1685.8,390.8a6.51,6.51,0,1,1,6.89-6.51A6.71,6.71,0,0,1,1685.8,390.8Zm0-11a4.5,4.5,0,1,0,4.34,4.48A4.26,4.26,0,0,0,1685.8,379.81Z" fill="#404040"/><path d="M1698.81,383.34v6.94h-2.55V378.34h2.28l.17,2.06a5.63,5.63,0,0,1,4.66-2.52v2.59C1701.09,380.05,1698.81,381.35,1698.81,383.34Z" fill="#404040"/><path d="M1710.79,380v10.26h-2.56V380h-2.42v-1.68h2.42v-4h2.56v4h2.37V380Z" fill="#404040"/><path d="M1716.59,374.28v-2.8h2.56v2.8Zm0,16V378.34h2.56v11.94Z" fill="#404040"/><path d="M1729.61,390.8a6.51,6.51,0,1,1,6.9-6.51A6.7,6.7,0,0,1,1729.61,390.8Zm0-11a4.5,4.5,0,1,0,4.35,4.48A4.27,4.27,0,0,0,1729.61,379.81Z" fill="#404040"/><path d="M1749.28,390.28v-7c0-2.28-.94-3.29-2.76-3.29s-3.89,1.5-3.89,3.5v6.83h-2.55V378.34h2.27l.18,2.06a6,6,0,0,1,4.83-2.52c3.22,0,4.48,2.24,4.48,5.22v7.18Z" fill="#404040"/><path d="M1768.36,390.8a6.51,6.51,0,1,1,6.89-6.51A6.71,6.71,0,0,1,1768.36,390.8Zm0-11a4.5,4.5,0,1,0,4.34,4.48A4.26,4.26,0,0,0,1768.36,379.81Z" fill="#404040"/><path d="M1782,380v10.26h-2.55V380H1777v-1.68h2.38v-4.59c0-3.5,1.54-4.93,4.23-4.93a4.93,4.93,0,0,1,1.4.24v1.72a5,5,0,0,0-1-.18c-1.4,0-2,.67-2,2.91v4.83h3.12V380Z" fill="#404040"/><path d="M1624.76,416v10.26h-2.56V416h-2.41v-1.68h2.41v-4h2.56v4h2.38V416Z" fill="#404040"/><path d="M1639.77,426.28v-7c0-2.28-.94-3.29-2.76-3.29s-3.89,1.5-3.89,3.5v6.83h-2.55v-21h2.55V416.4a5.83,5.83,0,0,1,4.73-2.52c3.22,0,4.48,2.24,4.48,5.22v7.18Z" fill="#404040"/><path d="M1657.1,420h-8.58c-.21,1.93.6,4.76,4.52,4.76a6.2,6.2,0,0,0,4-1.68v2a7.07,7.07,0,0,1-4.76,1.65,6.06,6.06,0,0,1-6.3-6.44c0-3.89,2.7-6.41,6-6.41a5,5,0,0,1,5.32,4.8A5.71,5.71,0,0,1,1657.1,420Zm-5.11-4.23a3.26,3.26,0,0,0-3.26,2.55h6a1.17,1.17,0,0,0,0-.28C1654.79,416.86,1653.84,415.74,1652,415.74Z" fill="#404040"/><path d="M1677.22,426.28l-.14-1.9a5.64,5.64,0,0,1-4.62,2.35c-3.18,0-5.81-2.63-5.81-6.44s2.63-6.41,5.81-6.41a5.74,5.74,0,0,1,4.62,2.35l.14-1.89h2.28v11.94Zm-8-6c0,2.94,1.92,4.45,3.84,4.45a4.49,4.49,0,0,0,0-8.93C1671.13,415.84,1669.21,417.38,1669.21,420.32Z" fill="#404040"/><path d="M1689.26,433.24a9.85,9.85,0,0,1-4.93-1.47v-2.2a8.47,8.47,0,0,0,5.21,1.61c2,0,4-1.19,4-4.73v-1.89a5.57,5.57,0,0,1-4.48,2.17c-3.18,0-5.81-2.66-5.81-6.41s2.63-6.44,5.81-6.44a5.64,5.64,0,0,1,4.62,2.35l.14-1.89h2.28v11.72C1696.09,432,1692.38,433.24,1689.26,433.24Zm.39-17.4c-1.93,0-3.86,1.51-3.86,4.45s1.93,4.48,3.86,4.48a4.49,4.49,0,0,0,0-8.93Z" fill="#404040"/><path d="M1710.86,420h-8.58c-.21,1.93.6,4.76,4.51,4.76a6.23,6.23,0,0,0,4-1.68v2a7.07,7.07,0,0,1-4.76,1.65,6.06,6.06,0,0,1-6.3-6.44c0-3.89,2.7-6.41,6-6.41a5,5,0,0,1,5.32,4.8A5.71,5.71,0,0,1,1710.86,420Zm-5.11-4.23a3.26,3.26,0,0,0-3.26,2.55h6a1.53,1.53,0,0,0,0-.28C1708.54,416.86,1707.6,415.74,1705.75,415.74Z" fill="#404040"/><path d="M1726.43,433.24a9.92,9.92,0,0,1-4.94-1.47v-2.2a8.5,8.5,0,0,0,5.22,1.61c2,0,4-1.19,4-4.73v-1.89a5.57,5.57,0,0,1-4.48,2.17c-3.19,0-5.81-2.66-5.81-6.41s2.62-6.44,5.81-6.44a5.65,5.65,0,0,1,4.62,2.35l.14-1.89h2.28v11.72C1733.26,432,1729.54,433.24,1726.43,433.24Zm.38-17.4c-1.92,0-3.85,1.51-3.85,4.45s1.93,4.48,3.85,4.48a4.49,4.49,0,0,0,0-8.93Z" fill="#404040"/><path d="M1740.22,419.34v6.94h-2.56V414.34h2.28l.17,2.06a5.66,5.66,0,0,1,4.66-2.52v2.59C1742.49,416.05,1740.22,417.35,1740.22,419.34Z" fill="#404040"/><path d="M1753.55,426.8a6.51,6.51,0,1,1,6.9-6.51A6.7,6.7,0,0,1,1753.55,426.8Zm0-11a4.5,4.5,0,1,0,4.34,4.48A4.27,4.27,0,0,0,1753.55,415.81Z" fill="#404040"/><path d="M1773.5,426.28l-.17-2.07a6,6,0,0,1-4.83,2.52c-3.22,0-4.48-2.24-4.48-5.22v-7.17h2.55v7c0,2.27,1,3.28,2.77,3.28s3.88-1.5,3.88-3.5v-6.82h2.56v11.94Z" fill="#404040"/><path d="M1787.22,426.73a5.57,5.57,0,0,1-4.48-2.17v8.54h-2.55V414.34h2.27l.14,1.89a5.65,5.65,0,0,1,4.62-2.35c3.19,0,5.81,2.63,5.81,6.44S1790.41,426.73,1787.22,426.73Zm-.63-10.89a4.49,4.49,0,0,0,0,8.93c2,0,3.89-1.54,3.89-4.48S1788.55,415.84,1786.59,415.84Z" fill="#404040"/><path d="M1620.77,462.28v-21h2.55v21Z" fill="#404040"/><path d="M1627.73,446.28v-2.8h2.56v2.8Zm0,16V450.34h2.56v11.94Z" fill="#404040"/><path d="M1640.16,462.38h-1.93l-5.35-12h2.51l3.82,9,3.78-9h2.52Z" fill="#404040"/><path d="M1648.1,446.28v-2.8h2.56v2.8Zm0,16V450.34h2.56v11.94Z" fill="#404040"/><path d="M1664.27,462.28v-7c0-2.28-.94-3.29-2.76-3.29s-3.89,1.5-3.89,3.5v6.83h-2.56V450.34h2.28l.17,2.06a6,6,0,0,1,4.84-2.52c3.22,0,4.48,2.24,4.48,5.22v7.18Z" fill="#404040"/><path d="M1676.59,469.24a10,10,0,0,1-4.94-1.47v-2.2a8.5,8.5,0,0,0,5.22,1.61c2,0,4-1.19,4-4.73v-1.89a5.57,5.57,0,0,1-4.48,2.17c-3.19,0-5.81-2.66-5.81-6.41s2.62-6.44,5.81-6.44a5.65,5.65,0,0,1,4.62,2.35l.14-1.89h2.28v11.72C1683.42,468,1679.71,469.24,1676.59,469.24Zm.38-17.4c-1.92,0-3.85,1.51-3.85,4.45s1.93,4.48,3.85,4.48a4.49,4.49,0,0,0,0-8.93Z" fill="#404040"/><path d="M1693.88,446.28v-2.8h2.55v2.8Zm0,16V450.34h2.55v11.94Z" fill="#404040"/><path d="M1710.05,462.28v-7c0-2.28-1-3.29-2.77-3.29s-3.88,1.5-3.88,3.5v6.83h-2.56V450.34h2.28l.17,2.06a6,6,0,0,1,4.83-2.52c3.22,0,4.48,2.24,4.48,5.22v7.18Z" fill="#404040"/><path d="M1726.57,462.73a8.86,8.86,0,0,1-4.55-1.33l.49-1.93a8,8,0,0,0,4.09,1.37c1.4,0,2.28-.56,2.28-1.72,0-.87-.67-1.47-2.63-1.92-2.62-.63-3.67-2-3.67-3.68,0-1.89,1.22-3.64,4.27-3.64a8,8,0,0,1,3.81,1.12l-.45,1.79a6.83,6.83,0,0,0-3.36-1.09c-1.47,0-2,.63-2,1.51s.77,1.36,2.2,1.71c2.84.67,4.1,2,4.1,3.89C1731.12,461.15,1729.47,462.73,1726.57,462.73Z" fill="#404040"/><path d="M1745.15,456h-8.57c-.21,1.93.59,4.76,4.51,4.76a6.25,6.25,0,0,0,4-1.68v2a7.09,7.09,0,0,1-4.76,1.65,6.06,6.06,0,0,1-6.3-6.44c0-3.89,2.69-6.41,6-6.41a5,5,0,0,1,5.32,4.8A5.21,5.21,0,0,1,1745.15,456Zm-5.11-4.23a3.25,3.25,0,0,0-3.25,2.55h6a1.53,1.53,0,0,0,0-.28C1742.84,452.86,1741.9,451.74,1740,451.74Z" fill="#404040"/><path d="M1751.87,455.34v6.94h-2.55V450.34h2.27l.18,2.06a5.62,5.62,0,0,1,4.65-2.52v2.59C1754.15,452.05,1751.87,453.35,1751.87,455.34Z" fill="#404040"/><path d="M1765.66,462.38h-1.92l-5.36-12h2.52l3.82,9,3.78-9H1771Z" fill="#404040"/><path d="M1773.61,446.28v-2.8h2.55v2.8Zm0,16V450.34h2.55v11.94Z" fill="#404040"/><path d="M1786.35,462.66a6.36,6.36,0,1,1,0-12.71,6.64,6.64,0,0,1,4.16,1.37v2.13a5.57,5.57,0,0,0-4-1.5,4.36,4.36,0,0,0,0,8.71,5.57,5.57,0,0,0,4-1.5v2.13A6.64,6.64,0,0,1,1786.35,462.66Z" fill="#404040"/><path d="M1804.37,456h-8.58c-.2,1.93.6,4.76,4.52,4.76a6.25,6.25,0,0,0,4-1.68v2a7.09,7.09,0,0,1-4.76,1.65,6.06,6.06,0,0,1-6.3-6.44c0-3.89,2.69-6.41,6-6.41a5,5,0,0,1,5.32,4.8A5.21,5.21,0,0,1,1804.37,456Zm-5.11-4.23a3.25,3.25,0,0,0-3.25,2.55h6a1.53,1.53,0,0,0,0-.28C1802.06,452.86,1801.12,451.74,1799.26,451.74Z" fill="#404040"/><path d="M1630,498.28v-7c0-2.28-.94-3.29-2.76-3.29s-3.89,1.5-3.89,3.5v6.83h-2.55v-21h2.55V488.4a5.83,5.83,0,0,1,4.73-2.52c3.22,0,4.48,2.24,4.48,5.22v7.18Z" fill="#404040"/><path d="M1643,498.8a6.51,6.51,0,1,1,6.9-6.51A6.7,6.7,0,0,1,1643,498.8Zm0-11a4.5,4.5,0,1,0,4.34,4.48A4.27,4.27,0,0,0,1643,487.81Z" fill="#404040"/><path d="M1662.94,498.28l-.17-2.07a6,6,0,0,1-4.83,2.52c-3.23,0-4.48-2.24-4.48-5.22v-7.17H1656v7c0,2.27,1,3.28,2.77,3.28s3.88-1.5,3.88-3.5v-6.82h2.56v11.94Z" fill="#404040"/><path d="M1673.12,498.73a8.94,8.94,0,0,1-4.55-1.33l.49-1.93a8.07,8.07,0,0,0,4.1,1.37c1.4,0,2.28-.56,2.28-1.72,0-.87-.67-1.47-2.63-1.92-2.63-.63-3.68-2-3.68-3.68,0-1.89,1.23-3.64,4.28-3.64a8,8,0,0,1,3.81,1.12l-.45,1.79a6.83,6.83,0,0,0-3.36-1.09c-1.47,0-2,.63-2,1.51s.76,1.36,2.2,1.71c2.84.67,4.1,2,4.1,3.89C1677.68,497.15,1676,498.73,1673.12,498.73Z" fill="#404040"/><path d="M1681.35,482.28v-2.8h2.55v2.8Zm0,16V486.34h2.55v11.94Z" fill="#404040"/><path d="M1697.52,498.28v-7c0-2.28-.94-3.29-2.77-3.29s-3.88,1.5-3.88,3.5v6.83h-2.56V486.34h2.28l.17,2.06a6,6,0,0,1,4.83-2.52c3.23,0,4.49,2.24,4.49,5.22v7.18Z" fill="#404040"/><path d="M1709.84,505.24a9.92,9.92,0,0,1-4.94-1.47v-2.2a8.5,8.5,0,0,0,5.22,1.61c2,0,4-1.19,4-4.73v-1.89a5.57,5.57,0,0,1-4.48,2.17c-3.19,0-5.81-2.66-5.81-6.41s2.62-6.44,5.81-6.44a5.65,5.65,0,0,1,4.62,2.35l.14-1.89h2.28v11.72C1716.67,504,1713,505.24,1709.84,505.24Zm.38-17.4c-1.92,0-3.85,1.51-3.85,4.45s1.93,4.48,3.85,4.48a4.49,4.49,0,0,0,0-8.93Z" fill="#404040"/><path d="M1733.18,498.8a6.51,6.51,0,1,1,6.9-6.51A6.7,6.7,0,0,1,1733.18,498.8Zm0-11a4.5,4.5,0,1,0,4.34,4.48A4.27,4.27,0,0,0,1733.18,487.81Z" fill="#404040"/><path d="M1746.2,491.34v6.94h-2.55V486.34h2.27l.18,2.06a5.62,5.62,0,0,1,4.65-2.52v2.59C1748.48,488.05,1746.2,489.35,1746.2,491.34Z" fill="#404040"/><path d="M1620.77,518.28v-2.8h2.55v2.8Zm0,16V522.34h2.55v11.94Z" fill="#404040"/><path d="M1636.94,534.28v-7c0-2.28-1-3.29-2.77-3.29s-3.88,1.5-3.88,3.5v6.83h-2.56V522.34H1630l.17,2.06a6,6,0,0,1,4.83-2.52c3.22,0,4.48,2.24,4.48,5.22v7.18Z" fill="#404040"/><path d="M1647.4,534.73a8.9,8.9,0,0,1-4.55-1.33l.49-1.93a8,8,0,0,0,4.1,1.37c1.4,0,2.27-.56,2.27-1.72,0-.87-.67-1.47-2.62-1.92-2.63-.63-3.68-2-3.68-3.68,0-1.89,1.22-3.64,4.27-3.64a8.1,8.1,0,0,1,3.82,1.12l-.46,1.79a6.83,6.83,0,0,0-3.36-1.09c-1.47,0-2,.63-2,1.51s.77,1.36,2.21,1.71c2.83.67,4.09,2,4.09,3.89C1652,533.15,1650.31,534.73,1647.4,534.73Z" fill="#404040"/><path d="M1659.62,524v10.26h-2.56V524h-2.42v-1.68h2.42v-4h2.56v4H1662V524Z" fill="#404040"/><path d="M1665.42,518.28v-2.8H1668v2.8Zm0,16V522.34H1668v11.94Z" fill="#404040"/><path d="M1676.38,524v10.26h-2.56V524h-2.41v-1.68h2.41v-4h2.56v4h2.38V524Z" fill="#404040"/><path d="M1691.68,534.28l-.18-2.07a6,6,0,0,1-4.83,2.52c-3.22,0-4.48-2.24-4.48-5.22v-7.17h2.55v7c0,2.27,1,3.28,2.77,3.28s3.88-1.5,3.88-3.5v-6.82H1694v11.94Z" fill="#404040"/><path d="M1702.35,524v10.26h-2.56V524h-2.41v-1.68h2.41v-4h2.56v4h2.38V524Z" fill="#404040"/><path d="M1708.16,518.28v-2.8h2.55v2.8Zm0,16V522.34h2.55v11.94Z" fill="#404040"/><path d="M1721.18,534.8a6.51,6.51,0,1,1,6.9-6.51A6.71,6.71,0,0,1,1721.18,534.8Zm0-11a4.5,4.5,0,1,0,4.34,4.48A4.26,4.26,0,0,0,1721.18,523.81Z" fill="#404040"/><path d="M1740.85,534.28v-7c0-2.28-.95-3.29-2.77-3.29s-3.88,1.5-3.88,3.5v6.83h-2.56V522.34h2.28l.17,2.06a6,6,0,0,1,4.83-2.52c3.22,0,4.48,2.24,4.48,5.22v7.18Z" fill="#404040"/></svg>