<svg id="Layer_1" data-name="Layer 1" xmlns="http://www.w3.org/2000/svg" viewBox="0 0 1879 850"><title>limitations-due-health</title><rect width="1879" height="850" fill="#fff"/><line x1="184" y1="691.99" x2="1771.97" y2="691.99" fill="none" stroke="#000" stroke-miterlimit="10"/><path d="M111.94,693.07c0-6.93,3.5-11.13,8-11.13s8,4.2,8,11.13-3.46,11.17-8,11.17S111.94,700,111.94,693.07Zm13.23,0c0-5.46-2.1-8.89-5.25-8.89s-5.25,3.43-5.25,8.89,2.1,8.93,5.25,8.93S125.17,698.57,125.17,693.07Z" fill="#404040"/><path d="M141.86,692.62c-2.59,0-4.58-2.21-4.58-5.25s2-5.22,4.58-5.22,4.63,2.21,4.63,5.22S144.49,692.62,141.86,692.62Zm0-8.61c-1.29,0-2.34,1-2.34,3.36s1,3.39,2.34,3.39,2.39-1,2.39-3.39S143.12,684,141.86,684Zm-1.78,19.63L153.49,682l1.26.63-13.41,21.63Zm12.81.42c-2.59,0-4.59-2.2-4.59-5.25s2-5.21,4.59-5.21,4.62,2.2,4.62,5.21S155.52,704.06,152.89,704.06Zm0-8.61c-1.29,0-2.35,1-2.35,3.36s1.06,3.4,2.35,3.4,2.38-1,2.38-3.4S154.15,695.45,152.89,695.45Z" fill="#404040"/><path d="M95.53,422.63V420a8,8,0,0,0,5.84,2.56c2.87,0,4.83-2.24,4.83-5.22,0-2.59-1.4-4.72-4.27-4.72a4.3,4.3,0,0,0-4.27,2.76l-1.4-.87V403.1H108v2.34H98.43V412a5.64,5.64,0,0,1,3.92-1.5c3.57,0,6.51,2.62,6.51,6.89a7.12,7.12,0,0,1-7.45,7.35A9.17,9.17,0,0,1,95.53,422.63Z" fill="#404040"/><path d="M111.94,413.53c0-6.93,3.5-11.13,8-11.13s8,4.2,8,11.13-3.46,11.16-8,11.16S111.94,420.49,111.94,413.53Zm13.23,0c0-5.46-2.1-8.89-5.25-8.89s-5.25,3.43-5.25,8.89,2.1,8.92,5.25,8.92S125.17,419,125.17,413.53Z" fill="#404040"/><path d="M141.86,413.07c-2.59,0-4.58-2.2-4.58-5.25s2-5.21,4.58-5.21,4.63,2.2,4.63,5.21S144.49,413.07,141.86,413.07Zm0-8.61c-1.29,0-2.34,1-2.34,3.36s1,3.4,2.34,3.4,2.39-1,2.39-3.4S143.12,404.46,141.86,404.46Zm-1.78,19.64,13.41-21.63,1.26.63-13.41,21.63Zm12.81.42c-2.59,0-4.59-2.21-4.59-5.25s2-5.22,4.59-5.22,4.62,2.21,4.62,5.22S155.52,424.52,152.89,424.52Zm0-8.61c-1.29,0-2.35,1-2.35,3.36s1.06,3.39,2.35,3.39,2.38-1,2.38-3.39S154.15,415.91,152.89,415.91Z" fill="#404040"/><path d="M85,126.14H82.79v-1.89l4.9-1.12v21.42H85Z" fill="#404040"/><path d="M92.62,134c0-6.93,3.5-11.13,8-11.13s8,4.2,8,11.13-3.46,11.17-8,11.17S92.62,141,92.62,134Zm13.23,0c0-5.46-2.1-8.89-5.25-8.89s-5.25,3.43-5.25,8.89,2.1,8.93,5.25,8.93S105.85,139.48,105.85,134Z" fill="#404040"/><path d="M111.94,134c0-6.93,3.5-11.13,8-11.13s8,4.2,8,11.13-3.46,11.17-8,11.17S111.94,141,111.94,134Zm13.23,0c0-5.46-2.1-8.89-5.25-8.89s-5.25,3.43-5.25,8.89,2.1,8.93,5.25,8.93S125.17,139.48,125.17,134Z" fill="#404040"/><path d="M141.86,133.53c-2.59,0-4.58-2.21-4.58-5.25s2-5.22,4.58-5.22,4.63,2.21,4.63,5.22S144.49,133.53,141.86,133.53Zm0-8.61c-1.29,0-2.34,1-2.34,3.36s1,3.39,2.34,3.39,2.39-1,2.39-3.39S143.12,124.92,141.86,124.92Zm-1.78,19.63,13.41-21.63,1.26.63-13.41,21.63Zm12.81.42c-2.59,0-4.59-2.2-4.59-5.25s2-5.21,4.59-5.21,4.62,2.2,4.62,5.21S155.52,145,152.89,145Zm0-8.61c-1.29,0-2.35,1-2.35,3.36s1.06,3.4,2.35,3.4,2.38-1,2.38-3.4S154.15,136.36,152.89,136.36Z" fill="#404040"/><line x1="184" y1="691.99" x2="1786.64" y2="691.99" fill="none" stroke="#c8c8c8" stroke-miterlimit="10" stroke-width="0.75"/><line x1="184" y1="412.44" x2="1786.64" y2="412.44" fill="none" stroke="#c8c8c8" stroke-miterlimit="10" stroke-width="0.75"/><line x1="184" y1="132.9" x2="1786.64" y2="132.9" fill="none" stroke="#c8c8c8" stroke-miterlimit="10" stroke-width="0.75"/><rect x="195.7" y="629.93" width="60.18" height="62.06" fill="#df2d81"/><rect x="279.28" y="586.32" width="60.18" height="105.67" fill="#df2d81"/><rect x="362.86" y="496.31" width="60.18" height="195.12" fill="#df2d81"/><rect x="530.01" y="656.21" width="60.18" height="35.78" fill="#df2d81"/><rect x="613.59" y="645.58" width="60.18" height="46.4" fill="#df2d81"/><rect x="697.16" y="613.16" width="60.18" height="78.83" fill="#df2d81"/><rect x="864.32" y="640.55" width="60.18" height="51.44" fill="#df2d81"/><rect x="947.9" y="592.47" width="60.18" height="99.52" fill="#df2d81"/><rect x="1031.47" y="539.36" width="60.18" height="152.63" fill="#df2d81"/><rect x="1198.63" y="656.21" width="60.18" height="35.78" fill="#df2d81"/><rect x="1282.21" y="652.29" width="60.18" height="39.14" fill="#df2d81"/><rect x="1365.78" y="603.65" width="60.18" height="88.34" fill="#df2d81"/><rect x="1532.94" y="661.24" width="60.18" height="30.75" fill="#df2d81"/><rect x="1616.51" y="654.53" width="60.18" height="37.46" fill="#df2d81"/><rect x="1700.09" y="597.5" width="60.18" height="94.49" fill="#df2d81"/><rect x="195.7" y="470.59" width="60.18" height="159.34" fill="#f9d5e6"/><rect x="279.28" y="383.37" width="60.18" height="202.95" fill="#f9d5e6"/><rect x="362.86" y="288.33" width="60.18" height="207.98" fill="#f9d5e6"/><rect x="530.01" y="481.77" width="60.18" height="174.44" fill="#f9d5e6"/><rect x="613.59" y="460.53" width="60.18" height="185.06" fill="#f9d5e6"/><rect x="697.16" y="375.54" width="60.18" height="237.61" fill="#f9d5e6"/><rect x="864.32" y="453.26" width="60.18" height="187.3" fill="#f9d5e6"/><rect x="947.9" y="361.57" width="60.18" height="230.9" fill="#f9d5e6"/><rect x="1031.47" y="305.1" width="60.18" height="234.26" fill="#f9d5e6"/><rect x="1198.63" y="579.61" width="60.18" height="76.6" fill="#f9d5e6"/><rect x="1282.21" y="548.86" width="60.18" height="103.43" fill="#f9d5e6"/><rect x="1365.78" y="486.24" width="60.18" height="117.41" fill="#f9d5e6"/><rect x="1532.94" y="597.5" width="60.18" height="63.74" fill="#f9d5e6"/><rect x="1616.51" y="567.31" width="60.18" height="87.22" fill="#f9d5e6"/><rect x="1700.09" y="480.65" width="60.18" height="116.85" fill="#f9d5e6"/><rect x="195.7" y="132.9" width="60.18" height="337.69" fill="#ccd3e9"/><rect x="279.28" y="132.9" width="60.18" height="250.47" fill="#ccd3e9"/><rect x="362.86" y="132.9" width="60.18" height="155.43" fill="#ccd3e9"/><rect x="530.01" y="132.9" width="60.18" height="348.87" fill="#ccd3e9"/><rect x="613.59" y="132.9" width="60.18" height="327.63" fill="#ccd3e9"/><rect x="697.16" y="132.9" width="60.18" height="242.65" fill="#ccd3e9"/><rect x="864.32" y="132.9" width="60.18" height="320.36" fill="#ccd3e9"/><rect x="947.9" y="132.9" width="60.18" height="228.67" fill="#ccd3e9"/><rect x="1031.47" y="132.9" width="60.18" height="172.2" fill="#ccd3e9"/><rect x="1198.63" y="132.9" width="60.18" height="446.71" fill="#ccd3e9"/><rect x="1282.21" y="132.9" width="60.18" height="415.96" fill="#ccd3e9"/><rect x="1365.78" y="132.9" width="60.18" height="353.35" fill="#ccd3e9"/><rect x="1532.94" y="132.9" width="60.18" height="464.61" fill="#ccd3e9"/><rect x="1616.51" y="132.9" width="60.18" height="434.41" fill="#ccd3e9"/><rect x="1700.09" y="132.9" width="60.18" height="347.76" fill="#ccd3e9"/><path d="M1574.15,95.77l.63-2.59a8.54,8.54,0,0,0,6.37,2.87c2.49,0,4.41-1.4,4.41-3.67s-1-3.33-5-4.38-5.84-3.18-5.84-6.12,2.45-5.46,6.76-5.46a9.46,9.46,0,0,1,5.7,1.92l-.63,2.21a9.33,9.33,0,0,0-5.07-1.86c-2.63,0-4.13,1.23-4.13,3.19,0,1.5.94,2.76,4.23,3.64,4.52,1.19,6.58,3.15,6.58,6.61,0,4.1-3.43,6.2-7,6.2A9.84,9.84,0,0,1,1574.15,95.77Z" fill="#404040"/><path d="M1589.21,76.87h2.87l5,15.51c.11.35.25,1.19.28,1.3a9.41,9.41,0,0,1,.35-1.3l5-15.5h1.75l5,15.5c.14.39.35,1.3.35,1.3a10.2,10.2,0,0,1,.28-1.3l5-15.5h2.73l-7.25,21h-1.75l-5-14.39c-.1-.28-.31-1-.35-1.15,0,.07-.24.87-.35,1.15l-5,14.39h-1.75Z" fill="#404040"/><path d="M1620.57,76.88h12.7v2.35h-9.9v6.41h8.15V88h-8.15v7.56h9.91v2.34h-12.71Z" fill="#404040"/><path d="M1637.37,76.88h6.51c8.15,0,11.69,4.73,11.69,10.51s-3.54,10.5-11.7,10.5h-6.51Zm6.54,18.56c6.82,0,8.75-3.85,8.75-8s-1.92-8-8.75-8.06h-3.74v16.1Z" fill="#404040"/><path d="M1659.31,76.89H1672v2.34h-9.91v6.41h8.15V88h-8.15v7.56h9.9v2.34h-12.7Z" fill="#404040"/><path d="M1676.11,76.89h1.61l12.49,15.65V76.89h2.55v21h-1.61l-12.49-15.65V97.89h-2.55Z" fill="#404040"/><path d="M1245.72,76.87h1.61l12.49,15.65V76.87h2.55v21h-1.61l-12.49-15.65V97.87h-2.55Z" fill="#404040"/><path d="M1266.12,87.38a11.15,11.15,0,1,1,11.17,11.09A10.78,10.78,0,0,1,1266.12,87.38Zm19.4,0c0-5.11-3.43-8.75-8.23-8.75s-8.26,3.64-8.26,8.75,3.43,8.75,8.26,8.75S1285.51,92.45,1285.52,87.38Z" fill="#404040"/><path d="M1292.17,76.88h6.93c4.79,0,6.86,2.77,6.86,6.16a5.63,5.63,0,0,1-4.34,5.85l6.36,9h-3.25l-6-8.68H1295v8.68h-2.8Zm6.92,10c3.16,0,4.1-1.89,4.1-3.82s-.94-3.81-4.09-3.81H1295v7.64Z" fill="#404040"/><path d="M1308.05,76.88h2.88l5,15.51c.11.35.25,1.19.28,1.3a9.41,9.41,0,0,1,.35-1.3l5-15.5h1.75l5,15.5c.14.39.35,1.3.35,1.3a10.2,10.2,0,0,1,.28-1.3l5-15.5h2.73l-7.25,21h-1.75l-5-14.39c-.1-.28-.31-1-.35-1.15,0,.07-.24.87-.35,1.15l-5,14.39h-1.75Z" fill="#404040"/><path d="M1344.14,76.89H1346l9,21h-2.87L1349.6,92h-9.24l-2.52,5.88h-2.73Zm4.51,12.85L1345,81.09l-3.68,8.64Z" fill="#404040"/><path d="M1360,89.49l-8.22-12.6h3l6.65,10.33,6.65-10.33h2.91l-8.23,12.61v8.4H1360Z" fill="#404040"/><path d="M916.76,76.87h12.7v2.34h-9.9v6.41h8.15V88h-8.15v9.9h-2.8Z" fill="#404040"/><path d="M932.3,76.87h2.8v21h-2.8Z" fill="#404040"/><path d="M939.86,76.87h1.61L954,92.52V76.87h2.56v21h-1.61l-12.5-15.64V97.87h-2.55Z" fill="#404040"/><path d="M961.28,76.87h2.8V95.53H974v2.34h-12.7Z" fill="#404040"/><path d="M983.82,76.87h1.82l9,21H991.8L989.28,92H980l-2.52,5.88h-2.73Zm4.51,12.85-3.67-8.65L981,89.72Z" fill="#404040"/><path d="M997.4,76.87H999l12.49,15.65V76.87h2.56v21h-1.61L1000,82.23V97.87H997.4Z" fill="#404040"/><path d="M1018.82,76.87h6.51c8.15,0,11.69,4.73,11.69,10.5s-3.54,10.5-11.69,10.5h-6.51Zm6.54,18.55c6.83,0,8.75-3.85,8.75-8s-1.92-8.05-8.75-8.05h-3.74v16.1Z" fill="#404040"/><path d="M579.59,76.87h6.51c8.15,0,11.69,4.73,11.69,10.5s-3.54,10.5-11.69,10.5h-6.51Zm6.54,18.55c6.83,0,8.75-3.85,8.75-8s-1.92-8.05-8.75-8.05h-3.74v16.1Z" fill="#404040"/><path d="M601.53,76.87h12.71v2.34h-9.91v6.41h8.16V88h-8.16v7.56h9.91v2.34H601.53Z" fill="#404040"/><path d="M618.33,76.87h1.61l12.5,15.65V76.87H635v21h-1.61L620.89,82.23V97.87h-2.56Z" fill="#404040"/><path d="M639.75,76.87h2.73L650.6,94.3l8.12-17.43h2.59v21h-2.69V83.56c0-.53.07-1.72.07-1.75s-.53,1.26-.74,1.75l-6.54,14.31h-1.89L643,83.56c-.24-.49-.7-1.65-.73-1.75s.07,1.22.07,1.75V97.87h-2.56Z" fill="#404040"/><path d="M673.07,76.87h1.82l9,21h-2.87L678.53,92h-9.24l-2.52,5.88H664Zm4.52,12.85-3.68-8.65-3.67,8.65Z" fill="#404040"/><path d="M686.65,76.87h6.93c4.8,0,6.86,2.76,6.86,6.16a5.63,5.63,0,0,1-4.34,5.85l6.37,9h-3.25l-6-8.68h-3.75v8.68h-2.8Zm6.93,10c3.15,0,4.1-1.89,4.1-3.82s-.95-3.82-4.1-3.82h-4.13v7.64Z" fill="#404040"/><path d="M704.92,76.87h2.8v9.94l9.73-9.94h3.22l-10,10,11.37,11h-3.71L707.72,87.55V97.87h-2.8Z" fill="#404040"/><path d="M305.4,76.87h12.71v2.34H308.2v6.41h8.16V88H308.2v7.57h9.91v2.34H305.4Z" fill="#404040"/><path d="M322.2,88.17V76.87h2.87V88.21c0,5.43,2.45,7.81,6.3,7.81s6.3-2.38,6.3-7.81V76.87h2.73v11.3c0,7.11-3.67,10.3-9.1,10.3S322.2,95.28,322.2,88.17Z" fill="#404040"/><path d="M193.52,716.39c0-6.35,2.43-10.56,7.53-10.56a6.89,6.89,0,0,1,3.87,1.14V709a6.92,6.92,0,0,0-3.84-1.29c-3,0-5.16,2-5.28,7.56a5.23,5.23,0,0,1,4.59-2.43c3.18,0,5.61,2.37,5.61,6.06a6,6,0,0,1-6.09,5.94C197.24,724.88,193.52,723.38,193.52,716.39Zm10.14,2.55c0-2.43-1.23-4.23-3.75-4.23a4,4,0,0,0-4,3.72c0,3.12,2,4.65,3.84,4.65C202.13,723.08,203.66,721.43,203.66,718.94Z" fill="#404040"/><path d="M208.7,723.11v-2.25a6.89,6.89,0,0,0,5,2.19,4.16,4.16,0,0,0,4.14-4.47c0-2.22-1.2-4-3.66-4a3.67,3.67,0,0,0-3.66,2.36l-1.2-.75v-9.77h10.08v2h-8.22V714a4.82,4.82,0,0,1,3.36-1.29,5.53,5.53,0,0,1,5.58,5.91,6.1,6.1,0,0,1-6.39,6.3A7.85,7.85,0,0,1,208.7,723.11Z" fill="#404040"/><path d="M222.65,717.38h6.06v1.68h-6.06Z" fill="#404040"/><path d="M239.84,708.38H230.6v-2h11.82v1.16c-1.47,2.08-6.06,11.16-7,16.83h-2.52C234.08,718.76,238.88,709.76,239.84,708.38Z" fill="#404040"/><path d="M250.31,719.69h-8.46v-1.31L251.18,706h1.41v11.79h3.27v1.86h-3.27v4.68h-2.28Zm0-1.86V710l-6,7.86Z" fill="#404040"/><path d="M286.12,708.38h-9.24v-2H288.7v1.16c-1.47,2.08-6.06,11.16-7,16.83h-2.52C280.36,718.76,285.16,709.76,286.12,708.38Z" fill="#404040"/><path d="M291.07,723.11v-2.25a6.89,6.89,0,0,0,5,2.19,4.16,4.16,0,0,0,4.14-4.47c0-2.22-1.2-4-3.66-4a3.67,3.67,0,0,0-3.66,2.36l-1.2-.75v-9.77h10.08v2h-8.22V714a4.82,4.82,0,0,1,3.36-1.29,5.53,5.53,0,0,1,5.58,5.91,6.1,6.1,0,0,1-6.39,6.3A7.85,7.85,0,0,1,291.07,723.11Z" fill="#404040"/><path d="M305,717.38h6.06v1.68H305Z" fill="#404040"/><path d="M313.84,719.57a5.46,5.46,0,0,1,4.11-5.25,4.32,4.32,0,0,1-3-4.2c0-2.49,2.58-4.34,5.49-4.34s5.46,1.85,5.46,4.34a4.32,4.32,0,0,1-3,4.2,5.46,5.46,0,0,1,4.11,5.25c0,3.15-2.88,5.31-6.54,5.31S313.84,722.72,313.84,719.57Zm10.83-.3a4.29,4.29,0,0,0-8.55,0c0,2.22,1.89,3.81,4.29,3.81S324.67,721.49,324.67,719.27Zm-1-8.85a3.26,3.26,0,0,0-6.48,0,3.25,3.25,0,0,0,6.48,0Z" fill="#404040"/><path d="M337.75,719.69h-8.46v-1.31L338.62,706H340v11.79h3.27v1.86H340v4.68h-2.28Zm0-1.86V710l-6,7.86Z" fill="#404040"/><path d="M376.75,719.57a5.46,5.46,0,0,1,4.11-5.25,4.32,4.32,0,0,1-3-4.2c0-2.49,2.58-4.34,5.49-4.34s5.46,1.85,5.46,4.34a4.32,4.32,0,0,1-3,4.2,5.46,5.46,0,0,1,4.11,5.25c0,3.15-2.88,5.31-6.54,5.31S376.75,722.72,376.75,719.57Zm10.83-.3a4.29,4.29,0,0,0-8.55,0c0,2.22,1.89,3.81,4.29,3.81S387.58,721.49,387.58,719.27Zm-1-8.85a3.26,3.26,0,0,0-6.48,0,3.25,3.25,0,0,0,6.48,0Z" fill="#404040"/><path d="M392.74,723.11v-2.25a6.89,6.89,0,0,0,5,2.19,4.16,4.16,0,0,0,4.14-4.47c0-2.22-1.2-4-3.66-4a3.67,3.67,0,0,0-3.66,2.36l-1.2-.75v-9.77h10.08v2h-8.22V714a4.82,4.82,0,0,1,3.36-1.29,5.53,5.53,0,0,1,5.58,5.91,6.1,6.1,0,0,1-6.39,6.3A7.85,7.85,0,0,1,392.74,723.11Z" fill="#404040"/><path d="M411.16,718.31H406.6v-1.62h4.56v-4.56h1.62v4.56h4.56v1.62h-4.56v4.56h-1.62Z" fill="#404040"/><path d="M532.52,716c0-6.36,2.47-10.55,7.57-10.53a6.75,6.75,0,0,1,3.86,1.16v2.07a6.93,6.93,0,0,0-3.84-1.31c-3,0-5.17,2-5.31,7.54a5.25,5.25,0,0,1,4.6-2.41c3.18,0,5.6,2.39,5.59,6.08a6,6,0,0,1-6.11,5.92C536.21,724.49,532.5,723,532.52,716Zm10.13,2.59c0-2.43-1.21-4.23-3.73-4.24a4,4,0,0,0-4,3.7c0,3.12,2,4.66,3.83,4.67C541.11,722.71,542.64,721.06,542.65,718.57Z" fill="#404040"/><path d="M547.68,722.76v-2.25a6.94,6.94,0,0,0,5,2.21,4.16,4.16,0,0,0,4.15-4.46c0-2.22-1.18-4-3.64-4.06a3.67,3.67,0,0,0-3.67,2.36l-1.2-.76,0-9.78,10.08,0v2l-8.22,0,0,5.58a4.81,4.81,0,0,1,3.36-1.28,5.53,5.53,0,0,1,5.56,5.93,6.1,6.1,0,0,1-6.41,6.28A7.86,7.86,0,0,1,547.68,722.76Z" fill="#404040"/><path d="M561.65,717.08l6.06,0v1.68l-6.06,0Z" fill="#404040"/><path d="M578.87,708.14l-9.24,0v-2l11.82,0v1.17c-1.48,2.07-6.1,11.14-7.05,16.81h-2.52C573.07,718.5,577.9,709.52,578.87,708.14Z" fill="#404040"/><path d="M589.3,719.49l-8.46,0v-1.32l9.38-12.29h1.41l0,11.79h3.27v1.86h-3.27l0,4.68h-2.28Zm0-1.86,0-7.86-6,7.84Z" fill="#404040"/><path d="M625.15,708.31l-9.24,0v-2l11.82,0v1.17c-1.48,2.07-6.1,11.14-7,16.81h-2.52C619.36,718.67,624.19,709.69,625.15,708.31Z" fill="#404040"/><path d="M630.05,723.06v-2.25a6.86,6.86,0,0,0,5,2.21,4.16,4.16,0,0,0,4.16-4.45c0-2.22-1.19-4.06-3.65-4.07a3.69,3.69,0,0,0-3.67,2.36l-1.19-.76,0-9.77,10.08,0v2l-8.22,0,0,5.58a4.86,4.86,0,0,1,3.37-1.28,5.53,5.53,0,0,1,5.56,5.93,6.12,6.12,0,0,1-6.42,6.28A7.83,7.83,0,0,1,630.05,723.06Z" fill="#404040"/><path d="M644,717.38l6.06,0v1.68l-6.06,0Z" fill="#404040"/><path d="M652.83,719.61a5.47,5.47,0,0,1,4.13-5.24,4.31,4.31,0,0,1-3-4.21c0-2.49,2.59-4.34,5.5-4.33s5.46,1.88,5.45,4.37a4.33,4.33,0,0,1-3,4.19,5.46,5.46,0,0,1,4.09,5.26c0,3.15-2.9,5.3-6.56,5.29S652.82,722.76,652.83,719.61Zm10.83-.26a4.29,4.29,0,0,0-8.55,0c0,2.22,1.88,3.82,4.28,3.83S663.65,721.57,663.66,719.35Zm-1-8.86a3.25,3.25,0,0,0-6.47,0,3.24,3.24,0,0,0,6.47,0Z" fill="#404040"/><path d="M676.74,719.81l-8.46,0v-1.32l9.37-12.29h1.41L679,718h3.27v1.86H679l0,4.68h-2.28Zm0-1.86,0-7.86-6,7.84Z" fill="#404040"/><path d="M715.74,719.84a5.47,5.47,0,0,1,4.13-5.24,4.31,4.31,0,0,1-3-4.21c0-2.49,2.59-4.34,5.5-4.33s5.46,1.88,5.45,4.37a4.33,4.33,0,0,1-3,4.19,5.46,5.46,0,0,1,4.09,5.26c0,3.15-2.9,5.3-6.56,5.29S715.73,723,715.74,719.84Zm10.83-.26a4.29,4.29,0,0,0-8.55,0c0,2.22,1.88,3.82,4.28,3.83S726.56,721.8,726.57,719.58Zm-1-8.86a3.26,3.26,0,0,0-6.48,0,3.25,3.25,0,0,0,6.48,0Z" fill="#404040"/><path d="M731.72,723.43v-2.25a6.86,6.86,0,0,0,5,2.21,4.14,4.14,0,0,0,4.15-4.45c0-2.22-1.18-4.06-3.64-4.06a3.67,3.67,0,0,0-3.67,2.35l-1.19-.75,0-9.78,10.08,0v2l-8.22,0,0,5.58a4.85,4.85,0,0,1,3.37-1.27,5.53,5.53,0,0,1,5.56,5.93,6.1,6.1,0,0,1-6.42,6.27A7.77,7.77,0,0,1,731.72,723.43Z" fill="#404040"/><path d="M750.16,718.7H745.6v-1.62h4.56l0-4.56h1.62l0,4.56,4.56,0v1.62l-4.56,0,0,4.56h-1.62Z" fill="#404040"/><path d="M864.52,716.39c0-6.35,2.43-10.56,7.53-10.56a6.89,6.89,0,0,1,3.87,1.14V709a6.92,6.92,0,0,0-3.84-1.29c-3,0-5.16,2-5.28,7.56a5.23,5.23,0,0,1,4.59-2.43c3.18,0,5.61,2.37,5.61,6.06a6,6,0,0,1-6.09,5.94C868.24,724.88,864.52,723.38,864.52,716.39Zm10.14,2.55c0-2.43-1.23-4.23-3.75-4.23a4,4,0,0,0-4,3.72c0,3.12,2,4.65,3.84,4.65C873.13,723.08,874.66,721.43,874.66,718.94Z" fill="#404040"/><path d="M879.7,723.11v-2.25a6.89,6.89,0,0,0,5,2.19,4.16,4.16,0,0,0,4.14-4.47c0-2.22-1.2-4-3.66-4a3.67,3.67,0,0,0-3.66,2.36l-1.2-.75v-9.77h10.08v2h-8.22V714a4.82,4.82,0,0,1,3.36-1.29,5.53,5.53,0,0,1,5.58,5.91,6.1,6.1,0,0,1-6.39,6.3A7.85,7.85,0,0,1,879.7,723.11Z" fill="#404040"/><path d="M893.65,717.38h6.06v1.68h-6.06Z" fill="#404040"/><path d="M910.84,708.38H901.6v-2h11.82v1.16c-1.47,2.08-6.06,11.16-7,16.83h-2.52C905.08,718.76,909.88,709.76,910.84,708.38Z" fill="#404040"/><path d="M921.31,719.69h-8.46v-1.31L922.18,706h1.41v11.79h3.27v1.86h-3.27v4.68h-2.28Zm0-1.86V710l-6,7.86Z" fill="#404040"/><path d="M957.12,708.38h-9.24v-2H959.7v1.16c-1.47,2.08-6.06,11.16-7,16.83h-2.52C951.36,718.76,956.16,709.76,957.12,708.38Z" fill="#404040"/><path d="M962.07,723.11v-2.25a6.89,6.89,0,0,0,5,2.19,4.16,4.16,0,0,0,4.14-4.47c0-2.22-1.2-4-3.66-4a3.67,3.67,0,0,0-3.66,2.36l-1.2-.75v-9.77h10.08v2h-8.22V714a4.82,4.82,0,0,1,3.36-1.29,5.53,5.53,0,0,1,5.58,5.91,6.1,6.1,0,0,1-6.39,6.3A7.85,7.85,0,0,1,962.07,723.11Z" fill="#404040"/><path d="M976,717.38h6.06v1.68H976Z" fill="#404040"/><path d="M984.84,719.57a5.46,5.46,0,0,1,4.11-5.25,4.32,4.32,0,0,1-3-4.2c0-2.49,2.58-4.34,5.49-4.34s5.46,1.85,5.46,4.34a4.32,4.32,0,0,1-3,4.2,5.46,5.46,0,0,1,4.11,5.25c0,3.15-2.88,5.31-6.54,5.31S984.84,722.72,984.84,719.57Zm10.83-.3a4.29,4.29,0,0,0-8.55,0c0,2.22,1.89,3.81,4.29,3.81S995.67,721.49,995.67,719.27Zm-1-8.85a3.26,3.26,0,0,0-6.48,0,3.25,3.25,0,0,0,6.48,0Z" fill="#404040"/><path d="M1008.75,719.69h-8.46v-1.31l9.33-12.34H1011v11.79h3.27v1.86H1011v4.68h-2.28Zm0-1.86V710l-6,7.86Z" fill="#404040"/><path d="M1047.75,719.57a5.46,5.46,0,0,1,4.11-5.25,4.32,4.32,0,0,1-3-4.2c0-2.49,2.58-4.34,5.49-4.34s5.46,1.85,5.46,4.34a4.32,4.32,0,0,1-3,4.2,5.46,5.46,0,0,1,4.11,5.25c0,3.15-2.88,5.31-6.54,5.31S1047.75,722.72,1047.75,719.57Zm10.83-.3a4.29,4.29,0,0,0-8.55,0c0,2.22,1.89,3.81,4.29,3.81S1058.58,721.49,1058.58,719.27Zm-1-8.85a3.26,3.26,0,0,0-6.48,0,3.25,3.25,0,0,0,6.48,0Z" fill="#404040"/><path d="M1063.74,723.11v-2.25a6.89,6.89,0,0,0,5,2.19,4.16,4.16,0,0,0,4.14-4.47c0-2.22-1.2-4-3.66-4a3.67,3.67,0,0,0-3.66,2.36l-1.2-.75v-9.77h10.08v2h-8.22V714a4.82,4.82,0,0,1,3.36-1.29,5.53,5.53,0,0,1,5.58,5.91,6.1,6.1,0,0,1-6.39,6.3A7.85,7.85,0,0,1,1063.74,723.11Z" fill="#404040"/><path d="M1082.16,718.31h-4.56v-1.62h4.56v-4.56h1.62v4.56h4.56v1.62h-4.56v4.56h-1.62Z" fill="#404040"/><path d="M1198.52,716.39c0-6.35,2.43-10.56,7.53-10.56a6.89,6.89,0,0,1,3.87,1.14V709a6.92,6.92,0,0,0-3.84-1.29c-3,0-5.16,2-5.28,7.56a5.23,5.23,0,0,1,4.59-2.43c3.18,0,5.61,2.37,5.61,6.06a6,6,0,0,1-6.09,5.94C1202.24,724.88,1198.52,723.38,1198.52,716.39Zm10.14,2.55c0-2.43-1.23-4.23-3.75-4.23a4,4,0,0,0-4,3.72c0,3.12,2,4.65,3.84,4.65C1207.13,723.08,1208.66,721.43,1208.66,718.94Z" fill="#404040"/><path d="M1213.7,723.11v-2.25a6.89,6.89,0,0,0,5,2.19,4.16,4.16,0,0,0,4.14-4.47c0-2.22-1.2-4-3.66-4a3.67,3.67,0,0,0-3.66,2.36l-1.2-.75v-9.77h10.08v2h-8.22V714a4.82,4.82,0,0,1,3.36-1.29,5.53,5.53,0,0,1,5.58,5.91,6.1,6.1,0,0,1-6.39,6.3A7.85,7.85,0,0,1,1213.7,723.11Z" fill="#404040"/><path d="M1227.65,717.38h6.06v1.68h-6.06Z" fill="#404040"/><path d="M1244.84,708.38h-9.24v-2h11.82v1.16c-1.47,2.08-6.06,11.16-7,16.83h-2.52C1239.08,718.76,1243.88,709.76,1244.84,708.38Z" fill="#404040"/><path d="M1255.31,719.69h-8.46v-1.31l9.33-12.34h1.41v11.79h3.27v1.86h-3.27v4.68h-2.28Zm0-1.86V710l-6,7.86Z" fill="#404040"/><path d="M1291.12,708.38h-9.24v-2h11.82v1.16c-1.47,2.08-6.06,11.16-7,16.83h-2.52C1285.36,718.76,1290.16,709.76,1291.12,708.38Z" fill="#404040"/><path d="M1296.07,723.11v-2.25a6.89,6.89,0,0,0,5,2.19,4.16,4.16,0,0,0,4.14-4.47c0-2.22-1.2-4-3.66-4a3.67,3.67,0,0,0-3.66,2.36l-1.2-.75v-9.77h10.08v2h-8.22V714a4.82,4.82,0,0,1,3.36-1.29,5.53,5.53,0,0,1,5.58,5.91,6.1,6.1,0,0,1-6.39,6.3A7.85,7.85,0,0,1,1296.07,723.11Z" fill="#404040"/><path d="M1310,717.38h6.06v1.68H1310Z" fill="#404040"/><path d="M1318.84,719.57a5.46,5.46,0,0,1,4.11-5.25,4.32,4.32,0,0,1-3-4.2c0-2.49,2.58-4.34,5.49-4.34s5.46,1.85,5.46,4.34a4.32,4.32,0,0,1-3,4.2,5.46,5.46,0,0,1,4.11,5.25c0,3.15-2.88,5.31-6.54,5.31S1318.84,722.72,1318.84,719.57Zm10.83-.3a4.29,4.29,0,0,0-8.55,0c0,2.22,1.89,3.81,4.29,3.81S1329.67,721.49,1329.67,719.27Zm-1-8.85a3.26,3.26,0,0,0-6.48,0,3.25,3.25,0,0,0,6.48,0Z" fill="#404040"/><path d="M1342.75,719.69h-8.46v-1.31l9.33-12.34H1345v11.79h3.27v1.86H1345v4.68h-2.28Zm0-1.86V710l-6,7.86Z" fill="#404040"/><path d="M1381.75,719.57a5.46,5.46,0,0,1,4.11-5.25,4.32,4.32,0,0,1-3-4.2c0-2.49,2.58-4.34,5.49-4.34s5.46,1.85,5.46,4.34a4.32,4.32,0,0,1-3,4.2,5.46,5.46,0,0,1,4.11,5.25c0,3.15-2.88,5.31-6.54,5.31S1381.75,722.72,1381.75,719.57Zm10.83-.3a4.29,4.29,0,0,0-8.55,0c0,2.22,1.89,3.81,4.29,3.81S1392.58,721.49,1392.58,719.27Zm-1-8.85a3.26,3.26,0,0,0-6.48,0,3.25,3.25,0,0,0,6.48,0Z" fill="#404040"/><path d="M1397.74,723.11v-2.25a6.89,6.89,0,0,0,5,2.19,4.16,4.16,0,0,0,4.14-4.47c0-2.22-1.2-4-3.66-4a3.67,3.67,0,0,0-3.66,2.36l-1.2-.75v-9.77h10.08v2h-8.22V714a4.82,4.82,0,0,1,3.36-1.29,5.53,5.53,0,0,1,5.58,5.91,6.1,6.1,0,0,1-6.39,6.3A7.85,7.85,0,0,1,1397.74,723.11Z" fill="#404040"/><path d="M1416.16,718.31h-4.56v-1.62h4.56v-4.56h1.62v4.56h4.56v1.62h-4.56v4.56h-1.62Z" fill="#404040"/><path d="M1535.52,716.39c0-6.35,2.43-10.56,7.53-10.56a6.89,6.89,0,0,1,3.87,1.14V709a6.92,6.92,0,0,0-3.84-1.29c-3,0-5.16,2-5.28,7.56a5.23,5.23,0,0,1,4.59-2.43c3.18,0,5.61,2.37,5.61,6.06a6,6,0,0,1-6.09,5.94C1539.24,724.88,1535.52,723.38,1535.52,716.39Zm10.14,2.55c0-2.43-1.23-4.23-3.75-4.23a4,4,0,0,0-4,3.72c0,3.12,2,4.65,3.84,4.65C1544.13,723.08,1545.66,721.43,1545.66,718.94Z" fill="#404040"/><path d="M1550.7,723.11v-2.25a6.89,6.89,0,0,0,5,2.19,4.16,4.16,0,0,0,4.14-4.47c0-2.22-1.2-4-3.66-4a3.67,3.67,0,0,0-3.66,2.36l-1.2-.75v-9.77h10.08v2h-8.22V714a4.82,4.82,0,0,1,3.36-1.29,5.53,5.53,0,0,1,5.58,5.91,6.1,6.1,0,0,1-6.39,6.3A7.85,7.85,0,0,1,1550.7,723.11Z" fill="#404040"/><path d="M1564.65,717.38h6.06v1.68h-6.06Z" fill="#404040"/><path d="M1581.84,708.38h-9.24v-2h11.82v1.16c-1.47,2.08-6.06,11.16-7,16.83h-2.52C1576.08,718.76,1580.88,709.76,1581.84,708.38Z" fill="#404040"/><path d="M1592.31,719.69h-8.46v-1.31l9.33-12.34h1.41v11.79h3.27v1.86h-3.27v4.68h-2.28Zm0-1.86V710l-6,7.86Z" fill="#404040"/><path d="M1628.12,708.38h-9.24v-2h11.82v1.16c-1.47,2.08-6.06,11.16-7,16.83h-2.52C1622.36,718.76,1627.16,709.76,1628.12,708.38Z" fill="#404040"/><path d="M1633.07,723.11v-2.25a6.89,6.89,0,0,0,5,2.19,4.16,4.16,0,0,0,4.14-4.47c0-2.22-1.2-4-3.66-4a3.67,3.67,0,0,0-3.66,2.36l-1.2-.75v-9.77h10.08v2h-8.22V714a4.82,4.82,0,0,1,3.36-1.29,5.53,5.53,0,0,1,5.58,5.91,6.1,6.1,0,0,1-6.39,6.3A7.85,7.85,0,0,1,1633.07,723.11Z" fill="#404040"/><path d="M1647,717.38h6.06v1.68H1647Z" fill="#404040"/><path d="M1655.84,719.57a5.46,5.46,0,0,1,4.11-5.25,4.32,4.32,0,0,1-3-4.2c0-2.49,2.58-4.34,5.49-4.34s5.46,1.85,5.46,4.34a4.32,4.32,0,0,1-3,4.2,5.46,5.46,0,0,1,4.11,5.25c0,3.15-2.88,5.31-6.54,5.31S1655.84,722.72,1655.84,719.57Zm10.83-.3a4.29,4.29,0,0,0-8.55,0c0,2.22,1.89,3.81,4.29,3.81S1666.67,721.49,1666.67,719.27Zm-1-8.85a3.26,3.26,0,0,0-6.48,0,3.25,3.25,0,0,0,6.48,0Z" fill="#404040"/><path d="M1679.75,719.69h-8.46v-1.31l9.33-12.34H1682v11.79h3.27v1.86H1682v4.68h-2.28Zm0-1.86V710l-6,7.86Z" fill="#404040"/><path d="M1718.75,719.57a5.46,5.46,0,0,1,4.11-5.25,4.32,4.32,0,0,1-3-4.2c0-2.49,2.58-4.34,5.49-4.34s5.46,1.85,5.46,4.34a4.32,4.32,0,0,1-3,4.2,5.46,5.46,0,0,1,4.11,5.25c0,3.15-2.88,5.31-6.54,5.31S1718.75,722.72,1718.75,719.57Zm10.83-.3a4.29,4.29,0,0,0-8.55,0c0,2.22,1.89,3.81,4.29,3.81S1729.58,721.49,1729.58,719.27Zm-1-8.85a3.26,3.26,0,0,0-6.48,0,3.25,3.25,0,0,0,6.48,0Z" fill="#404040"/><path d="M1734.74,723.11v-2.25a6.89,6.89,0,0,0,5,2.19,4.16,4.16,0,0,0,4.14-4.47c0-2.22-1.2-4-3.66-4a3.67,3.67,0,0,0-3.66,2.36l-1.2-.75v-9.77h10.08v2h-8.22V714a4.82,4.82,0,0,1,3.36-1.29,5.53,5.53,0,0,1,5.58,5.91,6.1,6.1,0,0,1-6.39,6.3A7.85,7.85,0,0,1,1734.74,723.11Z" fill="#404040"/><path d="M1753.16,718.31h-4.56v-1.62h4.56v-4.56h1.62v4.56h4.56v1.62h-4.56v4.56h-1.62Z" fill="#404040"/><rect x="336" y="779" width="34" height="34" fill="#f9d5e6"/><path d="M247.94,784.27h1.61l12.5,15.65V784.27h2.55v21H263L250.5,789.63v15.65h-2.56Z" fill="#404040"/><path d="M275.24,805.8a6.51,6.51,0,1,1,6.9-6.51A6.7,6.7,0,0,1,275.24,805.8Zm0-11a4.5,4.5,0,1,0,4.34,4.48A4.27,4.27,0,0,0,275.24,794.81Z" fill="#404040"/><path d="M294.91,805.28v-7c0-2.28-.94-3.29-2.76-3.29s-3.89,1.5-3.89,3.5v6.83h-2.55V793.34H288l.18,2.06a6,6,0,0,1,4.83-2.52c3.22,0,4.48,2.24,4.48,5.22v7.18Z" fill="#404040"/><path d="M312.24,799h-8.58c-.21,1.93.59,4.76,4.52,4.76a6.2,6.2,0,0,0,4-1.68v2a7.07,7.07,0,0,1-4.76,1.65,6.06,6.06,0,0,1-6.3-6.44c0-3.89,2.69-6.41,5.95-6.41a5,5,0,0,1,5.32,4.8A5.71,5.71,0,0,1,312.24,799Zm-5.12-4.23a3.25,3.25,0,0,0-3.25,2.55h6a1.17,1.17,0,0,0,0-.28C309.93,795.86,309,794.74,307.12,794.74Z" fill="#404040"/><path d="M382.86,803.17l.63-2.59a8.55,8.55,0,0,0,6.37,2.88c2.48,0,4.41-1.41,4.41-3.68s-1-3.33-5-4.38-5.85-3.18-5.85-6.12,2.45-5.46,6.76-5.46a9.46,9.46,0,0,1,5.7,1.92l-.63,2.21a9.33,9.33,0,0,0-5.07-1.86c-2.63,0-4.13,1.23-4.13,3.19,0,1.5.94,2.76,4.23,3.64,4.52,1.19,6.58,3.15,6.58,6.61,0,4.1-3.43,6.2-7,6.2A9.78,9.78,0,0,1,382.86,803.17Z" fill="#404040"/><path d="M406.52,805.8a6.51,6.51,0,1,1,6.89-6.51A6.71,6.71,0,0,1,406.52,805.8Zm0-11a4.5,4.5,0,1,0,4.34,4.48A4.26,4.26,0,0,0,406.52,794.81Z" fill="#404040"/><path d="M434.24,805.28V798.2c0-2.24-.74-3.25-2.52-3.25a3.66,3.66,0,0,0-3.57,3.5v6.83h-2.56V798.2c0-2.24-.7-3.25-2.52-3.25a3.63,3.63,0,0,0-3.53,3.5v6.83H417V793.34h2.27l.18,2.06a5.37,5.37,0,0,1,4.48-2.52,3.71,3.71,0,0,1,4,2.73,5.73,5.73,0,0,1,4.69-2.73c3.22,0,4.23,2.24,4.23,5.22v7.18Z" fill="#404040"/><path d="M451.56,799H443c-.21,1.93.6,4.76,4.52,4.76a6.25,6.25,0,0,0,4-1.68v2a7.09,7.09,0,0,1-4.76,1.65,6.07,6.07,0,0,1-6.31-6.44c0-3.89,2.7-6.41,6-6.41a5,5,0,0,1,5.32,4.8A5.21,5.21,0,0,1,451.56,799Zm-5.11-4.23a3.26,3.26,0,0,0-3.26,2.55h6a1.17,1.17,0,0,0,0-.28C449.25,795.86,448.3,794.74,446.45,794.74Z" fill="#404040"/><rect x="471" y="779" width="34" height="34" fill="#df2d81"/><path d="M517.86,803.17l.63-2.59a8.55,8.55,0,0,0,6.37,2.88c2.48,0,4.41-1.41,4.41-3.68s-1-3.33-5-4.38-5.85-3.18-5.85-6.12,2.45-5.46,6.76-5.46a9.46,9.46,0,0,1,5.7,1.92l-.63,2.21a9.33,9.33,0,0,0-5.07-1.86c-2.63,0-4.13,1.23-4.13,3.19,0,1.5.94,2.76,4.23,3.64,4.52,1.19,6.58,3.15,6.58,6.61,0,4.1-3.43,6.2-7,6.2A9.78,9.78,0,0,1,517.86,803.17Z" fill="#404040"/><path d="M545.82,799h-8.57c-.21,1.93.59,4.76,4.51,4.76a6.25,6.25,0,0,0,4-1.68v2a7.09,7.09,0,0,1-4.76,1.65,6.06,6.06,0,0,1-6.3-6.44c0-3.89,2.69-6.41,5.95-6.41a5,5,0,0,1,5.32,4.8A5.21,5.21,0,0,1,545.82,799Zm-5.11-4.23a3.25,3.25,0,0,0-3.25,2.55h6a1.53,1.53,0,0,0,0-.28C543.51,795.86,542.57,794.74,540.71,794.74Z" fill="#404040"/><path d="M555.1,805.38h-1.93l-5.35-12h2.52l3.81,9,3.78-9h2.52Z" fill="#404040"/><path d="M573.05,799h-8.57c-.21,1.93.59,4.76,4.51,4.76a6.25,6.25,0,0,0,4-1.68v2a7.09,7.09,0,0,1-4.76,1.65,6.06,6.06,0,0,1-6.3-6.44c0-3.89,2.69-6.41,5.95-6.41a5,5,0,0,1,5.32,4.8A5.21,5.21,0,0,1,573.05,799Zm-5.11-4.23a3.25,3.25,0,0,0-3.25,2.55h6a1.53,1.53,0,0,0,0-.28C570.74,795.86,569.8,794.74,567.94,794.74Z" fill="#404040"/><path d="M579.77,798.34v6.94h-2.56V793.34h2.28l.18,2.06a5.62,5.62,0,0,1,4.65-2.52v2.59C582,795.05,579.77,796.35,579.77,798.34Z" fill="#404040"/><path d="M597.41,799h-8.58c-.21,1.93.6,4.76,4.52,4.76a6.25,6.25,0,0,0,4-1.68v2a7.09,7.09,0,0,1-4.76,1.65,6.07,6.07,0,0,1-6.31-6.44c0-3.89,2.7-6.41,6-6.41a5,5,0,0,1,5.32,4.8A5.21,5.21,0,0,1,597.41,799Zm-5.11-4.23a3.26,3.26,0,0,0-3.26,2.55h6a1.53,1.53,0,0,0,0-.28C595.1,795.86,594.16,794.74,592.3,794.74Z" fill="#404040"/><rect x="201" y="779" width="34" height="34" fill="#ccd3e9"/></svg>