<svg id="Layer_1" data-name="Layer 1" xmlns="http://www.w3.org/2000/svg" viewBox="0 0 1879 608"><title>old-adr</title><rect x="-0.5" width="1879" height="608" fill="#fff"/><path d="M1451.4,117.63,1452,115a8.54,8.54,0,0,0,6.37,2.87c2.48,0,4.41-1.4,4.41-3.68s-1-3.32-5-4.37-5.85-3.19-5.85-6.13,2.45-5.46,6.76-5.46a9.46,9.46,0,0,1,5.7,1.92l-.63,2.21a9.33,9.33,0,0,0-5.07-1.86c-2.63,0-4.14,1.23-4.14,3.19,0,1.5,1,2.76,4.24,3.64,4.52,1.19,6.58,3.15,6.58,6.62,0,4.09-3.43,6.19-7,6.19A9.85,9.85,0,0,1,1451.4,117.63Z" fill="#404040"/><path d="M1466.46,98.72h2.86l5,15.51c.1.35.24,1.19.28,1.3a9.41,9.41,0,0,1,.35-1.3l5-15.51h1.75l5,15.51c.14.39.35,1.3.35,1.3a10.2,10.2,0,0,1,.28-1.3l5-15.51h2.73l-7.25,21h-1.75l-5-14.39c-.1-.28-.31-1-.35-1.16,0,.07-.24.88-.35,1.16l-5,14.39h-1.75Z" fill="#404040"/><path d="M1497.81,98.72h12.71v2.35h-9.9v6.4h8.15v2.35h-8.15v7.56h9.9v2.35h-12.71Z" fill="#404040"/><path d="M1514.62,98.72h6.5c8.16,0,11.7,4.73,11.7,10.5s-3.54,10.51-11.7,10.51h-6.5Zm6.54,18.56c6.83,0,8.75-3.85,8.75-8.06s-1.92-8-8.75-8h-3.74v16.11Z" fill="#404040"/><path d="M1536.56,98.72h12.71v2.35h-9.91v6.4h8.16v2.35h-8.16v7.56h9.91v2.35h-12.71Z" fill="#404040"/><path d="M1553.36,98.72H1555l12.5,15.65V98.72H1570v21h-1.61l-12.5-15.65v15.65h-2.55Z" fill="#404040"/><path d="M988.61,98.72h1.61l12.5,15.65V98.72h2.56v21h-1.61l-12.5-15.65v15.65h-2.56Z" fill="#404040"/><path d="M1009,109.23a11.15,11.15,0,1,1,11.16,11.09A10.78,10.78,0,0,1,1009,109.23Zm19.39,0c0-5.11-3.43-8.76-8.23-8.76s-8.26,3.65-8.26,8.76,3.43,8.75,8.26,8.75S1028.41,114.3,1028.41,109.23Z" fill="#404040"/><path d="M1035.06,98.72H1042c4.8,0,6.86,2.77,6.86,6.17a5.61,5.61,0,0,1-4.34,5.84l6.37,9h-3.26l-6-8.68h-3.74v8.68h-2.8Zm6.93,10c3.15,0,4.09-1.89,4.09-3.81s-.94-3.82-4.09-3.82h-4.13v7.63Z" fill="#404040"/><path d="M1051,98.72h2.87l5,15.51c.1.35.24,1.19.28,1.3a9.41,9.41,0,0,1,.35-1.3l5-15.51h1.75l5,15.51c.14.39.35,1.3.35,1.3a10.2,10.2,0,0,1,.28-1.3l5-15.51h2.73l-7.24,21h-1.75l-5-14.39c-.11-.28-.32-1-.36-1.15,0,.07-.24.87-.35,1.15l-5,14.39h-1.75Z" fill="#404040"/><path d="M1087,98.72h1.82l9,21H1095l-2.52-5.88h-9.25l-2.52,5.88H1078Zm4.52,12.85-3.67-8.64-3.68,8.64Z" fill="#404040"/><path d="M1102.92,111.33l-8.22-12.61h3l6.65,10.33L1111,98.72H1114l-8.23,12.61v8.4h-2.8Z" fill="#404040"/><path d="M53.91,98.72h6.52c8.15,0,11.69,4.73,11.69,10.51s-3.54,10.5-11.69,10.5H53.91Zm6.55,18.56c6.83,0,8.75-3.85,8.75-8s-1.92-8.06-8.75-8.06H56.71v16.11Z" fill="#404040"/><path d="M75.86,98.72H88.57v2.35H78.66v6.4h8.16v2.35H78.66v7.56h9.91v2.35H75.86Z" fill="#404040"/><path d="M92.66,98.72h1.61l12.5,15.65V98.72h2.55v21h-1.61l-12.5-15.65v15.65H92.66Z" fill="#404040"/><path d="M114.08,98.72h2.73l8.12,17.44,8.12-17.44h2.59v21H133V105.41c0-.53.07-1.72.07-1.75s-.53,1.26-.74,1.75l-6.54,14.32h-1.89l-6.55-14.32c-.25-.49-.7-1.65-.74-1.75s.07,1.22.07,1.75v14.32h-2.55Z" fill="#404040"/><path d="M147.4,98.72h1.82l9,21h-2.87l-2.52-5.88h-9.24l-2.52,5.88h-2.73Zm4.52,12.85-3.68-8.65-3.68,8.65Z" fill="#404040"/><path d="M161,98.72h6.93c4.8,0,6.86,2.77,6.86,6.16a5.62,5.62,0,0,1-4.34,5.85l6.37,9h-3.26l-6-8.69h-3.74v8.69H161Zm6.93,10c3.15,0,4.09-1.89,4.09-3.82s-.94-3.81-4.09-3.81h-4.13v7.63Z" fill="#404040"/><path d="M179.25,98.72h2.8v10l9.73-10H195l-10,10,11.38,11h-3.71L182.05,109.4v10.33h-2.8Z" fill="#404040"/><path d="M523.24,98.72h12.7v2.35H526v6.4h8.15v2.35H526v9.91h-2.8Z" fill="#404040"/><path d="M538.78,98.72h2.8v21h-2.8Z" fill="#404040"/><path d="M546.34,98.72H548l12.49,15.65V98.72H563v21h-1.61l-12.5-15.65v15.65h-2.55Z" fill="#404040"/><path d="M567.76,98.72h2.8v18.66h9.9v2.35h-12.7Z" fill="#404040"/><path d="M590.3,98.72h1.82l9,21h-2.87l-2.52-5.88h-9.24L584,119.73h-2.73Zm4.51,12.85-3.67-8.65-3.68,8.65Z" fill="#404040"/><path d="M603.88,98.72h1.61L618,114.37V98.72h2.56v21h-1.61l-12.5-15.65v15.65h-2.55Z" fill="#404040"/><path d="M625.3,98.72h6.51c8.15,0,11.69,4.73,11.69,10.51s-3.54,10.5-11.69,10.5H625.3Zm6.54,18.56c6.83,0,8.75-3.85,8.75-8s-1.92-8.06-8.75-8.06H628.1v16.11Z" fill="#404040"/><line x1="76.85" y1="529.26" x2="431.67" y2="529.26" fill="none" stroke="#404040" stroke-miterlimit="10" stroke-width="2"/><path d="M56.61,529c0-5,2.5-8,5.7-8S68,524,68,529s-2.47,8-5.69,8S56.61,533.92,56.61,529Zm9.45,0c0-3.9-1.5-6.35-3.75-6.35s-3.75,2.45-3.75,6.35,1.5,6.37,3.75,6.37S66.06,532.87,66.06,529Z" fill="#404040"/><path d="M50.52,416.85l4.32-4.5c1.38-1.43,2.73-3,2.73-5.05s-1.25-2.9-2.7-2.9a6.19,6.19,0,0,0-4,1.68v-1.8a6.72,6.72,0,0,1,4-1.5c2.75,0,4.62,1.57,4.62,4.37,0,2.6-1.77,4.47-3,5.67l-3.78,3.73h7.08v1.67H50.52Z" fill="#404040"/><path d="M62.27,410.67c0-4.94,2.5-7.94,5.7-7.94s5.7,3,5.7,7.94-2.48,8-5.7,8S62.27,415.65,62.27,410.67Zm9.45,0c0-3.89-1.5-6.34-3.75-6.34s-3.75,2.45-3.75,6.34,1.5,6.38,3.75,6.38S71.72,414.6,71.72,410.67Z" fill="#404040"/><path d="M56.78,296.05H49.73V295l7.77-10.27h1.18v9.82H61.4v1.55H58.68V300h-1.9Zm0-1.55V288l-5,6.55Z" fill="#404040"/><path d="M63,292.4c0-4.95,2.5-7.94,5.7-7.94s5.7,3,5.7,7.94-2.48,8-5.7,8S63,297.38,63,292.4Zm9.45,0c0-3.9-1.5-6.35-3.75-6.35S65,288.5,65,292.4s1.5,6.38,3.75,6.38S72.48,296.33,72.48,292.4Z" fill="#404040"/><path d="M50.34,175c0-5.3,2-8.8,6.28-8.8a5.65,5.65,0,0,1,3.22,1v1.73a5.7,5.7,0,0,0-3.2-1.08c-2.52,0-4.3,1.68-4.39,6.3a4.34,4.34,0,0,1,3.82-2c2.65,0,4.67,2,4.67,5a5,5,0,0,1-5.07,4.94C53.44,182.1,50.34,180.85,50.34,175Zm8.45,2.13c0-2-1-3.53-3.12-3.53a3.32,3.32,0,0,0-3.33,3.1c0,2.6,1.65,3.87,3.2,3.87A3.15,3.15,0,0,0,58.79,177.16Z" fill="#404040"/><path d="M63,174.13c0-4.95,2.5-7.95,5.7-7.95s5.7,3,5.7,7.95-2.47,8-5.7,8S63,179.11,63,174.13Zm9.45,0c0-3.9-1.5-6.35-3.75-6.35s-3.75,2.45-3.75,6.35,1.5,6.37,3.75,6.37S72.44,178.06,72.44,174.13Z" fill="#404040"/><line x1="76.85" y1="410.99" x2="431.67" y2="410.99" fill="none" stroke="#c8c8c8" stroke-miterlimit="10" stroke-width="0.75"/><line x1="76.85" y1="292.71" x2="431.67" y2="292.71" fill="none" stroke="#c8c8c8" stroke-miterlimit="10" stroke-width="0.75"/><line x1="76.85" y1="174.44" x2="431.67" y2="174.44" fill="none" stroke="#c8c8c8" stroke-miterlimit="10" stroke-width="0.75"/><line x1="135.99" y1="373.73" x2="76.85" y2="429.91" fill="none" stroke="#dcdcdc" stroke-miterlimit="10" stroke-width="5"/><line x1="195.12" y1="354.81" x2="135.99" y2="373.73" fill="none" stroke="#dcdcdc" stroke-miterlimit="10" stroke-width="5"/><line x1="254.26" y1="329.38" x2="195.12" y2="354.81" fill="none" stroke="#dcdcdc" stroke-miterlimit="10" stroke-width="5"/><line x1="313.39" y1="303.36" x2="254.26" y2="329.38" fill="none" stroke="#dcdcdc" stroke-miterlimit="10" stroke-width="5"/><line x1="372.53" y1="260.19" x2="313.39" y2="303.36" fill="none" stroke="#dcdcdc" stroke-miterlimit="10" stroke-width="5"/><line x1="431.67" y1="224.12" x2="372.53" y2="260.19" fill="none" stroke="#dcdcdc" stroke-miterlimit="10" stroke-width="5"/><line x1="135.99" y1="382.01" x2="76.85" y2="434.64" fill="none" stroke="#dcdcdc" stroke-miterlimit="10" stroke-width="5"/><line x1="195.12" y1="376.1" x2="135.99" y2="382.01" fill="none" stroke="#dcdcdc" stroke-miterlimit="10" stroke-width="5"/><line x1="254.26" y1="367.23" x2="195.12" y2="376.1" fill="none" stroke="#dcdcdc" stroke-miterlimit="10" stroke-width="5"/><line x1="313.39" y1="337.07" x2="254.26" y2="367.23" fill="none" stroke="#dcdcdc" stroke-miterlimit="10" stroke-width="5"/><line x1="372.53" y1="274.38" x2="313.39" y2="337.07" fill="none" stroke="#dcdcdc" stroke-miterlimit="10" stroke-width="5"/><line x1="431.67" y1="226.48" x2="372.53" y2="274.38" fill="none" stroke="#dcdcdc" stroke-miterlimit="10" stroke-width="5"/><line x1="135.99" y1="422.22" x2="76.85" y2="458.89" fill="none" stroke="#dcdcdc" stroke-miterlimit="10" stroke-width="5"/><line x1="195.12" y1="382.6" x2="135.99" y2="422.22" fill="none" stroke="#dcdcdc" stroke-miterlimit="10" stroke-width="5"/><line x1="254.26" y1="322.28" x2="195.12" y2="382.6" fill="none" stroke="#dcdcdc" stroke-miterlimit="10" stroke-width="5"/><line x1="313.39" y1="269.06" x2="254.26" y2="322.28" fill="none" stroke="#dcdcdc" stroke-miterlimit="10" stroke-width="5"/><line x1="372.53" y1="240.68" x2="313.39" y2="269.06" fill="none" stroke="#dcdcdc" stroke-miterlimit="10" stroke-width="5"/><line x1="431.67" y1="205.79" x2="372.53" y2="240.68" fill="none" stroke="#dcdcdc" stroke-miterlimit="10" stroke-width="5"/><line x1="135.99" y1="389.11" x2="76.85" y2="437.01" fill="none" stroke="#002592" stroke-linecap="round" stroke-linejoin="round" stroke-width="6"/><line x1="195.12" y1="386.15" x2="135.99" y2="389.11" fill="none" stroke="#002592" stroke-linecap="round" stroke-linejoin="round" stroke-width="6"/><line x1="254.26" y1="334.11" x2="195.12" y2="386.15" fill="none" stroke="#002592" stroke-linecap="round" stroke-linejoin="round" stroke-width="6"/><line x1="315.39" y1="305.32" x2="310.89" y2="307.48" fill="none" stroke="#002592" stroke-linecap="round" stroke-linejoin="round" stroke-width="6"/><line x1="297.96" y1="313.67" x2="264.23" y2="329.85" fill="none" stroke-dasharray="7.96 14.33" stroke-linecap="round" stroke-linejoin="round" stroke-width="6" stroke="#002592"/><line x1="257.77" y1="332.95" x2="253.26" y2="335.11" fill="none" stroke="#002592" stroke-linecap="round" stroke-linejoin="round" stroke-width="6"/><line x1="372.53" y1="261.37" x2="368.55" y2="264.4" fill="none" stroke="#002592" stroke-linecap="round" stroke-linejoin="round" stroke-width="6"/><line x1="356.1" y1="273.86" x2="323.6" y2="298.56" fill="none" stroke-dasharray="8.69 15.63" stroke-linecap="round" stroke-linejoin="round" stroke-width="6" stroke="#002592"/><line x1="317.38" y1="303.29" x2="313.39" y2="306.32" fill="none" stroke="#002592" stroke-linecap="round" stroke-linejoin="round" stroke-width="6"/><line x1="431.67" y1="213.47" x2="427.78" y2="216.62" fill="none" stroke="#002592" stroke-linecap="round" stroke-linejoin="round" stroke-width="6"/><line x1="415.29" y1="226.74" x2="382.66" y2="253.17" fill="none" stroke-dasharray="8.93 16.08" stroke-linecap="round" stroke-linejoin="round" stroke-width="6" stroke="#002592"/><line x1="376.42" y1="258.23" x2="372.53" y2="261.37" fill="none" stroke="#002592" stroke-linecap="round" stroke-linejoin="round" stroke-width="6"/><path d="M403.12,558.9l4.33-4.5c1.37-1.42,2.72-3,2.72-5s-1.25-2.9-2.7-2.9a6.17,6.17,0,0,0-4,1.68v-1.8a6.68,6.68,0,0,1,4-1.5c2.75,0,4.62,1.57,4.62,4.37,0,2.6-1.77,4.48-3,5.68l-3.77,3.72h7.07v1.67h-9.35Z" fill="#404040"/><path d="M414.87,552.73c0-5,2.5-8,5.7-8s5.7,3,5.7,8-2.48,8-5.7,8S414.87,557.7,414.87,552.73Zm9.45,0c0-3.9-1.5-6.35-3.75-6.35s-3.75,2.45-3.75,6.35,1.5,6.37,3.75,6.37S424.32,556.65,424.32,552.73Z" fill="#404040"/><path d="M435.64,547H428v-1.67h9.84v1c-1.22,1.73-5.05,9.3-5.82,14h-2.1C430.84,555.6,434.84,548.1,435.64,547Z" fill="#404040"/><path d="M439.77,559.22v-1.87a5.73,5.73,0,0,0,4.17,1.82,3.46,3.46,0,0,0,3.45-3.72c0-1.85-1-3.37-3.05-3.37a3.08,3.08,0,0,0-3,2l-1-.62v-8.15h8.4V547h-6.85v4.65a4,4,0,0,1,2.8-1.07,4.6,4.6,0,0,1,4.65,4.92A5.08,5.08,0,0,1,444,560.7,6.5,6.5,0,0,1,439.77,559.22Z" fill="#404040"/><path d="M344.25,558.9l4.33-4.5c1.37-1.42,2.72-3,2.72-5s-1.25-2.9-2.7-2.9a6.17,6.17,0,0,0-4,1.68v-1.8a6.68,6.68,0,0,1,4-1.5c2.75,0,4.62,1.57,4.62,4.37,0,2.6-1.77,4.48-3,5.68l-3.77,3.72h7.07v1.67h-9.35Z" fill="#404040"/><path d="M356,552.73c0-5,2.5-8,5.7-8s5.7,3,5.7,8-2.48,8-5.7,8S356,557.7,356,552.73Zm9.45,0c0-3.9-1.5-6.35-3.75-6.35s-3.75,2.45-3.75,6.35,1.5,6.37,3.75,6.37S365.45,556.65,365.45,552.73Z" fill="#404040"/><path d="M369.8,559.22v-1.87a5.73,5.73,0,0,0,4.17,1.82,3.46,3.46,0,0,0,3.45-3.72c0-1.85-1-3.37-3.05-3.37a3.06,3.06,0,0,0-3,2l-1-.62v-8.15h8.39V547h-6.84v4.65a4,4,0,0,1,2.79-1.07,4.6,4.6,0,0,1,4.65,4.92A5.08,5.08,0,0,1,374,560.7,6.5,6.5,0,0,1,369.8,559.22Z" fill="#404040"/><path d="M381.53,552.73c0-5,2.5-8,5.69-8s5.7,3,5.7,8-2.47,8-5.7,8S381.53,557.7,381.53,552.73Zm9.44,0c0-3.9-1.5-6.35-3.75-6.35s-3.74,2.45-3.74,6.35,1.49,6.37,3.74,6.37S391,556.65,391,552.73Z" fill="#404040"/><path d="M288,558.9l4.32-4.5c1.38-1.42,2.73-3,2.73-5s-1.25-2.9-2.7-2.9a6.19,6.19,0,0,0-4,1.68v-1.8a6.72,6.72,0,0,1,4-1.5c2.75,0,4.62,1.57,4.62,4.37,0,2.6-1.77,4.48-3,5.68l-3.78,3.72h7.07v1.67H288Z" fill="#404040"/><path d="M299.72,552.73c0-5,2.5-8,5.7-8s5.69,3,5.69,8-2.47,8-5.69,8S299.72,557.7,299.72,552.73Zm9.44,0c0-3.9-1.5-6.35-3.74-6.35s-3.75,2.45-3.75,6.35,1.5,6.37,3.75,6.37S309.16,556.65,309.16,552.73Z" fill="#404040"/><path d="M313.09,558.9l4.33-4.5c1.37-1.42,2.72-3,2.72-5s-1.25-2.9-2.7-2.9a6.17,6.17,0,0,0-4,1.68v-1.8a6.68,6.68,0,0,1,4-1.5c2.75,0,4.62,1.57,4.62,4.37,0,2.6-1.77,4.48-3,5.68l-3.77,3.72h7.07v1.67h-9.35Z" fill="#404040"/><path d="M324.84,559.22v-1.87a5.75,5.75,0,0,0,4.18,1.82,3.46,3.46,0,0,0,3.44-3.72c0-1.85-1-3.37-3-3.37a3.06,3.06,0,0,0-3.05,2l-1-.62v-8.15h8.39V547h-6.84v4.65a4,4,0,0,1,2.79-1.07,4.6,4.6,0,0,1,4.65,4.92A5.08,5.08,0,0,1,329,560.7,6.52,6.52,0,0,1,324.84,559.22Z" fill="#404040"/><path d="M232.71,558.9l4.32-4.5c1.38-1.42,2.73-3,2.73-5s-1.25-2.9-2.7-2.9a6.19,6.19,0,0,0-4,1.68v-1.8a6.72,6.72,0,0,1,4-1.5c2.75,0,4.62,1.57,4.62,4.37,0,2.6-1.77,4.48-3,5.68L235,558.6h7.08v1.67h-9.35Z" fill="#404040"/><path d="M244.46,552.73c0-5,2.5-8,5.7-8s5.7,3,5.7,8-2.48,8-5.7,8S244.46,557.7,244.46,552.73Zm9.45,0c0-3.9-1.5-6.35-3.75-6.35s-3.75,2.45-3.75,6.35,1.5,6.37,3.75,6.37S253.91,556.65,253.91,552.73Z" fill="#404040"/><path d="M259.63,547.13H258v-1.35l3.5-.8v15.29h-1.9Z" fill="#404040"/><path d="M265.06,559.22v-1.87a5.73,5.73,0,0,0,4.17,1.82,3.46,3.46,0,0,0,3.45-3.72c0-1.85-1-3.37-3.05-3.37a3.08,3.08,0,0,0-3.05,2l-1-.62v-8.15H274V547h-6.85v4.65a4,4,0,0,1,2.8-1.07,4.6,4.6,0,0,1,4.65,4.92,5.08,5.08,0,0,1-5.32,5.25A6.5,6.5,0,0,1,265.06,559.22Z" fill="#404040"/><path d="M170.65,558.9l4.32-4.5c1.38-1.42,2.73-3,2.73-5s-1.25-2.9-2.7-2.9a6.19,6.19,0,0,0-4,1.68v-1.8a6.72,6.72,0,0,1,4-1.5c2.75,0,4.62,1.57,4.62,4.37,0,2.6-1.77,4.48-3,5.68l-3.78,3.72H180v1.67h-9.35Z" fill="#404040"/><path d="M182.4,552.73c0-5,2.5-8,5.7-8s5.7,3,5.7,8-2.48,8-5.7,8S182.4,557.7,182.4,552.73Zm9.45,0c0-3.9-1.5-6.35-3.75-6.35s-3.75,2.45-3.75,6.35,1.5,6.37,3.75,6.37S191.85,556.65,191.85,552.73Z" fill="#404040"/><path d="M196.2,552.73c0-5,2.5-8,5.7-8s5.7,3,5.7,8-2.48,8-5.7,8S196.2,557.7,196.2,552.73Zm9.45,0c0-3.9-1.5-6.35-3.75-6.35s-3.75,2.45-3.75,6.35,1.5,6.37,3.75,6.37S205.65,556.65,205.65,552.73Z" fill="#404040"/><path d="M210,552.73c0-5,2.5-8,5.7-8s5.7,3,5.7,8-2.48,8-5.7,8S210,557.7,210,552.73Zm9.45,0c0-3.9-1.5-6.35-3.75-6.35s-3.75,2.45-3.75,6.35,1.5,6.37,3.75,6.37S219.45,556.65,219.45,552.73Z" fill="#404040"/><path d="M120.09,547.13h-1.6v-1.35l3.5-.8v15.29h-1.9Z" fill="#404040"/><path d="M135.76,551.85c0,5.3-2,8.8-6.27,8.8a5.65,5.65,0,0,1-3.22-.95V558a5.7,5.7,0,0,0,3.19,1.08c2.53,0,4.3-1.67,4.4-6.3a4.35,4.35,0,0,1-3.82,2c-2.65,0-4.67-2-4.67-5a5,5,0,0,1,5.07-5C132.66,544.78,135.76,546,135.76,551.85Zm-8.44-2.12c0,2,1,3.52,3.12,3.52a3.31,3.31,0,0,0,3.32-3.1c0-2.6-1.65-3.87-3.2-3.87A3.15,3.15,0,0,0,127.32,549.73Z" fill="#404040"/><path d="M145.26,547h-7.69v-1.67h9.84v1c-1.22,1.73-5,9.3-5.82,14h-2.1C140.46,555.6,144.46,548.1,145.26,547Z" fill="#404040"/><path d="M149.39,559.22v-1.87a5.73,5.73,0,0,0,4.17,1.82,3.46,3.46,0,0,0,3.45-3.72c0-1.85-1-3.37-3-3.37a3.06,3.06,0,0,0-3,2l-1-.62v-8.15h8.39V547h-6.85v4.65a4,4,0,0,1,2.8-1.07,4.6,4.6,0,0,1,4.65,4.92,5.08,5.08,0,0,1-5.32,5.25A6.5,6.5,0,0,1,149.39,559.22Z" fill="#404040"/><path d="M61.22,547.13h-1.6v-1.35l3.5-.8v15.29h-1.9Z" fill="#404040"/><path d="M76.89,551.85c0,5.3-2,8.8-6.27,8.8a5.71,5.71,0,0,1-3.23-.95V558a5.76,5.76,0,0,0,3.2,1.08c2.53,0,4.3-1.67,4.4-6.3a4.35,4.35,0,0,1-3.82,2c-2.65,0-4.67-2-4.67-5a5,5,0,0,1,5.07-5C73.79,544.78,76.89,546,76.89,551.85Zm-8.45-2.12c0,2,1,3.52,3.13,3.52a3.31,3.31,0,0,0,3.32-3.1c0-2.6-1.65-3.87-3.2-3.87A3.15,3.15,0,0,0,68.44,549.73Z" fill="#404040"/><path d="M79.42,559.22v-1.87a5.73,5.73,0,0,0,4.17,1.82A3.46,3.46,0,0,0,87,555.45c0-1.85-1-3.37-3.05-3.37a3.08,3.08,0,0,0-3,2l-1-.62v-8.15h8.4V547H81.49v4.65a4,4,0,0,1,2.8-1.07,4.6,4.6,0,0,1,4.65,4.92,5.08,5.08,0,0,1-5.32,5.25A6.5,6.5,0,0,1,79.42,559.22Z" fill="#404040"/><path d="M91.14,552.73c0-5,2.5-8,5.7-8s5.7,3,5.7,8-2.47,8-5.7,8S91.14,557.7,91.14,552.73Zm9.45,0c0-3.9-1.5-6.35-3.75-6.35s-3.75,2.45-3.75,6.35,1.5,6.37,3.75,6.37S100.59,556.65,100.59,552.73Z" fill="#404040"/><path d="M875.12,558.9l4.33-4.5c1.37-1.42,2.72-3,2.72-5s-1.25-2.9-2.7-2.9a6.17,6.17,0,0,0-4,1.68v-1.8a6.68,6.68,0,0,1,4-1.5c2.75,0,4.62,1.57,4.62,4.37,0,2.6-1.77,4.48-3,5.68l-3.77,3.72h7.07v1.67h-9.35Z" fill="#404040"/><path d="M886.87,552.73c0-5,2.5-8,5.7-8s5.7,3,5.7,8-2.48,8-5.7,8S886.87,557.7,886.87,552.73Zm9.45,0c0-3.9-1.5-6.35-3.75-6.35s-3.75,2.45-3.75,6.35,1.5,6.37,3.75,6.37S896.32,556.65,896.32,552.73Z" fill="#404040"/><path d="M907.64,547H900v-1.67h9.84v1c-1.22,1.73-5,9.3-5.82,14h-2.1C902.84,555.6,906.84,548.1,907.64,547Z" fill="#404040"/><path d="M911.77,559.22v-1.87a5.73,5.73,0,0,0,4.17,1.82,3.46,3.46,0,0,0,3.45-3.72c0-1.85-1-3.37-3-3.37a3.08,3.08,0,0,0-3.05,2l-1-.62v-8.15h8.4V547h-6.85v4.65a4,4,0,0,1,2.8-1.07,4.6,4.6,0,0,1,4.65,4.92A5.08,5.08,0,0,1,916,560.7,6.5,6.5,0,0,1,911.77,559.22Z" fill="#404040"/><path d="M816.25,558.9l4.33-4.5c1.37-1.42,2.72-3,2.72-5s-1.25-2.9-2.7-2.9a6.17,6.17,0,0,0-4,1.68v-1.8a6.68,6.68,0,0,1,4-1.5c2.75,0,4.62,1.57,4.62,4.37,0,2.6-1.77,4.48-3,5.68l-3.77,3.72h7.07v1.67h-9.35Z" fill="#404040"/><path d="M828,552.73c0-5,2.5-8,5.7-8s5.7,3,5.7,8-2.48,8-5.7,8S828,557.7,828,552.73Zm9.45,0c0-3.9-1.5-6.35-3.75-6.35s-3.75,2.45-3.75,6.35,1.5,6.37,3.75,6.37S837.45,556.65,837.45,552.73Z" fill="#404040"/><path d="M841.8,559.22v-1.87a5.73,5.73,0,0,0,4.17,1.82,3.46,3.46,0,0,0,3.45-3.72c0-1.85-1-3.37-3-3.37a3.06,3.06,0,0,0-3,2l-1-.62v-8.15h8.39V547h-6.84v4.65a4,4,0,0,1,2.79-1.07,4.6,4.6,0,0,1,4.65,4.92A5.08,5.08,0,0,1,846,560.7,6.5,6.5,0,0,1,841.8,559.22Z" fill="#404040"/><path d="M853.53,552.73c0-5,2.5-8,5.69-8s5.7,3,5.7,8-2.47,8-5.7,8S853.53,557.7,853.53,552.73Zm9.44,0c0-3.9-1.5-6.35-3.75-6.35s-3.74,2.45-3.74,6.35,1.49,6.37,3.74,6.37S863,556.65,863,552.73Z" fill="#404040"/><path d="M760,558.9l4.32-4.5c1.38-1.42,2.73-3,2.73-5s-1.25-2.9-2.7-2.9a6.19,6.19,0,0,0-4,1.68v-1.8a6.72,6.72,0,0,1,4-1.5c2.75,0,4.62,1.57,4.62,4.37,0,2.6-1.77,4.48-3,5.68l-3.78,3.72h7.07v1.67H760Z" fill="#404040"/><path d="M771.72,552.73c0-5,2.5-8,5.7-8s5.69,3,5.69,8-2.47,8-5.69,8S771.72,557.7,771.72,552.73Zm9.44,0c0-3.9-1.5-6.35-3.74-6.35s-3.75,2.45-3.75,6.35,1.5,6.37,3.75,6.37S781.16,556.65,781.16,552.73Z" fill="#404040"/><path d="M785.09,558.9l4.33-4.5c1.37-1.42,2.72-3,2.72-5s-1.25-2.9-2.7-2.9a6.17,6.17,0,0,0-4,1.68v-1.8a6.68,6.68,0,0,1,4-1.5c2.75,0,4.62,1.57,4.62,4.37,0,2.6-1.77,4.48-3,5.68l-3.77,3.72h7.07v1.67h-9.35Z" fill="#404040"/><path d="M796.84,559.22v-1.87a5.75,5.75,0,0,0,4.18,1.82,3.46,3.46,0,0,0,3.44-3.72c0-1.85-1-3.37-3-3.37a3.06,3.06,0,0,0-3,2l-1-.62v-8.15h8.39V547h-6.84v4.65a4,4,0,0,1,2.79-1.07,4.6,4.6,0,0,1,4.65,4.92A5.08,5.08,0,0,1,801,560.7,6.52,6.52,0,0,1,796.84,559.22Z" fill="#404040"/><path d="M704.71,558.9l4.32-4.5c1.38-1.42,2.73-3,2.73-5s-1.25-2.9-2.7-2.9a6.19,6.19,0,0,0-4,1.68v-1.8a6.72,6.72,0,0,1,4-1.5c2.75,0,4.62,1.57,4.62,4.37,0,2.6-1.77,4.48-3,5.68L707,558.6h7.08v1.67h-9.35Z" fill="#404040"/><path d="M716.46,552.73c0-5,2.5-8,5.7-8s5.7,3,5.7,8-2.48,8-5.7,8S716.46,557.7,716.46,552.73Zm9.45,0c0-3.9-1.5-6.35-3.75-6.35s-3.75,2.45-3.75,6.35,1.5,6.37,3.75,6.37S725.91,556.65,725.91,552.73Z" fill="#404040"/><path d="M731.63,547.13H730v-1.35l3.5-.8v15.29h-1.9Z" fill="#404040"/><path d="M737.06,559.22v-1.87a5.73,5.73,0,0,0,4.17,1.82,3.46,3.46,0,0,0,3.45-3.72c0-1.85-1-3.37-3-3.37a3.08,3.08,0,0,0-3,2l-1-.62v-8.15H746V547h-6.85v4.65a4,4,0,0,1,2.8-1.07,4.6,4.6,0,0,1,4.65,4.92,5.08,5.08,0,0,1-5.32,5.25A6.5,6.5,0,0,1,737.06,559.22Z" fill="#404040"/><path d="M642.65,558.9l4.32-4.5c1.38-1.42,2.73-3,2.73-5s-1.25-2.9-2.7-2.9a6.19,6.19,0,0,0-4,1.68v-1.8a6.72,6.72,0,0,1,4-1.5c2.75,0,4.62,1.57,4.62,4.37,0,2.6-1.77,4.48-3,5.68l-3.78,3.72H652v1.67h-9.35Z" fill="#404040"/><path d="M654.4,552.73c0-5,2.5-8,5.7-8s5.7,3,5.7,8-2.48,8-5.7,8S654.4,557.7,654.4,552.73Zm9.45,0c0-3.9-1.5-6.35-3.75-6.35s-3.75,2.45-3.75,6.35,1.5,6.37,3.75,6.37S663.85,556.65,663.85,552.73Z" fill="#404040"/><path d="M668.2,552.73c0-5,2.5-8,5.7-8s5.7,3,5.7,8-2.48,8-5.7,8S668.2,557.7,668.2,552.73Zm9.45,0c0-3.9-1.5-6.35-3.75-6.35s-3.75,2.45-3.75,6.35,1.5,6.37,3.75,6.37S677.65,556.65,677.65,552.73Z" fill="#404040"/><path d="M682,552.73c0-5,2.5-8,5.7-8s5.7,3,5.7,8-2.48,8-5.7,8S682,557.7,682,552.73Zm9.45,0c0-3.9-1.5-6.35-3.75-6.35s-3.75,2.45-3.75,6.35,1.5,6.37,3.75,6.37S691.45,556.65,691.45,552.73Z" fill="#404040"/><path d="M592.09,547.13h-1.6v-1.35l3.5-.8v15.29h-1.9Z" fill="#404040"/><path d="M607.76,551.85c0,5.3-2,8.8-6.27,8.8a5.65,5.65,0,0,1-3.22-.95V558a5.7,5.7,0,0,0,3.19,1.08c2.53,0,4.3-1.67,4.4-6.3a4.35,4.35,0,0,1-3.82,2c-2.65,0-4.67-2-4.67-5a5,5,0,0,1,5.07-5C604.66,544.78,607.76,546,607.76,551.85Zm-8.44-2.12c0,2,1,3.52,3.12,3.52a3.31,3.31,0,0,0,3.32-3.1c0-2.6-1.65-3.87-3.2-3.87A3.15,3.15,0,0,0,599.32,549.73Z" fill="#404040"/><path d="M617.26,547h-7.69v-1.67h9.84v1c-1.22,1.73-5,9.3-5.82,14h-2.1C612.46,555.6,616.46,548.1,617.26,547Z" fill="#404040"/><path d="M621.39,559.22v-1.87a5.73,5.73,0,0,0,4.17,1.82,3.46,3.46,0,0,0,3.45-3.72c0-1.85-1-3.37-3-3.37a3.06,3.06,0,0,0-3,2l-1-.62v-8.15h8.39V547h-6.85v4.65a4,4,0,0,1,2.8-1.07,4.6,4.6,0,0,1,4.65,4.92,5.08,5.08,0,0,1-5.32,5.25A6.5,6.5,0,0,1,621.39,559.22Z" fill="#404040"/><path d="M533.22,547.13h-1.6v-1.35l3.5-.8v15.29h-1.9Z" fill="#404040"/><path d="M548.89,551.85c0,5.3-2,8.8-6.27,8.8a5.71,5.71,0,0,1-3.23-.95V558a5.76,5.76,0,0,0,3.2,1.08c2.53,0,4.3-1.67,4.4-6.3a4.35,4.35,0,0,1-3.82,2c-2.65,0-4.67-2-4.67-5a5,5,0,0,1,5.07-5C545.79,544.78,548.89,546,548.89,551.85Zm-8.45-2.12c0,2,1,3.52,3.13,3.52a3.31,3.31,0,0,0,3.32-3.1c0-2.6-1.65-3.87-3.2-3.87A3.15,3.15,0,0,0,540.44,549.73Z" fill="#404040"/><path d="M551.42,559.22v-1.87a5.73,5.73,0,0,0,4.17,1.82,3.46,3.46,0,0,0,3.45-3.72c0-1.85-1-3.37-3-3.37a3.08,3.08,0,0,0-3,2l-1-.62v-8.15h8.4V547h-6.85v4.65a4,4,0,0,1,2.8-1.07,4.6,4.6,0,0,1,4.65,4.92,5.08,5.08,0,0,1-5.32,5.25A6.5,6.5,0,0,1,551.42,559.22Z" fill="#404040"/><path d="M563.14,552.73c0-5,2.5-8,5.7-8s5.7,3,5.7,8-2.47,8-5.7,8S563.14,557.7,563.14,552.73Zm9.45,0c0-3.9-1.5-6.35-3.75-6.35s-3.75,2.45-3.75,6.35,1.5,6.37,3.75,6.37S572.59,556.65,572.59,552.73Z" fill="#404040"/><line x1="547.58" y1="529.26" x2="902.39" y2="529.26" fill="none" stroke="#404040" stroke-miterlimit="10" stroke-width="2"/><path d="M527.33,529c0-5,2.5-8,5.7-8s5.7,3,5.7,8-2.48,8-5.7,8S527.33,533.92,527.33,529Zm9.45,0c0-3.9-1.5-6.35-3.75-6.35s-3.75,2.45-3.75,6.35,1.5,6.37,3.75,6.37S536.78,532.87,536.78,529Z" fill="#404040"/><path d="M521.24,416.85l4.33-4.5c1.37-1.43,2.72-3,2.72-5.05s-1.25-2.9-2.7-2.9a6.17,6.17,0,0,0-4,1.68v-1.8a6.68,6.68,0,0,1,4-1.5c2.75,0,4.63,1.57,4.63,4.37,0,2.6-1.78,4.47-3,5.67l-3.77,3.73h7.07v1.67h-9.35Z" fill="#404040"/><path d="M533,410.67c0-4.94,2.5-7.94,5.7-7.94s5.7,3,5.7,7.94-2.47,8-5.7,8S533,415.65,533,410.67Zm9.45,0c0-3.89-1.5-6.34-3.75-6.34s-3.75,2.45-3.75,6.34,1.5,6.38,3.75,6.38S542.44,414.6,542.44,410.67Z" fill="#404040"/><path d="M527.5,296.05h-7V295l7.77-10.27h1.17v9.82h2.73v1.55H529.4V300h-1.9Zm0-1.55V288l-5,6.55Z" fill="#404040"/><path d="M533.76,292.4c0-4.95,2.49-7.94,5.69-7.94s5.7,3,5.7,7.94-2.47,8-5.7,8S533.76,297.38,533.76,292.4Zm9.44,0c0-3.9-1.5-6.35-3.75-6.35s-3.74,2.45-3.74,6.35,1.49,6.38,3.74,6.38S543.2,296.33,543.2,292.4Z" fill="#404040"/><path d="M521.07,175c0-5.3,2-8.8,6.27-8.8a5.71,5.71,0,0,1,3.23,1v1.73a5.76,5.76,0,0,0-3.2-1.08c-2.53,0-4.3,1.68-4.4,6.3a4.34,4.34,0,0,1,3.82-2c2.65,0,4.68,2,4.68,5a5,5,0,0,1-5.08,4.94C524.17,182.1,521.07,180.85,521.07,175Zm8.45,2.13c0-2-1-3.53-3.13-3.53a3.31,3.31,0,0,0-3.32,3.1c0,2.6,1.65,3.87,3.2,3.87A3.15,3.15,0,0,0,529.52,177.16Z" fill="#404040"/><path d="M533.72,174.13c0-4.95,2.5-7.95,5.7-7.95s5.7,3,5.7,7.95-2.48,8-5.7,8S533.72,179.11,533.72,174.13Zm9.45,0c0-3.9-1.5-6.35-3.75-6.35s-3.75,2.45-3.75,6.35,1.5,6.37,3.75,6.37S543.17,178.06,543.17,174.13Z" fill="#404040"/><line x1="547.58" y1="410.99" x2="902.39" y2="410.99" fill="none" stroke="#c8c8c8" stroke-miterlimit="10" stroke-width="0.75"/><line x1="547.58" y1="292.71" x2="902.39" y2="292.71" fill="none" stroke="#c8c8c8" stroke-miterlimit="10" stroke-width="0.75"/><line x1="547.58" y1="174.44" x2="902.39" y2="174.44" fill="none" stroke="#c8c8c8" stroke-miterlimit="10" stroke-width="0.75"/><line x1="606.71" y1="373.73" x2="547.58" y2="429.91" fill="none" stroke="#dcdcdc" stroke-miterlimit="10" stroke-width="5"/><line x1="665.85" y1="354.81" x2="606.71" y2="373.73" fill="none" stroke="#dcdcdc" stroke-miterlimit="10" stroke-width="5"/><line x1="724.98" y1="329.38" x2="665.85" y2="354.81" fill="none" stroke="#dcdcdc" stroke-miterlimit="10" stroke-width="5"/><line x1="784.12" y1="303.36" x2="724.98" y2="329.38" fill="none" stroke="#dcdcdc" stroke-miterlimit="10" stroke-width="5"/><line x1="843.25" y1="260.19" x2="784.12" y2="303.36" fill="none" stroke="#dcdcdc" stroke-miterlimit="10" stroke-width="5"/><line x1="902.39" y1="224.12" x2="843.25" y2="260.19" fill="none" stroke="#dcdcdc" stroke-miterlimit="10" stroke-width="5"/><line x1="606.71" y1="382.01" x2="547.58" y2="434.64" fill="none" stroke="#dcdcdc" stroke-miterlimit="10" stroke-width="5"/><line x1="665.85" y1="376.1" x2="606.71" y2="382.01" fill="none" stroke="#dcdcdc" stroke-miterlimit="10" stroke-width="5"/><line x1="724.98" y1="367.23" x2="665.85" y2="376.1" fill="none" stroke="#dcdcdc" stroke-miterlimit="10" stroke-width="5"/><line x1="784.12" y1="337.07" x2="724.98" y2="367.23" fill="none" stroke="#dcdcdc" stroke-miterlimit="10" stroke-width="5"/><line x1="843.25" y1="274.38" x2="784.12" y2="337.07" fill="none" stroke="#dcdcdc" stroke-miterlimit="10" stroke-width="5"/><line x1="902.39" y1="226.48" x2="843.25" y2="274.38" fill="none" stroke="#dcdcdc" stroke-miterlimit="10" stroke-width="5"/><line x1="606.71" y1="389.11" x2="547.58" y2="437.01" fill="none" stroke="#dcdcdc" stroke-miterlimit="10" stroke-width="5"/><line x1="665.85" y1="386.15" x2="606.71" y2="389.11" fill="none" stroke="#dcdcdc" stroke-miterlimit="10" stroke-width="5"/><line x1="724.98" y1="334.11" x2="665.85" y2="386.15" fill="none" stroke="#dcdcdc" stroke-miterlimit="10" stroke-width="5"/><line x1="784.12" y1="306.32" x2="724.98" y2="334.11" fill="none" stroke="#dcdcdc" stroke-miterlimit="10" stroke-width="5"/><line x1="843.25" y1="261.37" x2="784.12" y2="306.32" fill="none" stroke="#dcdcdc" stroke-miterlimit="10" stroke-width="5"/><line x1="902.39" y1="213.47" x2="843.25" y2="261.37" fill="none" stroke="#dcdcdc" stroke-miterlimit="10" stroke-width="5"/><line x1="606.71" y1="422.22" x2="547.58" y2="458.89" fill="none" stroke="#002592" stroke-linecap="round" stroke-linejoin="round" stroke-width="6"/><line x1="665.85" y1="382.6" x2="606.71" y2="422.22" fill="none" stroke="#002592" stroke-linecap="round" stroke-linejoin="round" stroke-width="6"/><line x1="724.98" y1="322.28" x2="665.85" y2="382.6" fill="none" stroke="#002592" stroke-linecap="round" stroke-linejoin="round" stroke-width="6"/><line x1="784.12" y1="269.06" x2="780.4" y2="272.41" fill="none" stroke="#002592" stroke-linecap="round" stroke-linejoin="round" stroke-width="6"/><line x1="767.83" y1="283.72" x2="734.99" y2="313.28" fill="none" stroke-dasharray="9.4 16.92" stroke-linecap="round" stroke-linejoin="round" stroke-width="6" stroke="#002592"/><line x1="728.7" y1="318.94" x2="724.98" y2="322.28" fill="none" stroke="#002592" stroke-linecap="round" stroke-linejoin="round" stroke-width="6"/><line x1="844.25" y1="240.68" x2="839.73" y2="242.81" fill="none" stroke="#002592" stroke-linecap="round" stroke-linejoin="round" stroke-width="6"/><line x1="826.82" y1="248.92" x2="793.1" y2="264.87" fill="none" stroke-dasharray="7.94 14.29" stroke-linecap="round" stroke-linejoin="round" stroke-width="6" stroke="#002592"/><line x1="786.64" y1="267.92" x2="782.12" y2="270.06" fill="none" stroke="#002592" stroke-linecap="round" stroke-linejoin="round" stroke-width="6"/><line x1="902.39" y1="205.78" x2="898.08" y2="208.33" fill="none" stroke="#002592" stroke-linecap="round" stroke-linejoin="round" stroke-width="6"/><line x1="885.79" y1="215.58" x2="853.71" y2="234.51" fill="none" stroke-dasharray="7.93 14.27" stroke-linecap="round" stroke-linejoin="round" stroke-width="6" stroke="#002592"/><line x1="847.56" y1="238.13" x2="843.25" y2="240.68" fill="none" stroke="#002592" stroke-linecap="round" stroke-linejoin="round" stroke-width="6"/><path d="M1339.12,561.9l4.33-4.5c1.37-1.42,2.72-3,2.72-5s-1.25-2.9-2.7-2.9a6.17,6.17,0,0,0-4,1.68v-1.8a6.68,6.68,0,0,1,4-1.5c2.75,0,4.62,1.57,4.62,4.37,0,2.6-1.77,4.48-3,5.68l-3.77,3.72h7.07v1.67h-9.35Z" fill="#404040"/><path d="M1350.87,555.73c0-5,2.5-8,5.7-8s5.7,3,5.7,8-2.48,8-5.7,8S1350.87,560.7,1350.87,555.73Zm9.45,0c0-3.9-1.5-6.35-3.75-6.35s-3.75,2.45-3.75,6.35,1.5,6.37,3.75,6.37S1360.32,559.65,1360.32,555.73Z" fill="#404040"/><path d="M1371.64,550H1364v-1.67h9.84v1c-1.22,1.73-5,9.3-5.82,14h-2.1C1366.84,558.6,1370.84,551.1,1371.64,550Z" fill="#404040"/><path d="M1375.77,562.22v-1.87a5.73,5.73,0,0,0,4.17,1.82,3.46,3.46,0,0,0,3.45-3.72c0-1.85-1-3.37-3.05-3.37a3.08,3.08,0,0,0-3,2l-1-.62v-8.15h8.4V550h-6.85v4.65a4,4,0,0,1,2.8-1.07,4.6,4.6,0,0,1,4.65,4.92,5.08,5.08,0,0,1-5.32,5.25A6.5,6.5,0,0,1,1375.77,562.22Z" fill="#404040"/><path d="M1280.25,561.9l4.33-4.5c1.37-1.42,2.72-3,2.72-5s-1.25-2.9-2.7-2.9a6.17,6.17,0,0,0-4,1.68v-1.8a6.68,6.68,0,0,1,4-1.5c2.75,0,4.62,1.57,4.62,4.37,0,2.6-1.77,4.48-3,5.68l-3.77,3.72h7.07v1.67h-9.35Z" fill="#404040"/><path d="M1292,555.73c0-5,2.5-8,5.7-8s5.7,3,5.7,8-2.48,8-5.7,8S1292,560.7,1292,555.73Zm9.45,0c0-3.9-1.5-6.35-3.75-6.35s-3.75,2.45-3.75,6.35,1.5,6.37,3.75,6.37S1301.45,559.65,1301.45,555.73Z" fill="#404040"/><path d="M1305.8,562.22v-1.87a5.73,5.73,0,0,0,4.17,1.82,3.46,3.46,0,0,0,3.45-3.72c0-1.85-1-3.37-3.05-3.37a3.06,3.06,0,0,0-3,2l-1-.62v-8.15h8.39V550h-6.84v4.65a4,4,0,0,1,2.79-1.07,4.6,4.6,0,0,1,4.65,4.92,5.08,5.08,0,0,1-5.32,5.25A6.5,6.5,0,0,1,1305.8,562.22Z" fill="#404040"/><path d="M1317.53,555.73c0-5,2.5-8,5.69-8s5.7,3,5.7,8-2.47,8-5.7,8S1317.53,560.7,1317.53,555.73Zm9.44,0c0-3.9-1.5-6.35-3.75-6.35s-3.74,2.45-3.74,6.35,1.49,6.37,3.74,6.37S1327,559.65,1327,555.73Z" fill="#404040"/><path d="M1224,561.9l4.32-4.5c1.38-1.42,2.73-3,2.73-5s-1.25-2.9-2.7-2.9a6.19,6.19,0,0,0-4,1.68v-1.8a6.72,6.72,0,0,1,4-1.5c2.75,0,4.62,1.57,4.62,4.37,0,2.6-1.77,4.48-3,5.68l-3.78,3.72h7.07v1.67H1224Z" fill="#404040"/><path d="M1235.72,555.73c0-5,2.5-8,5.7-8s5.69,3,5.69,8-2.47,8-5.69,8S1235.72,560.7,1235.72,555.73Zm9.44,0c0-3.9-1.5-6.35-3.74-6.35s-3.75,2.45-3.75,6.35,1.5,6.37,3.75,6.37S1245.16,559.65,1245.16,555.73Z" fill="#404040"/><path d="M1249.09,561.9l4.33-4.5c1.37-1.42,2.72-3,2.72-5s-1.25-2.9-2.7-2.9a6.17,6.17,0,0,0-4,1.68v-1.8a6.68,6.68,0,0,1,4-1.5c2.75,0,4.62,1.57,4.62,4.37,0,2.6-1.77,4.48-3,5.68l-3.77,3.72h7.07v1.67h-9.35Z" fill="#404040"/><path d="M1260.84,562.22v-1.87a5.75,5.75,0,0,0,4.18,1.82,3.46,3.46,0,0,0,3.44-3.72c0-1.85-1-3.37-3-3.37a3.06,3.06,0,0,0-3.05,2l-1-.62v-8.15h8.39V550h-6.84v4.65a4,4,0,0,1,2.79-1.07,4.6,4.6,0,0,1,4.65,4.92,5.08,5.08,0,0,1-5.32,5.25A6.52,6.52,0,0,1,1260.84,562.22Z" fill="#404040"/><path d="M1168.71,561.9l4.32-4.5c1.38-1.42,2.73-3,2.73-5s-1.25-2.9-2.7-2.9a6.19,6.19,0,0,0-4,1.68v-1.8a6.72,6.72,0,0,1,4-1.5c2.75,0,4.62,1.57,4.62,4.37,0,2.6-1.77,4.48-3,5.68L1171,561.6h7.08v1.67h-9.35Z" fill="#404040"/><path d="M1180.46,555.73c0-5,2.5-8,5.7-8s5.7,3,5.7,8-2.48,8-5.7,8S1180.46,560.7,1180.46,555.73Zm9.45,0c0-3.9-1.5-6.35-3.75-6.35s-3.75,2.45-3.75,6.35,1.5,6.37,3.75,6.37S1189.91,559.65,1189.91,555.73Z" fill="#404040"/><path d="M1195.63,550.13H1194v-1.35l3.5-.8v15.29h-1.9Z" fill="#404040"/><path d="M1201.06,562.22v-1.87a5.73,5.73,0,0,0,4.17,1.82,3.46,3.46,0,0,0,3.45-3.72c0-1.85-1-3.37-3-3.37a3.08,3.08,0,0,0-3.05,2l-1-.62v-8.15h8.4V550h-6.85v4.65a4,4,0,0,1,2.8-1.07,4.6,4.6,0,0,1,4.65,4.92,5.08,5.08,0,0,1-5.32,5.25A6.5,6.5,0,0,1,1201.06,562.22Z" fill="#404040"/><path d="M1106.65,561.9l4.32-4.5c1.38-1.42,2.73-3,2.73-5s-1.25-2.9-2.7-2.9a6.19,6.19,0,0,0-4,1.68v-1.8a6.72,6.72,0,0,1,4-1.5c2.75,0,4.62,1.57,4.62,4.37,0,2.6-1.77,4.48-3,5.68l-3.78,3.72H1116v1.67h-9.35Z" fill="#404040"/><path d="M1118.4,555.73c0-5,2.5-8,5.7-8s5.7,3,5.7,8-2.48,8-5.7,8S1118.4,560.7,1118.4,555.73Zm9.45,0c0-3.9-1.5-6.35-3.75-6.35s-3.75,2.45-3.75,6.35,1.5,6.37,3.75,6.37S1127.85,559.65,1127.85,555.73Z" fill="#404040"/><path d="M1132.2,555.73c0-5,2.5-8,5.7-8s5.7,3,5.7,8-2.48,8-5.7,8S1132.2,560.7,1132.2,555.73Zm9.45,0c0-3.9-1.5-6.35-3.75-6.35s-3.75,2.45-3.75,6.35,1.5,6.37,3.75,6.37S1141.65,559.65,1141.65,555.73Z" fill="#404040"/><path d="M1146,555.73c0-5,2.5-8,5.7-8s5.7,3,5.7,8-2.48,8-5.7,8S1146,560.7,1146,555.73Zm9.45,0c0-3.9-1.5-6.35-3.75-6.35s-3.75,2.45-3.75,6.35,1.5,6.37,3.75,6.37S1155.45,559.65,1155.45,555.73Z" fill="#404040"/><path d="M1056.09,550.13h-1.6v-1.35l3.5-.8v15.29h-1.9Z" fill="#404040"/><path d="M1071.76,554.85c0,5.3-2,8.8-6.27,8.8a5.65,5.65,0,0,1-3.22-.95V561a5.7,5.7,0,0,0,3.19,1.08c2.53,0,4.3-1.67,4.4-6.3a4.35,4.35,0,0,1-3.82,2c-2.65,0-4.67-2-4.67-5a5,5,0,0,1,5.07-5C1068.66,547.78,1071.76,549,1071.76,554.85Zm-8.44-2.12c0,2,1,3.52,3.12,3.52a3.31,3.31,0,0,0,3.32-3.1c0-2.6-1.65-3.87-3.2-3.87A3.15,3.15,0,0,0,1063.32,552.73Z" fill="#404040"/><path d="M1081.26,550h-7.69v-1.67h9.84v1c-1.22,1.73-5.05,9.3-5.82,14h-2.1C1076.46,558.6,1080.46,551.1,1081.26,550Z" fill="#404040"/><path d="M1085.39,562.22v-1.87a5.73,5.73,0,0,0,4.17,1.82,3.46,3.46,0,0,0,3.45-3.72c0-1.85-1-3.37-3-3.37a3.06,3.06,0,0,0-3,2l-1-.62v-8.15h8.39V550h-6.85v4.65a4,4,0,0,1,2.8-1.07,4.6,4.6,0,0,1,4.65,4.92,5.08,5.08,0,0,1-5.32,5.25A6.5,6.5,0,0,1,1085.39,562.22Z" fill="#404040"/><path d="M997.22,550.13h-1.6v-1.35l3.5-.8v15.29h-1.9Z" fill="#404040"/><path d="M1012.89,554.85c0,5.3-2,8.8-6.27,8.8a5.71,5.71,0,0,1-3.23-.95V561a5.76,5.76,0,0,0,3.2,1.08c2.53,0,4.3-1.67,4.4-6.3a4.35,4.35,0,0,1-3.82,2c-2.65,0-4.67-2-4.67-5a5,5,0,0,1,5.07-5C1009.79,547.78,1012.89,549,1012.89,554.85Zm-8.45-2.12c0,2,1,3.52,3.13,3.52a3.31,3.31,0,0,0,3.32-3.1c0-2.6-1.65-3.87-3.2-3.87A3.15,3.15,0,0,0,1004.44,552.73Z" fill="#404040"/><path d="M1015.42,562.22v-1.87a5.73,5.73,0,0,0,4.17,1.82,3.46,3.46,0,0,0,3.45-3.72c0-1.85-1-3.37-3-3.37a3.08,3.08,0,0,0-3,2l-1-.62v-8.15h8.4V550h-6.85v4.65a4,4,0,0,1,2.8-1.07,4.6,4.6,0,0,1,4.65,4.92,5.08,5.08,0,0,1-5.32,5.25A6.5,6.5,0,0,1,1015.42,562.22Z" fill="#404040"/><path d="M1027.14,555.73c0-5,2.5-8,5.7-8s5.7,3,5.7,8-2.47,8-5.7,8S1027.14,560.7,1027.14,555.73Zm9.45,0c0-3.9-1.5-6.35-3.75-6.35s-3.75,2.45-3.75,6.35,1.5,6.37,3.75,6.37S1036.59,559.65,1036.59,555.73Z" fill="#404040"/><line x1="1012.85" y1="529.73" x2="1367.67" y2="529.73" fill="none" stroke="#404040" stroke-miterlimit="10" stroke-width="2"/><path d="M992.61,529.42c0-4.95,2.5-7.95,5.7-7.95s5.69,3,5.69,7.95-2.47,8-5.69,8S992.61,534.39,992.61,529.42Zm9.45,0c0-3.9-1.5-6.35-3.75-6.35s-3.75,2.45-3.75,6.35,1.5,6.37,3.75,6.37S1002.06,533.34,1002.06,529.42Z" fill="#404040"/><path d="M986.52,417.32l4.32-4.5c1.38-1.42,2.73-3,2.73-5.05s-1.25-2.89-2.7-2.89a6.18,6.18,0,0,0-4,1.67v-1.8a6.78,6.78,0,0,1,4-1.5c2.75,0,4.62,1.57,4.62,4.37,0,2.6-1.77,4.48-3,5.68L988.79,417h7.08v1.68h-9.35Z" fill="#404040"/><path d="M998.27,411.15c0-4.95,2.5-7.95,5.7-7.95s5.7,3,5.7,7.95-2.48,8-5.7,8S998.27,416.12,998.27,411.15Zm9.45,0c0-3.9-1.5-6.35-3.75-6.35s-3.75,2.45-3.75,6.35,1.5,6.37,3.75,6.37S1007.72,415.07,1007.72,411.15Z" fill="#404040"/><path d="M992.78,296.53h-7v-1.1l7.77-10.28h1.18V295h2.72v1.55h-2.72v3.9h-1.9Zm0-1.55v-6.55l-5,6.55Z" fill="#404040"/><path d="M999,292.88c0-4.95,2.5-7.95,5.7-7.95s5.7,3,5.7,7.95-2.48,8-5.7,8S999,297.85,999,292.88Zm9.45,0c0-3.9-1.5-6.35-3.75-6.35S1001,289,1001,292.88s1.5,6.37,3.75,6.37S1008.48,296.8,1008.48,292.88Z" fill="#404040"/><path d="M986.34,175.51c0-5.3,2-8.8,6.28-8.8a5.65,5.65,0,0,1,3.22.95v1.72a5.77,5.77,0,0,0-3.2-1.07c-2.52,0-4.3,1.67-4.39,6.3a4.35,4.35,0,0,1,3.82-2c2.65,0,4.67,2,4.67,5a5,5,0,0,1-5.07,5C989.44,182.58,986.34,181.33,986.34,175.51Zm8.45,2.12c0-2-1-3.52-3.12-3.52a3.32,3.32,0,0,0-3.33,3.1c0,2.59,1.65,3.87,3.2,3.87A3.15,3.15,0,0,0,994.79,177.63Z" fill="#404040"/><path d="M999,174.61c0-5,2.5-8,5.7-8s5.7,3,5.7,8-2.47,8-5.7,8S999,179.58,999,174.61Zm9.45,0c0-3.9-1.5-6.35-3.75-6.35s-3.75,2.45-3.75,6.35,1.5,6.37,3.75,6.37S1008.44,178.53,1008.44,174.61Z" fill="#404040"/><line x1="1012.85" y1="411.46" x2="1367.67" y2="411.46" fill="none" stroke="#c8c8c8" stroke-miterlimit="10" stroke-width="0.75"/><line x1="1012.85" y1="293.19" x2="1367.67" y2="293.19" fill="none" stroke="#c8c8c8" stroke-miterlimit="10" stroke-width="0.75"/><line x1="1012.85" y1="174.92" x2="1367.67" y2="174.92" fill="none" stroke="#c8c8c8" stroke-miterlimit="10" stroke-width="0.75"/><line x1="1071.99" y1="374.2" x2="1012.85" y2="430.38" fill="none" stroke="#dcdcdc" stroke-miterlimit="10" stroke-width="5"/><line x1="1131.12" y1="355.28" x2="1071.99" y2="374.2" fill="none" stroke="#dcdcdc" stroke-miterlimit="10" stroke-width="5"/><line x1="1190.26" y1="329.85" x2="1131.12" y2="355.28" fill="none" stroke="#dcdcdc" stroke-miterlimit="10" stroke-width="5"/><line x1="1249.39" y1="303.83" x2="1190.26" y2="329.85" fill="none" stroke="#dcdcdc" stroke-miterlimit="10" stroke-width="5"/><line x1="1308.53" y1="260.66" x2="1249.39" y2="303.83" fill="none" stroke="#dcdcdc" stroke-miterlimit="10" stroke-width="5"/><line x1="1367.67" y1="224.59" x2="1308.53" y2="260.66" fill="none" stroke="#dcdcdc" stroke-miterlimit="10" stroke-width="5"/><line x1="1071.99" y1="422.7" x2="1012.85" y2="459.36" fill="none" stroke="#dcdcdc" stroke-miterlimit="10" stroke-width="5"/><line x1="1131.12" y1="383.07" x2="1071.99" y2="422.7" fill="none" stroke="#dcdcdc" stroke-miterlimit="10" stroke-width="5"/><line x1="1190.26" y1="322.76" x2="1131.12" y2="383.07" fill="none" stroke="#dcdcdc" stroke-miterlimit="10" stroke-width="5"/><line x1="1249.39" y1="269.53" x2="1190.26" y2="322.76" fill="none" stroke="#dcdcdc" stroke-miterlimit="10" stroke-width="5"/><line x1="1308.53" y1="241.15" x2="1249.39" y2="269.53" fill="none" stroke="#dcdcdc" stroke-miterlimit="10" stroke-width="5"/><line x1="1367.67" y1="206.26" x2="1308.53" y2="241.15" fill="none" stroke="#dcdcdc" stroke-miterlimit="10" stroke-width="5"/><line x1="1071.99" y1="389.58" x2="1012.85" y2="437.48" fill="none" stroke="#dcdcdc" stroke-miterlimit="10" stroke-width="5"/><line x1="1131.12" y1="386.62" x2="1071.99" y2="389.58" fill="none" stroke="#dcdcdc" stroke-miterlimit="10" stroke-width="5"/><line x1="1190.26" y1="334.58" x2="1131.12" y2="386.62" fill="none" stroke="#dcdcdc" stroke-miterlimit="10" stroke-width="5"/><line x1="1249.39" y1="306.79" x2="1190.26" y2="334.58" fill="none" stroke="#dcdcdc" stroke-miterlimit="10" stroke-width="5"/><line x1="1308.53" y1="261.85" x2="1249.39" y2="306.79" fill="none" stroke="#dcdcdc" stroke-miterlimit="10" stroke-width="5"/><line x1="1367.67" y1="213.95" x2="1308.53" y2="261.85" fill="none" stroke="#dcdcdc" stroke-miterlimit="10" stroke-width="5"/><line x1="1071.99" y1="382.48" x2="1012.85" y2="435.11" fill="none" stroke="#002592" stroke-linecap="round" stroke-linejoin="round" stroke-width="6"/><line x1="1131.12" y1="376.57" x2="1071.99" y2="382.48" fill="none" stroke="#002592" stroke-linecap="round" stroke-linejoin="round" stroke-width="6"/><line x1="1190.26" y1="367.7" x2="1131.12" y2="376.57" fill="none" stroke="#002592" stroke-linecap="round" stroke-linejoin="round" stroke-width="6"/><line x1="1250.39" y1="336.54" x2="1245.97" y2="338.87" fill="none" stroke="#002592" stroke-linecap="round" stroke-linejoin="round" stroke-width="6"/><line x1="1233.25" y1="345.56" x2="1200.04" y2="363.03" fill="none" stroke-dasharray="7.98 14.37" stroke-linecap="round" stroke-linejoin="round" stroke-width="6" stroke="#002592"/><line x1="1193.68" y1="366.37" x2="1189.26" y2="368.7" fill="none" stroke="#002592" stroke-linecap="round" stroke-linejoin="round" stroke-width="6"/><line x1="1311.53" y1="271.86" x2="1308.1" y2="275.49" fill="none" stroke="#002592" stroke-linecap="round" stroke-linejoin="round" stroke-width="6"/><line x1="1294.9" y1="289.46" x2="1260.43" y2="325.92" fill="none" stroke-dasharray="10.68 19.22" stroke-linecap="round" stroke-linejoin="round" stroke-width="6" stroke="#002592"/><line x1="1253.83" y1="332.91" x2="1250.39" y2="336.54" fill="none" stroke="#002592" stroke-linecap="round" stroke-linejoin="round" stroke-width="6"/><line x1="1367.67" y1="226.96" x2="1363.78" y2="230.1" fill="none" stroke="#002592" stroke-linecap="round" stroke-linejoin="round" stroke-width="6"/><line x1="1351.29" y1="240.22" x2="1318.66" y2="266.65" fill="none" stroke-dasharray="8.93 16.08" stroke-linecap="round" stroke-linejoin="round" stroke-width="6" stroke="#002592"/><line x1="1312.42" y1="271.71" x2="1308.53" y2="274.86" fill="none" stroke="#002592" stroke-linecap="round" stroke-linejoin="round" stroke-width="6"/><path d="M1799.12,561.4l4.33-4.5c1.37-1.42,2.72-3,2.72-5s-1.25-2.9-2.7-2.9a6.17,6.17,0,0,0-4,1.68v-1.8a6.68,6.68,0,0,1,4-1.5c2.75,0,4.62,1.57,4.62,4.37,0,2.6-1.77,4.48-3,5.68l-3.77,3.72h7.07v1.67h-9.35Z" fill="#404040"/><path d="M1810.87,555.23c0-5,2.5-8,5.7-8s5.7,3,5.7,8-2.48,8-5.7,8S1810.87,560.2,1810.87,555.23Zm9.45,0c0-3.9-1.5-6.35-3.75-6.35s-3.75,2.45-3.75,6.35,1.5,6.37,3.75,6.37S1820.32,559.15,1820.32,555.23Z" fill="#404040"/><path d="M1831.64,549.45H1824v-1.67h9.84v1c-1.22,1.73-5,9.3-5.82,14h-2.1C1826.84,558.1,1830.84,550.6,1831.64,549.45Z" fill="#404040"/><path d="M1835.77,561.72v-1.87a5.73,5.73,0,0,0,4.17,1.82,3.46,3.46,0,0,0,3.45-3.72c0-1.85-1-3.37-3.05-3.37a3.08,3.08,0,0,0-3,2l-1-.62v-8.15h8.4v1.67h-6.85v4.65a4,4,0,0,1,2.8-1.07,4.6,4.6,0,0,1,4.65,4.92,5.08,5.08,0,0,1-5.32,5.25A6.5,6.5,0,0,1,1835.77,561.72Z" fill="#404040"/><path d="M1740.25,561.4l4.33-4.5c1.37-1.42,2.72-3,2.72-5s-1.25-2.9-2.7-2.9a6.17,6.17,0,0,0-4,1.68v-1.8a6.68,6.68,0,0,1,4-1.5c2.75,0,4.62,1.57,4.62,4.37,0,2.6-1.77,4.48-3,5.68l-3.77,3.72h7.07v1.67h-9.35Z" fill="#404040"/><path d="M1752,555.23c0-5,2.5-8,5.7-8s5.7,3,5.7,8-2.48,8-5.7,8S1752,560.2,1752,555.23Zm9.45,0c0-3.9-1.5-6.35-3.75-6.35s-3.75,2.45-3.75,6.35,1.5,6.37,3.75,6.37S1761.45,559.15,1761.45,555.23Z" fill="#404040"/><path d="M1765.8,561.72v-1.87a5.73,5.73,0,0,0,4.17,1.82,3.46,3.46,0,0,0,3.45-3.72c0-1.85-1-3.37-3.05-3.37a3.06,3.06,0,0,0-3,2l-1-.62v-8.15h8.39v1.67h-6.84v4.65a4,4,0,0,1,2.79-1.07,4.6,4.6,0,0,1,4.65,4.92,5.08,5.08,0,0,1-5.32,5.25A6.5,6.5,0,0,1,1765.8,561.72Z" fill="#404040"/><path d="M1777.53,555.23c0-5,2.5-8,5.69-8s5.7,3,5.7,8-2.47,8-5.7,8S1777.53,560.2,1777.53,555.23Zm9.44,0c0-3.9-1.5-6.35-3.75-6.35s-3.74,2.45-3.74,6.35,1.49,6.37,3.74,6.37S1787,559.15,1787,555.23Z" fill="#404040"/><path d="M1684,561.4l4.32-4.5c1.38-1.42,2.73-3,2.73-5s-1.25-2.9-2.7-2.9a6.19,6.19,0,0,0-4,1.68v-1.8a6.72,6.72,0,0,1,4-1.5c2.75,0,4.62,1.57,4.62,4.37,0,2.6-1.77,4.48-3,5.68l-3.78,3.72h7.07v1.67H1684Z" fill="#404040"/><path d="M1695.72,555.23c0-5,2.5-8,5.7-8s5.69,3,5.69,8-2.47,8-5.69,8S1695.72,560.2,1695.72,555.23Zm9.44,0c0-3.9-1.5-6.35-3.74-6.35s-3.75,2.45-3.75,6.35,1.5,6.37,3.75,6.37S1705.16,559.15,1705.16,555.23Z" fill="#404040"/><path d="M1709.09,561.4l4.33-4.5c1.37-1.42,2.72-3,2.72-5s-1.25-2.9-2.7-2.9a6.17,6.17,0,0,0-4,1.68v-1.8a6.68,6.68,0,0,1,4-1.5c2.75,0,4.62,1.57,4.62,4.37,0,2.6-1.77,4.48-3,5.68l-3.77,3.72h7.07v1.67h-9.35Z" fill="#404040"/><path d="M1720.84,561.72v-1.87a5.75,5.75,0,0,0,4.18,1.82,3.46,3.46,0,0,0,3.44-3.72c0-1.85-1-3.37-3-3.37a3.06,3.06,0,0,0-3.05,2l-1-.62v-8.15h8.39v1.67h-6.84v4.65a4,4,0,0,1,2.79-1.07,4.6,4.6,0,0,1,4.65,4.92,5.08,5.08,0,0,1-5.32,5.25A6.52,6.52,0,0,1,1720.84,561.72Z" fill="#404040"/><path d="M1628.71,561.4l4.32-4.5c1.38-1.42,2.73-3,2.73-5s-1.25-2.9-2.7-2.9a6.19,6.19,0,0,0-4,1.68v-1.8a6.72,6.72,0,0,1,4-1.5c2.75,0,4.62,1.57,4.62,4.37,0,2.6-1.77,4.48-3,5.68L1631,561.1h7.08v1.67h-9.35Z" fill="#404040"/><path d="M1640.46,555.23c0-5,2.5-8,5.7-8s5.7,3,5.7,8-2.48,8-5.7,8S1640.46,560.2,1640.46,555.23Zm9.45,0c0-3.9-1.5-6.35-3.75-6.35s-3.75,2.45-3.75,6.35,1.5,6.37,3.75,6.37S1649.91,559.15,1649.91,555.23Z" fill="#404040"/><path d="M1655.63,549.63H1654v-1.35l3.5-.8v15.29h-1.9Z" fill="#404040"/><path d="M1661.06,561.72v-1.87a5.73,5.73,0,0,0,4.17,1.82,3.46,3.46,0,0,0,3.45-3.72c0-1.85-1-3.37-3-3.37a3.08,3.08,0,0,0-3.05,2l-1-.62v-8.15h8.4v1.67h-6.85v4.65a4,4,0,0,1,2.8-1.07,4.6,4.6,0,0,1,4.65,4.92,5.08,5.08,0,0,1-5.32,5.25A6.5,6.5,0,0,1,1661.06,561.72Z" fill="#404040"/><path d="M1566.65,561.4l4.32-4.5c1.38-1.42,2.73-3,2.73-5s-1.25-2.9-2.7-2.9a6.19,6.19,0,0,0-4,1.68v-1.8a6.72,6.72,0,0,1,4-1.5c2.75,0,4.62,1.57,4.62,4.37,0,2.6-1.77,4.48-3,5.68l-3.78,3.72H1576v1.67h-9.35Z" fill="#404040"/><path d="M1578.4,555.23c0-5,2.5-8,5.7-8s5.7,3,5.7,8-2.48,8-5.7,8S1578.4,560.2,1578.4,555.23Zm9.45,0c0-3.9-1.5-6.35-3.75-6.35s-3.75,2.45-3.75,6.35,1.5,6.37,3.75,6.37S1587.85,559.15,1587.85,555.23Z" fill="#404040"/><path d="M1592.2,555.23c0-5,2.5-8,5.7-8s5.7,3,5.7,8-2.48,8-5.7,8S1592.2,560.2,1592.2,555.23Zm9.45,0c0-3.9-1.5-6.35-3.75-6.35s-3.75,2.45-3.75,6.35,1.5,6.37,3.75,6.37S1601.65,559.15,1601.65,555.23Z" fill="#404040"/><path d="M1606,555.23c0-5,2.5-8,5.7-8s5.7,3,5.7,8-2.48,8-5.7,8S1606,560.2,1606,555.23Zm9.45,0c0-3.9-1.5-6.35-3.75-6.35s-3.75,2.45-3.75,6.35,1.5,6.37,3.75,6.37S1615.45,559.15,1615.45,555.23Z" fill="#404040"/><path d="M1516.09,549.63h-1.6v-1.35l3.5-.8v15.29h-1.9Z" fill="#404040"/><path d="M1531.76,554.35c0,5.3-2,8.8-6.27,8.8a5.65,5.65,0,0,1-3.22-.95v-1.73a5.7,5.7,0,0,0,3.19,1.08c2.53,0,4.3-1.67,4.4-6.3a4.35,4.35,0,0,1-3.82,2c-2.65,0-4.67-2-4.67-5a5,5,0,0,1,5.07-5C1528.66,547.28,1531.76,548.53,1531.76,554.35Zm-8.44-2.12c0,2,1,3.52,3.12,3.52a3.31,3.31,0,0,0,3.32-3.1c0-2.6-1.65-3.87-3.2-3.87A3.15,3.15,0,0,0,1523.32,552.23Z" fill="#404040"/><path d="M1541.26,549.45h-7.69v-1.67h9.84v1c-1.22,1.73-5.05,9.3-5.82,14h-2.1C1536.46,558.1,1540.46,550.6,1541.26,549.45Z" fill="#404040"/><path d="M1545.39,561.72v-1.87a5.73,5.73,0,0,0,4.17,1.82A3.46,3.46,0,0,0,1553,558c0-1.85-1-3.37-3-3.37a3.06,3.06,0,0,0-3,2l-1-.62v-8.15h8.39v1.67h-6.85v4.65a4,4,0,0,1,2.8-1.07,4.6,4.6,0,0,1,4.65,4.92,5.08,5.08,0,0,1-5.32,5.25A6.5,6.5,0,0,1,1545.39,561.72Z" fill="#404040"/><path d="M1457.22,549.63h-1.6v-1.35l3.5-.8v15.29h-1.9Z" fill="#404040"/><path d="M1472.89,554.35c0,5.3-2,8.8-6.27,8.8a5.71,5.71,0,0,1-3.23-.95v-1.73a5.76,5.76,0,0,0,3.2,1.08c2.53,0,4.3-1.67,4.4-6.3a4.35,4.35,0,0,1-3.82,2c-2.65,0-4.67-2-4.67-5a5,5,0,0,1,5.07-5C1469.79,547.28,1472.89,548.53,1472.89,554.35Zm-8.45-2.12c0,2,1,3.52,3.13,3.52a3.31,3.31,0,0,0,3.32-3.1c0-2.6-1.65-3.87-3.2-3.87A3.15,3.15,0,0,0,1464.44,552.23Z" fill="#404040"/><path d="M1475.42,561.72v-1.87a5.73,5.73,0,0,0,4.17,1.82A3.46,3.46,0,0,0,1483,558c0-1.85-1-3.37-3-3.37a3.08,3.08,0,0,0-3,2l-1-.62v-8.15h8.4v1.67h-6.85v4.65a4,4,0,0,1,2.8-1.07,4.6,4.6,0,0,1,4.65,4.92,5.08,5.08,0,0,1-5.32,5.25A6.5,6.5,0,0,1,1475.42,561.72Z" fill="#404040"/><path d="M1487.14,555.23c0-5,2.5-8,5.7-8s5.7,3,5.7,8-2.47,8-5.7,8S1487.14,560.2,1487.14,555.23Zm9.45,0c0-3.9-1.5-6.35-3.75-6.35s-3.75,2.45-3.75,6.35,1.5,6.37,3.75,6.37S1496.59,559.15,1496.59,555.23Z" fill="#404040"/><line x1="1471.58" y1="529.23" x2="1826.39" y2="529.23" fill="none" stroke="#404040" stroke-miterlimit="10" stroke-width="2"/><path d="M1451.33,528.92c0-4.95,2.5-7.95,5.7-7.95s5.7,3,5.7,7.95-2.48,8-5.7,8S1451.33,533.89,1451.33,528.92Zm9.45,0c0-3.9-1.5-6.35-3.75-6.35s-3.75,2.45-3.75,6.35,1.5,6.37,3.75,6.37S1460.78,532.84,1460.78,528.92Z" fill="#404040"/><path d="M1445.24,416.82l4.33-4.5c1.37-1.42,2.72-3,2.72-5.05s-1.25-2.89-2.7-2.89a6.15,6.15,0,0,0-4,1.67v-1.8a6.75,6.75,0,0,1,4-1.5c2.75,0,4.63,1.57,4.63,4.37,0,2.6-1.78,4.48-3,5.68l-3.77,3.72h7.07v1.68h-9.35Z" fill="#404040"/><path d="M1457,410.65c0-4.95,2.5-7.95,5.7-7.95s5.7,3,5.7,7.95-2.47,8-5.7,8S1457,415.62,1457,410.65Zm9.45,0c0-3.9-1.5-6.35-3.75-6.35s-3.75,2.45-3.75,6.35,1.5,6.37,3.75,6.37S1466.44,414.57,1466.44,410.65Z" fill="#404040"/><path d="M1451.5,296h-7v-1.1l7.77-10.28h1.17v9.83h2.73V296h-2.73v3.9h-1.9Zm0-1.55v-6.55l-5,6.55Z" fill="#404040"/><path d="M1457.76,292.38c0-4.95,2.49-7.95,5.69-7.95s5.7,3,5.7,7.95-2.47,8-5.7,8S1457.76,297.35,1457.76,292.38Zm9.44,0c0-3.9-1.5-6.35-3.75-6.35s-3.74,2.45-3.74,6.35,1.49,6.37,3.74,6.37S1467.2,296.3,1467.2,292.38Z" fill="#404040"/><path d="M1445.07,175c0-5.3,2-8.8,6.27-8.8a5.71,5.71,0,0,1,3.23.95v1.72a5.83,5.83,0,0,0-3.2-1.07c-2.53,0-4.3,1.67-4.4,6.3a4.35,4.35,0,0,1,3.82-2c2.65,0,4.68,2,4.68,5a5,5,0,0,1-5.08,5C1448.17,182.08,1445.07,180.83,1445.07,175Zm8.45,2.12c0-2-1-3.52-3.13-3.52a3.31,3.31,0,0,0-3.32,3.1c0,2.59,1.65,3.87,3.2,3.87A3.15,3.15,0,0,0,1453.52,177.13Z" fill="#404040"/><path d="M1457.72,174.11c0-5,2.5-8,5.7-8s5.7,3,5.7,8-2.48,8-5.7,8S1457.72,179.08,1457.72,174.11Zm9.45,0c0-3.9-1.5-6.35-3.75-6.35s-3.75,2.45-3.75,6.35,1.5,6.37,3.75,6.37S1467.17,178,1467.17,174.11Z" fill="#404040"/><line x1="1471.58" y1="410.96" x2="1826.39" y2="410.96" fill="none" stroke="#c8c8c8" stroke-miterlimit="10" stroke-width="0.75"/><line x1="1471.58" y1="292.69" x2="1826.39" y2="292.69" fill="none" stroke="#c8c8c8" stroke-miterlimit="10" stroke-width="0.75"/><line x1="1471.58" y1="174.42" x2="1826.39" y2="174.42" fill="none" stroke="#c8c8c8" stroke-miterlimit="10" stroke-width="0.75"/><line x1="1530.71" y1="381.98" x2="1471.58" y2="434.61" fill="none" stroke="#dcdcdc" stroke-miterlimit="10" stroke-width="5"/><line x1="1589.85" y1="376.07" x2="1530.71" y2="381.98" fill="none" stroke="#dcdcdc" stroke-miterlimit="10" stroke-width="5"/><line x1="1648.98" y1="367.2" x2="1589.85" y2="376.07" fill="none" stroke="#dcdcdc" stroke-miterlimit="10" stroke-width="5"/><line x1="1708.12" y1="337.04" x2="1648.98" y2="367.2" fill="none" stroke="#dcdcdc" stroke-miterlimit="10" stroke-width="5"/><line x1="1767.25" y1="274.36" x2="1708.12" y2="337.04" fill="none" stroke="#dcdcdc" stroke-miterlimit="10" stroke-width="5"/><line x1="1826.39" y1="226.46" x2="1767.25" y2="274.36" fill="none" stroke="#dcdcdc" stroke-miterlimit="10" stroke-width="5"/><line x1="1530.71" y1="422.2" x2="1471.58" y2="458.86" fill="none" stroke="#dcdcdc" stroke-miterlimit="10" stroke-width="5"/><line x1="1589.85" y1="382.57" x2="1530.71" y2="422.2" fill="none" stroke="#dcdcdc" stroke-miterlimit="10" stroke-width="5"/><line x1="1648.98" y1="322.26" x2="1589.85" y2="382.57" fill="none" stroke="#dcdcdc" stroke-miterlimit="10" stroke-width="5"/><line x1="1708.12" y1="269.03" x2="1648.98" y2="322.26" fill="none" stroke="#dcdcdc" stroke-miterlimit="10" stroke-width="5"/><line x1="1767.25" y1="240.65" x2="1708.12" y2="269.03" fill="none" stroke="#dcdcdc" stroke-miterlimit="10" stroke-width="5"/><line x1="1826.39" y1="205.76" x2="1767.25" y2="240.65" fill="none" stroke="#dcdcdc" stroke-miterlimit="10" stroke-width="5"/><line x1="1530.71" y1="389.08" x2="1471.58" y2="436.98" fill="none" stroke="#dcdcdc" stroke-miterlimit="10" stroke-width="5"/><line x1="1589.85" y1="386.12" x2="1530.71" y2="389.08" fill="none" stroke="#dcdcdc" stroke-miterlimit="10" stroke-width="5"/><line x1="1648.98" y1="334.08" x2="1589.85" y2="386.12" fill="none" stroke="#dcdcdc" stroke-miterlimit="10" stroke-width="5"/><line x1="1708.12" y1="306.29" x2="1648.98" y2="334.08" fill="none" stroke="#dcdcdc" stroke-miterlimit="10" stroke-width="5"/><line x1="1767.25" y1="261.35" x2="1708.12" y2="306.29" fill="none" stroke="#dcdcdc" stroke-miterlimit="10" stroke-width="5"/><line x1="1826.39" y1="213.45" x2="1767.25" y2="261.35" fill="none" stroke="#dcdcdc" stroke-miterlimit="10" stroke-width="5"/><line x1="1530.71" y1="373.7" x2="1471.58" y2="429.88" fill="none" stroke="#002592" stroke-linecap="round" stroke-linejoin="round" stroke-width="6"/><line x1="1589.85" y1="354.78" x2="1530.71" y2="373.7" fill="none" stroke="#002592" stroke-linecap="round" stroke-linejoin="round" stroke-width="6"/><line x1="1648.98" y1="329.35" x2="1589.85" y2="354.78" fill="none" stroke="#002592" stroke-linecap="round" stroke-linejoin="round" stroke-width="6"/><line x1="1708.12" y1="303.33" x2="1703.55" y2="305.36" fill="none" stroke="#002592" stroke-linecap="round" stroke-linejoin="round" stroke-width="6"/><line x1="1690.41" y1="311.19" x2="1656.12" y2="326.41" fill="none" stroke-dasharray="7.98 14.37" stroke-linecap="round" stroke-linejoin="round" stroke-width="6" stroke="#002592"/><line x1="1649.55" y1="329.32" x2="1644.98" y2="331.35" fill="none" stroke="#002592" stroke-linecap="round" stroke-linejoin="round" stroke-width="6"/><line x1="1767.25" y1="260.16" x2="1763.22" y2="263.11" fill="none" stroke="#002592" stroke-linecap="round" stroke-linejoin="round" stroke-width="6"/><line x1="1750.8" y1="272.18" x2="1718.37" y2="295.85" fill="none" stroke-dasharray="8.54 15.38" stroke-linecap="round" stroke-linejoin="round" stroke-width="6" stroke="#002592"/><line x1="1712.16" y1="300.38" x2="1708.12" y2="303.33" fill="none" stroke="#002592" stroke-linecap="round" stroke-linejoin="round" stroke-width="6"/><line x1="1826.39" y1="224.09" x2="1822.12" y2="226.69" fill="none" stroke="#002592" stroke-linecap="round" stroke-linejoin="round" stroke-width="6"/><line x1="1809.81" y1="234.2" x2="1777.68" y2="253.81" fill="none" stroke-dasharray="8.01 14.42" stroke-linecap="round" stroke-linejoin="round" stroke-width="6" stroke="#002592"/><line x1="1771.52" y1="257.56" x2="1767.25" y2="260.16" fill="none" stroke="#002592" stroke-linecap="round" stroke-linejoin="round" stroke-width="6"/></svg>