<svg id="Layer_1" data-name="Layer 1" xmlns="http://www.w3.org/2000/svg" viewBox="0 0 1879 838"><title>perceived-health-ag</title><rect width="1879" height="838" fill="#fff"/><path d="M1581.4,59.38l.63-2.59a8.54,8.54,0,0,0,6.37,2.87c2.48,0,4.41-1.4,4.41-3.67s-1-3.33-5-4.38-5.85-3.19-5.85-6.13,2.46-5.45,6.76-5.45a9.49,9.49,0,0,1,5.71,1.92l-.63,2.21a9.34,9.34,0,0,0-5.08-1.86c-2.63,0-4.13,1.23-4.13,3.18,0,1.51.94,2.77,4.23,3.65,4.52,1.19,6.58,3.15,6.58,6.61,0,4.1-3.43,6.2-7,6.2A9.82,9.82,0,0,1,1581.4,59.38Z" fill="#404040"/><path d="M1596.45,40.48h2.87l5,15.51c.1.35.24,1.19.28,1.3A9.41,9.41,0,0,1,1605,56l5-15.51h1.75l5,15.51c.14.39.35,1.3.35,1.3a10.2,10.2,0,0,1,.28-1.3l5-15.5h2.73l-7.25,21h-1.75l-5-14.39c-.11-.28-.32-1.05-.35-1.15,0,.07-.25.87-.35,1.15l-5,14.39h-1.75Z" fill="#404040"/><path d="M1627.81,40.49h12.71v2.35h-9.91v6.41h8.15v2.35h-8.15v7.56h9.9v2.34h-12.7Z" fill="#404040"/><path d="M1644.61,40.49h6.51c8.16,0,11.69,4.73,11.69,10.51s-3.54,10.5-11.69,10.49h-6.51ZM1651.15,59c6.83,0,8.75-3.84,8.75-8s-1.92-8-8.74-8.06h-3.75V59Z" fill="#404040"/><path d="M1666.55,40.5h12.71v2.34h-9.91v6.41h8.16v2.34h-8.16v7.56h9.91V61.5h-12.71Z" fill="#404040"/><path d="M1683.35,40.5H1685l12.5,15.65V40.5H1700v21h-1.61l-12.49-15.64V61.5h-2.56Z" fill="#404040"/><path d="M1253,40.48h1.61l12.5,15.65V40.48h2.56v21H1268l-12.49-15.65V61.48H1253Z" fill="#404040"/><path d="M1273.37,51a11.15,11.15,0,0,1,22.29,0,11.15,11.15,0,0,1-22.29,0Zm19.39,0c0-5.11-3.43-8.75-8.22-8.75s-8.27,3.63-8.27,8.74,3.43,8.76,8.26,8.76S1292.76,56.06,1292.76,51Z" fill="#404040"/><path d="M1299.41,40.49h6.93c4.8,0,6.86,2.76,6.86,6.16a5.63,5.63,0,0,1-4.34,5.85l6.37,9H1312l-6-8.68h-3.74v8.68h-2.8Zm6.93,10c3.15,0,4.09-1.88,4.09-3.81s-.94-3.82-4.09-3.82h-4.13v7.63Z" fill="#404040"/><path d="M1315.3,40.49h2.87l5,15.51c.1.35.24,1.19.28,1.29a9.36,9.36,0,0,1,.35-1.29l5-15.51h1.75l5,15.51c.14.39.35,1.3.35,1.3a10.2,10.2,0,0,1,.28-1.3l5-15.5h2.73l-7.25,21h-1.75l-5-14.39c-.1-.28-.31-1-.35-1.16,0,.07-.24.88-.35,1.16l-5,14.39h-1.75Z" fill="#404040"/><path d="M1351.38,40.5h1.83l9,21h-2.87l-2.52-5.88h-9.24l-2.52,5.88h-2.73Zm4.52,12.84-3.68-8.64-3.67,8.64Z" fill="#404040"/><path d="M1367.27,53.1l-8.22-12.6h3l6.65,10.33,6.66-10.33h2.9l-8.23,12.6v8.4h-2.8Z" fill="#404040"/><path d="M924,40.48h12.71v2.34H926.8v6.41H935v2.34H926.8v9.91H924Z" fill="#404040"/><path d="M939.54,40.48h2.8v21h-2.8Z" fill="#404040"/><path d="M947.1,40.48h1.61l12.5,15.64V40.48h2.55v21h-1.61l-12.5-15.65V61.48H947.1Z" fill="#404040"/><path d="M968.52,40.48h2.8V59.13h9.91v2.35H968.52Z" fill="#404040"/><path d="M991.06,40.48h1.82l9,21H999l-2.52-5.88h-9.24l-2.52,5.88H982Zm4.51,12.84-3.67-8.64-3.68,8.64Z" fill="#404040"/><path d="M1004.64,40.48h1.61l12.49,15.64V40.48h2.56v21h-1.61l-12.5-15.65V61.48h-2.55Z" fill="#404040"/><path d="M1026.06,40.48h6.51c8.15,0,11.69,4.73,11.69,10.5s-3.54,10.5-11.69,10.5h-6.51ZM1032.6,59c6.83,0,8.76-3.85,8.76-8.05s-1.93-8-8.76-8h-3.74V59Z" fill="#404040"/><path d="M586.83,40.48h6.51C601.5,40.48,605,45.2,605,51s-3.53,10.5-11.69,10.5h-6.51ZM593.38,59c6.82,0,8.75-3.85,8.75-8.05s-1.93-8-8.75-8h-3.75V59Z" fill="#404040"/><path d="M608.78,40.48h12.7v2.34h-9.9v6.41h8.15v2.34h-8.15v7.56h9.9v2.35h-12.7Z" fill="#404040"/><path d="M625.58,40.48h1.61l12.49,15.64V40.48h2.56v21h-1.61l-12.5-15.65V61.48h-2.55Z" fill="#404040"/><path d="M647,40.48h2.73l8.12,17.43L666,40.48h2.59v21h-2.7V47.16c0-.52.07-1.71.07-1.75-.07.11-.52,1.26-.73,1.75l-6.55,14.32h-1.89l-6.54-14.32c-.25-.49-.7-1.64-.74-1.75,0,0,.07,1.23.07,1.75V61.48H647Z" fill="#404040"/><path d="M680.32,40.48h1.82l9,21H688.3l-2.52-5.88h-9.24L674,61.48h-2.73Zm4.51,12.84-3.67-8.64-3.68,8.64Z" fill="#404040"/><path d="M693.89,40.48h6.94c4.79,0,6.86,2.76,6.86,6.16a5.61,5.61,0,0,1-4.34,5.84l6.37,9h-3.26l-6-8.68H696.7v8.68h-2.81Zm6.94,10c3.15,0,4.09-1.89,4.09-3.81s-.94-3.82-4.09-3.82H696.7v7.63Z" fill="#404040"/><path d="M712.16,40.48H715v9.94l9.74-9.94h3.22l-10,10,11.38,11h-3.71L715,51.15V61.48h-2.8Z" fill="#404040"/><path d="M312.64,40.48h12.71v2.34h-9.91v6.41h8.16v2.34h-8.16v7.56h9.91v2.35H312.64Z" fill="#404040"/><path d="M329.44,51.78V40.48h2.87V51.82c0,5.43,2.45,7.8,6.3,7.8s6.31-2.37,6.31-7.8V40.48h2.73v11.3c0,7.11-3.68,10.3-9.11,10.3S329.44,58.89,329.44,51.78Z" fill="#404040"/><path d="M206.25,683c0-6.36,2.43-10.56,7.53-10.56a6.81,6.81,0,0,1,3.87,1.14v2.07a6.92,6.92,0,0,0-3.84-1.29c-3,0-5.16,2-5.28,7.56a5.23,5.23,0,0,1,4.59-2.43c3.18,0,5.61,2.37,5.61,6.06a6,6,0,0,1-6.09,5.94C210,691.45,206.25,690,206.25,683Zm10.14,2.55c0-2.43-1.23-4.23-3.75-4.23a4,4,0,0,0-4,3.72c0,3.12,2,4.65,3.84,4.65C214.86,689.65,216.39,688,216.39,685.51Z" fill="#404040"/><path d="M221.43,689.68v-2.25a6.89,6.89,0,0,0,5,2.19,4.16,4.16,0,0,0,4.14-4.47c0-2.22-1.2-4-3.66-4a3.68,3.68,0,0,0-3.66,2.37l-1.2-.75v-9.78h10.08v2h-8.22v5.58a4.82,4.82,0,0,1,3.36-1.29,5.53,5.53,0,0,1,5.58,5.91,6.1,6.1,0,0,1-6.39,6.3A7.85,7.85,0,0,1,221.43,689.68Z" fill="#404040"/><path d="M235.38,684h6.06v1.68h-6.06Z" fill="#404040"/><path d="M252.57,675h-9.24v-2h11.82v1.17c-1.47,2.07-6.06,11.16-7,16.83h-2.52C246.81,685.33,251.61,676.33,252.57,675Z" fill="#404040"/><path d="M263,686.26h-8.46v-1.32l9.33-12.33h1.41V684.4h3.27v1.86h-3.27v4.68H263Zm0-1.86v-7.86l-6,7.86Z" fill="#404040"/><path d="M306.86,675h-9.24v-2h11.82v1.17c-1.48,2.07-6.06,11.16-7,16.83h-2.52C301.1,685.33,305.89,676.33,306.86,675Z" fill="#404040"/><path d="M311.8,689.68v-2.25a6.89,6.89,0,0,0,5,2.19,4.16,4.16,0,0,0,4.14-4.47c0-2.22-1.2-4-3.66-4a3.68,3.68,0,0,0-3.66,2.37l-1.2-.75v-9.78h10.08v2h-8.22v5.58a4.82,4.82,0,0,1,3.36-1.29,5.53,5.53,0,0,1,5.58,5.91,6.1,6.1,0,0,1-6.39,6.3A7.85,7.85,0,0,1,311.8,689.68Z" fill="#404040"/><path d="M325.75,684h6.06v1.68h-6.06Z" fill="#404040"/><path d="M334.57,686.14a5.46,5.46,0,0,1,4.11-5.25,4.32,4.32,0,0,1-3-4.2c0-2.49,2.58-4.35,5.49-4.35s5.46,1.86,5.46,4.35a4.32,4.32,0,0,1-3,4.2,5.46,5.46,0,0,1,4.11,5.25c0,3.15-2.88,5.31-6.54,5.31S334.57,689.29,334.57,686.14Zm10.83-.3a4.29,4.29,0,0,0-8.55,0c0,2.22,1.89,3.81,4.29,3.81S345.4,688.06,345.4,685.84Zm-1-8.85a3.26,3.26,0,0,0-6.48,0,3.25,3.25,0,0,0,6.48,0Z" fill="#404040"/><path d="M358.48,686.26H350v-1.32l9.33-12.33h1.41V684.4H364v1.86h-3.27v4.68h-2.28Zm0-1.86v-7.86l-6,7.86Z" fill="#404040"/><path d="M402.49,686.14a5.46,5.46,0,0,1,4.11-5.25,4.32,4.32,0,0,1-3-4.2c0-2.49,2.57-4.35,5.48-4.35s5.46,1.86,5.46,4.35a4.31,4.31,0,0,1-3,4.2,5.46,5.46,0,0,1,4.11,5.25c0,3.15-2.88,5.31-6.54,5.31S402.49,689.29,402.49,686.14Zm10.82-.3a4.29,4.29,0,0,0-8.54,0c0,2.22,1.89,3.81,4.28,3.81S413.31,688.06,413.31,685.84Zm-1-8.85a3.25,3.25,0,0,0-6.47,0,3.24,3.24,0,0,0,6.47,0Z" fill="#404040"/><path d="M418.47,689.68v-2.25a6.89,6.89,0,0,0,5,2.19,4.15,4.15,0,0,0,4.14-4.47c0-2.22-1.2-4-3.66-4a3.68,3.68,0,0,0-3.66,2.37l-1.19-.75v-9.78h10.07v2H421v5.58a4.84,4.84,0,0,1,3.36-1.29,5.53,5.53,0,0,1,5.58,5.91,6.1,6.1,0,0,1-6.38,6.3A7.85,7.85,0,0,1,418.47,689.68Z" fill="#404040"/><path d="M436.89,684.88h-4.56v-1.62h4.56V678.7h1.62v4.56h4.56v1.62h-4.56v4.56h-1.62Z" fill="#404040"/><path d="M535.25,683c0-6.36,2.43-10.56,7.53-10.56a6.81,6.81,0,0,1,3.87,1.14v2.07a6.92,6.92,0,0,0-3.84-1.29c-3,0-5.16,2-5.28,7.56a5.23,5.23,0,0,1,4.59-2.43c3.18,0,5.61,2.37,5.61,6.06a6,6,0,0,1-6.09,5.94C539,691.45,535.25,690,535.25,683Zm10.14,2.55c0-2.43-1.23-4.23-3.75-4.23a4,4,0,0,0-4,3.72c0,3.12,2,4.65,3.84,4.65C543.86,689.65,545.39,688,545.39,685.51Z" fill="#404040"/><path d="M550.43,689.68v-2.25a6.89,6.89,0,0,0,5,2.19,4.16,4.16,0,0,0,4.14-4.47c0-2.22-1.2-4-3.66-4a3.68,3.68,0,0,0-3.66,2.37l-1.2-.75v-9.78h10.08v2h-8.22v5.58a4.82,4.82,0,0,1,3.36-1.29,5.53,5.53,0,0,1,5.58,5.91,6.1,6.1,0,0,1-6.39,6.3A7.85,7.85,0,0,1,550.43,689.68Z" fill="#404040"/><path d="M564.38,684h6.06v1.68h-6.06Z" fill="#404040"/><path d="M581.57,675h-9.24v-2h11.82v1.17c-1.47,2.07-6.06,11.16-7,16.83h-2.52C575.81,685.33,580.61,676.33,581.57,675Z" fill="#404040"/><path d="M592,686.26h-8.46v-1.32l9.33-12.33h1.41V684.4h3.27v1.86h-3.27v4.68H592Zm0-1.86v-7.86l-6,7.86Z" fill="#404040"/><path d="M635.86,675h-9.24v-2h11.82v1.17c-1.48,2.07-6.06,11.16-7,16.83h-2.52C630.1,685.33,634.89,676.33,635.86,675Z" fill="#404040"/><path d="M640.8,689.68v-2.25a6.89,6.89,0,0,0,5,2.19,4.16,4.16,0,0,0,4.14-4.47c0-2.22-1.2-4-3.66-4a3.68,3.68,0,0,0-3.66,2.37l-1.2-.75v-9.78h10.08v2h-8.22v5.58a4.82,4.82,0,0,1,3.36-1.29,5.53,5.53,0,0,1,5.58,5.91,6.1,6.1,0,0,1-6.39,6.3A7.85,7.85,0,0,1,640.8,689.68Z" fill="#404040"/><path d="M654.75,684h6.06v1.68h-6.06Z" fill="#404040"/><path d="M663.57,686.14a5.46,5.46,0,0,1,4.11-5.25,4.32,4.32,0,0,1-3-4.2c0-2.49,2.58-4.35,5.49-4.35s5.46,1.86,5.46,4.35a4.32,4.32,0,0,1-3,4.2,5.46,5.46,0,0,1,4.11,5.25c0,3.15-2.88,5.31-6.54,5.31S663.57,689.29,663.57,686.14Zm10.83-.3a4.29,4.29,0,0,0-8.55,0c0,2.22,1.89,3.81,4.29,3.81S674.4,688.06,674.4,685.84Zm-1-8.85a3.26,3.26,0,0,0-6.48,0,3.25,3.25,0,0,0,6.48,0Z" fill="#404040"/><path d="M687.48,686.26H679v-1.32l9.33-12.33h1.41V684.4H693v1.86h-3.27v4.68h-2.28Zm0-1.86v-7.86l-6,7.86Z" fill="#404040"/><path d="M731.49,686.14a5.46,5.46,0,0,1,4.11-5.25,4.32,4.32,0,0,1-3-4.2c0-2.49,2.57-4.35,5.48-4.35s5.46,1.86,5.46,4.35a4.31,4.31,0,0,1-3,4.2,5.46,5.46,0,0,1,4.11,5.25c0,3.15-2.88,5.31-6.54,5.31S731.49,689.29,731.49,686.14Zm10.82-.3a4.29,4.29,0,0,0-8.54,0c0,2.22,1.89,3.81,4.28,3.81S742.31,688.06,742.31,685.84Zm-1-8.85a3.25,3.25,0,0,0-6.47,0,3.24,3.24,0,0,0,6.47,0Z" fill="#404040"/><path d="M747.47,689.68v-2.25a6.89,6.89,0,0,0,5,2.19,4.15,4.15,0,0,0,4.14-4.47c0-2.22-1.2-4-3.66-4a3.68,3.68,0,0,0-3.66,2.37l-1.19-.75v-9.78h10.07v2H750v5.58a4.84,4.84,0,0,1,3.36-1.29,5.53,5.53,0,0,1,5.58,5.91,6.1,6.1,0,0,1-6.38,6.3A7.85,7.85,0,0,1,747.47,689.68Z" fill="#404040"/><path d="M765.89,684.88h-4.56v-1.62h4.56V678.7h1.62v4.56h4.56v1.62h-4.56v4.56h-1.62Z" fill="#404040"/><path d="M864.25,683c0-6.36,2.43-10.56,7.53-10.56a6.81,6.81,0,0,1,3.87,1.14v2.07a6.92,6.92,0,0,0-3.84-1.29c-3,0-5.16,2-5.28,7.56a5.23,5.23,0,0,1,4.59-2.43c3.18,0,5.61,2.37,5.61,6.06a6,6,0,0,1-6.09,5.94C868,691.45,864.25,690,864.25,683Zm10.14,2.55c0-2.43-1.23-4.23-3.75-4.23a4,4,0,0,0-4,3.72c0,3.12,2,4.65,3.84,4.65C872.86,689.65,874.39,688,874.39,685.51Z" fill="#404040"/><path d="M879.43,689.68v-2.25a6.89,6.89,0,0,0,5,2.19,4.16,4.16,0,0,0,4.14-4.47c0-2.22-1.2-4-3.66-4a3.68,3.68,0,0,0-3.66,2.37l-1.2-.75v-9.78h10.08v2h-8.22v5.58a4.82,4.82,0,0,1,3.36-1.29,5.53,5.53,0,0,1,5.58,5.91,6.1,6.1,0,0,1-6.39,6.3A7.85,7.85,0,0,1,879.43,689.68Z" fill="#404040"/><path d="M893.38,684h6.06v1.68h-6.06Z" fill="#404040"/><path d="M910.57,675h-9.24v-2h11.82v1.17c-1.47,2.07-6.06,11.16-7,16.83h-2.52C904.81,685.33,909.61,676.33,910.57,675Z" fill="#404040"/><path d="M921,686.26h-8.46v-1.32l9.33-12.33h1.41V684.4h3.27v1.86h-3.27v4.68H921Zm0-1.86v-7.86l-6,7.86Z" fill="#404040"/><path d="M964.86,675h-9.24v-2h11.82v1.17c-1.48,2.07-6.06,11.16-7,16.83h-2.52C959.1,685.33,963.89,676.33,964.86,675Z" fill="#404040"/><path d="M969.8,689.68v-2.25a6.89,6.89,0,0,0,5,2.19,4.16,4.16,0,0,0,4.14-4.47c0-2.22-1.2-4-3.66-4a3.68,3.68,0,0,0-3.66,2.37l-1.2-.75v-9.78h10.08v2h-8.22v5.58a4.82,4.82,0,0,1,3.36-1.29,5.53,5.53,0,0,1,5.58,5.91,6.1,6.1,0,0,1-6.39,6.3A7.85,7.85,0,0,1,969.8,689.68Z" fill="#404040"/><path d="M983.75,684h6.06v1.68h-6.06Z" fill="#404040"/><path d="M992.57,686.14a5.46,5.46,0,0,1,4.11-5.25,4.32,4.32,0,0,1-3-4.2c0-2.49,2.58-4.35,5.49-4.35s5.46,1.86,5.46,4.35a4.32,4.32,0,0,1-3,4.2,5.46,5.46,0,0,1,4.11,5.25c0,3.15-2.88,5.31-6.54,5.31S992.57,689.29,992.57,686.14Zm10.83-.3a4.29,4.29,0,0,0-8.55,0c0,2.22,1.89,3.81,4.29,3.81S1003.4,688.06,1003.4,685.84Zm-1-8.85a3.26,3.26,0,0,0-6.48,0,3.25,3.25,0,0,0,6.48,0Z" fill="#404040"/><path d="M1016.48,686.26H1008v-1.32l9.33-12.33h1.41V684.4H1022v1.86h-3.27v4.68h-2.28Zm0-1.86v-7.86l-6,7.86Z" fill="#404040"/><path d="M1060.49,686.14a5.46,5.46,0,0,1,4.11-5.25,4.32,4.32,0,0,1-3-4.2c0-2.49,2.57-4.35,5.48-4.35s5.46,1.86,5.46,4.35a4.31,4.31,0,0,1-3,4.2,5.46,5.46,0,0,1,4.11,5.25c0,3.15-2.88,5.31-6.54,5.31S1060.49,689.29,1060.49,686.14Zm10.82-.3a4.29,4.29,0,0,0-8.54,0c0,2.22,1.89,3.81,4.28,3.81S1071.31,688.06,1071.31,685.84Zm-1-8.85a3.25,3.25,0,0,0-6.47,0,3.24,3.24,0,0,0,6.47,0Z" fill="#404040"/><path d="M1076.47,689.68v-2.25a6.89,6.89,0,0,0,5,2.19,4.15,4.15,0,0,0,4.14-4.47c0-2.22-1.2-4-3.66-4a3.68,3.68,0,0,0-3.66,2.37l-1.19-.75v-9.78h10.07v2H1079v5.58a4.84,4.84,0,0,1,3.36-1.29,5.53,5.53,0,0,1,5.58,5.91,6.1,6.1,0,0,1-6.38,6.3A7.85,7.85,0,0,1,1076.47,689.68Z" fill="#404040"/><path d="M1094.89,684.88h-4.56v-1.62h4.56V678.7h1.62v4.56h4.56v1.62h-4.56v4.56h-1.62Z" fill="#404040"/><path d="M1193.25,683c0-6.36,2.43-10.56,7.53-10.56a6.81,6.81,0,0,1,3.87,1.14v2.07a6.92,6.92,0,0,0-3.84-1.29c-3,0-5.16,2-5.28,7.56a5.23,5.23,0,0,1,4.59-2.43c3.18,0,5.61,2.37,5.61,6.06a6,6,0,0,1-6.09,5.94C1197,691.45,1193.25,690,1193.25,683Zm10.14,2.55c0-2.43-1.23-4.23-3.75-4.23a4,4,0,0,0-4,3.72c0,3.12,2,4.65,3.84,4.65C1201.86,689.65,1203.39,688,1203.39,685.51Z" fill="#404040"/><path d="M1208.43,689.68v-2.25a6.89,6.89,0,0,0,5,2.19,4.16,4.16,0,0,0,4.14-4.47c0-2.22-1.2-4-3.66-4a3.68,3.68,0,0,0-3.66,2.37l-1.2-.75v-9.78h10.08v2h-8.22v5.58a4.82,4.82,0,0,1,3.36-1.29,5.53,5.53,0,0,1,5.58,5.91,6.1,6.1,0,0,1-6.39,6.3A7.85,7.85,0,0,1,1208.43,689.68Z" fill="#404040"/><path d="M1222.38,684h6.06v1.68h-6.06Z" fill="#404040"/><path d="M1239.57,675h-9.24v-2h11.82v1.17c-1.47,2.07-6.06,11.16-7,16.83h-2.52C1233.81,685.33,1238.61,676.33,1239.57,675Z" fill="#404040"/><path d="M1250,686.26h-8.46v-1.32l9.33-12.33h1.41V684.4h3.27v1.86h-3.27v4.68H1250Zm0-1.86v-7.86l-6,7.86Z" fill="#404040"/><path d="M1293.86,675h-9.24v-2h11.82v1.17c-1.48,2.07-6.06,11.16-7,16.83h-2.52C1288.1,685.33,1292.89,676.33,1293.86,675Z" fill="#404040"/><path d="M1298.8,689.68v-2.25a6.89,6.89,0,0,0,5,2.19,4.16,4.16,0,0,0,4.14-4.47c0-2.22-1.2-4-3.66-4a3.68,3.68,0,0,0-3.66,2.37l-1.2-.75v-9.78h10.08v2h-8.22v5.58a4.82,4.82,0,0,1,3.36-1.29,5.53,5.53,0,0,1,5.58,5.91,6.1,6.1,0,0,1-6.39,6.3A7.85,7.85,0,0,1,1298.8,689.68Z" fill="#404040"/><path d="M1312.75,684h6.06v1.68h-6.06Z" fill="#404040"/><path d="M1321.57,686.14a5.46,5.46,0,0,1,4.11-5.25,4.32,4.32,0,0,1-3-4.2c0-2.49,2.58-4.35,5.49-4.35s5.46,1.86,5.46,4.35a4.32,4.32,0,0,1-3,4.2,5.46,5.46,0,0,1,4.11,5.25c0,3.15-2.88,5.31-6.54,5.31S1321.57,689.29,1321.57,686.14Zm10.83-.3a4.29,4.29,0,0,0-8.55,0c0,2.22,1.89,3.81,4.29,3.81S1332.4,688.06,1332.4,685.84Zm-1-8.85a3.26,3.26,0,0,0-6.48,0,3.25,3.25,0,0,0,6.48,0Z" fill="#404040"/><path d="M1345.48,686.26H1337v-1.32l9.33-12.33h1.41V684.4H1351v1.86h-3.27v4.68h-2.28Zm0-1.86v-7.86l-6,7.86Z" fill="#404040"/><path d="M1389.49,686.14a5.46,5.46,0,0,1,4.11-5.25,4.32,4.32,0,0,1-3-4.2c0-2.49,2.57-4.35,5.48-4.35s5.46,1.86,5.46,4.35a4.31,4.31,0,0,1-3,4.2,5.46,5.46,0,0,1,4.11,5.25c0,3.15-2.88,5.31-6.54,5.31S1389.49,689.29,1389.49,686.14Zm10.82-.3a4.29,4.29,0,0,0-8.54,0c0,2.22,1.89,3.81,4.28,3.81S1400.31,688.06,1400.31,685.84Zm-1-8.85a3.25,3.25,0,0,0-6.47,0,3.24,3.24,0,0,0,6.47,0Z" fill="#404040"/><path d="M1405.47,689.68v-2.25a6.89,6.89,0,0,0,5,2.19,4.15,4.15,0,0,0,4.14-4.47c0-2.22-1.2-4-3.66-4a3.68,3.68,0,0,0-3.66,2.37l-1.19-.75v-9.78h10.07v2H1408v5.58a4.84,4.84,0,0,1,3.36-1.29,5.53,5.53,0,0,1,5.58,5.91,6.1,6.1,0,0,1-6.38,6.3A7.85,7.85,0,0,1,1405.47,689.68Z" fill="#404040"/><path d="M1423.89,684.88h-4.56v-1.62h4.56V678.7h1.62v4.56h4.56v1.62h-4.56v4.56h-1.62Z" fill="#404040"/><path d="M1522.25,683c0-6.36,2.43-10.56,7.53-10.56a6.81,6.81,0,0,1,3.87,1.14v2.07a6.92,6.92,0,0,0-3.84-1.29c-3,0-5.16,2-5.28,7.56a5.23,5.23,0,0,1,4.59-2.43c3.18,0,5.61,2.37,5.61,6.06a6,6,0,0,1-6.09,5.94C1526,691.45,1522.25,690,1522.25,683Zm10.14,2.55c0-2.43-1.23-4.23-3.75-4.23a4,4,0,0,0-4,3.72c0,3.12,2,4.65,3.84,4.65C1530.86,689.65,1532.39,688,1532.39,685.51Z" fill="#404040"/><path d="M1537.43,689.68v-2.25a6.89,6.89,0,0,0,5,2.19,4.16,4.16,0,0,0,4.14-4.47c0-2.22-1.2-4-3.66-4a3.68,3.68,0,0,0-3.66,2.37l-1.2-.75v-9.78h10.08v2h-8.22v5.58a4.82,4.82,0,0,1,3.36-1.29,5.53,5.53,0,0,1,5.58,5.91,6.1,6.1,0,0,1-6.39,6.3A7.85,7.85,0,0,1,1537.43,689.68Z" fill="#404040"/><path d="M1551.38,684h6.06v1.68h-6.06Z" fill="#404040"/><path d="M1568.57,675h-9.24v-2h11.82v1.17c-1.47,2.07-6.06,11.16-7,16.83h-2.52C1562.81,685.33,1567.61,676.33,1568.57,675Z" fill="#404040"/><path d="M1579,686.26h-8.46v-1.32l9.33-12.33h1.41V684.4h3.27v1.86h-3.27v4.68H1579Zm0-1.86v-7.86l-6,7.86Z" fill="#404040"/><path d="M1622.86,675h-9.24v-2h11.82v1.17c-1.48,2.07-6.06,11.16-7,16.83h-2.52C1617.1,685.33,1621.89,676.33,1622.86,675Z" fill="#404040"/><path d="M1627.8,689.68v-2.25a6.89,6.89,0,0,0,5,2.19,4.16,4.16,0,0,0,4.14-4.47c0-2.22-1.2-4-3.66-4a3.68,3.68,0,0,0-3.66,2.37l-1.2-.75v-9.78h10.08v2h-8.22v5.58a4.82,4.82,0,0,1,3.36-1.29,5.53,5.53,0,0,1,5.58,5.91,6.1,6.1,0,0,1-6.39,6.3A7.85,7.85,0,0,1,1627.8,689.68Z" fill="#404040"/><path d="M1641.75,684h6.06v1.68h-6.06Z" fill="#404040"/><path d="M1650.57,686.14a5.46,5.46,0,0,1,4.11-5.25,4.32,4.32,0,0,1-3-4.2c0-2.49,2.58-4.35,5.49-4.35s5.46,1.86,5.46,4.35a4.32,4.32,0,0,1-3,4.2,5.46,5.46,0,0,1,4.11,5.25c0,3.15-2.88,5.31-6.54,5.31S1650.57,689.29,1650.57,686.14Zm10.83-.3a4.29,4.29,0,0,0-8.55,0c0,2.22,1.89,3.81,4.29,3.81S1661.4,688.06,1661.4,685.84Zm-1-8.85a3.26,3.26,0,0,0-6.48,0,3.25,3.25,0,0,0,6.48,0Z" fill="#404040"/><path d="M1674.48,686.26H1666v-1.32l9.33-12.33h1.41V684.4H1680v1.86h-3.27v4.68h-2.28Zm0-1.86v-7.86l-6,7.86Z" fill="#404040"/><path d="M1718.49,686.14a5.46,5.46,0,0,1,4.11-5.25,4.32,4.32,0,0,1-3-4.2c0-2.49,2.57-4.35,5.48-4.35s5.46,1.86,5.46,4.35a4.31,4.31,0,0,1-3,4.2,5.46,5.46,0,0,1,4.11,5.25c0,3.15-2.88,5.31-6.54,5.31S1718.49,689.29,1718.49,686.14Zm10.82-.3a4.29,4.29,0,0,0-8.54,0c0,2.22,1.89,3.81,4.28,3.81S1729.31,688.06,1729.31,685.84Zm-1-8.85a3.25,3.25,0,0,0-6.47,0,3.24,3.24,0,0,0,6.47,0Z" fill="#404040"/><path d="M1734.47,689.68v-2.25a6.89,6.89,0,0,0,5,2.19,4.15,4.15,0,0,0,4.14-4.47c0-2.22-1.2-4-3.66-4a3.68,3.68,0,0,0-3.66,2.37l-1.19-.75v-9.78h10.07v2H1737v5.58a4.84,4.84,0,0,1,3.36-1.29,5.53,5.53,0,0,1,5.58,5.91,6.1,6.1,0,0,1-6.38,6.3A7.85,7.85,0,0,1,1734.47,689.68Z" fill="#404040"/><path d="M1752.89,684.88h-4.56v-1.62h4.56V678.7h1.62v4.56h4.56v1.62h-4.56v4.56h-1.62Z" fill="#404040"/><line x1="165.78" y1="97.9" x2="1795" y2="97.9" fill="none" stroke="#c8c8c8" stroke-miterlimit="10" stroke-width="0.75"/><line x1="165.77" y1="377.34" x2="1794.99" y2="377.34" fill="none" stroke="#c8c8c8" stroke-miterlimit="10" stroke-width="0.75"/><line x1="165.75" y1="658.99" x2="1794.97" y2="658.99" fill="none" stroke="#c8c8c8" stroke-miterlimit="10" stroke-width="0.75"/><rect x="205" y="645.52" width="65.51" height="13.47" fill="#df2d81"/><rect x="205" y="586.04" width="65.51" height="59.48" fill="#f9d5e6"/><rect x="205" y="377.88" width="65.51" height="208.16" fill="#e6e6e6"/><rect x="205" y="145.59" width="65.51" height="232.29" fill="#ccd3e9"/><rect x="205" y="97.9" width="65.51" height="47.69" fill="#002592"/><rect x="296.27" y="634.3" width="65.51" height="23.57" fill="#df2d81"/><rect x="296.27" y="538.91" width="65.51" height="95.38" fill="#f9d5e6"/><rect x="296.27" y="292.03" width="65.51" height="246.88" fill="#e6e6e6"/><rect x="296.27" y="125.39" width="65.51" height="166.64" fill="#ccd3e9"/><rect x="296.27" y="97.9" width="65.51" height="27.49" fill="#002592"/><rect x="387.55" y="615.22" width="65.51" height="43.76" fill="#df2d81"/><rect x="387.55" y="471.02" width="65.51" height="144.2" fill="#f9d5e6"/><rect x="387.55" y="237.61" width="65.51" height="233.41" fill="#e6e6e6"/><rect x="387.55" y="120.34" width="65.51" height="117.27" fill="#ccd3e9"/><rect x="387.55" y="97.9" width="65.51" height="22.44" fill="#002592"/><rect x="533.16" y="646.64" width="65.51" height="12.34" fill="#df2d81"/><rect x="533.16" y="602.88" width="65.51" height="43.76" fill="#f9d5e6"/><rect x="533.16" y="442.97" width="65.51" height="159.91" fill="#e6e6e6"/><rect x="533.16" y="195.53" width="65.51" height="247.44" fill="#ccd3e9"/><rect x="533.16" y="97.9" width="65.51" height="97.63" fill="#002592"/><rect x="624.5" y="642.71" width="65.51" height="15.71" fill="#df2d81"/><rect x="624.5" y="594.46" width="65.51" height="48.25" fill="#f9d5e6"/><rect x="624.5" y="389.1" width="65.51" height="205.36" fill="#e6e6e6"/><rect x="624.5" y="178.69" width="65.51" height="210.41" fill="#ccd3e9"/><rect x="624.5" y="97.9" width="65.51" height="80.8" fill="#002592"/><rect x="715.84" y="641.59" width="65.51" height="17.39" fill="#df2d81"/><rect x="715.84" y="559.11" width="65.51" height="82.48" fill="#f9d5e6"/><rect x="715.84" y="356.56" width="65.51" height="202.55" fill="#e6e6e6"/><rect x="715.84" y="177.01" width="65.51" height="179.55" fill="#ccd3e9"/><rect x="715.84" y="97.9" width="65.51" height="79.11" fill="#002592"/><rect x="1187.5" y="656.19" width="65.51" height="2.81" fill="#df2d81"/><rect x="1187.31" y="605.68" width="65.51" height="50.5" fill="#f9d5e6"/><rect x="1187.42" y="473.84" width="65.51" height="131.86" fill="#e6e6e6"/><rect x="1187.29" y="188.8" width="65.51" height="285.03" fill="#ccd3e9"/><rect x="1187.17" y="97.91" width="65.51" height="90.9" fill="#002592"/><rect x="1281.22" y="653.93" width="65.51" height="5.05" fill="#df2d81"/><rect x="1281.2" y="601.19" width="65.51" height="52.74" fill="#f9d5e6"/><rect x="1281.14" y="455.31" width="65.51" height="145.88" fill="#e6e6e6"/><rect x="1281" y="177.57" width="65.51" height="277.74" fill="#ccd3e9"/><rect x="1280.89" y="97.9" width="65.51" height="79.67" fill="#002592"/><rect x="1374.76" y="639.35" width="65.51" height="19.64" fill="#df2d81"/><rect x="1374.76" y="544.52" width="65.51" height="94.82" fill="#f9d5e6"/><rect x="1374.76" y="433.99" width="65.51" height="110.53" fill="#e6e6e6"/><rect x="1374.76" y="171.4" width="65.51" height="262.59" fill="#ccd3e9"/><rect x="1374.76" y="97.9" width="65.51" height="73.5" fill="#002592"/><rect x="1517.56" y="650.57" width="65.51" height="7.86" fill="#df2d81"/><rect x="1517.55" y="621.96" width="65.51" height="28.62" fill="#f9d5e6"/><rect x="1517.5" y="484.49" width="65.51" height="137.47" fill="#e6e6e6"/><rect x="1517.37" y="223.03" width="65.51" height="261.47" fill="#ccd3e9"/><rect x="1517.25" y="97.9" width="65.51" height="125.12" fill="#002592"/><rect x="1609.44" y="648.32" width="65.51" height="10.66" fill="#df2d81"/><rect x="1609.42" y="604.55" width="65.51" height="43.76" fill="#f9d5e6"/><rect x="1609.35" y="414.34" width="65.51" height="190.21" fill="#e6e6e6"/><rect x="1609.22" y="187.1" width="65.51" height="227.24" fill="#ccd3e9"/><rect x="1609.12" y="97.89" width="65.51" height="89.21" fill="#002592"/><rect x="1701.15" y="639.35" width="65.51" height="19.08" fill="#df2d81"/><rect x="1701.15" y="594.46" width="65.51" height="44.89" fill="#f9d5e6"/><rect x="1701.15" y="326.26" width="65.51" height="268.2" fill="#e6e6e6"/><rect x="1701.15" y="134.93" width="65.51" height="191.33" fill="#ccd3e9"/><rect x="1701.15" y="97.9" width="65.51" height="37.03" fill="#002592"/><rect x="863.29" y="655.62" width="65.51" height="3.37" fill="#df2d81"/><rect x="863.29" y="623.07" width="65.51" height="32.54" fill="#f9d5e6"/><rect x="863.29" y="412.11" width="65.51" height="210.97" fill="#e6e6e6"/><rect x="863.29" y="141.1" width="65.51" height="271" fill="#ccd3e9"/><rect x="863.29" y="97.9" width="65.51" height="43.2" fill="#002592"/><rect x="952.73" y="650.01" width="65.51" height="8.98" fill="#df2d81"/><rect x="952.73" y="575.38" width="65.51" height="74.62" fill="#f9d5e6"/><rect x="952.73" y="318.4" width="65.51" height="256.98" fill="#e6e6e6"/><rect x="952.73" y="128.2" width="65.51" height="190.21" fill="#ccd3e9"/><rect x="952.73" y="97.9" width="65.51" height="30.3" fill="#002592"/><rect x="1042.16" y="634.3" width="65.51" height="24.69" fill="#df2d81"/><rect x="1042.16" y="538.35" width="65.51" height="95.95" fill="#f9d5e6"/><rect x="1042.16" y="234.24" width="65.51" height="304.11" fill="#e6e6e6"/><rect x="1042.16" y="106.87" width="65.51" height="127.37" fill="#ccd3e9"/><rect x="1042.16" y="97.9" width="65.51" height="8.98" fill="#002592"/><path d="M91.09,649.68H88.85v-1.89l4.9-1.12v21.42H91.09Z" fill="#404040"/><path d="M98.68,657.52c0-6.93,3.5-11.13,8-11.13s8,4.2,8,11.13-3.46,11.17-8,11.17S98.68,664.49,98.68,657.52Zm13.23,0c0-5.46-2.1-8.89-5.25-8.89s-5.25,3.43-5.25,8.89,2.1,8.93,5.25,8.93S111.91,663,111.91,657.52Z" fill="#404040"/><path d="M118,657.52c0-6.93,3.5-11.13,8-11.13s8,4.2,8,11.13-3.46,11.17-8,11.17S118,664.49,118,657.52Zm13.23,0c0-5.46-2.1-8.89-5.25-8.89s-5.25,3.43-5.25,8.89,2.1,8.93,5.25,8.93S131.23,663,131.23,657.52Z" fill="#404040"/><path d="M147.93,657.07c-2.59,0-4.59-2.21-4.59-5.25s2-5.22,4.59-5.22,4.62,2.21,4.62,5.22S150.55,657.07,147.93,657.07Zm0-8.61c-1.3,0-2.35,1-2.35,3.36s1,3.39,2.35,3.39,2.38-1,2.38-3.39S149.19,648.46,147.93,648.46Zm-1.79,19.63,13.41-21.63,1.26.63L147.4,668.72Zm12.81.42c-2.59,0-4.58-2.2-4.58-5.25s2-5.21,4.58-5.21,4.62,2.2,4.62,5.21S161.58,668.51,159,668.51Zm0-8.61c-1.29,0-2.34,1-2.34,3.36s1,3.4,2.34,3.4,2.38-1,2.38-3.4S160.21,659.9,159,659.9Z" fill="#404040"/><path d="M90.74,385.62V383a8,8,0,0,0,5.84,2.55c2.88,0,4.84-2.24,4.84-5.21,0-2.59-1.41-4.73-4.28-4.73a4.3,4.3,0,0,0-4.27,2.77l-1.4-.88V366.09h11.77v2.35h-9.6V375a5.61,5.61,0,0,1,3.92-1.51c3.57,0,6.52,2.63,6.52,6.9a7.13,7.13,0,0,1-7.46,7.35A9.12,9.12,0,0,1,90.74,385.62Z" fill="#404040"/><path d="M107.15,376.52c0-6.93,3.5-11.13,8-11.13s8,4.2,8,11.13-3.47,11.17-8,11.17S107.15,383.49,107.15,376.52Zm13.23,0c0-5.46-2.09-8.89-5.25-8.89s-5.25,3.43-5.25,8.89,2.1,8.93,5.25,8.93S120.38,382,120.38,376.52Z" fill="#404040"/><path d="M137.08,376.07c-2.59,0-4.59-2.21-4.59-5.25s2-5.22,4.59-5.22,4.62,2.21,4.62,5.22S139.7,376.07,137.08,376.07Zm0-8.61c-1.3,0-2.35,1-2.35,3.36s1.05,3.39,2.35,3.39,2.38-1,2.38-3.39S138.34,367.46,137.08,367.46Zm-1.79,19.63,13.41-21.63,1.26.63-13.41,21.63Zm12.81.42c-2.59,0-4.58-2.2-4.58-5.25s2-5.21,4.58-5.21,4.62,2.2,4.62,5.21S150.73,387.51,148.1,387.51Zm0-8.61c-1.29,0-2.34,1-2.34,3.36s1.05,3.4,2.34,3.4,2.38-1,2.38-3.4S149.36,378.9,148.1,378.9Z" fill="#404040"/><path d="M89.16,98.52c0-6.93,3.5-11.13,8-11.13s8,4.2,8,11.13-3.46,11.17-8,11.17S89.16,105.49,89.16,98.52Zm13.23,0c0-5.46-2.1-8.89-5.25-8.89s-5.25,3.43-5.25,8.89,2.1,8.93,5.25,8.93S102.39,104,102.39,98.52Z" fill="#404040"/><path d="M119.09,98.07c-2.59,0-4.59-2.21-4.59-5.25s2-5.22,4.59-5.22,4.62,2.21,4.62,5.22S121.71,98.07,119.09,98.07Zm0-8.61c-1.3,0-2.35,1-2.35,3.36s1.05,3.39,2.35,3.39,2.38-1,2.38-3.39S120.35,89.46,119.09,89.46Zm-1.79,19.63,13.41-21.63,1.26.63-13.41,21.63Zm12.81.42c-2.59,0-4.58-2.2-4.58-5.25s2-5.21,4.58-5.21,4.62,2.2,4.62,5.21S132.74,109.51,130.11,109.51Zm0-8.61c-1.29,0-2.34,1-2.34,3.36s1,3.4,2.34,3.4,2.38-1,2.38-3.4S131.37,100.9,130.11,100.9Z" fill="#404040"/><rect x="409" y="756" width="34" height="34" fill="#ccd3e9"/><path d="M249.91,761.27h2.87L259.92,778l7.14-16.73h2.73l-9,21h-1.82Z" fill="#404040"/><path d="M279.56,776H271c-.21,1.93.6,4.76,4.52,4.76a6.2,6.2,0,0,0,4-1.68v2a7.07,7.07,0,0,1-4.76,1.65,6.06,6.06,0,0,1-6.3-6.44c0-3.89,2.7-6.41,6-6.41a5,5,0,0,1,5.32,4.8A5.71,5.71,0,0,1,279.56,776Zm-5.11-4.23a3.26,3.26,0,0,0-3.26,2.55h6a1.17,1.17,0,0,0,0-.28C277.25,772.86,276.3,771.74,274.45,771.74Z" fill="#404040"/><path d="M286.28,775.34v6.94h-2.56V770.34H286l.17,2.06a5.66,5.66,0,0,1,4.66-2.52v2.59C288.55,772.05,286.28,773.35,286.28,775.34Z" fill="#404040"/><path d="M297.16,789.1H294.6l3.26-7.39-5.07-11.37h2.51l3.82,9,3.78-9h2.52Z" fill="#404040"/><path d="M319.42,789.24a10,10,0,0,1-4.94-1.47v-2.2a8.5,8.5,0,0,0,5.22,1.61c2,0,4-1.19,4-4.73v-1.89a5.57,5.57,0,0,1-4.48,2.17c-3.19,0-5.81-2.66-5.81-6.41s2.62-6.44,5.81-6.44a5.65,5.65,0,0,1,4.62,2.35l.14-1.89h2.28v11.72C326.25,788,322.54,789.24,319.42,789.24Zm.38-17.4c-1.92,0-3.85,1.51-3.85,4.45s1.93,4.48,3.85,4.48a4.49,4.49,0,0,0,0-8.93Z" fill="#404040"/><path d="M336.71,782.8a6.51,6.51,0,1,1,6.9-6.51A6.71,6.71,0,0,1,336.71,782.8Zm0-11a4.5,4.5,0,1,0,4.34,4.48A4.26,4.26,0,0,0,336.71,771.81Z" fill="#404040"/><path d="M353.23,782.8a6.51,6.51,0,1,1,6.89-6.51A6.71,6.71,0,0,1,353.23,782.8Zm0-11a4.5,4.5,0,1,0,4.34,4.48A4.26,4.26,0,0,0,353.23,771.81Z" fill="#404040"/><path d="M373.6,782.28l-.14-1.9a5.65,5.65,0,0,1-4.62,2.35c-3.19,0-5.81-2.63-5.81-6.44s2.62-6.41,5.81-6.41a5.57,5.57,0,0,1,4.48,2.17V761.27h2.56v21Zm-8-6c0,2.94,1.93,4.45,3.85,4.45a4.49,4.49,0,0,0,0-8.93C367.51,771.84,365.58,773.38,365.58,776.32Z" fill="#404040"/><path d="M455.93,771.77c0-6.79,5.11-10.95,11.16-10.95a12.81,12.81,0,0,1,7.28,2.2v2.91a10.46,10.46,0,0,0-7.28-2.77c-4.83,0-8.26,3.36-8.26,8.61s3.43,8.76,8.26,8.76a11,11,0,0,0,5.36-1.23v-4.76h-4.31v-2.35h7.11v8.47a19.33,19.33,0,0,1-8.16,2.21A10.79,10.79,0,0,1,455.93,771.77Z" fill="#404040"/><path d="M485.89,782.8a6.51,6.51,0,1,1,6.89-6.51A6.71,6.71,0,0,1,485.89,782.8Zm0-11a4.5,4.5,0,1,0,4.34,4.48A4.26,4.26,0,0,0,485.89,771.81Z" fill="#404040"/><path d="M502.41,782.8a6.51,6.51,0,1,1,6.89-6.51A6.71,6.71,0,0,1,502.41,782.8Zm0-11a4.5,4.5,0,1,0,4.34,4.48A4.26,4.26,0,0,0,502.41,771.81Z" fill="#404040"/><path d="M522.78,782.28l-.14-1.9a5.67,5.67,0,0,1-4.62,2.35c-3.19,0-5.81-2.63-5.81-6.44s2.62-6.41,5.81-6.41a5.57,5.57,0,0,1,4.48,2.17V761.27h2.55v21Zm-8-6c0,2.94,1.93,4.45,3.85,4.45a4.49,4.49,0,0,0,0-8.93C516.69,771.84,514.76,773.38,514.76,776.32Z" fill="#404040"/><rect x="205" y="756" width="34" height="34" fill="#002592"/><rect x="700" y="756" width="34" height="34" fill="#f9d5e6"/><path d="M611.94,761.27h12.71v2.35h-9.91V770h8.16v2.35h-8.16v9.91h-2.8Z" fill="#404040"/><path d="M635.64,782.28l-.14-1.9a5.65,5.65,0,0,1-4.62,2.35c-3.19,0-5.82-2.63-5.82-6.44s2.63-6.41,5.82-6.41a5.75,5.75,0,0,1,4.62,2.35l.14-1.89h2.27v11.94Zm-8-6c0,2.94,1.92,4.45,3.85,4.45a4.49,4.49,0,0,0,0-8.93C629.54,771.84,627.62,773.38,627.62,776.32Z" fill="#404040"/><path d="M642.32,766.28v-2.8h2.56v2.8Zm0,16V770.34h2.56v11.94Z" fill="#404040"/><path d="M651.84,775.34v6.94h-2.55V770.34h2.27l.17,2.06a5.66,5.66,0,0,1,4.66-2.52v2.59C654.12,772.05,651.84,773.35,651.84,775.34Z" fill="#404040"/><path d="M747.94,761.27h6.93c4.27,0,6.09,2.49,6.09,5.5a5.55,5.55,0,0,1-2.2,4.13,5.7,5.7,0,0,1,3.32,5.21c0,3.4-2.06,6.17-6.86,6.17h-7.28Zm6.93,8.68c2.63,0,3.43-1.57,3.43-3.18s-.8-3.15-3.43-3.15h-4.13V770Zm.35,10c3.15,0,4.1-1.89,4.1-3.82s-1-3.81-4.1-3.81h-4.48v7.63Z" fill="#404040"/><path d="M775.35,782.28l-.14-1.9a5.65,5.65,0,0,1-4.62,2.35c-3.19,0-5.81-2.63-5.81-6.44s2.62-6.41,5.81-6.41a5.75,5.75,0,0,1,4.62,2.35l.14-1.89h2.27v11.94Zm-8-6c0,2.94,1.93,4.45,3.85,4.45a4.49,4.49,0,0,0,0-8.93C769.26,771.84,767.33,773.38,767.33,776.32Z" fill="#404040"/><path d="M791.94,782.28l-.14-1.9a5.65,5.65,0,0,1-4.62,2.35c-3.19,0-5.81-2.63-5.81-6.44s2.62-6.41,5.81-6.41a5.57,5.57,0,0,1,4.48,2.17V761.27h2.55v21Zm-8-6c0,2.94,1.93,4.45,3.85,4.45a4.49,4.49,0,0,0,0-8.93C785.85,771.84,783.92,773.38,783.92,776.32Z" fill="#404040"/><rect x="835" y="756" width="34" height="34" fill="#df2d81"/><path d="M880.91,761.27h2.87L890.92,778l7.14-16.73h2.73l-9,21h-1.82Z" fill="#404040"/><path d="M910.56,776H902c-.21,1.93.6,4.76,4.52,4.76a6.2,6.2,0,0,0,4-1.68v2a7.07,7.07,0,0,1-4.76,1.65,6.06,6.06,0,0,1-6.3-6.44c0-3.89,2.7-6.41,5.95-6.41a5,5,0,0,1,5.32,4.8A5.71,5.71,0,0,1,910.56,776Zm-5.11-4.23a3.26,3.26,0,0,0-3.26,2.55h6a1.17,1.17,0,0,0,0-.28C908.25,772.86,907.3,771.74,905.45,771.74Z" fill="#404040"/><path d="M917.28,775.34v6.94h-2.56V770.34H917l.17,2.06a5.66,5.66,0,0,1,4.66-2.52v2.59C919.55,772.05,917.28,773.35,917.28,775.34Z" fill="#404040"/><path d="M928.16,789.1H925.6l3.26-7.39-5.07-11.37h2.51l3.82,9,3.78-9h2.52Z" fill="#404040"/><path d="M952.1,782.73a5.64,5.64,0,0,1-4.62-2.35l-.14,1.9h-2.28v-21h2.56v10.78a5.57,5.57,0,0,1,4.48-2.17c3.19,0,5.81,2.66,5.81,6.41S955.29,782.73,952.1,782.73Zm-.63-10.89a4.49,4.49,0,0,0,0,8.93c2,0,3.89-1.51,3.89-4.45S953.43,771.84,951.47,771.84Z" fill="#404040"/><path d="M971.56,782.28l-.14-1.9a5.65,5.65,0,0,1-4.62,2.35c-3.19,0-5.81-2.63-5.81-6.44s2.62-6.41,5.81-6.41a5.75,5.75,0,0,1,4.62,2.35l.14-1.89h2.28v11.94Zm-8-6c0,2.94,1.93,4.45,3.85,4.45a4.49,4.49,0,0,0,0-8.93C965.47,771.84,963.54,773.38,963.54,776.32Z" fill="#404040"/><path d="M988.15,782.28l-.14-1.9a5.64,5.64,0,0,1-4.62,2.35c-3.18,0-5.81-2.63-5.81-6.44s2.63-6.41,5.81-6.41a5.57,5.57,0,0,1,4.48,2.17V761.27h2.56v21Zm-8-6c0,2.94,1.93,4.45,3.85,4.45a4.49,4.49,0,0,0,0-8.93C982.06,771.84,980.13,773.38,980.13,776.32Z" fill="#404040"/><rect x="565" y="756" width="34" height="34" fill="#e6e6e6"/></svg>