<svg id="Layer_1" data-name="Layer 1" xmlns="http://www.w3.org/2000/svg" viewBox="0 0 1879 562"><title>perceived-health</title><rect x="-0.5" y="-0.5" width="1879" height="562" fill="#fff"/><path d="M239.7,488.42c0,7.7-2.85,11.94-7.87,11.94-4.42,0-7.41-4.14-7.48-11.62S227.62,477,232.22,477C237,477,239.7,481.22,239.7,488.42Zm-12.29.35c0,5.88,1.81,9.22,4.6,9.22,3.13,0,4.63-3.65,4.63-9.43,0-5.57-1.43-9.22-4.6-9.22C229.36,479.34,227.41,482.61,227.41,488.77Z"/><path d="M260.1,483.72c0,4.77-2.51,7.14-5.43,7.14s-5.26-2.26-5.29-6.82,2.47-7.07,5.46-7.07C258,477,260.1,479.41,260.1,483.72Zm-8.28.21c-.07,2.89,1,5.08,2.92,5.08s2.92-2.15,2.92-5.15c0-2.75-.8-5-2.92-5C252.83,478.82,251.82,481.08,251.82,483.93Zm2.64,16.43L267.76,477h1.95l-13.3,23.39Zm20.36-7.27c0,4.77-2.5,7.13-5.39,7.13s-5.26-2.26-5.29-6.78,2.47-7.11,5.46-7.11C272.77,486.33,274.82,488.77,274.82,493.09Zm-8.28.21c0,2.88,1.08,5.08,3,5.08s2.92-2.16,2.92-5.15c0-2.75-.8-5.05-2.92-5.05C267.58,488.18,266.54,490.44,266.54,493.3Z"/><path d="M515.1,500V498.1l2.4-2.33c5.78-5.5,8.39-8.43,8.42-11.84,0-2.29-1.11-4.42-4.49-4.42a7.7,7.7,0,0,0-4.8,1.92l-1-2.16a9.92,9.92,0,0,1,6.4-2.3c4.87,0,6.93,3.34,6.93,6.58,0,4.18-3,7.55-7.8,12.15l-1.81,1.67v.07h10.16V500Z"/><path d="M548,488.42c0,7.7-2.85,11.94-7.86,11.94-4.42,0-7.42-4.14-7.49-11.62S535.91,477,540.51,477C545.28,477,548,481.22,548,488.42Zm-12.28.35c0,5.88,1.81,9.22,4.59,9.22,3.13,0,4.63-3.65,4.63-9.43,0-5.57-1.43-9.22-4.6-9.22C537.65,479.34,535.71,482.61,535.71,488.77Z"/><path d="M568.39,483.72c0,4.77-2.51,7.14-5.43,7.14s-5.25-2.26-5.29-6.82,2.47-7.07,5.46-7.07C566.3,477,568.39,479.41,568.39,483.72Zm-8.28.21c-.07,2.89,1,5.08,2.92,5.08s2.92-2.15,2.92-5.15c0-2.75-.8-5-2.92-5C561.12,478.82,560.11,481.08,560.11,483.93Zm2.64,16.43L576.05,477h2l-13.3,23.39Zm20.36-7.27c0,4.77-2.5,7.13-5.39,7.13s-5.26-2.26-5.29-6.78,2.47-7.11,5.46-7.11C581.06,486.33,583.11,488.77,583.11,493.09Zm-8.28.21c0,2.88,1.08,5.08,3,5.08s2.92-2.16,2.92-5.15c0-2.75-.8-5.05-2.92-5.05C575.87,488.18,574.83,490.44,574.83,493.3Z"/><path d="M823.93,500v-6.16H813.42v-2l10.09-14.44h3.31v14.06H830v2.4h-3.16V500Zm0-8.56v-7.56c0-1.18,0-2.36.1-3.55h-.1c-.7,1.33-1.26,2.3-1.88,3.35l-5.54,7.69v.07Z"/><path d="M847.35,488.42c0,7.7-2.85,11.94-7.86,11.94-4.42,0-7.42-4.14-7.49-11.62S835.28,477,839.87,477C844.64,477,847.35,481.22,847.35,488.42Zm-12.28.35c0,5.88,1.81,9.22,4.59,9.22,3.13,0,4.63-3.65,4.63-9.43,0-5.57-1.43-9.22-4.59-9.22C837,479.34,835.07,482.61,835.07,488.77Z"/><path d="M867.75,483.72c0,4.77-2.5,7.14-5.43,7.14S857.07,488.6,857,484,859.5,477,862.5,477C865.66,477,867.75,479.41,867.75,483.72Zm-8.28.21c-.07,2.89,1,5.08,2.92,5.08s2.93-2.15,2.93-5.15c0-2.75-.8-5-2.93-5C860.48,478.82,859.47,481.08,859.47,483.93Zm2.64,16.43L875.41,477h2l-13.3,23.39Zm20.37-7.27c0,4.77-2.51,7.13-5.4,7.13s-5.26-2.26-5.29-6.78,2.47-7.11,5.46-7.11C880.42,486.33,882.48,488.77,882.48,493.09Zm-8.29.21c0,2.88,1.08,5.08,3,5.08s2.92-2.16,2.92-5.15c0-2.75-.8-5.05-2.92-5.05C875.24,488.18,874.19,490.44,874.19,493.3Z"/><path d="M1126.74,479.51a11.36,11.36,0,0,0-2.3.14,9.2,9.2,0,0,0-7.87,8h.11a6.76,6.76,0,0,1,5.46-2.61c4,0,6.82,2.89,6.82,7.31,0,4.14-2.82,8-7.51,8-4.84,0-8-3.76-8-9.64a14.23,14.23,0,0,1,3.83-10.2,12.34,12.34,0,0,1,7.24-3.34,14.48,14.48,0,0,1,2.23-.17Zm-.87,13.06c0-3.24-1.85-5.19-4.67-5.19a5,5,0,0,0-4.38,2.78,2.6,2.6,0,0,0-.35,1.36c.07,3.73,1.77,6.47,5,6.47C1124.09,498,1125.87,495.8,1125.87,492.57Z"/><path d="M1146.72,488.42c0,7.7-2.86,11.94-7.87,11.94-4.42,0-7.41-4.14-7.48-11.62s3.27-11.77,7.86-11.77C1144,477,1146.72,481.22,1146.72,488.42Zm-12.29.35c0,5.88,1.81,9.22,4.59,9.22,3.14,0,4.63-3.65,4.63-9.43,0-5.57-1.42-9.22-4.59-9.22C1136.38,479.34,1134.43,482.61,1134.43,488.77Z"/><path d="M1167.12,483.72c0,4.77-2.51,7.14-5.43,7.14s-5.26-2.26-5.3-6.82,2.48-7.07,5.47-7.07C1165,477,1167.12,479.41,1167.12,483.72Zm-8.29.21c-.07,2.89,1,5.08,2.92,5.08s2.93-2.15,2.93-5.15c0-2.75-.8-5-2.93-5C1159.84,478.82,1158.83,481.08,1158.83,483.93Zm2.65,16.43L1174.77,477h2l-13.29,23.39Zm20.36-7.27c0,4.77-2.51,7.13-5.4,7.13s-5.25-2.26-5.29-6.78,2.47-7.11,5.47-7.11C1179.78,486.33,1181.84,488.77,1181.84,493.09Zm-8.29.21c0,2.88,1.08,5.08,3,5.08s2.93-2.16,2.93-5.15c0-2.75-.8-5.05-2.93-5.05C1174.6,488.18,1173.55,490.44,1173.55,493.3Z"/><path d="M1412.91,494.24c0-2.86,1.7-4.88,4.49-6.06l0-.1a5.62,5.62,0,0,1-3.58-5.09c0-3.58,3-6,7-6,4.39,0,6.58,2.75,6.58,5.57,0,1.92-.94,4-3.72,5.29v.11c2.82,1.11,4.56,3.09,4.56,5.84,0,3.94-3.38,6.58-7.7,6.58C1415.76,500.36,1412.91,497.54,1412.91,494.24Zm12.18-.14c0-2.75-1.92-4.08-5-5-2.64.77-4.07,2.51-4.07,4.67s1.63,4.31,4.52,4.31S1425.09,496.43,1425.09,494.1Zm-8.42-11.31c0,2.26,1.7,3.48,4.31,4.17,2-.66,3.45-2,3.45-4.11a3.51,3.51,0,0,0-3.83-3.68A3.6,3.6,0,0,0,1416.67,482.79Z"/><path d="M1446.08,488.42c0,7.7-2.86,11.94-7.87,11.94-4.42,0-7.41-4.14-7.48-11.62S1434,477,1438.59,477C1443.36,477,1446.08,481.22,1446.08,488.42Zm-12.29.35c0,5.88,1.81,9.22,4.6,9.22,3.13,0,4.62-3.65,4.62-9.43,0-5.57-1.42-9.22-4.59-9.22C1435.74,479.34,1433.79,482.61,1433.79,488.77Z"/><path d="M1466.48,483.72c0,4.77-2.51,7.14-5.43,7.14s-5.26-2.26-5.29-6.82,2.47-7.07,5.46-7.07C1464.39,477,1466.48,479.41,1466.48,483.72Zm-8.29.21c-.07,2.89,1,5.08,2.93,5.08s2.92-2.15,2.92-5.15c0-2.75-.8-5-2.92-5C1459.2,478.82,1458.19,481.08,1458.19,483.93Zm2.65,16.43L1474.13,477h1.95l-13.29,23.39Zm20.36-7.27c0,4.77-2.51,7.13-5.4,7.13s-5.25-2.26-5.29-6.78,2.47-7.11,5.47-7.11C1479.15,486.33,1481.2,488.77,1481.2,493.09Zm-8.28.21c0,2.88,1.07,5.08,2.95,5.08s2.93-2.16,2.93-5.15c0-2.75-.8-5.05-2.93-5.05C1474,488.18,1472.92,490.44,1472.92,493.3Z"/><path d="M1710.27,480.21h-.07l-3.94,2.12-.59-2.33,4.95-2.64h2.61V500h-3Z"/><path d="M1736.51,488.42c0,7.7-2.85,11.94-7.86,11.94-4.42,0-7.42-4.14-7.49-11.62S1724.43,477,1729,477C1733.8,477,1736.51,481.22,1736.51,488.42Zm-12.28.35c0,5.88,1.81,9.22,4.59,9.22,3.13,0,4.63-3.65,4.63-9.43,0-5.57-1.43-9.22-4.59-9.22C1726.17,479.34,1724.23,482.61,1724.23,488.77Z"/><path d="M1754.37,488.42c0,7.7-2.85,11.94-7.87,11.94-4.42,0-7.41-4.14-7.48-11.62s3.27-11.77,7.87-11.77C1751.66,477,1754.37,481.22,1754.37,488.42Zm-12.29.35c0,5.88,1.81,9.22,4.6,9.22,3.13,0,4.63-3.65,4.63-9.43,0-5.57-1.43-9.22-4.6-9.22C1744,479.34,1742.08,482.61,1742.08,488.77Z"/><path d="M1774.77,483.72c0,4.77-2.51,7.14-5.43,7.14s-5.26-2.26-5.29-6.82,2.47-7.07,5.46-7.07C1772.68,477,1774.77,479.41,1774.77,483.72Zm-8.29.21c-.06,2.89,1,5.08,2.93,5.08s2.92-2.15,2.92-5.15c0-2.75-.8-5-2.92-5C1767.49,478.82,1766.48,481.08,1766.48,483.93Zm2.65,16.43L1782.42,477h1.95l-13.29,23.39Zm20.36-7.27c0,4.77-2.51,7.13-5.39,7.13s-5.26-2.26-5.29-6.78,2.47-7.11,5.46-7.11C1787.44,486.33,1789.49,488.77,1789.49,493.09Zm-8.28.21c0,2.88,1.08,5.08,3,5.08s2.92-2.16,2.92-5.15c0-2.75-.8-5.05-2.92-5.05C1782.25,488.18,1781.21,490.44,1781.21,493.3Z"/><line x1="249.5" y1="421.66" x2="286.92" y2="421.66" fill="none" stroke="#000" stroke-miterlimit="10"/><line x1="249.5" y1="328.83" x2="286.92" y2="328.83" fill="none" stroke="#000" stroke-miterlimit="10"/><line x1="249.5" y1="236" x2="286.92" y2="236" fill="none" stroke="#000" stroke-miterlimit="10"/><line x1="249.5" y1="143.17" x2="286.92" y2="143.17" fill="none" stroke="#000" stroke-miterlimit="10"/><rect x="1708.89" y="109.76" width="37.42" height="66.84" fill="#df2d81"/><rect x="1726.85" y="202.58" width="19.46" height="66.84" fill="#df2d81"/><rect x="1732.84" y="295.41" width="13.47" height="66.84" fill="#df2d81"/><rect x="1719.37" y="388.24" width="26.94" height="66.84" fill="#df2d81"/><rect x="1580.17" y="109.76" width="128.73" height="66.84" fill="#f9d5e6"/><rect x="1587.65" y="202.58" width="139.2" height="66.84" fill="#f9d5e6"/><rect x="1586.15" y="295.41" width="146.69" height="66.84" fill="#f9d5e6"/><rect x="1625.07" y="388.24" width="94.3" height="66.84" fill="#f9d5e6"/><rect x="1107.17" y="109.76" width="472.99" height="66.84" fill="#e6e6e6"/><rect x="958.99" y="202.58" width="628.66" height="66.84" fill="#e6e6e6"/><rect x="1228.42" y="295.41" width="357.74" height="66.84" fill="#e6e6e6"/><rect x="1170.04" y="388.24" width="455.03" height="66.84" fill="#e6e6e6"/><rect x="493.48" y="109.76" width="613.69" height="66.84" fill="#ccd3e9"/><rect x="343.8" y="202.58" width="615.19" height="66.84" fill="#ccd3e9"/><rect x="478.51" y="295.41" width="749.9" height="66.84" fill="#ccd3e9"/><rect x="523.42" y="388.24" width="646.62" height="66.84" fill="#ccd3e9"/><rect x="249.5" y="109.76" width="243.98" height="66.84" fill="#002592"/><rect x="249.5" y="202.58" width="94.3" height="66.84" fill="#002592"/><rect x="249.5" y="295.41" width="229.01" height="66.84" fill="#002592"/><rect x="249.5" y="388.24" width="273.92" height="66.84" fill="#002592"/><path d="M86.12,432.61l.63-2.59a8.58,8.58,0,0,0,6.37,2.87c2.49,0,4.41-1.4,4.41-3.68,0-2.13-1-3.32-5-4.37s-5.85-3.19-5.85-6.13,2.46-5.46,6.76-5.46a9.43,9.43,0,0,1,5.71,1.93l-.63,2.2a9.4,9.4,0,0,0-5.08-1.85c-2.63,0-4.13,1.22-4.13,3.18,0,1.51,1,2.77,4.24,3.64,4.51,1.19,6.58,3.15,6.58,6.62,0,4.09-3.43,6.2-7,6.2A9.82,9.82,0,0,1,86.12,432.61Z" fill="#404040"/><path d="M101.17,413.71H104l5,15.5c.11.35.25,1.19.28,1.3a9.41,9.41,0,0,1,.35-1.3l5-15.5h1.75l5,15.5c.14.39.35,1.3.35,1.3a10.2,10.2,0,0,1,.28-1.3l5-15.5h2.73l-7.24,21h-1.75l-5-14.39c-.11-.28-.32-1.05-.35-1.15,0,.07-.25.87-.35,1.15l-5,14.39h-1.75Z" fill="#404040"/><path d="M132.53,413.71h12.71v2.34h-9.91v6.41h8.16v2.34h-8.16v7.56h9.91v2.35H132.53Z" fill="#404040"/><path d="M149.33,413.71h6.51c8.16,0,11.69,4.72,11.69,10.5s-3.53,10.5-11.69,10.5h-6.51Zm6.55,18.55c6.82,0,8.75-3.85,8.75-8.05s-1.93-8-8.75-8h-3.75v16.1Z" fill="#404040"/><path d="M171.27,413.71H184v2.34h-9.91v6.41h8.16v2.34h-8.16v7.56H184v2.35H171.27Z" fill="#404040"/><path d="M188.07,413.71h1.61l12.5,15.64V413.71h2.56v21h-1.62l-12.49-15.65v15.65h-2.56Z" fill="#404040"/><path d="M85.64,320.88h1.61l12.5,15.65V320.88h2.55v21h-1.61l-12.5-15.64v15.64H85.64Z" fill="#404040"/><path d="M106,331.38a11.15,11.15,0,1,1,11.17,11.1A10.78,10.78,0,0,1,106,331.38Zm19.4,0c0-5.11-3.43-8.75-8.23-8.75s-8.26,3.64-8.26,8.75,3.43,8.75,8.26,8.75S125.44,336.46,125.44,331.38Z" fill="#404040"/><path d="M132.08,320.88H139c4.8,0,6.87,2.76,6.87,6.16a5.63,5.63,0,0,1-4.34,5.85l6.37,9h-3.26l-6-8.68h-3.75v8.68h-2.8Zm6.93,10c3.16,0,4.1-1.89,4.1-3.82s-.94-3.82-4.1-3.82h-4.13v7.64Z" fill="#404040"/><path d="M148,320.88h2.87l5,15.51c.11.35.25,1.19.28,1.29a9.36,9.36,0,0,1,.35-1.29l5-15.51h1.75l5,15.51c.14.38.35,1.29.35,1.29a11.13,11.13,0,0,1,.27-1.29l5-15.51h2.73l-7.25,21h-1.75l-5-14.38c-.11-.29-.32-1.05-.35-1.16,0,.07-.25.87-.35,1.16l-5,14.38h-1.75Z" fill="#404040"/><path d="M184.06,320.88h1.82l9,21H192L189.52,336h-9.24l-2.52,5.88H175Zm4.52,12.85-3.68-8.65-3.68,8.65Z" fill="#404040"/><path d="M200,333.48l-8.23-12.6h3.05l6.65,10.33,6.65-10.33H211l-8.23,12.6v8.4H200Z" fill="#404040"/><path d="M86.49,228.05H99.2v2.35H89.29v6.4h8.16v2.35H89.29v9.9h-2.8Z" fill="#404040"/><path d="M102,228.05h2.8v21H102Z" fill="#404040"/><path d="M109.59,228.05h1.61l12.5,15.65V228.05h2.55v21h-1.61l-12.49-15.64v15.64h-2.56Z" fill="#404040"/><path d="M131,228.05h2.8v18.66h9.91v2.34H131Z" fill="#404040"/><path d="M153.55,228.05h1.82l9,21h-2.87L159,243.17h-9.24l-2.52,5.88h-2.73Zm4.52,12.85-3.68-8.65-3.67,8.65Z" fill="#404040"/><path d="M167.13,228.05h1.61l12.5,15.65V228.05h2.55v21h-1.61l-12.49-15.64v15.64h-2.56Z" fill="#404040"/><path d="M188.55,228.05h6.51c8.16,0,11.69,4.73,11.69,10.5s-3.53,10.5-11.69,10.5h-6.51Zm6.55,18.55c6.82,0,8.75-3.85,8.75-8s-1.93-8.05-8.75-8.05h-3.75v16.1Z" fill="#404040"/><path d="M86.91,135.22h6.51c8.16,0,11.69,4.73,11.69,10.51s-3.53,10.5-11.69,10.5H86.91Zm6.55,18.56c6.82,0,8.75-3.85,8.75-8.05s-1.93-8.06-8.75-8.06H89.71v16.11Z" fill="#404040"/><path d="M108.86,135.22h12.7v2.35h-9.9V144h8.15v2.34h-8.15v7.56h9.9v2.35h-12.7Z" fill="#404040"/><path d="M125.66,135.22h1.61l12.49,15.65V135.22h2.56v21h-1.61l-12.5-15.65v15.65h-2.55Z" fill="#404040"/><path d="M147.08,135.22h2.73l8.12,17.44,8.12-17.44h2.59v21h-2.7V141.91c0-.53.07-1.71.07-1.75s-.52,1.26-.73,1.75l-6.55,14.32h-1.89l-6.54-14.32c-.25-.49-.7-1.65-.74-1.75s.07,1.22.07,1.75v14.32h-2.55Z" fill="#404040"/><path d="M180.4,135.22h1.82l9,21h-2.87l-2.52-5.88h-9.24l-2.53,5.88h-2.73Zm4.51,12.85-3.67-8.65-3.68,8.65Z" fill="#404040"/><path d="M194,135.22h6.94c4.79,0,6.86,2.77,6.86,6.16a5.62,5.62,0,0,1-4.34,5.85l6.37,9h-3.26l-6-8.68h-3.74v8.68H194Zm6.94,10c3.15,0,4.09-1.89,4.09-3.82s-.94-3.81-4.09-3.81h-4.13v7.63Z" fill="#404040"/><path d="M212.24,135.22H215v9.95l9.74-9.95H228l-10,10,11.38,11h-3.71L215,145.9v10.33h-2.8Z" fill="#404040"/><path d="M292.33,71.13h2.87l7.14,16.73,7.14-16.73h2.73l-9,21h-1.82Z" fill="#404040"/><path d="M322,85.83H313.4c-.21,1.93.59,4.76,4.52,4.76a6.2,6.2,0,0,0,4-1.68v2a7.07,7.07,0,0,1-4.76,1.65,6.06,6.06,0,0,1-6.3-6.44c0-3.89,2.69-6.41,5.95-6.41a5,5,0,0,1,5.32,4.8A5.71,5.71,0,0,1,322,85.83Zm-5.11-4.23a3.25,3.25,0,0,0-3.26,2.55h6a1.17,1.17,0,0,0,0-.28C319.67,82.72,318.72,81.6,316.87,81.6Z" fill="#404040"/><path d="M328.69,85.2v6.93h-2.55V80.2h2.27l.18,2.06a5.62,5.62,0,0,1,4.65-2.52v2.59C331,81.91,328.69,83.21,328.69,85.2Z" fill="#404040"/><path d="M339.58,99H337l3.26-7.39L335.2,80.2h2.52l3.82,9,3.78-9h2.52Z" fill="#404040"/><path d="M361.84,99.1a10,10,0,0,1-4.94-1.47V95.42A8.44,8.44,0,0,0,362.12,97c2,0,4-1.19,4-4.72V90.42a5.57,5.57,0,0,1-4.48,2.17c-3.19,0-5.81-2.66-5.81-6.41s2.62-6.44,5.81-6.44a5.65,5.65,0,0,1,4.62,2.35l.14-1.89h2.27V91.92C368.66,97.8,365,99.1,361.84,99.1Zm.38-17.4c-1.92,0-3.85,1.51-3.85,4.45s1.93,4.48,3.85,4.48a4.49,4.49,0,0,0,0-8.93Z" fill="#404040"/><path d="M379.13,92.66A6.51,6.51,0,1,1,386,86.15,6.71,6.71,0,0,1,379.13,92.66Zm0-11a4.5,4.5,0,1,0,4.34,4.48A4.26,4.26,0,0,0,379.13,81.67Z" fill="#404040"/><path d="M395.65,92.66a6.51,6.51,0,1,1,6.89-6.51A6.71,6.71,0,0,1,395.65,92.66Zm0-11A4.5,4.5,0,1,0,400,86.15,4.26,4.26,0,0,0,395.65,81.67Z" fill="#404040"/><path d="M416,92.13l-.14-1.89a5.65,5.65,0,0,1-4.62,2.35c-3.19,0-5.81-2.63-5.81-6.44s2.62-6.41,5.81-6.41a5.57,5.57,0,0,1,4.48,2.17V71.13h2.55v21Zm-8-5.95c0,2.94,1.93,4.45,3.85,4.45a4.49,4.49,0,0,0,0-8.93C409.93,81.7,408,83.24,408,86.18Z" fill="#404040"/><path d="M743.34,81.63c0-6.79,5.12-10.95,11.17-10.95a12.81,12.81,0,0,1,7.28,2.2v2.91A10.46,10.46,0,0,0,754.51,73c-4.83,0-8.26,3.36-8.26,8.61s3.43,8.75,8.26,8.75a11,11,0,0,0,5.36-1.22V84.4h-4.31V82.05h7.11v8.47a19.33,19.33,0,0,1-8.16,2.21A10.8,10.8,0,0,1,743.34,81.63Z" fill="#404040"/><path d="M773.3,92.66a6.51,6.51,0,1,1,6.9-6.51A6.7,6.7,0,0,1,773.3,92.66Zm0-11a4.5,4.5,0,1,0,4.34,4.48A4.27,4.27,0,0,0,773.3,81.67Z" fill="#404040"/><path d="M789.82,92.66a6.51,6.51,0,1,1,6.9-6.51A6.7,6.7,0,0,1,789.82,92.66Zm0-11a4.5,4.5,0,1,0,4.34,4.48A4.27,4.27,0,0,0,789.82,81.67Z" fill="#404040"/><path d="M810.19,92.13l-.14-1.89a5.64,5.64,0,0,1-4.62,2.35c-3.18,0-5.81-2.63-5.81-6.44s2.63-6.41,5.81-6.41a5.57,5.57,0,0,1,4.48,2.17V71.13h2.56v21Zm-8-5.95c0,2.94,1.92,4.45,3.85,4.45a4.49,4.49,0,0,0,0-8.93C804.1,81.7,802.18,83.24,802.18,86.18Z" fill="#404040"/><path d="M1323.36,71.13h12.71v2.35h-9.91v6.4h8.16v2.35h-8.16v9.9h-2.8Z" fill="#404040"/><path d="M1347.05,92.13l-.14-1.89a5.64,5.64,0,0,1-4.62,2.35c-3.18,0-5.81-2.63-5.81-6.44s2.63-6.41,5.81-6.41a5.74,5.74,0,0,1,4.62,2.35l.14-1.89h2.28V92.13Zm-8-5.95c0,2.94,1.92,4.45,3.85,4.45a4.49,4.49,0,0,0,0-8.93C1341,81.7,1339,83.24,1339,86.18Z" fill="#404040"/><path d="M1353.74,76.14v-2.8h2.55v2.8Zm0,16V80.2h2.55V92.13Z" fill="#404040"/><path d="M1363.26,85.2v6.93h-2.56V80.2H1363l.17,2.06a5.66,5.66,0,0,1,4.66-2.52v2.59C1365.53,81.91,1363.26,83.21,1363.26,85.2Z" fill="#404040"/><path d="M1619.36,71.13h6.93c4.27,0,6.09,2.49,6.09,5.49a5.55,5.55,0,0,1-2.2,4.14A5.7,5.7,0,0,1,1633.5,86c0,3.4-2.06,6.16-6.86,6.16h-7.28Zm6.93,8.68c2.63,0,3.43-1.57,3.43-3.19s-.8-3.14-3.43-3.14h-4.13v6.33Zm.35,10c3.15,0,4.1-1.89,4.1-3.82s-1-3.81-4.1-3.81h-4.48v7.63Z" fill="#404040"/><path d="M1646.77,92.13l-.15-1.89a5.63,5.63,0,0,1-4.62,2.35c-3.18,0-5.81-2.63-5.81-6.44s2.63-6.41,5.81-6.41a5.74,5.74,0,0,1,4.62,2.35l.15-1.89H1649V92.13Zm-8-5.95c0,2.94,1.92,4.45,3.85,4.45a4.49,4.49,0,0,0,0-8.93C1640.67,81.7,1638.75,83.24,1638.75,86.18Z" fill="#404040"/><path d="M1663.36,92.13l-.15-1.89a5.63,5.63,0,0,1-4.62,2.35c-3.18,0-5.81-2.63-5.81-6.44s2.63-6.41,5.81-6.41a5.56,5.56,0,0,1,4.48,2.17V71.13h2.56v21Zm-8-5.95c0,2.94,1.92,4.45,3.85,4.45a4.49,4.49,0,0,0,0-8.93C1657.26,81.7,1655.34,83.24,1655.34,86.18Z" fill="#404040"/><path d="M1632.33,34.13h2.87l7.14,16.73,7.14-16.73h2.73l-9,21h-1.82Z" fill="#404040"/><path d="M1662,48.83h-8.58c-.21,1.93.59,4.76,4.52,4.76a6.2,6.2,0,0,0,4-1.68v2a7.07,7.07,0,0,1-4.76,1.65,6.06,6.06,0,0,1-6.3-6.44c0-3.89,2.69-6.41,5.95-6.41a5,5,0,0,1,5.32,4.8A5.71,5.71,0,0,1,1662,48.83Zm-5.11-4.23a3.25,3.25,0,0,0-3.26,2.55h6a1.17,1.17,0,0,0,0-.28C1659.67,45.72,1658.72,44.6,1656.87,44.6Z" fill="#404040"/><path d="M1668.69,48.2v6.93h-2.55V43.2h2.27l.18,2.06a5.62,5.62,0,0,1,4.65-2.52v2.59C1671,44.91,1668.69,46.21,1668.69,48.2Z" fill="#404040"/><path d="M1679.58,62H1677l3.26-7.39L1675.2,43.2h2.52l3.82,9,3.78-9h2.52Z" fill="#404040"/><path d="M1703.52,55.59a5.64,5.64,0,0,1-4.62-2.35l-.14,1.89h-2.28v-21H1699V44.91a5.57,5.57,0,0,1,4.48-2.17c3.18,0,5.81,2.66,5.81,6.41S1706.7,55.59,1703.52,55.59Zm-.63-10.89a4.11,4.11,0,0,0-4,4.48,4.1,4.1,0,0,0,4,4.45c2,0,3.88-1.51,3.88-4.45S1704.85,44.7,1702.89,44.7Z" fill="#404040"/><path d="M1723,55.13l-.14-1.89a5.65,5.65,0,0,1-4.62,2.35c-3.19,0-5.81-2.63-5.81-6.44s2.62-6.41,5.81-6.41a5.75,5.75,0,0,1,4.62,2.35l.14-1.89h2.27V55.13Zm-8-6c0,2.94,1.93,4.45,3.85,4.45a4.11,4.11,0,0,0,4-4.45,4.12,4.12,0,0,0-4-4.48C1716.89,44.7,1715,46.24,1715,49.18Z" fill="#404040"/><path d="M1739.57,55.13l-.14-1.89a5.65,5.65,0,0,1-4.62,2.35c-3.19,0-5.81-2.63-5.81-6.44s2.62-6.41,5.81-6.41a5.57,5.57,0,0,1,4.48,2.17V34.13h2.55v21Zm-8-6c0,2.94,1.93,4.45,3.85,4.45a4.11,4.11,0,0,0,4-4.45,4.12,4.12,0,0,0-4-4.48C1733.48,44.7,1731.55,46.24,1731.55,49.18Z" fill="#404040"/><line x1="1727" y1="64" x2="1727" y2="101" fill="none" stroke="#df2d81" stroke-miterlimit="10" stroke-width="3"/></svg>