<svg id="Layer_1" data-name="Layer 1" xmlns="http://www.w3.org/2000/svg" viewBox="0 0 1879 608"><title>pop-struct</title><rect x="0.5" width="1878" height="606" fill="#fff"/><path d="M1530.4,65.63,1531,63a8.59,8.59,0,0,0,6.38,2.87c2.48,0,4.41-1.4,4.41-3.68,0-2.13-1-3.32-5-4.37s-5.84-3.19-5.84-6.13,2.45-5.46,6.75-5.46a9.47,9.47,0,0,1,5.71,1.92l-.63,2.21a9.34,9.34,0,0,0-5.08-1.86c-2.62,0-4.13,1.23-4.13,3.19,0,1.5,1,2.76,4.24,3.64,4.52,1.19,6.58,3.15,6.58,6.62,0,4.09-3.43,6.19-7,6.19A9.85,9.85,0,0,1,1530.4,65.63Z" fill="#404040"/><path d="M1545.45,46.72h2.87l5,15.51c.1.35.24,1.19.28,1.3a9.41,9.41,0,0,1,.35-1.3l5-15.51h1.75l5,15.51c.14.39.35,1.3.35,1.3a10.2,10.2,0,0,1,.28-1.3l5-15.51h2.73l-7.25,21h-1.75l-5-14.39c-.1-.28-.31-1.05-.35-1.16,0,.07-.24.88-.35,1.16l-5,14.39h-1.75Z" fill="#404040"/><path d="M1576.81,46.72h12.71v2.35h-9.91v6.4h8.16v2.35h-8.16v7.56h9.91v2.35h-12.71Z" fill="#404040"/><path d="M1593.61,46.72h6.51c8.16,0,11.7,4.73,11.7,10.5s-3.54,10.51-11.7,10.51h-6.51Zm6.55,18.56c6.83,0,8.75-3.85,8.75-8.06s-1.92-8-8.75-8h-3.74V65.28Z" fill="#404040"/><path d="M1615.56,46.72h12.71v2.35h-9.91v6.4h8.16v2.35h-8.16v7.56h9.91v2.35h-12.71Z" fill="#404040"/><path d="M1632.36,46.72H1634l12.5,15.65V46.72H1649v21h-1.61l-12.5-15.65V67.73h-2.55Z" fill="#404040"/><path d="M1081.61,93.72h1.61l12.5,15.65V93.72h2.56v21h-1.61l-12.5-15.65v15.65h-2.56Z" fill="#404040"/><path d="M1102,104.23a11.15,11.15,0,1,1,11.17,11.09A10.78,10.78,0,0,1,1102,104.23Zm19.39,0c0-5.11-3.43-8.76-8.22-8.76s-8.27,3.65-8.27,8.76,3.43,8.75,8.27,8.75S1121.41,109.3,1121.41,104.23Z" fill="#404040"/><path d="M1128.06,93.72H1135c4.8,0,6.86,2.77,6.86,6.17a5.61,5.61,0,0,1-4.34,5.84l6.37,9h-3.25l-6-8.68h-3.74v8.68h-2.8Zm6.93,10c3.15,0,4.09-1.89,4.09-3.81s-.94-3.82-4.09-3.82h-4.13v7.63Z" fill="#404040"/><path d="M1144,93.72h2.87l5,15.51c.1.35.24,1.19.28,1.3a9.41,9.41,0,0,1,.35-1.3l5-15.51h1.75l5,15.51c.14.39.35,1.3.35,1.3a10.2,10.2,0,0,1,.28-1.3l5-15.51h2.73l-7.24,21h-1.75l-5-14.39c-.11-.28-.32-1-.35-1.15,0,.07-.25.87-.35,1.15l-5,14.39h-1.75Z" fill="#404040"/><path d="M1180,93.72h1.82l9,21H1188l-2.52-5.88h-9.25l-2.52,5.88H1171Zm4.52,12.85-3.67-8.64-3.68,8.64Z" fill="#404040"/><path d="M1195.92,106.33l-8.22-12.61h3l6.66,10.33,6.65-10.33h2.9l-8.22,12.61v8.4h-2.81Z" fill="#404040"/><path d="M166.91,93.72h6.52c8.15,0,11.69,4.73,11.69,10.51s-3.54,10.5-11.69,10.5h-6.52Zm6.55,18.56c6.83,0,8.75-3.85,8.75-8s-1.92-8.06-8.75-8.06h-3.75v16.11Z" fill="#404040"/><path d="M188.86,93.72h12.71v2.35h-9.91v6.4h8.16v2.35h-8.16v7.56h9.91v2.35H188.86Z" fill="#404040"/><path d="M205.66,93.72h1.61l12.5,15.65V93.72h2.55v21h-1.61l-12.5-15.65v15.65h-2.55Z" fill="#404040"/><path d="M227.08,93.72h2.73l8.12,17.44,8.12-17.44h2.59v21H246V100.41c0-.53.07-1.72.07-1.75s-.53,1.26-.74,1.75l-6.54,14.32h-1.89l-6.55-14.32c-.25-.49-.7-1.65-.74-1.75s.07,1.22.07,1.75v14.32h-2.55Z" fill="#404040"/><path d="M260.4,93.72h1.82l9,21h-2.87l-2.52-5.88h-9.24l-2.52,5.88h-2.73Zm4.52,12.85-3.68-8.65-3.68,8.65Z" fill="#404040"/><path d="M274,93.72h6.93c4.8,0,6.86,2.77,6.86,6.16a5.62,5.62,0,0,1-4.34,5.85l6.37,9h-3.25l-6-8.69h-3.74v8.69H274Zm6.93,10c3.15,0,4.09-1.89,4.09-3.82s-.94-3.81-4.09-3.81h-4.13v7.63Z" fill="#404040"/><path d="M292.25,93.72h2.8v10l9.73-10H308l-10,10,11.38,11h-3.71L295.05,104.4v10.33h-2.8Z" fill="#404040"/><path d="M613.24,93.72h12.7v2.35H616v6.4h8.15v2.35H616v9.91h-2.8Z" fill="#404040"/><path d="M628.78,93.72h2.8v21h-2.8Z" fill="#404040"/><path d="M636.34,93.72H638l12.49,15.65V93.72H653v21h-1.61l-12.5-15.65v15.65h-2.55Z" fill="#404040"/><path d="M657.76,93.72h2.8v18.66h9.9v2.35h-12.7Z" fill="#404040"/><path d="M680.3,93.72h1.82l9,21h-2.87l-2.52-5.88h-9.24L674,114.73h-2.73Zm4.51,12.85-3.67-8.65-3.68,8.65Z" fill="#404040"/><path d="M693.88,93.72h1.61L708,109.37V93.72h2.56v21h-1.61l-12.5-15.65v15.65h-2.55Z" fill="#404040"/><path d="M715.3,93.72h6.51c8.15,0,11.69,4.73,11.69,10.51s-3.54,10.5-11.69,10.5H715.3Zm6.54,18.56c6.83,0,8.75-3.85,8.75-8s-1.92-8.06-8.75-8.06H718.1v16.11Z" fill="#404040"/><rect x="215.5" y="540" width="34" height="34" fill="#002592"/><path d="M121,547.86h-2.24V546l4.9-1.12v21.42H121Z" fill="#404040"/><path d="M142.92,554.48c0,7.42-2.83,12.32-8.78,12.32a8,8,0,0,1-4.52-1.33v-2.42a8.06,8.06,0,0,0,4.48,1.51c3.54,0,6-2.35,6.16-8.82a6.08,6.08,0,0,1-5.35,2.83c-3.71,0-6.55-2.76-6.55-7.07a7,7,0,0,1,7.11-6.93C138.58,544.57,142.92,546.32,142.92,554.48Zm-11.83-3c0,2.84,1.44,4.94,4.38,4.94a4.63,4.63,0,0,0,4.65-4.34c0-3.64-2.31-5.43-4.48-5.43C132.88,546.67,131.09,548.6,131.09,551.5Z" fill="#404040"/><path d="M146.46,560.67a6.36,6.36,0,0,1,4.79-6.12,5,5,0,0,1-3.53-4.9c0-2.91,3-5.08,6.4-5.08s6.37,2.17,6.37,5.08a5,5,0,0,1-3.53,4.9,6.36,6.36,0,0,1,4.79,6.12c0,3.68-3.36,6.2-7.63,6.2S146.46,564.35,146.46,560.67Zm12.63-.35c0-2.76-2.24-4.55-5-4.55s-5,1.79-5,4.55c0,2.59,2.2,4.45,5,4.45S159.09,562.91,159.09,560.32ZM157.9,550c0-2.14-1.68-3.43-3.78-3.43s-3.78,1.29-3.78,3.43a3.79,3.79,0,0,0,7.56,0Z" fill="#404040"/><path d="M165.11,555.7c0-6.93,3.5-11.13,8-11.13s8,4.2,8,11.13-3.46,11.17-8,11.17S165.11,562.67,165.11,555.7Zm13.23,0c0-5.46-2.1-8.89-5.25-8.89s-5.25,3.43-5.25,8.89,2.1,8.93,5.25,8.93S178.34,561.2,178.34,555.7Z" fill="#404040"/><path d="M268.47,564.35l6.06-6.3c1.92-2,3.81-4.24,3.81-7.07,0-3-1.75-4.06-3.78-4.06a8.62,8.62,0,0,0-5.56,2.34v-2.52a9.44,9.44,0,0,1,5.63-2.1c3.85,0,6.48,2.21,6.48,6.13,0,3.64-2.49,6.26-4.17,7.94l-5.28,5.22h9.9v2.34H268.47Z" fill="#404040"/><path d="M284.92,555.7c0-6.93,3.5-11.13,8-11.13s8,4.2,8,11.13-3.46,11.17-8,11.17S284.92,562.67,284.92,555.7Zm13.23,0c0-5.46-2.1-8.89-5.25-8.89s-5.25,3.43-5.25,8.89,2.1,8.93,5.25,8.93S298.15,561.2,298.15,555.7Z" fill="#404040"/><path d="M306.17,547.86h-2.24V546l4.9-1.12v21.42h-2.66Z" fill="#404040"/><path d="M313.76,560.67a6.37,6.37,0,0,1,4.8-6.12,5,5,0,0,1-3.54-4.9c0-2.91,3-5.08,6.41-5.08s6.37,2.17,6.37,5.08a5,5,0,0,1-3.54,4.9,6.37,6.37,0,0,1,4.8,6.12c0,3.68-3.36,6.2-7.63,6.2S313.76,564.35,313.76,560.67Zm12.64-.35c0-2.76-2.24-4.55-5-4.55s-5,1.79-5,4.55c0,2.59,2.21,4.45,5,4.45S326.4,562.91,326.4,560.32ZM325.21,550c0-2.14-1.68-3.43-3.78-3.43s-3.78,1.29-3.78,3.43a3.79,3.79,0,0,0,7.56,0Z" fill="#404040"/><rect x="67.5" y="540" width="34" height="34" fill="#abc3ff"/><polygon points="1329.91 280.54 1329.91 277.72 1309.35 277.72 1309.35 263.6 1288.79 263.6 1288.79 238.28 1268.23 238.28 1268.23 229.97 1247.67 229.97 1247.67 222.37 1227.11 222.37 1227.11 215.11 1206.55 215.11 1206.55 204.76 1185.99 204.76 1185.99 198.92 1164.23 198.92 1164.23 205.75 1143.67 205.75 1143.67 206.74 1124.3 206.74 1124.3 204.98 1103.74 204.98 1103.74 201.89 1081.99 201.89 1081.99 208.5 1061.43 208.5 1061.43 214.17 1040.87 214.17 1040.87 216.58 1021.5 216.58 1021.5 214.16 999.75 214.16 999.75 220.61 979.19 220.61 979.19 301.11 979.19 301.47 979.19 377.63 999.75 377.63 999.75 383.84 1021.5 383.84 1021.5 382.06 1040.87 382.06 1040.87 382.95 1061.43 382.95 1061.43 388 1081.99 388 1081.99 396.73 1103.74 396.73 1103.74 392.9 1124.3 392.9 1124.3 390.25 1143.67 390.25 1143.67 391.57 1164.23 391.57 1164.23 398.55 1185.99 398.55 1185.99 392.76 1206.55 392.76 1206.55 384 1227.11 384 1227.11 379.71 1247.67 379.71 1247.67 372.58 1268.23 372.58 1268.23 367.19 1288.79 367.19 1288.79 344.91 1309.35 344.91 1309.35 332.91 1328.72 332.91 1328.72 341.65 1350.47 341.65 1350.47 301.47 1350.47 301.11 1350.47 280.54 1329.91 280.54" fill="#002592"/><polygon points="1329.86 294.66 1329.86 289.82 1309.32 289.82 1309.32 281.82 1288.77 281.82 1288.77 273.01 1268.23 273.01 1268.23 264.01 1247.68 264.01 1247.68 259.02 1227.14 259.02 1227.14 253 1205.4 253 1205.4 257.96 1184.86 257.96 1184.86 261.2 1165.51 261.2 1165.51 260.92 1144.96 260.92 1144.96 251.12 1124.42 251.12 1124.42 236.31 1102.68 236.31 1102.68 239.45 1083.33 239.45 1083.33 238.27 1062.79 238.27 1062.79 237.79 1042.24 237.79 1042.24 233.28 1020.51 233.28 1020.51 237.07 999.97 237.07 999.97 247.57 979.42 247.57 979.42 300.37 979.42 300.73 979.42 351.07 999.97 351.07 999.97 361.22 1020.51 361.22 1020.51 364.19 1042.24 364.19 1042.24 360.16 1062.79 360.16 1062.79 360.06 1083.33 360.06 1083.33 358.37 1102.68 358.37 1102.68 360.61 1124.42 360.61 1124.42 347.32 1144.96 347.32 1144.96 339.37 1165.51 339.37 1165.51 339.14 1184.86 339.14 1184.86 343.05 1205.4 343.05 1205.4 349.79 1227.14 349.79 1227.14 345.81 1247.68 345.81 1247.68 342.36 1268.23 342.36 1268.23 336.27 1288.77 336.27 1288.77 328.58 1309.32 328.58 1309.32 318.37 1329.86 318.37 1329.86 311.66 1350.4 311.66 1350.4 300.73 1350.4 300.37 1350.4 294.66 1329.86 294.66" fill="#abc3ff"/><polygon points="1785.94 255.74 1785.94 243.8 1765.38 243.8 1765.38 204.01 1744.82 204.01 1744.82 159.6 1723.07 159.6 1723.07 161.68 1703.69 161.68 1703.69 155.81 1683.13 155.81 1683.13 145.28 1662.57 145.28 1662.57 120.88 1640.82 120.88 1640.82 129.02 1620.26 129.02 1620.26 134.15 1600.89 134.15 1600.89 132 1580.33 132 1580.33 118.11 1559.77 118.11 1559.77 104.19 1538.02 104.19 1538.02 140.85 1517.46 140.85 1517.46 149.97 1498.09 149.97 1498.09 143.22 1477.52 143.22 1477.52 136.98 1455.77 136.98 1455.77 140.92 1435.21 140.92 1435.21 303.96 1435.21 304.32 1435.21 458.13 1455.77 458.13 1455.77 462.06 1477.52 462.06 1477.52 455.84 1498.09 455.84 1498.09 443.55 1517.46 443.55 1517.46 454.43 1538.02 454.43 1538.02 493.28 1559.77 493.28 1559.77 480.31 1580.33 480.31 1580.33 467.92 1600.89 467.92 1600.89 467.83 1620.26 467.83 1620.26 474.51 1640.82 474.51 1640.82 481.88 1662.57 481.88 1662.57 459.58 1683.13 459.58 1683.13 452.3 1703.69 452.3 1703.69 449.89 1723.07 449.89 1723.07 455.35 1744.82 455.35 1744.82 414.12 1765.38 414.12 1765.38 380.83 1784.75 380.83 1784.75 392.28 1806.5 392.28 1806.5 304.32 1806.5 303.96 1806.5 255.74 1785.94 255.74" fill="#002592"/><polygon points="1785.86 288.98 1785.86 277.58 1765.29 277.58 1765.29 257.25 1744.72 257.25 1744.72 233.94 1724.15 233.94 1724.15 219.37 1703.58 219.37 1703.58 210.14 1683.01 210.14 1683.01 205.21 1661.25 205.21 1661.25 213.08 1640.68 213.08 1640.68 216.06 1621.3 216.06 1621.3 205.45 1600.73 205.45 1600.73 175.34 1580.16 175.34 1580.16 168.72 1558.41 168.72 1558.41 185.12 1537.84 185.12 1537.84 190.43 1518.46 190.43 1518.46 185.07 1496.7 185.07 1496.7 185.28 1476.13 185.28 1476.13 190.09 1455.56 190.09 1455.56 204.24 1434.99 204.24 1434.99 301.69 1434.99 302.06 1434.99 394.8 1455.56 394.8 1455.56 408.47 1476.13 408.47 1476.13 412.67 1496.7 412.67 1496.7 413.23 1518.46 413.23 1518.46 408.65 1537.84 408.65 1537.84 413.41 1558.41 413.41 1558.41 428.75 1580.16 428.75 1580.16 420.56 1600.73 420.56 1600.73 394.2 1621.3 394.2 1621.3 386.84 1640.68 386.84 1640.68 392.36 1661.25 392.36 1661.25 401.66 1683.01 401.66 1683.01 398.68 1703.58 398.68 1703.58 393.73 1724.15 393.73 1724.15 384.51 1744.72 384.51 1744.72 364.8 1765.29 364.8 1765.29 341.55 1785.86 341.55 1785.86 328.19 1806.43 328.19 1806.43 302.06 1806.43 301.69 1806.43 288.98 1785.86 288.98" fill="#abc3ff"/><polygon points="874.07 273.64 874.07 265.01 853.49 265.01 853.49 249.41 832.92 249.41 832.92 216.54 812.35 216.54 812.35 206.15 791.77 206.15 791.77 204.69 771.2 204.69 771.2 201.49 750.62 201.49 750.62 201.41 728.86 201.41 728.86 213.35 709.47 213.35 709.47 205.37 688.9 205.37 688.9 201.4 667.13 201.4 667.13 202.71 647.75 202.71 647.75 201.76 625.99 201.76 625.99 211.29 605.41 211.29 605.41 217.79 586.03 217.79 586.03 215.66 565.45 215.66 565.45 214.7 543.69 214.7 543.69 225.71 523.11 225.71 523.11 297.34 523.11 297.71 523.11 365.97 543.69 365.97 543.69 376.68 565.45 376.68 565.45 375.81 586.03 375.81 586.03 373.02 605.41 373.02 605.41 379.24 625.99 379.24 625.99 387.83 647.75 387.83 647.75 386.43 667.13 386.43 667.13 387.93 688.9 387.93 688.9 384.87 709.47 384.87 709.47 378.78 728.86 378.78 728.86 392.56 749.43 392.56 749.43 394.57 770.01 394.57 770.01 394.8 790.58 394.8 790.58 396.07 812.35 396.07 812.35 389.89 832.92 389.89 832.92 358.98 853.49 358.98 853.49 346.12 872.88 346.12 872.88 350.83 894.64 350.83 894.64 297.71 894.64 297.34 894.64 273.64 874.07 273.64" fill="#002592"/><polygon points="874.14 298.84 874.14 294.9 853.56 294.9 853.56 287.12 832.98 287.12 832.98 276.25 812.4 276.25 812.4 269.29 791.83 269.29 791.83 266.86 771.25 266.86 771.25 255.95 750.67 255.95 750.67 247.91 728.9 247.91 728.9 248.91 709.51 248.91 709.51 244.98 688.93 244.98 688.93 234.81 668.36 234.81 668.36 211.61 646.58 211.61 646.58 220.17 626 220.17 626 224.73 605.43 224.73 605.43 225.26 584.85 225.26 584.85 232.35 564.27 232.35 564.27 241.05 544.89 241.05 544.89 237.34 523.11 237.34 523.11 301.26 523.11 301.63 523.11 362.72 544.89 362.72 544.89 358.97 564.27 358.97 564.27 367.79 584.85 367.79 584.85 374.49 606.62 374.49 606.62 374.44 626 374.44 626 378.6 646.58 378.6 646.58 385.86 668.36 385.86 668.36 364.91 688.93 364.91 688.93 356.95 709.51 356.95 709.51 353.87 728.9 353.87 728.9 358 750.67 358 750.67 357.43 771.25 357.43 771.25 350.01 791.83 350.01 791.83 349.95 812.4 349.95 812.4 344.34 832.98 344.34 832.98 330.46 853.56 330.46 853.56 317.66 874.14 317.66 874.14 309.39 894.72 309.39 894.72 301.63 894.72 301.26 894.72 298.84 874.14 298.84" fill="#abc3ff"/><path d="M61.64,478c0-5.94,3-9.54,6.83-9.55s6.85,3.6,6.85,9.54-3,9.57-6.83,9.57S61.65,483.94,61.64,478ZM73,478c0-4.68-1.81-7.62-4.51-7.62S64,473.29,64,478s1.81,7.65,4.51,7.64S73,482.67,73,478Z" fill="#404040"/><path d="M423.75,481.89a5.48,5.48,0,0,1,4.08-5.27,4.29,4.29,0,0,1-3-4.18c0-2.49,2.55-4.36,5.46-4.38s5.47,1.84,5.48,4.33a4.31,4.31,0,0,1-3,4.21,5.46,5.46,0,0,1,4.14,5.23c0,3.15-2.86,5.33-6.52,5.34S423.76,485,423.75,481.89Zm10.83-.35a4.29,4.29,0,0,0-8.55,0c0,2.22,1.91,3.8,4.3,3.79S434.59,483.76,434.58,481.54Zm-1.06-8.84a3,3,0,0,0-3.26-2.93,3,3,0,0,0-3.22,3,3.25,3.25,0,0,0,6.48,0Z" fill="#404040"/><path d="M439.75,485.36v-2.25a6.88,6.88,0,0,0,5,2.17,4.16,4.16,0,0,0,4.12-4.49c0-2.22-1.22-4.05-3.68-4a3.69,3.69,0,0,0-3.64,2.39l-1.21-.74,0-9.78,10.08-.05v2l-8.22,0,0,5.58a4.84,4.84,0,0,1,3.36-1.31,5.53,5.53,0,0,1,5.6,5.89,6.1,6.1,0,0,1-6.36,6.33A7.89,7.89,0,0,1,439.75,485.36Z" fill="#404040"/><path d="M458.15,480.48l-4.56,0v-1.62l4.56,0,0-4.57h1.62l0,4.56,4.56,0v1.62l-4.56,0,0,4.56h-1.62Z" fill="#404040"/><polyline points="67.51 494.21 67.52 505 438.52 504.6 438.51 493.81" fill="none" stroke="#404040" stroke-linecap="round" stroke-linejoin="round"/><path d="M516.64,478c0-5.94,3-9.54,6.83-9.55s6.85,3.6,6.85,9.54-3,9.57-6.83,9.57S516.65,483.94,516.64,478ZM528,478c0-4.68-1.81-7.62-4.51-7.62s-4.49,3-4.49,7.63,1.81,7.65,4.51,7.64S528,482.67,528,478Z" fill="#404040"/><path d="M878.75,481.89a5.48,5.48,0,0,1,4.08-5.27,4.29,4.29,0,0,1-3-4.18c0-2.49,2.55-4.36,5.46-4.38s5.47,1.84,5.48,4.33a4.31,4.31,0,0,1-3,4.21,5.46,5.46,0,0,1,4.14,5.23c0,3.15-2.86,5.33-6.52,5.34S878.76,485,878.75,481.89Zm10.83-.35a4.29,4.29,0,0,0-8.55,0c0,2.22,1.91,3.8,4.3,3.79S889.59,483.76,889.58,481.54Zm-1.06-8.84a3,3,0,0,0-3.26-2.93,3,3,0,0,0-3.22,3,3.25,3.25,0,0,0,6.48,0Z" fill="#404040"/><path d="M894.75,485.36v-2.25a6.88,6.88,0,0,0,5,2.17,4.16,4.16,0,0,0,4.12-4.49c0-2.22-1.22-4.05-3.68-4a3.69,3.69,0,0,0-3.64,2.39l-1.21-.74,0-9.78,10.08-.05v2l-8.22,0,0,5.58a4.84,4.84,0,0,1,3.36-1.31,5.53,5.53,0,0,1,5.6,5.89,6.1,6.1,0,0,1-6.36,6.33A7.89,7.89,0,0,1,894.75,485.36Z" fill="#404040"/><path d="M913.15,480.48l-4.56,0v-1.62l4.56,0,0-4.57h1.62l0,4.56,4.56,0v1.62l-4.56,0,0,4.56h-1.62Z" fill="#404040"/><polyline points="522.51 494.21 522.52 505 893.52 504.6 893.51 493.81" fill="none" stroke="#404040" stroke-linecap="round" stroke-linejoin="round"/><path d="M972.64,478c0-5.94,3-9.54,6.83-9.55s6.85,3.6,6.85,9.54-3,9.57-6.83,9.57S972.65,483.94,972.64,478ZM984,478c0-4.68-1.81-7.62-4.51-7.62s-4.49,3-4.49,7.63,1.81,7.65,4.51,7.64S984,482.67,984,478Z" fill="#404040"/><path d="M1334.75,481.89a5.48,5.48,0,0,1,4.08-5.27,4.29,4.29,0,0,1-3-4.18c0-2.49,2.55-4.36,5.46-4.38s5.47,1.84,5.48,4.33a4.31,4.31,0,0,1-3,4.21,5.46,5.46,0,0,1,4.14,5.23c0,3.15-2.86,5.33-6.52,5.34S1334.76,485,1334.75,481.89Zm10.83-.35a4.29,4.29,0,0,0-8.55,0c0,2.22,1.91,3.8,4.3,3.79S1345.59,483.76,1345.58,481.54Zm-1.06-8.84a3,3,0,0,0-3.26-2.93,3,3,0,0,0-3.22,3,3.25,3.25,0,0,0,6.48,0Z" fill="#404040"/><path d="M1350.75,485.36v-2.25a6.88,6.88,0,0,0,5,2.17,4.16,4.16,0,0,0,4.12-4.49c0-2.22-1.22-4.05-3.68-4a3.69,3.69,0,0,0-3.64,2.39l-1.21-.74,0-9.78,10.08-.05v2l-8.22,0,0,5.58a4.84,4.84,0,0,1,3.36-1.31,5.53,5.53,0,0,1,5.6,5.89,6.1,6.1,0,0,1-6.36,6.33A7.89,7.89,0,0,1,1350.75,485.36Z" fill="#404040"/><path d="M1369.15,480.48l-4.56,0v-1.62l4.56,0,0-4.57h1.62l0,4.56,4.56,0v1.62l-4.56,0,0,4.56h-1.62Z" fill="#404040"/><polyline points="978.51 494.21 978.52 505 1349.52 504.6 1349.51 493.81" fill="none" stroke="#404040" stroke-linecap="round" stroke-linejoin="round"/><path d="M1426.64,478c0-5.94,3-9.54,6.83-9.55s6.85,3.6,6.85,9.54-3,9.57-6.83,9.57S1426.65,483.94,1426.64,478Zm11.34,0c0-4.68-1.81-7.62-4.51-7.62s-4.49,3-4.49,7.63,1.81,7.65,4.51,7.64S1438,482.67,1438,478Z" fill="#404040"/><path d="M1788.75,481.89a5.48,5.48,0,0,1,4.08-5.27,4.29,4.29,0,0,1-3-4.18c0-2.49,2.55-4.36,5.46-4.38s5.47,1.84,5.48,4.33a4.31,4.31,0,0,1-3,4.21,5.46,5.46,0,0,1,4.14,5.23c0,3.15-2.86,5.33-6.52,5.34S1788.76,485,1788.75,481.89Zm10.83-.35a4.29,4.29,0,0,0-8.55,0c0,2.22,1.91,3.8,4.3,3.79S1799.59,483.76,1799.58,481.54Zm-1.06-8.84a3,3,0,0,0-3.26-2.93,3,3,0,0,0-3.22,3,3.25,3.25,0,0,0,6.48,0Z" fill="#404040"/><path d="M1804.75,485.36v-2.25a6.88,6.88,0,0,0,5,2.17,4.16,4.16,0,0,0,4.12-4.49c0-2.22-1.22-4.05-3.68-4a3.69,3.69,0,0,0-3.64,2.39l-1.21-.74,0-9.78,10.08-.05v2l-8.22,0,0,5.58a4.84,4.84,0,0,1,3.36-1.31,5.53,5.53,0,0,1,5.6,5.89,6.1,6.1,0,0,1-6.36,6.33A7.89,7.89,0,0,1,1804.75,485.36Z" fill="#404040"/><path d="M1823.15,480.48l-4.56,0v-1.62l4.56,0,0-4.57h1.62l0,4.56,4.56,0v1.62l-4.56,0,0,4.56h-1.62Z" fill="#404040"/><polyline points="1432.51 494.21 1432.52 505 1803.52 504.6 1803.51 493.81" fill="none" stroke="#404040" stroke-linecap="round" stroke-linejoin="round"/><polygon points="437.98 278.08 417.47 278.08 417.47 268.03 396.95 268.03 396.95 246.21 376.44 246.21 376.44 216.78 354.73 216.78 354.73 217.79 335.41 217.79 335.41 211.24 314.89 211.24 314.89 201.46 294.38 201.46 294.38 188.04 272.67 188.04 272.67 196.97 252.16 196.97 252.16 201.47 231.64 201.47 231.64 211.46 212.31 211.46 212.31 207.18 191.8 207.18 191.8 194.52 170.1 194.52 170.1 195.17 149.58 195.17 149.58 207.24 129.07 207.24 129.07 208.87 108.55 208.87 108.55 214.99 88.04 214.99 88.04 218.09 67.52 218.09 67.52 299.43 67.52 300.06 67.52 377.43 88.1 377.43 88.1 380.43 108.68 380.43 108.68 386.43 129.26 386.43 129.26 388.43 149.84 388.43 149.84 400.43 170.41 400.43 190.99 400.43 190.99 388.43 211.57 388.43 211.57 386.43 232.15 386.43 232.15 397.43 252.73 397.43 252.73 401.43 273.31 401.43 273.31 409.43 293.89 409.43 293.89 397.43 314.46 397.43 314.46 390.43 335.04 390.43 335.04 385.43 355.62 385.43 355.62 388.43 376.2 388.43 376.2 361.43 396.78 361.43 396.78 341.43 417.36 341.43 437.94 341.43 437.94 300.06 437.98 300.06 437.98 278.08" fill="#002592"/><polygon points="417.99 314.63 438.5 314.61 438.49 300.54 438.48 300.54 438.48 293.53 417.98 293.54 417.98 288.14 397.48 288.16 397.47 278.17 376.96 278.18 376.94 266.2 356.42 266.21 356.41 255.99 335.88 256.01 335.87 252.51 315.34 252.52 315.33 245.58 293.66 245.6 293.66 247.67 274.25 247.69 274.25 247.64 253.7 247.66 253.7 242.29 233.15 242.31 233.14 228.34 212.57 228.35 212.56 216.26 190.89 216.28 190.9 225.48 170.32 225.5 170.32 226.03 150.86 226.04 150.86 222.38 130.29 222.4 130.29 220.95 108.62 220.97 108.63 227.95 88.06 227.97 88.06 236.41 67.5 236.43 67.56 300.87 67.52 300.87 67.59 362.8 88.14 362.79 88.14 370.93 108.7 370.92 108.71 377.12 130.38 377.11 130.38 376.19 150.94 376.18 150.94 372.32 170.39 372.31 170.39 372.98 190.95 372.96 190.96 381.21 212.63 381.19 212.62 370.5 233.19 370.48 233.18 358.46 253.73 358.45 253.73 354.7 273.15 354.69 273.15 355.74 293.69 355.73 293.69 359.46 315.36 359.45 315.36 353.22 335.9 353.2 335.9 352.66 356.44 352.64 356.43 345.64 376.97 345.62 376.96 334.73 397.49 334.71 397.48 322.48 418 322.46 417.99 314.63" fill="#abc3ff"/></svg>